<svg width="331" height="316" viewBox="0 0 331 316" fill="none" xmlns="http://www.w3.org/2000/svg">
<path d="M22.9007 107.789L38.1628 119.236L64.8716 128.774L103.027 137.359L137.367 141.175L153.583 151.668V165.022L144.998 174.561L117.335 190.777L103.027 219.393L88.7186 226.071L79.1798 219.393L91.5803 206.993H74.4104H55.3327L47.7017 205.085L41.0245 199.362L53.425 193.639L71.5487 184.1V181.238H50.5633L39.1167 176.469L29.5779 169.791L20.0391 159.299H48.6556L38.1628 151.668L30.5318 144.037L25.7624 133.544L21.9468 116.374L22.9007 107.789Z" fill="#FF00AE"/>
<path d="M328.146 123.051L312.884 134.497L286.175 144.036L248.02 152.621L213.68 156.437L197.464 166.929V180.284L206.049 189.823L233.712 206.039L259.467 222.255H276.636H295.714L303.345 220.347L310.022 214.624L297.622 208.9L279.498 199.361V196.5H300.484L311.93 191.73L321.469 185.053L331.008 174.56H302.391L312.884 166.929L320.515 159.298L325.285 148.806L329.1 131.636L328.146 123.051Z" fill="#FF00AE"/>
<path d="M107.716 92.9099C105.245 97.0648 103.621 101.667 102.938 106.453L102.316 110.804C101.524 116.349 102.034 122.002 103.805 127.316V127.316C105.791 133.272 109.296 138.607 113.975 142.794L117.852 146.263C122.556 150.471 127.94 153.849 133.776 156.252L138.913 158.367C139.902 158.775 140.063 160.109 139.198 160.74L112.878 179.931C101.888 187.945 95.3883 200.728 95.3883 214.33V214.33C95.3883 214.517 95.3092 214.695 95.1705 214.821L78.5904 229.822C76.8785 231.371 74.1941 231.056 72.8863 229.154L64.864 217.485L55.3252 200.315L52.5146 195.631C48.7317 189.326 43.3568 184.127 36.9294 180.557L35.4865 179.755C31.5814 177.586 27.2839 176.214 22.844 175.721L17.202 175.094C14.0752 174.747 10.9168 175.359 8.14686 176.851L3.76872 179.208C1.44751 180.458 0 182.882 0 185.518V187.288C0 190.269 2.41586 192.684 5.39598 192.684V192.684C6.82708 192.684 8.19957 192.116 9.21151 191.104L10.9697 189.346C13.1073 187.208 16.0066 186.007 19.0297 186.007H20.08C22.5471 186.007 24.97 186.662 27.101 187.905L30.0151 189.605C33.4883 191.631 36.453 194.423 38.6834 197.769L46.7403 209.854L67.1423 241.385C67.5173 241.964 67.659 242.664 67.5391 243.344V243.344C65.7591 253.43 64.864 263.653 64.864 273.895V281.396V283.017C64.864 290.018 67.1097 296.834 71.2711 302.464L78.7905 312.638C80.2305 314.586 82.5094 315.735 84.9321 315.735V315.735C86.7551 315.735 88.5181 315.083 89.9023 313.897L93.4962 310.816C98.2994 306.699 104.739 305.039 110.934 306.321L114.574 307.074C122.709 308.757 130.836 304.171 133.6 296.338V296.338C134.195 294.654 135.058 293.075 136.154 291.666V291.666C139.318 287.598 144.188 285.211 149.341 285.211H150.767C151.999 285.211 153.228 285.351 154.428 285.628V285.628C160.842 287.108 167.515 284.582 171.341 279.226L177.357 270.803C178.669 268.967 180.172 267.276 181.841 265.758L184.972 262.912C188.146 260.027 192.045 258.058 196.251 257.217L198.065 256.854C201.999 256.067 205.563 254.004 208.204 250.985V250.985C209.92 249.024 211.196 246.718 211.944 244.222L213.67 238.471L214.438 233.673C216.252 222.329 225.202 213.466 236.563 211.762V211.762V211.762C242.251 210.814 245.399 204.633 242.82 199.475L242.047 197.929C241.574 196.983 240.951 196.118 240.202 195.37L231.477 186.645C227.88 183.047 224.609 179.137 221.704 174.961L211.728 160.621C211.278 159.974 211.601 159.077 212.36 158.864L222.489 156.028C230.409 153.81 237.458 149.218 242.687 142.869V142.869C246.198 138.606 248.793 133.665 250.31 128.354L251.105 125.572C254.011 115.401 252.788 104.494 247.702 95.2195L247.197 94.2999C242.234 85.2487 241.196 74.559 244.326 64.7221V64.7221C245.503 61.0234 246.102 57.1652 246.102 53.2837V37.2014L242.387 10.4571C241.954 7.33601 238.138 6.05587 235.91 8.28398L224.163 20.0315L199.516 43.7654C198.805 44.45 197.856 44.8325 196.869 44.8325H161.006C159.919 44.8325 158.885 44.3694 158.161 43.5594L122.402 3.54365C121.016 1.99303 118.467 2.56013 117.87 4.55196L116.021 10.715C112.46 22.5857 110.65 34.9128 110.65 47.3062V52.8556C110.65 55.7694 110.877 58.6788 111.329 61.5575L112.419 68.5084C113.742 76.9418 112.078 85.5724 107.716 92.9099V92.9099Z" fill="#FFB4DA"/>
<path d="M103.016 297.611L115.29 293.008C117.274 292.264 119.154 291.269 120.884 290.048L129.995 283.617C132.958 281.525 135.426 278.809 137.226 275.66L139.22 272.17C141.13 268.827 142.236 265.086 142.449 261.241L142.964 251.979C143.04 250.607 143.002 249.23 142.851 247.864L142.125 241.332M142.125 241.332L133.133 239.257C130.872 238.735 128.695 237.898 126.666 236.771L121.139 233.701L114.331 230.297C112.518 229.39 110.822 228.264 109.282 226.945L98.2461 217.485M142.125 241.332L143.949 240.648C147.709 239.238 150.881 236.596 152.947 233.152L153.85 231.647C154.916 229.87 155.479 227.837 155.479 225.765V225.765C155.479 222.335 153.94 219.087 151.286 216.916L147.397 213.734C145.798 212.426 144.023 211.349 142.123 210.535L131.632 206.038M131.632 206.038L124.955 201.269M131.632 206.038L135.448 201.269L144.986 186.007M191.727 258.502L189.722 253.992C188.524 251.297 187.817 248.41 187.633 245.466L187.182 238.259C187.033 235.869 187.231 233.47 187.769 231.136L188.097 229.714C189.212 224.883 191.925 220.569 195.797 217.472V217.472C198.146 215.593 200.855 214.215 203.757 213.423L209.85 211.762M209.85 211.762H232.744M209.85 211.762V204.131V191.569C209.85 187.929 208.861 184.358 206.989 181.237V181.237M138.309 71.5409L139.909 70.5413C143.85 68.0777 148.405 66.7715 153.053 66.7715H161.202M198.404 71.5409V71.5409C202.121 74.6388 206.734 76.4636 211.564 76.7478L220.343 77.2642M161.202 124.958V127.399C161.202 129.907 162.865 132.11 165.276 132.799V132.799C166.921 133.269 168.691 132.964 170.083 131.969L171.786 130.753C173.582 129.47 174.901 127.627 175.535 125.512L175.702 124.957C176.213 123.254 178.624 123.254 179.135 124.957L179.467 126.064C179.997 127.831 181.036 129.404 182.454 130.585L182.864 130.927C184.844 132.577 187.477 133.216 189.992 132.657V132.657C192.844 132.023 195.153 129.94 196.077 127.169L196.496 125.912" stroke="white" stroke-width="1.90777"/>
<path d="M124.199 12.8174C122.086 10.6083 118.363 11.657 117.714 14.6443L115.035 26.9663C114.659 28.6972 114.469 30.4635 114.469 32.2348V54.3711L115.338 63.4944C115.679 67.0785 120.355 68.2139 122.302 65.1853C124.058 62.4542 126.336 60.0969 129.005 58.2489L135.669 53.6356C136.796 52.8555 137.985 52.17 139.225 51.5864L148.998 46.9877C151.292 45.9078 151.915 42.9313 150.245 41.0228L140.224 29.5702L124.199 12.8174Z" fill="#001AFF"/>
<path d="M207.677 43.1015C205.904 44.9221 206.373 47.9342 208.615 49.1299L214.937 52.5017C217.259 53.7401 219.369 55.3402 221.188 57.2419L233.88 70.5104C236.102 72.8334 240.024 71.536 240.423 68.3463L241.335 61.0483V29.5702L240.243 18.6442C239.92 15.4176 235.974 14.0388 233.712 16.3621L207.677 43.1015Z" fill="#001AFF"/>
<path fill-rule="evenodd" clip-rule="evenodd" d="M126.003 90.6191C125.331 92.7245 124.969 94.968 124.969 97.2962C124.969 109.413 134.791 119.235 146.908 119.235C159.025 119.235 168.847 109.413 168.847 97.2962C168.847 94.968 168.485 92.7245 167.813 90.6191H126.003Z" fill="white"/>
<path fill-rule="evenodd" clip-rule="evenodd" d="M130.163 90.6191C129.626 92.3032 129.336 94.0976 129.336 95.9598C129.336 105.653 137.194 113.511 146.887 113.511C156.581 113.511 164.439 105.653 164.439 95.9598C164.439 94.0976 164.149 92.3032 163.612 90.6191H130.163Z" fill="#001AFF"/>
<path fill-rule="evenodd" clip-rule="evenodd" d="M187.05 90.6191C186.378 92.7245 186.016 94.968 186.016 97.2962C186.016 109.413 195.838 119.235 207.955 119.235C220.072 119.235 229.894 109.413 229.894 97.2962C229.894 94.968 229.532 92.7245 228.86 90.6191H187.05Z" fill="white"/>
<path fill-rule="evenodd" clip-rule="evenodd" d="M191.226 90.6191C190.688 92.3032 190.398 94.0976 190.398 95.9598C190.398 105.653 198.256 113.511 207.95 113.511C217.643 113.511 225.501 105.653 225.501 95.9598C225.501 94.0976 225.211 92.3032 224.674 90.6191H191.226Z" fill="#001AFF"/>
<path d="M158.343 237.517L204.13 200.316L173.605 195.547L167.282 199.362L165.974 203.178L163.113 206.516V206.993L158.343 237.517Z" fill="#FFB4DA"/>
<path d="M155.109 228.1C154.737 231.072 155.583 234.067 157.454 236.406L158.343 237.517L163.113 206.993V206.516L134.496 206.993L140.009 209.75C141.419 210.454 142.768 211.275 144.043 212.202L149.66 216.287C151.597 217.696 153.118 219.602 154.062 221.804L154.297 222.354C155.073 224.163 155.353 226.147 155.109 228.1Z" fill="#FFB4DA"/>
<path d="M177.421 168.838L134.496 206.993L163.113 206.516L165.974 203.178L167.282 199.362L177.421 168.838Z" fill="#FFB4DA"/>
<path d="M204.13 200.316L177.421 168.838L167.282 199.362L173.605 195.547L204.13 200.316Z" fill="#FFB4DA"/>
<path d="M134.496 206.993L177.421 168.838M134.496 206.993L140.009 209.75C141.419 210.454 142.768 211.275 144.043 212.202L149.66 216.287C151.597 217.696 153.118 219.602 154.062 221.804L154.297 222.354C155.073 224.163 155.353 226.147 155.109 228.1V228.1C154.737 231.072 155.583 234.067 157.454 236.406L158.343 237.517M134.496 206.993L163.113 206.516M177.421 168.838L204.13 200.316M177.421 168.838L167.282 199.362M204.13 200.316L158.343 237.517M204.13 200.316L173.605 195.547L167.282 199.362M158.343 237.517L163.113 206.993V206.516M163.113 206.516L165.974 203.178L167.282 199.362" stroke="white" stroke-width="1.90777"/>
<path fill-rule="evenodd" clip-rule="evenodd" d="M162.559 197.822L172.031 209.945L172.881 206.157L173.815 201.083L174.007 199.012C174.11 197.905 174.092 196.791 173.954 195.687L173.701 194.599C173.563 194.006 173.336 193.438 173.027 192.914C172.778 192.492 172.478 192.103 172.134 191.755L171.346 190.956L162.559 197.822Z" fill="#001AFF"/>
<path d="M162.559 197.822L162.539 196.299C162.528 195.434 162.695 194.576 163.031 193.778L163.132 193.538C163.482 192.708 164.038 191.98 164.749 191.425C165.371 190.939 166.093 190.599 166.864 190.429L166.981 190.403C167.963 190.187 168.984 190.228 169.945 190.524L171.346 190.956L162.559 197.822Z" fill="#001AFF"/>
<path fill-rule="evenodd" clip-rule="evenodd" d="M162.559 197.822L172.031 209.945L168.453 209.651L163.068 209.221L161.2 208.975C160.109 208.831 159.041 208.548 158.021 208.135L157.046 207.62C156.507 207.335 156.013 206.971 155.581 206.541C155.234 206.198 154.93 205.814 154.675 205.398L154.086 204.442L162.559 197.822Z" fill="#001AFF"/>
<path d="M162.559 197.822L161.077 197.403C160.278 197.178 159.442 197.121 158.621 197.236L158.339 197.275C157.48 197.395 156.667 197.739 155.983 198.274C155.383 198.742 154.9 199.343 154.571 200.029L154.51 200.157C154.093 201.026 153.91 201.989 153.979 202.95L154.086 204.442L162.559 197.822Z" fill="#001AFF"/>
</svg>
