<svg width="275" height="354" viewBox="0 0 275 354" fill="none" xmlns="http://www.w3.org/2000/svg">
<path d="M271.748 100L256.486 111.447L229.777 120.985L191.622 129.57L157.282 133.386L141.066 143.879V157.233L149.651 166.772L177.313 182.988L191.622 211.604L205.93 218.281L215.469 211.604L203.068 199.204H220.238H239.316L246.947 197.296L253.624 191.573L241.223 185.849L223.1 176.311V173.449H244.085L255.532 168.68L265.071 162.002L274.609 151.51H245.993L256.486 143.879L264.117 136.248L268.886 125.755L272.702 108.585L271.748 100Z" fill="#FF00AE"/>
<path d="M271.748 100L256.486 111.447L229.777 120.985L191.622 129.57L157.282 133.386L141.066 143.879V157.233L149.651 166.772L177.313 182.988L191.622 211.604L205.93 218.281L215.469 211.604L203.068 199.204H220.238H239.316L246.947 197.296L253.624 191.573L241.223 185.849L223.1 176.311V173.449H244.085L255.532 168.68L265.071 162.002L274.609 151.51H245.993L256.486 143.879L264.117 136.248L268.886 125.755L272.702 108.585L271.748 100Z" fill="#FF00AE"/>
<path d="M27.9241 106L43.1863 117.447L69.895 126.985L108.05 135.57L142.39 139.386L158.606 149.879V163.233L150.021 172.772L122.359 188.988L108.05 217.604L93.7421 224.281L84.2032 217.604L96.6037 205.204H79.4338H60.3562L52.7251 203.296L46.0479 197.573L58.4484 191.849L76.5722 182.311V179.449H55.5868L44.1402 174.68L34.6013 168.002L25.0625 157.51H53.679L43.1863 149.879L35.5552 142.248L30.7858 131.755L26.9703 114.585L27.9241 106Z" fill="#FF00AE"/>
<path d="M224.679 275.778C224.417 276.33 224.387 276.965 224.596 277.539L227.633 285.891L229.011 289.473C230.83 294.203 230.83 299.44 229.011 304.171C228.1 306.538 226.758 308.716 225.051 310.593L213.132 323.704C211.596 325.394 209.831 326.862 207.889 328.064L198.604 333.811C195.339 335.833 191.155 335.58 188.156 333.181C186.003 331.459 184.75 328.851 184.75 326.093V323.898C184.75 321.054 185.638 318.281 187.291 315.967L191.662 309.848C192.658 308.454 193.767 307.144 194.978 305.933L199.108 301.803C202.297 298.614 204.089 294.288 204.089 289.777C204.089 289.488 203.855 289.254 203.566 289.254H188.113H177.114C175.858 289.254 174.929 290.423 175.211 291.646L175.389 292.416C176.579 297.571 177.054 302.865 176.803 308.15L176.714 310.012C176.467 315.197 175.357 320.303 173.429 325.123C172.012 328.665 170.166 332.02 167.933 335.113L163.232 341.622C161.333 344.251 159.019 346.553 156.38 348.438L150.419 352.695C149.231 353.544 147.808 354 146.348 354H146.07C142.355 354 139.343 350.988 139.343 347.273C139.343 346.169 139.615 345.082 140.135 344.108L146.07 332.979L152.933 320.626C153.908 318.871 154.016 316.763 153.225 314.917C152.425 313.052 150.801 311.668 148.832 311.176L140.342 309.054C136.915 308.197 133.718 306.598 130.977 304.371L124.639 299.222C122.674 297.625 120.862 295.849 119.227 293.916C114.772 288.652 111.727 282.344 110.374 275.582L109.639 271.904C109.262 270.022 109.073 268.107 109.073 266.187C109.073 256.902 113.586 248.106 121.074 242.615C121.426 242.357 121.547 241.881 121.358 241.489L109.073 216.1L94.8847 189.3C94.3018 188.199 93.158 187.511 91.9121 187.511H88.4851C82.0422 187.511 75.6118 186.941 69.2692 185.808L55.2578 183.306L35.9182 180.784H26.5365C22.1666 180.784 18.3576 177.81 17.2977 173.57L17.1985 173.174C16.7947 171.558 16.8915 169.859 17.4761 168.3C18.4848 165.61 20.8262 163.643 23.6498 163.114L32.5547 161.444L40.0592 160.259C45.6984 159.369 51.3987 158.922 57.1077 158.922H65.2652C70.3479 158.922 75.4128 158.322 80.3551 157.136L86.2833 155.713C91.3277 154.503 96.0555 152.229 100.15 149.044C100.789 148.547 100.707 147.559 99.996 147.173L87.7172 140.522C83.4776 138.226 79.5927 135.328 76.1833 131.918L73.7991 129.534C67.765 123.5 63.8321 115.685 62.5815 107.244C61.6372 100.87 62.256 94.3615 64.3847 88.2797L67.0298 80.7221C70.9067 72.4145 72.9158 63.3583 72.9158 54.1906V44.5653V43.2611C72.9158 31.8681 74.6969 20.5451 78.1946 9.70227L79.5856 5.39003C80.3692 2.96079 83.4671 2.25549 85.2251 4.10606L97.3006 16.8171L113.951 39.8112C114.584 40.6847 115.597 41.2019 116.676 41.2019H121.458C128.321 41.2019 135.169 41.8483 141.911 43.1325L147.907 44.2746C148.876 44.459 149.876 44.2093 150.644 43.5914L183.934 16.8153C185.867 15.2602 188.761 16.2622 189.319 18.6798L190.366 23.2171C192.221 31.257 193.158 39.4815 193.158 47.7327V52.3188C193.158 57.2253 192.621 62.1171 191.557 66.9068L190.332 72.4192C188.873 78.9854 188.962 85.8011 190.594 92.3265C192.279 99.0662 192.318 106.112 190.709 112.87L190.063 115.583C189.327 118.677 188.201 121.665 186.713 124.475C183.239 131.036 177.903 136.423 171.376 139.959L164.97 143.429C163.739 144.096 164.048 145.942 165.428 146.172L170.301 146.984C174.275 147.646 178.045 149.208 181.324 151.55L182.204 152.178C186.05 154.925 188.957 158.79 190.53 163.247L191.084 164.818C192.428 168.626 192.465 172.774 191.188 176.605C189.751 180.915 186.75 184.53 182.779 186.737L182.159 187.081C181.784 187.29 181.732 187.807 182.057 188.086L193.158 197.601L216.396 217.934C218.834 220.067 221.016 222.476 222.899 225.112C223.492 225.942 224.767 225.788 225.145 224.842L225.728 223.385C226.996 220.214 228.03 216.954 228.821 213.632L230.061 208.424C231.241 203.468 231.837 198.391 231.837 193.296C231.837 189.447 231.497 185.605 230.82 181.815L227.633 163.967L225.096 135.429C224.547 129.249 224.713 123.027 225.59 116.885L227.277 105.077C227.513 103.428 228.039 101.835 228.832 100.37L236.06 87.0264C237.268 84.7969 240.335 84.4702 241.986 86.3953C242.963 87.5357 243.134 89.1617 242.415 90.4803L238.564 97.5392C234.148 105.82 231.837 115.061 231.837 124.447V126.128L236.042 158.922L238.975 173.1C240.379 179.887 241.087 186.799 241.087 193.729V197.149C241.087 199.689 240.906 202.227 240.547 204.741C239.247 213.843 235.631 222.458 230.047 229.761L228.275 232.077C227.874 232.602 227.758 233.293 227.968 233.92L229.831 239.511C231.16 243.497 231.837 247.672 231.837 251.874C231.837 257.662 230.552 263.379 228.074 268.61L224.679 275.778Z" fill="#FFB4DA"/>
<path d="M171.298 221.143L167.512 224.584C163.925 227.846 161.196 231.94 159.565 236.505V236.505C158.426 239.694 157.844 243.054 157.844 246.439V248.144C157.844 255.752 160.143 263.182 164.439 269.46V269.46C167.301 273.643 170.975 277.206 175.244 279.938L189.797 289.252M173.821 289.252L172.827 289.066C164.635 287.53 156.918 284.092 150.297 279.029V279.029C147.488 276.881 144.899 274.458 142.57 271.796L140.73 269.693C136.459 264.812 132.788 259.436 129.796 253.682L123.369 241.323M180.547 188.349L160.367 186.668L147.343 185.626C142.021 185.2 136.742 184.335 131.562 183.04L120.702 180.325C119.682 180.07 118.699 179.682 117.78 179.171L116.921 178.694C113.635 176.869 111.597 173.405 111.597 169.646V169.646C111.597 166.108 113.405 162.814 116.391 160.914L117.641 160.119C119.735 158.786 122.165 158.079 124.647 158.079H144.391H164.571M80.4857 73.1523L88.2552 79.4651C91.9748 82.4873 94.8044 86.4623 96.4423 90.9664V90.9664C96.691 91.6505 95.8897 92.2338 95.3152 91.7869L93.8391 90.6389C91.1118 88.5176 88.1547 86.7094 85.0237 85.2482L77.1223 81.5609M119.165 114.354L118.957 114.532C115.704 117.321 110.892 117.277 107.689 114.431V114.431C106.401 113.285 105.488 111.778 105.07 110.105L104.355 107.247C104.243 106.8 103.636 106.733 103.43 107.145L101.353 111.299C100.9 112.205 100.265 113.007 99.4867 113.656L99.1998 113.895C97.0431 115.692 94.0031 115.978 91.5489 114.614V114.614C89.3915 113.416 88.0534 111.142 88.0534 108.674V105.946" stroke="white" stroke-width="1.68171"/>
<circle cx="19.3397" cy="19.3397" r="19.3397" transform="matrix(-1 0 0 1 159.531 74.8359)" fill="#FFEAF5"/>
<circle cx="15.1354" cy="15.1354" r="15.1354" transform="matrix(-1 0 0 1 151.121 78.1992)" fill="#001AFF"/>
<path d="M107.506 38.4352C108.726 39.8347 108.296 42.0094 106.635 42.8397C99.8734 46.2207 93.5018 50.3316 87.6343 55.0989L83.0083 58.8576L79.5931 61.7848C78.4983 62.7233 76.7981 62.1197 76.5402 60.7009C75.8086 56.6773 75.4406 52.5961 75.4406 48.5065V45.6302C75.4406 38.2149 76.2648 30.8225 77.8981 23.5893L79.8665 14.8722C80.473 12.1865 83.8733 11.3274 85.6826 13.4029L107.506 38.4352Z" fill="#001AFF"/>
<path d="M156.255 56.9052C154.822 55.671 154.688 53.498 155.959 52.0969L181.366 24.0839C183.321 21.928 186.906 23.1049 187.203 26.0003L187.906 32.8574C189.16 45.0765 188.572 57.4145 186.163 69.4592L185.04 75.0732C184.535 77.5974 181.498 78.642 179.547 76.9623L156.255 56.9052Z" fill="#001AFF"/>
<path d="M24.972 156.788C24.972 155.597 23.6827 154.852 22.6513 155.448L7.5159 164.186C6.48445 164.782 6.48445 166.27 7.51589 166.866L22.6513 175.604C23.6827 176.2 24.972 175.455 24.972 174.264L24.972 156.788Z" fill="#FF88C4" stroke="#FF88C4" stroke-width="0.269074"/>
<path d="M115.797 168.171L45.165 90.8125M115.797 168.171L45.165 242.166M115.797 168.171H21.6211" stroke="#FF88C4" stroke-width="1.68171"/>
<path d="M51.8984 254.779V254.779C51.3508 248.207 48.8219 241.956 44.6459 236.852L43.4899 235.439L36.763 226.19V226.19C32.8528 218.928 29.8165 211.229 27.7175 203.252L26.6728 199.282L26.4227 197.532C24.9096 186.94 24.1502 176.255 24.1502 165.556V150.965C24.1502 144.516 24.8411 138.085 26.2111 131.784V131.784C27.6356 125.231 29.7856 118.857 32.6214 112.78L34.2405 109.311L43.4899 95.0165V95.0165C47.321 89.5435 49.3759 83.0246 49.3759 76.344V74.8359" stroke="#FF88C4" stroke-width="5.04513"/>
</svg>
