<svg width="7024" height="149" viewBox="0 0 7024 149" fill="none" xmlns="http://www.w3.org/2000/svg">
<path d="M93.9512 8.11569C93.8071 16.618 88.7633 28.2907 78.8199 43.1337C66.4267 61.7236 50.5749 76.6386 31.2646 87.879L20.8888 110.576C16.4215 120.375 14.1879 129.022 14.1879 136.515C14.1879 139.974 15.701 141.703 18.7272 141.703C25.6444 141.703 34.1467 135.362 44.2342 122.681C51.4396 113.746 57.6362 104.307 62.824 94.3638L64.5533 95.877C56.4833 110.288 49.6382 120.807 44.018 127.436C33.7864 139.397 23.4107 145.594 12.8909 146.026C9 146.17 5.9017 144.585 3.59598 141.271C1.29027 137.956 0.137409 133.561 0.137409 128.085C0.137409 116.556 6.18991 100.128 18.2949 78.8003C26.0767 65.1101 36.3083 50.1229 48.9897 33.8388C66.4267 11.5022 79.1802 0.333898 87.2502 0.333898C88.9795 0.333898 90.4926 1.12649 91.7896 2.71166C93.2306 4.29685 93.9512 6.09819 93.9512 8.11569ZM84.6563 9.41265C84.6563 6.38639 83.6475 4.87327 81.63 4.87327C78.3156 4.87327 70.9661 14.3843 59.5816 33.4065C48.3413 52.4286 40.4154 68.2084 35.8039 80.7457C47.9089 73.6844 59.4375 61.1471 70.3897 43.1337C79.9007 27.5702 84.6563 16.3298 84.6563 9.41265ZM144.398 95.877C139.498 101.929 130.635 108.558 117.81 115.764C115.648 116.628 112.406 117.709 108.083 119.006C103.615 126.356 97.4908 132.624 89.709 137.812C81.3508 143.288 73.2088 146.026 65.2829 146.026C60.3832 146.026 56.3482 143.865 53.1779 139.541C50.2957 135.651 48.8546 131.183 48.8546 126.139C48.8546 113.89 53.8984 102.866 63.9859 93.0669C74.2175 83.1235 85.4579 78.1518 97.707 78.1518C102.751 78.1518 106.93 80.0972 110.244 83.9881C113.559 87.879 115.216 92.7066 115.216 98.4709C115.216 101.929 114.568 105.244 113.271 108.414C112.694 109.855 111.613 112.305 110.028 115.764C111.181 115.62 113.343 114.827 116.513 113.386C124.295 109.783 133.013 103.443 142.668 94.3638L144.398 95.877ZM102.246 86.1497C102.246 82.547 100.517 80.7457 97.0585 80.7457C90.2855 80.7457 82.5037 88.3113 73.7131 103.443C65.3549 117.565 61.1758 128.445 61.1758 136.083C61.1758 140.838 62.5448 143.216 65.2829 143.216C72.7764 143.216 81.7111 134.57 92.0868 117.277C84.1609 114.683 80.198 111.152 80.198 106.685C80.198 102.074 82.4316 99.7678 86.8989 99.7678C89.9252 99.7678 91.4383 101.281 91.4383 104.307C91.4383 106.757 89.4929 108.198 85.602 108.63C86.6107 112.233 89.3488 114.395 93.8161 115.115C99.4363 103.154 102.246 93.4992 102.246 86.1497ZM225.705 95.877C213.023 108.126 200.053 114.611 186.796 115.331C184.202 121.816 178.365 128.301 169.287 134.786C158.767 142.279 148.103 146.026 137.295 146.026C134.124 146.026 131.386 144.801 129.081 142.352C126.631 139.758 125.406 136.947 125.406 133.921C125.406 126.716 127.495 119.222 131.675 111.441L147.022 83.1235C148.175 81.106 149.76 80.0972 151.778 80.0972C152.786 80.0972 154.227 80.3854 156.101 80.9619C158.118 81.5383 159.343 81.8265 159.776 81.8265C160.064 81.8265 161.145 80.8898 163.018 79.0164C164.891 77.143 166.332 76.0622 167.341 75.774L141.618 125.059C139.6 128.95 138.592 132.192 138.592 134.786C138.592 140.262 140.825 143 145.293 143C154.371 143 163.738 132.84 173.394 112.521C168.782 107.045 166.476 101.785 166.476 96.7416C166.476 92.1302 167.918 87.7349 170.8 83.5558C174.114 78.8003 177.933 76.4225 182.256 76.4225C185.427 76.4225 188.237 78.1518 190.686 81.6103C193.28 85.0689 194.577 88.8878 194.577 93.0669C194.577 100.56 192.56 107.045 188.525 112.521C198.324 112.521 210.141 106.469 223.975 94.3638L225.705 95.877ZM184.202 91.1214C184.202 84.6366 182.472 81.3942 179.014 81.3942C176.42 81.3942 174.114 83.0514 172.097 86.3659C170.079 89.6803 169.07 93.211 169.07 96.9578C169.07 100.705 171.088 105.028 175.123 109.927C181.175 99.5517 184.202 93.283 184.202 91.1214ZM292.272 95.877C287.228 104.379 278.798 114.107 266.981 125.059C251.706 139.037 238.88 146.026 228.504 146.026C223.028 146.026 218.561 144.225 215.103 140.622C211.5 136.875 209.698 132.264 209.698 126.788C209.698 112.954 215.823 101.065 228.072 91.1214C238.736 82.475 249.04 78.1518 258.983 78.1518C262.298 78.1518 265.18 79.3046 267.63 81.6103C270.079 83.9161 271.304 86.7261 271.304 90.0406C271.304 99.1194 264.747 106.685 251.634 112.737C241.69 117.349 233.332 119.655 226.559 119.655C223.965 125.275 222.668 130.319 222.668 134.786C222.668 140.118 224.614 142.784 228.504 142.784C238.016 142.784 250.121 136.299 264.819 123.329C276.492 112.954 285.067 103.298 290.543 94.3638L292.272 95.877ZM260.496 85.9336C260.496 82.6191 258.983 80.9619 255.957 80.9619C249.04 80.9619 239.961 92.1302 228.721 114.467C234.485 114.467 241.33 110.72 249.256 103.226C256.749 96.1652 260.496 90.4009 260.496 85.9336ZM388.496 53.0771C388.496 56.2475 387.415 59.1296 385.253 61.7236C383.092 64.1734 380.642 65.3983 377.904 65.3983C375.598 65.3983 373.653 64.6057 372.067 63.0205C370.482 61.2912 369.69 59.2737 369.69 56.968C369.69 53.9418 370.77 51.3478 372.932 49.1862C375.238 46.8805 377.832 45.7277 380.714 45.7277C382.875 45.7277 384.677 46.4482 386.118 47.8893C387.703 49.3303 388.496 51.0596 388.496 53.0771ZM401.465 95.877C373.22 129.31 354.27 146.026 344.615 146.026C335.68 146.026 331.213 141.775 331.213 133.273C331.213 126.788 333.879 118.574 339.211 108.63C342.237 103.298 346.704 95.3005 352.613 84.6366C354.342 81.6103 356.288 80.0972 358.449 80.0972C360.467 80.0972 362.124 80.4575 363.421 81.178C364.862 81.7545 365.655 82.0427 365.799 82.0427C366.375 82.0427 367.672 81.0339 369.69 79.0164C371.851 76.8548 373.292 75.7019 374.013 75.5578L346.56 127.869C345.263 130.319 344.615 133.057 344.615 136.083C344.615 139.83 346.272 141.703 349.587 141.703C352.901 141.703 361.62 134.57 375.742 120.303C386.262 109.639 394.26 100.993 399.736 94.3638L401.465 95.877ZM455.144 95.877C446.065 111.296 437.419 121.744 429.205 127.22C423.729 130.967 416.739 133.489 408.237 134.786C401.608 142.568 393.61 146.459 384.243 146.459C372.859 146.459 367.167 141.415 367.167 131.327C367.167 127.869 368.175 124.987 370.193 122.681C372.066 120.375 374.516 119.222 377.542 119.222C379.848 119.222 382.514 120.519 385.54 123.113C389.287 126.428 391.737 128.301 392.89 128.733C395.195 127.004 397.069 124.194 398.51 120.303C400.095 116.412 400.888 112.882 400.888 109.711C400.888 107.838 400.167 104.595 398.726 99.984C397.429 95.2285 396.781 91.4817 396.781 88.7436C396.781 84.1322 397.573 79.809 399.158 75.774C401.32 70.5861 404.346 67.9922 408.237 67.9922C411.84 67.9922 413.641 69.2892 413.641 71.8831C413.641 75.0535 411.407 80.6016 406.94 88.5275C411.263 98.4709 413.425 106.325 413.425 112.089C413.425 121.024 412.128 127.581 409.534 131.76C418.18 129.886 424.954 127.076 429.853 123.329C437.059 117.853 444.912 108.198 453.415 94.3638L455.144 95.877ZM411.047 72.3154C411.047 70.7302 410.183 69.9377 408.453 69.9377C407.589 69.9377 406.652 70.9464 405.643 72.9639C404.779 74.8373 404.346 76.8548 404.346 79.0164C404.346 82.0427 404.779 84.3484 405.643 85.9336C409.246 80.8898 411.047 76.3504 411.047 72.3154ZM390.728 130.895C389.719 130.463 387.702 128.95 384.676 126.356C381.938 124.194 380.064 123.113 379.055 123.113C376.461 123.113 375.165 124.554 375.165 127.436C375.165 130.607 377.47 132.624 382.082 133.489C386.837 133.489 389.719 132.624 390.728 130.895ZM551.46 53.0771C551.46 56.2475 550.38 59.1296 548.218 61.7236C546.056 64.1734 543.607 65.3983 540.869 65.3983C538.563 65.3983 536.617 64.6057 535.032 63.0205C533.447 61.2912 532.654 59.2737 532.654 56.968C532.654 53.9418 533.735 51.3478 535.897 49.1862C538.203 46.8805 540.797 45.7277 543.679 45.7277C545.84 45.7277 547.642 46.4482 549.083 47.8893C550.668 49.3303 551.46 51.0596 551.46 53.0771ZM564.43 95.877C536.185 129.31 517.235 146.026 507.58 146.026C498.645 146.026 494.178 141.775 494.178 133.273C494.178 126.788 496.844 118.574 502.176 108.63C505.202 103.298 509.669 95.3005 515.578 84.6366C517.307 81.6103 519.253 80.0972 521.414 80.0972C523.432 80.0972 525.089 80.4575 526.386 81.178C527.827 81.7545 528.619 82.0427 528.764 82.0427C529.34 82.0427 530.637 81.0339 532.654 79.0164C534.816 76.8548 536.257 75.7019 536.978 75.5578L509.525 127.869C508.228 130.319 507.58 133.057 507.58 136.083C507.58 139.83 509.237 141.703 512.552 141.703C515.866 141.703 524.584 134.57 538.707 120.303C549.227 109.639 557.225 100.993 562.701 94.3638L564.43 95.877ZM647.939 95.877C645.777 98.4709 634.681 110.936 614.65 133.273C606.869 141.919 599.591 146.242 592.818 146.242C584.892 146.242 580.713 141.919 580.281 133.273C580.137 129.382 581.65 124.987 584.82 120.087L602.761 92.6345C604.779 89.6083 605.788 87.4467 605.788 86.1497C605.788 84.8528 604.707 84.2043 602.545 84.2043C597.069 84.2043 589.864 89.248 580.929 99.3355C574.589 106.685 569.257 114.107 564.933 121.6C563.06 125.059 560.322 130.102 556.719 136.731C554.125 141.631 551.748 144.081 549.586 144.081C548.865 144.081 547.496 143.793 545.479 143.216C543.317 142.64 542.02 142.352 541.588 142.352C540.435 142.352 537.769 144.441 533.59 148.62L566.663 85.2851C568.536 81.8265 570.698 80.0972 573.147 80.0972C574.156 80.0972 575.525 80.3854 577.255 80.9619C579.128 81.5383 580.281 81.8265 580.713 81.8265C581.001 81.8265 582.154 80.8898 584.172 79.0164C586.333 77.143 587.846 75.9902 588.711 75.5578L577.687 96.3093C591.521 84.2043 602.329 78.1518 610.111 78.1518C616.74 78.1518 620.054 81.4662 620.054 88.0952C620.054 91.5537 618.685 95.4446 615.947 99.7678L595.844 131.111C593.25 135.146 591.953 137.596 591.953 138.461C591.953 141.055 593.467 142.352 596.493 142.352C600.672 142.352 606.652 138.028 614.434 129.382L646.21 94.3638L647.939 95.877ZM757.159 95.877C754.998 99.1914 748.225 108.27 736.84 123.113C725.023 138.389 712.414 146.026 699.012 146.026C695.842 146.026 693.176 144.657 691.014 141.919C688.708 139.181 687.556 135.867 687.556 131.976C687.556 128.229 689.069 123.257 692.095 117.061L708.956 82.6911H693.176L696.634 79.4487H713.927C720.988 74.9814 727.401 69.2892 733.166 62.372C736.768 58.0488 741.74 50.9876 748.081 41.1883H750.458L728.626 79.4487H744.838L743.541 82.6911H727.329L704.848 122.032C701.678 127.508 700.093 131.327 700.093 133.489C700.093 135.218 700.669 137.02 701.822 138.893C703.119 140.766 704.416 141.703 705.713 141.703C709.892 141.703 715.224 139.181 721.709 134.137C726.897 130.102 731.22 125.851 734.679 121.384C738.714 116.34 745.631 107.333 755.43 94.3638L757.159 95.877ZM836.777 11.5743C836.777 24.9762 827.699 40.4677 809.541 58.0488C796.572 70.5861 784.827 79.5208 774.307 84.8528C772.866 88.1672 771.425 91.3376 769.984 94.3638C781.512 83.5558 790.807 78.1518 797.869 78.1518C803.777 78.1518 806.731 81.178 806.731 87.2305C806.731 91.842 801.976 101.353 792.465 115.764C783.098 130.03 778.414 137.236 778.414 137.38C778.414 139.974 779.423 141.271 781.44 141.271C785.764 141.271 793.401 135.434 804.353 123.762C806.803 121.168 815.233 111.368 829.644 94.3638L831.373 95.877C816.53 114.323 807.308 125.419 803.705 129.166C792.897 140.406 784.25 146.026 777.766 146.026C774.307 146.026 771.425 145.09 769.119 143.216C766.958 141.343 765.877 138.893 765.877 135.867C765.877 132.264 770.488 123.473 779.711 109.495C789.078 95.5167 793.761 87.7349 793.761 86.1497C793.761 84.7086 793.185 83.9881 792.032 83.9881C788.285 83.9881 783.962 86.0777 779.063 90.2568C774.595 93.7153 771.281 97.3901 769.119 101.281C766.958 105.028 761.049 115.836 751.394 133.705C747.647 140.766 744.765 144.297 742.748 144.297C741.883 144.297 740.442 144.009 738.424 143.432C736.407 143 735.254 142.784 734.966 142.784C734.101 142.784 732.948 143.36 731.507 144.513C729.778 146.242 728.193 147.539 726.752 148.404C736.407 129.958 744.045 115.548 749.665 105.172C761.481 83.5558 773.01 64.6778 784.25 48.5378C804.281 19.5722 819.196 5.08944 828.996 5.08944C834.184 5.08944 836.777 7.25104 836.777 11.5743ZM827.05 14.8167C827.05 11.214 826.33 9.41265 824.889 9.41265C821.142 9.41265 814.657 16.618 805.434 31.0287C800.967 37.9459 791.456 53.9418 776.901 79.0164C791.744 69.3612 804.137 57.6886 814.081 43.9984C822.727 32.1816 827.05 22.4543 827.05 14.8167ZM897.691 95.877C892.647 104.379 884.217 114.107 872.4 125.059C857.125 139.037 844.299 146.026 833.923 146.026C828.447 146.026 823.98 144.225 820.522 140.622C816.919 136.875 815.117 132.264 815.117 126.788C815.117 112.954 821.242 101.065 833.491 91.1214C844.155 82.475 854.459 78.1518 864.402 78.1518C867.717 78.1518 870.599 79.3046 873.049 81.6103C875.498 83.9161 876.723 86.7261 876.723 90.0406C876.723 99.1194 870.166 106.685 857.053 112.737C847.109 117.349 838.751 119.655 831.978 119.655C829.384 125.275 828.087 130.319 828.087 134.786C828.087 140.118 830.033 142.784 833.923 142.784C843.435 142.784 855.54 136.299 870.238 123.329C881.911 112.954 890.486 103.298 895.962 94.3638L897.691 95.877ZM865.915 85.9336C865.915 82.6191 864.402 80.9619 861.376 80.9619C854.459 80.9619 845.38 92.1302 834.14 114.467C839.904 114.467 846.749 110.72 854.675 103.226C862.168 96.1652 865.915 90.4009 865.915 85.9336ZM1048.17 95.877C1020.79 129.31 1001.84 146.026 991.321 146.026C984.259 146.026 978.783 141.847 974.892 133.489C968.696 141.847 961.851 146.026 954.357 146.026C944.702 146.026 939.874 138.965 939.874 124.842C939.874 114.034 944.342 103.803 953.276 94.1477C963.076 83.4837 974.676 78.1518 988.078 78.1518C993.122 78.1518 996.797 79.8811 999.102 83.3396C1000.83 81.178 1002.34 80.0972 1003.64 80.0972C1004.22 80.0972 1005.73 80.3134 1008.18 80.7457C1010.63 81.178 1012.14 81.3942 1012.72 81.3942C1013.3 81.3942 1014.45 80.4575 1016.18 78.5841C1018.05 76.7107 1019.28 75.7019 1019.85 75.5578L991.537 128.733C989.087 133.345 987.862 136.659 987.862 138.677C987.862 141.559 989.447 143 992.618 143C997.373 143 1006.81 136.011 1020.93 122.032C1030.88 112.233 1039.38 103.01 1046.44 94.3638L1048.17 95.877ZM995.86 87.2305C995.86 83.772 994.347 82.0427 991.321 82.0427C982.818 82.0427 973.956 89.4642 964.733 104.307C956.519 117.565 952.412 128.085 952.412 135.867C952.412 140.622 953.853 143 956.735 143C962.499 143 968.191 138.244 973.812 128.733C988.51 103.659 995.86 89.8245 995.86 87.2305ZM1085.95 53.0771C1085.95 56.2475 1084.87 59.1296 1082.71 61.7236C1080.55 64.1734 1078.1 65.3983 1075.36 65.3983C1073.05 65.3983 1071.11 64.6057 1069.52 63.0205C1067.94 61.2912 1067.15 59.2737 1067.15 56.968C1067.15 53.9418 1068.23 51.3478 1070.39 49.1862C1072.69 46.8805 1075.29 45.7277 1078.17 45.7277C1080.33 45.7277 1082.13 46.4482 1083.57 47.8893C1085.16 49.3303 1085.95 51.0596 1085.95 53.0771ZM1098.92 95.877C1070.68 129.31 1051.73 146.026 1042.07 146.026C1033.14 146.026 1028.67 141.775 1028.67 133.273C1028.67 126.788 1031.34 118.574 1036.67 108.63C1039.69 103.298 1044.16 95.3005 1050.07 84.6366C1051.8 81.6103 1053.74 80.0972 1055.91 80.0972C1057.92 80.0972 1059.58 80.4575 1060.88 81.178C1062.32 81.7545 1063.11 82.0427 1063.25 82.0427C1063.83 82.0427 1065.13 81.0339 1067.15 79.0164C1069.31 76.8548 1070.75 75.7019 1071.47 75.5578L1044.02 127.869C1042.72 130.319 1042.07 133.057 1042.07 136.083C1042.07 139.83 1043.73 141.703 1047.04 141.703C1050.36 141.703 1059.08 134.57 1073.2 120.303C1083.72 109.639 1091.72 100.993 1097.19 94.3638L1098.92 95.877ZM1162.76 95.877C1152.82 111.008 1144.82 121.672 1138.77 127.869C1127.24 139.974 1115.85 146.026 1104.61 146.026C1097.12 146.026 1093.3 140.766 1093.16 130.247C1093.16 126.788 1096.11 120.015 1102.02 109.927C1108.07 99.8399 1111.1 94.0756 1111.1 92.6345C1111.1 91.6258 1110.81 91.1214 1110.23 91.1214C1109.22 91.1214 1107.35 92.2743 1104.61 94.58C1102.02 96.7416 1099.35 97.8224 1096.61 97.8224C1093.16 97.8224 1091.43 95.0844 1091.43 89.6083C1091.43 86.2938 1092.65 82.7632 1095.1 79.0164C1097.7 75.1255 1100.58 73.1801 1103.75 73.1801C1107.21 73.1801 1108.94 74.8373 1108.94 78.1518C1108.94 82.1868 1106.41 87.1585 1101.37 93.0669C1105.98 89.176 1110.45 85.5733 1114.77 82.2588C1118.23 79.5208 1121.33 78.1518 1124.07 78.1518C1126.23 78.1518 1128.03 79.0164 1129.47 80.7457C1130.91 82.3309 1131.63 84.2763 1131.63 86.582C1131.63 88.4554 1130.12 91.9861 1127.09 97.1739L1110.02 126.356C1107.28 130.967 1105.91 133.921 1105.91 135.218C1105.91 139.109 1107.78 141.055 1111.53 141.055C1122.91 141.055 1139.41 125.491 1161.03 94.3638L1162.76 95.877ZM1105.69 78.3679C1105.69 77.071 1105.04 76.4225 1103.75 76.4225C1101.59 76.4225 1099.57 78.0797 1097.7 81.3942C1095.82 84.5645 1094.89 87.3026 1094.89 89.6083C1094.89 92.0581 1095.68 93.283 1097.26 93.283C1102.88 86.0777 1105.69 81.106 1105.69 78.3679ZM1242.73 8.11569C1242.58 16.618 1237.54 28.2907 1227.6 43.1337C1215.2 61.7236 1199.35 76.6386 1180.04 87.879L1169.66 110.576C1165.2 120.375 1162.96 129.022 1162.96 136.515C1162.96 139.974 1164.48 141.703 1167.5 141.703C1174.42 141.703 1182.92 135.362 1193.01 122.681C1200.22 113.746 1206.41 104.307 1211.6 94.3638L1213.33 95.877C1205.26 110.288 1198.41 120.807 1192.79 127.436C1182.56 139.397 1172.19 145.594 1161.67 146.026C1157.78 146.17 1154.68 144.585 1152.37 141.271C1150.07 137.956 1148.91 133.561 1148.91 128.085C1148.91 116.556 1154.97 100.128 1167.07 78.8003C1174.85 65.1101 1185.08 50.1229 1197.77 33.8388C1215.2 11.5022 1227.96 0.333898 1236.03 0.333898C1237.76 0.333898 1239.27 1.12649 1240.57 2.71166C1242.01 4.29685 1242.73 6.09819 1242.73 8.11569ZM1233.43 9.41265C1233.43 6.38639 1232.42 4.87327 1230.41 4.87327C1227.09 4.87327 1219.74 14.3843 1208.36 33.4065C1197.12 52.4286 1189.19 68.2084 1184.58 80.7457C1196.69 73.6844 1208.21 61.1471 1219.17 43.1337C1228.68 27.5702 1233.43 16.3298 1233.43 9.41265ZM1293.17 95.877C1288.27 101.929 1279.41 108.558 1266.59 115.764C1264.42 116.628 1261.18 117.709 1256.86 119.006C1252.39 126.356 1246.27 132.624 1238.49 137.812C1230.13 143.288 1221.98 146.026 1214.06 146.026C1209.16 146.026 1205.12 143.865 1201.95 139.541C1199.07 135.651 1197.63 131.183 1197.63 126.139C1197.63 113.89 1202.67 102.866 1212.76 93.0669C1222.99 83.1235 1234.23 78.1518 1246.48 78.1518C1251.53 78.1518 1255.71 80.0972 1259.02 83.9881C1262.33 87.879 1263.99 92.7066 1263.99 98.4709C1263.99 101.929 1263.34 105.244 1262.05 108.414C1261.47 109.855 1260.39 112.305 1258.8 115.764C1259.96 115.62 1262.12 114.827 1265.29 113.386C1273.07 109.783 1281.79 103.443 1291.44 94.3638L1293.17 95.877ZM1251.02 86.1497C1251.02 82.547 1249.29 80.7457 1245.83 80.7457C1239.06 80.7457 1231.28 88.3113 1222.49 103.443C1214.13 117.565 1209.95 128.445 1209.95 136.083C1209.95 140.838 1211.32 143.216 1214.06 143.216C1221.55 143.216 1230.49 134.57 1240.86 117.277C1232.94 114.683 1228.97 111.152 1228.97 106.685C1228.97 102.074 1231.21 99.7678 1235.68 99.7678C1238.7 99.7678 1240.21 101.281 1240.21 104.307C1240.21 106.757 1238.27 108.198 1234.38 108.63C1235.39 112.233 1238.12 114.395 1242.59 115.115C1248.21 103.154 1251.02 93.4992 1251.02 86.1497ZM1374.48 95.877C1361.8 108.126 1348.83 114.611 1335.57 115.331C1332.98 121.816 1327.14 128.301 1318.06 134.786C1307.54 142.279 1296.88 146.026 1286.07 146.026C1282.9 146.026 1280.16 144.801 1277.86 142.352C1275.41 139.758 1274.18 136.947 1274.18 133.921C1274.18 126.716 1276.27 119.222 1280.45 111.441L1295.8 83.1235C1296.95 81.106 1298.54 80.0972 1300.55 80.0972C1301.56 80.0972 1303 80.3854 1304.88 80.9619C1306.89 81.5383 1308.12 81.8265 1308.55 81.8265C1308.84 81.8265 1309.92 80.8898 1311.79 79.0164C1313.67 77.143 1315.11 76.0622 1316.12 75.774L1290.39 125.059C1288.38 128.95 1287.37 132.192 1287.37 134.786C1287.37 140.262 1289.6 143 1294.07 143C1303.15 143 1312.51 132.84 1322.17 112.521C1317.56 107.045 1315.25 101.785 1315.25 96.7416C1315.25 92.1302 1316.69 87.7349 1319.58 83.5558C1322.89 78.8003 1326.71 76.4225 1331.03 76.4225C1334.2 76.4225 1337.01 78.1518 1339.46 81.6103C1342.06 85.0689 1343.35 88.8878 1343.35 93.0669C1343.35 100.56 1341.34 107.045 1337.3 112.521C1347.1 112.521 1358.92 106.469 1372.75 94.3638L1374.48 95.877ZM1332.98 91.1214C1332.98 84.6366 1331.25 81.3942 1327.79 81.3942C1325.2 81.3942 1322.89 83.0514 1320.87 86.3659C1318.86 89.6803 1317.85 93.211 1317.85 96.9578C1317.85 100.705 1319.86 105.028 1323.9 109.927C1329.95 99.5517 1332.98 93.283 1332.98 91.1214ZM1441.05 95.877C1436 104.379 1427.57 114.107 1415.76 125.059C1400.48 139.037 1387.66 146.026 1377.28 146.026C1371.8 146.026 1367.34 144.225 1363.88 140.622C1360.28 136.875 1358.47 132.264 1358.47 126.788C1358.47 112.954 1364.6 101.065 1376.85 91.1214C1387.51 82.475 1397.82 78.1518 1407.76 78.1518C1411.07 78.1518 1413.96 79.3046 1416.41 81.6103C1418.86 83.9161 1420.08 86.7261 1420.08 90.0406C1420.08 99.1194 1413.52 106.685 1400.41 112.737C1390.47 117.349 1382.11 119.655 1375.34 119.655C1372.74 125.275 1371.44 130.319 1371.44 134.786C1371.44 140.118 1373.39 142.784 1377.28 142.784C1386.79 142.784 1398.9 136.299 1413.6 123.329C1425.27 112.954 1433.84 103.298 1439.32 94.3638L1441.05 95.877ZM1409.27 85.9336C1409.27 82.6191 1407.76 80.9619 1404.73 80.9619C1397.82 80.9619 1388.74 92.1302 1377.5 114.467C1383.26 114.467 1390.11 110.72 1398.03 103.226C1405.53 96.1652 1409.27 90.4009 1409.27 85.9336ZM1537.27 53.0771C1537.27 56.2475 1536.19 59.1296 1534.03 61.7236C1531.87 64.1734 1529.42 65.3983 1526.68 65.3983C1524.37 65.3983 1522.43 64.6057 1520.84 63.0205C1519.26 61.2912 1518.47 59.2737 1518.47 56.968C1518.47 53.9418 1519.55 51.3478 1521.71 49.1862C1524.01 46.8805 1526.61 45.7277 1529.49 45.7277C1531.65 45.7277 1533.45 46.4482 1534.89 47.8893C1536.48 49.3303 1537.27 51.0596 1537.27 53.0771ZM1550.24 95.877C1522 129.31 1503.05 146.026 1493.39 146.026C1484.46 146.026 1479.99 141.775 1479.99 133.273C1479.99 126.788 1482.66 118.574 1487.99 108.63C1491.01 103.298 1495.48 95.3005 1501.39 84.6366C1503.12 81.6103 1505.06 80.0972 1507.23 80.0972C1509.24 80.0972 1510.9 80.4575 1512.2 81.178C1513.64 81.7545 1514.43 82.0427 1514.57 82.0427C1515.15 82.0427 1516.45 81.0339 1518.47 79.0164C1520.63 76.8548 1522.07 75.7019 1522.79 75.5578L1495.34 127.869C1494.04 130.319 1493.39 133.057 1493.39 136.083C1493.39 139.83 1495.05 141.703 1498.36 141.703C1501.68 141.703 1510.4 134.57 1524.52 120.303C1535.04 109.639 1543.04 100.993 1548.51 94.3638L1550.24 95.877ZM1603.92 95.877C1594.84 111.296 1586.19 121.744 1577.98 127.22C1572.5 130.967 1565.52 133.489 1557.01 134.786C1550.38 142.568 1542.39 146.459 1533.02 146.459C1521.63 146.459 1515.94 141.415 1515.94 131.327C1515.94 127.869 1516.95 124.987 1518.97 122.681C1520.84 120.375 1523.29 119.222 1526.32 119.222C1528.62 119.222 1531.29 120.519 1534.32 123.113C1538.06 126.428 1540.51 128.301 1541.67 128.733C1543.97 127.004 1545.84 124.194 1547.29 120.303C1548.87 116.412 1549.66 112.882 1549.66 109.711C1549.66 107.838 1548.94 104.595 1547.5 99.984C1546.21 95.2285 1545.56 91.4817 1545.56 88.7436C1545.56 84.1322 1546.35 79.809 1547.93 75.774C1550.1 70.5861 1553.12 67.9922 1557.01 67.9922C1560.62 67.9922 1562.42 69.2892 1562.42 71.8831C1562.42 75.0535 1560.18 80.6016 1555.72 88.5275C1560.04 98.4709 1562.2 106.325 1562.2 112.089C1562.2 121.024 1560.9 127.581 1558.31 131.76C1566.96 129.886 1573.73 127.076 1578.63 123.329C1585.83 117.853 1593.69 108.198 1602.19 94.3638L1603.92 95.877ZM1559.82 72.3154C1559.82 70.7302 1558.96 69.9377 1557.23 69.9377C1556.36 69.9377 1555.43 70.9464 1554.42 72.9639C1553.55 74.8373 1553.12 76.8548 1553.12 79.0164C1553.12 82.0427 1553.55 84.3484 1554.42 85.9336C1558.02 80.8898 1559.82 76.3504 1559.82 72.3154ZM1539.5 130.895C1538.5 130.463 1536.48 128.95 1533.45 126.356C1530.71 124.194 1528.84 123.113 1527.83 123.113C1525.24 123.113 1523.94 124.554 1523.94 127.436C1523.94 130.607 1526.25 132.624 1530.86 133.489C1535.61 133.489 1538.5 132.624 1539.5 130.895ZM1700.24 53.0771C1700.24 56.2475 1699.16 59.1296 1696.99 61.7236C1694.83 64.1734 1692.38 65.3983 1689.64 65.3983C1687.34 65.3983 1685.39 64.6057 1683.81 63.0205C1682.22 61.2912 1681.43 59.2737 1681.43 56.968C1681.43 53.9418 1682.51 51.3478 1684.67 49.1862C1686.98 46.8805 1689.57 45.7277 1692.45 45.7277C1694.62 45.7277 1696.42 46.4482 1697.86 47.8893C1699.44 49.3303 1700.24 51.0596 1700.24 53.0771ZM1713.21 95.877C1684.96 129.31 1666.01 146.026 1656.36 146.026C1647.42 146.026 1642.95 141.775 1642.95 133.273C1642.95 126.788 1645.62 118.574 1650.95 108.63C1653.98 103.298 1658.45 95.3005 1664.35 84.6366C1666.08 81.6103 1668.03 80.0972 1670.19 80.0972C1672.21 80.0972 1673.86 80.4575 1675.16 81.178C1676.6 81.7545 1677.4 82.0427 1677.54 82.0427C1678.12 82.0427 1679.41 81.0339 1681.43 79.0164C1683.59 76.8548 1685.03 75.7019 1685.75 75.5578L1658.3 127.869C1657 130.319 1656.36 133.057 1656.36 136.083C1656.36 139.83 1658.01 141.703 1661.33 141.703C1664.64 141.703 1673.36 134.57 1687.48 120.303C1698 109.639 1706 100.993 1711.48 94.3638L1713.21 95.877ZM1796.72 95.877C1794.55 98.4709 1783.46 110.936 1763.43 133.273C1755.64 141.919 1748.37 146.242 1741.59 146.242C1733.67 146.242 1729.49 141.919 1729.06 133.273C1728.91 129.382 1730.43 124.987 1733.6 120.087L1751.54 92.6345C1753.56 89.6083 1754.56 87.4467 1754.56 86.1497C1754.56 84.8528 1753.48 84.2043 1751.32 84.2043C1745.85 84.2043 1738.64 89.248 1729.71 99.3355C1723.36 106.685 1718.03 114.107 1713.71 121.6C1711.84 125.059 1709.1 130.102 1705.5 136.731C1702.9 141.631 1700.52 144.081 1698.36 144.081C1697.64 144.081 1696.27 143.793 1694.26 143.216C1692.09 142.64 1690.8 142.352 1690.36 142.352C1689.21 142.352 1686.55 144.441 1682.37 148.62L1715.44 85.2851C1717.31 81.8265 1719.47 80.0972 1721.92 80.0972C1722.93 80.0972 1724.3 80.3854 1726.03 80.9619C1727.9 81.5383 1729.06 81.8265 1729.49 81.8265C1729.78 81.8265 1730.93 80.8898 1732.95 79.0164C1735.11 77.143 1736.62 75.9902 1737.49 75.5578L1726.46 96.3093C1740.3 84.2043 1751.11 78.1518 1758.89 78.1518C1765.52 78.1518 1768.83 81.4662 1768.83 88.0952C1768.83 91.5537 1767.46 95.4446 1764.72 99.7678L1744.62 131.111C1742.03 135.146 1740.73 137.596 1740.73 138.461C1740.73 141.055 1742.24 142.352 1745.27 142.352C1749.45 142.352 1755.43 138.028 1763.21 129.382L1794.99 94.3638L1796.72 95.877ZM1905.94 95.877C1903.77 99.1914 1897 108.27 1885.62 123.113C1873.8 138.389 1861.19 146.026 1847.79 146.026C1844.62 146.026 1841.95 144.657 1839.79 141.919C1837.48 139.181 1836.33 135.867 1836.33 131.976C1836.33 128.229 1837.84 123.257 1840.87 117.061L1857.73 82.6911H1841.95L1845.41 79.4487H1862.7C1869.76 74.9814 1876.18 69.2892 1881.94 62.372C1885.54 58.0488 1890.52 50.9876 1896.86 41.1883H1899.23L1877.4 79.4487H1893.61L1892.32 82.6911H1876.11L1853.62 122.032C1850.45 127.508 1848.87 131.327 1848.87 133.489C1848.87 135.218 1849.45 137.02 1850.6 138.893C1851.9 140.766 1853.19 141.703 1854.49 141.703C1858.67 141.703 1864 139.181 1870.49 134.137C1875.67 130.102 1880 125.851 1883.45 121.384C1887.49 116.34 1894.41 107.333 1904.21 94.3638L1905.94 95.877ZM1985.55 11.5743C1985.55 24.9762 1976.47 40.4677 1958.32 58.0488C1945.35 70.5861 1933.6 79.5208 1923.08 84.8528C1921.64 88.1672 1920.2 91.3376 1918.76 94.3638C1930.29 83.5558 1939.58 78.1518 1946.64 78.1518C1952.55 78.1518 1955.51 81.178 1955.51 87.2305C1955.51 91.842 1950.75 101.353 1941.24 115.764C1931.87 130.03 1927.19 137.236 1927.19 137.38C1927.19 139.974 1928.2 141.271 1930.22 141.271C1934.54 141.271 1942.18 135.434 1953.13 123.762C1955.58 121.168 1964.01 111.368 1978.42 94.3638L1980.15 95.877C1965.31 114.323 1956.08 125.419 1952.48 129.166C1941.67 140.406 1933.03 146.026 1926.54 146.026C1923.08 146.026 1920.2 145.09 1917.9 143.216C1915.73 141.343 1914.65 138.893 1914.65 135.867C1914.65 132.264 1919.26 123.473 1928.49 109.495C1937.85 95.5167 1942.54 87.7349 1942.54 86.1497C1942.54 84.7086 1941.96 83.9881 1940.81 83.9881C1937.06 83.9881 1932.74 86.0777 1927.84 90.2568C1923.37 93.7153 1920.06 97.3901 1917.9 101.281C1915.73 105.028 1909.83 115.836 1900.17 133.705C1896.42 140.766 1893.54 144.297 1891.52 144.297C1890.66 144.297 1889.22 144.009 1887.2 143.432C1885.18 143 1884.03 142.784 1883.74 142.784C1882.88 142.784 1881.72 143.36 1880.28 144.513C1878.55 146.242 1876.97 147.539 1875.53 148.404C1885.18 129.958 1892.82 115.548 1898.44 105.172C1910.26 83.5558 1921.79 64.6778 1933.03 48.5378C1953.06 19.5722 1967.97 5.08944 1977.77 5.08944C1982.96 5.08944 1985.55 7.25104 1985.55 11.5743ZM1975.83 14.8167C1975.83 11.214 1975.11 9.41265 1973.66 9.41265C1969.92 9.41265 1963.43 16.618 1954.21 31.0287C1949.74 37.9459 1940.23 53.9418 1925.68 79.0164C1940.52 69.3612 1952.91 57.6886 1962.86 43.9984C1971.5 32.1816 1975.83 22.4543 1975.83 14.8167ZM2046.47 95.877C2041.42 104.379 2032.99 114.107 2021.18 125.059C2005.9 139.037 1993.08 146.026 1982.7 146.026C1977.22 146.026 1972.76 144.225 1969.3 140.622C1965.7 136.875 1963.89 132.264 1963.89 126.788C1963.89 112.954 1970.02 101.065 1982.27 91.1214C1992.93 82.475 2003.23 78.1518 2013.18 78.1518C2016.49 78.1518 2019.37 79.3046 2021.82 81.6103C2024.27 83.9161 2025.5 86.7261 2025.5 90.0406C2025.5 99.1194 2018.94 106.685 2005.83 112.737C1995.89 117.349 1987.53 119.655 1980.75 119.655C1978.16 125.275 1976.86 130.319 1976.86 134.786C1976.86 140.118 1978.81 142.784 1982.7 142.784C1992.21 142.784 2004.32 136.299 2019.01 123.329C2030.69 112.954 2039.26 103.298 2044.74 94.3638L2046.47 95.877ZM2014.69 85.9336C2014.69 82.6191 2013.18 80.9619 2010.15 80.9619C2003.23 80.9619 1994.16 92.1302 1982.92 114.467C1988.68 114.467 1995.53 110.72 2003.45 103.226C2010.94 96.1652 2014.69 90.4009 2014.69 85.9336ZM2196.95 95.877C2169.57 129.31 2150.62 146.026 2140.1 146.026C2133.04 146.026 2127.56 141.847 2123.67 133.489C2117.47 141.847 2110.63 146.026 2103.13 146.026C2093.48 146.026 2088.65 138.965 2088.65 124.842C2088.65 114.034 2093.12 103.803 2102.05 94.1477C2111.85 83.4837 2123.45 78.1518 2136.85 78.1518C2141.9 78.1518 2145.57 79.8811 2147.88 83.3396C2149.61 81.178 2151.12 80.0972 2152.42 80.0972C2152.99 80.0972 2154.51 80.3134 2156.96 80.7457C2159.41 81.178 2160.92 81.3942 2161.5 81.3942C2162.07 81.3942 2163.23 80.4575 2164.96 78.5841C2166.83 76.7107 2168.05 75.7019 2168.63 75.5578L2140.31 128.733C2137.86 133.345 2136.64 136.659 2136.64 138.677C2136.64 141.559 2138.22 143 2141.39 143C2146.15 143 2155.59 136.011 2169.71 122.032C2179.65 112.233 2188.16 103.01 2195.22 94.3638L2196.95 95.877ZM2144.64 87.2305C2144.64 83.772 2143.12 82.0427 2140.1 82.0427C2131.59 82.0427 2122.73 89.4642 2113.51 104.307C2105.29 117.565 2101.19 128.085 2101.19 135.867C2101.19 140.622 2102.63 143 2105.51 143C2111.28 143 2116.97 138.244 2122.59 128.733C2137.29 103.659 2144.64 89.8245 2144.64 87.2305ZM2234.73 53.0771C2234.73 56.2475 2233.65 59.1296 2231.49 61.7236C2229.32 64.1734 2226.87 65.3983 2224.14 65.3983C2221.83 65.3983 2219.88 64.6057 2218.3 63.0205C2216.71 61.2912 2215.92 59.2737 2215.92 56.968C2215.92 53.9418 2217 51.3478 2219.16 49.1862C2221.47 46.8805 2224.06 45.7277 2226.95 45.7277C2229.11 45.7277 2230.91 46.4482 2232.35 47.8893C2233.94 49.3303 2234.73 51.0596 2234.73 53.0771ZM2247.7 95.877C2219.45 129.31 2200.5 146.026 2190.85 146.026C2181.91 146.026 2177.45 141.775 2177.45 133.273C2177.45 126.788 2180.11 118.574 2185.44 108.63C2188.47 103.298 2192.94 95.3005 2198.85 84.6366C2200.57 81.6103 2202.52 80.0972 2204.68 80.0972C2206.7 80.0972 2208.36 80.4575 2209.65 81.178C2211.09 81.7545 2211.89 82.0427 2212.03 82.0427C2212.61 82.0427 2213.9 81.0339 2215.92 79.0164C2218.08 76.8548 2219.52 75.7019 2220.25 75.5578L2192.79 127.869C2191.5 130.319 2190.85 133.057 2190.85 136.083C2190.85 139.83 2192.5 141.703 2195.82 141.703C2199.13 141.703 2207.85 134.57 2221.97 120.303C2232.49 109.639 2240.49 100.993 2245.97 94.3638L2247.7 95.877ZM2311.54 95.877C2301.59 111.008 2293.59 121.672 2287.54 127.869C2276.01 139.974 2264.63 146.026 2253.39 146.026C2245.9 146.026 2242.08 140.766 2241.93 130.247C2241.93 126.788 2244.89 120.015 2250.79 109.927C2256.85 99.8399 2259.87 94.0756 2259.87 92.6345C2259.87 91.6258 2259.59 91.1214 2259.01 91.1214C2258 91.1214 2256.13 92.2743 2253.39 94.58C2250.79 96.7416 2248.13 97.8224 2245.39 97.8224C2241.93 97.8224 2240.2 95.0844 2240.2 89.6083C2240.2 86.2938 2241.43 82.7632 2243.88 79.0164C2246.47 75.1255 2249.35 73.1801 2252.52 73.1801C2255.98 73.1801 2257.71 74.8373 2257.71 78.1518C2257.71 82.1868 2255.19 87.1585 2250.15 93.0669C2254.76 89.176 2259.22 85.5733 2263.55 82.2588C2267.01 79.5208 2270.11 78.1518 2272.84 78.1518C2275 78.1518 2276.81 79.0164 2278.25 80.7457C2279.69 82.3309 2280.41 84.2763 2280.41 86.582C2280.41 88.4554 2278.9 91.9861 2275.87 97.1739L2258.79 126.356C2256.05 130.967 2254.69 133.921 2254.69 135.218C2254.69 139.109 2256.56 141.055 2260.31 141.055C2271.69 141.055 2288.19 125.491 2309.81 94.3638L2311.54 95.877ZM2254.47 78.3679C2254.47 77.071 2253.82 76.4225 2252.52 76.4225C2250.36 76.4225 2248.34 78.0797 2246.47 81.3942C2244.6 84.5645 2243.66 87.3026 2243.66 89.6083C2243.66 92.0581 2244.45 93.283 2246.04 93.283C2251.66 86.0777 2254.47 81.106 2254.47 78.3679ZM2449.77 8.11569C2449.62 16.618 2444.58 28.2907 2434.63 43.1337C2422.24 61.7236 2406.39 76.6386 2387.08 87.879L2376.7 110.576C2372.24 120.375 2370 129.022 2370 136.515C2370 139.974 2371.52 141.703 2374.54 141.703C2381.46 141.703 2389.96 135.362 2400.05 122.681C2407.25 113.746 2413.45 104.307 2418.64 94.3638L2420.37 95.877C2412.3 110.288 2405.45 120.807 2399.83 127.436C2389.6 139.397 2379.23 145.594 2368.71 146.026C2364.81 146.17 2361.72 144.585 2359.41 141.271C2357.1 137.956 2355.95 133.561 2355.95 128.085C2355.95 116.556 2362 100.128 2374.11 78.8003C2381.89 65.1101 2392.12 50.1229 2404.8 33.8388C2422.24 11.5022 2434.99 0.333898 2443.06 0.333898C2444.79 0.333898 2446.31 1.12649 2447.6 2.71166C2449.05 4.29685 2449.77 6.09819 2449.77 8.11569ZM2440.47 9.41265C2440.47 6.38639 2439.46 4.87327 2437.44 4.87327C2434.13 4.87327 2426.78 14.3843 2415.4 33.4065C2404.16 52.4286 2396.23 68.2084 2391.62 80.7457C2403.72 73.6844 2415.25 61.1471 2426.2 43.1337C2435.72 27.5702 2440.47 16.3298 2440.47 9.41265ZM2500.21 95.877C2495.31 101.929 2486.45 108.558 2473.62 115.764C2471.46 116.628 2468.22 117.709 2463.9 119.006C2459.43 126.356 2453.31 132.624 2445.52 137.812C2437.17 143.288 2429.02 146.026 2421.1 146.026C2416.2 146.026 2412.16 143.865 2408.99 139.541C2406.11 135.651 2404.67 131.183 2404.67 126.139C2404.67 113.89 2409.71 102.866 2419.8 93.0669C2430.03 83.1235 2441.27 78.1518 2453.52 78.1518C2458.57 78.1518 2462.74 80.0972 2466.06 83.9881C2469.37 87.879 2471.03 92.7066 2471.03 98.4709C2471.03 101.929 2470.38 105.244 2469.08 108.414C2468.51 109.855 2467.43 112.305 2465.84 115.764C2467 115.62 2469.16 114.827 2472.33 113.386C2480.11 109.783 2488.83 103.443 2498.48 94.3638L2500.21 95.877ZM2458.06 86.1497C2458.06 82.547 2456.33 80.7457 2452.87 80.7457C2446.1 80.7457 2438.32 88.3113 2429.53 103.443C2421.17 117.565 2416.99 128.445 2416.99 136.083C2416.99 140.838 2418.36 143.216 2421.1 143.216C2428.59 143.216 2437.53 134.57 2447.9 117.277C2439.98 114.683 2436.01 111.152 2436.01 106.685C2436.01 102.074 2438.25 99.7678 2442.71 99.7678C2445.74 99.7678 2447.25 101.281 2447.25 104.307C2447.25 106.757 2445.31 108.198 2441.42 108.63C2442.43 112.233 2445.16 114.395 2449.63 115.115C2455.25 103.154 2458.06 93.4992 2458.06 86.1497ZM2581.52 95.877C2568.84 108.126 2555.87 114.611 2542.61 115.331C2540.02 121.816 2534.18 128.301 2525.1 134.786C2514.58 142.279 2503.92 146.026 2493.11 146.026C2489.94 146.026 2487.2 144.801 2484.9 142.352C2482.45 139.758 2481.22 136.947 2481.22 133.921C2481.22 126.716 2483.31 119.222 2487.49 111.441L2502.84 83.1235C2503.99 81.106 2505.57 80.0972 2507.59 80.0972C2508.6 80.0972 2510.04 80.3854 2511.92 80.9619C2513.93 81.5383 2515.16 81.8265 2515.59 81.8265C2515.88 81.8265 2516.96 80.8898 2518.83 79.0164C2520.71 77.143 2522.15 76.0622 2523.16 75.774L2497.43 125.059C2495.41 128.95 2494.41 132.192 2494.41 134.786C2494.41 140.262 2496.64 143 2501.11 143C2510.19 143 2519.55 132.84 2529.21 112.521C2524.6 107.045 2522.29 101.785 2522.29 96.7416C2522.29 92.1302 2523.73 87.7349 2526.61 83.5558C2529.93 78.8003 2533.75 76.4225 2538.07 76.4225C2541.24 76.4225 2544.05 78.1518 2546.5 81.6103C2549.09 85.0689 2550.39 88.8878 2550.39 93.0669C2550.39 100.56 2548.37 107.045 2544.34 112.521C2554.14 112.521 2565.96 106.469 2579.79 94.3638L2581.52 95.877ZM2540.02 91.1214C2540.02 84.6366 2538.29 81.3942 2534.83 81.3942C2532.23 81.3942 2529.93 83.0514 2527.91 86.3659C2525.89 89.6803 2524.88 93.211 2524.88 96.9578C2524.88 100.705 2526.9 105.028 2530.94 109.927C2536.99 99.5517 2540.02 93.283 2540.02 91.1214ZM2648.09 95.877C2643.04 104.379 2634.61 114.107 2622.8 125.059C2607.52 139.037 2594.69 146.026 2584.32 146.026C2578.84 146.026 2574.38 144.225 2570.92 140.622C2567.31 136.875 2565.51 132.264 2565.51 126.788C2565.51 112.954 2571.64 101.065 2583.89 91.1214C2594.55 82.475 2604.85 78.1518 2614.8 78.1518C2618.11 78.1518 2620.99 79.3046 2623.44 81.6103C2625.89 83.9161 2627.12 86.7261 2627.12 90.0406C2627.12 99.1194 2620.56 106.685 2607.45 112.737C2597.5 117.349 2589.15 119.655 2582.37 119.655C2579.78 125.275 2578.48 130.319 2578.48 134.786C2578.48 140.118 2580.43 142.784 2584.32 142.784C2593.83 142.784 2605.94 136.299 2620.63 123.329C2632.31 112.954 2640.88 103.298 2646.36 94.3638L2648.09 95.877ZM2616.31 85.9336C2616.31 82.6191 2614.8 80.9619 2611.77 80.9619C2604.85 80.9619 2595.78 92.1302 2584.54 114.467C2590.3 114.467 2597.14 110.72 2605.07 103.226C2612.56 96.1652 2616.31 90.4009 2616.31 85.9336ZM2744.31 53.0771C2744.31 56.2475 2743.23 59.1296 2741.07 61.7236C2738.91 64.1734 2736.46 65.3983 2733.72 65.3983C2731.41 65.3983 2729.47 64.6057 2727.88 63.0205C2726.3 61.2912 2725.5 59.2737 2725.5 56.968C2725.5 53.9418 2726.58 51.3478 2728.75 49.1862C2731.05 46.8805 2733.65 45.7277 2736.53 45.7277C2738.69 45.7277 2740.49 46.4482 2741.93 47.8893C2743.52 49.3303 2744.31 51.0596 2744.31 53.0771ZM2757.28 95.877C2729.03 129.31 2710.08 146.026 2700.43 146.026C2691.49 146.026 2687.03 141.775 2687.03 133.273C2687.03 126.788 2689.69 118.574 2695.03 108.63C2698.05 103.298 2702.52 95.3005 2708.43 84.6366C2710.16 81.6103 2712.1 80.0972 2714.26 80.0972C2716.28 80.0972 2717.94 80.4575 2719.24 81.178C2720.68 81.7545 2721.47 82.0427 2721.61 82.0427C2722.19 82.0427 2723.49 81.0339 2725.5 79.0164C2727.67 76.8548 2729.11 75.7019 2729.83 75.5578L2702.37 127.869C2701.08 130.319 2700.43 133.057 2700.43 136.083C2700.43 139.83 2702.09 141.703 2705.4 141.703C2708.72 141.703 2717.43 134.57 2731.56 120.303C2742.08 109.639 2750.07 100.993 2755.55 94.3638L2757.28 95.877ZM2810.96 95.877C2801.88 111.296 2793.23 121.744 2785.02 127.22C2779.54 130.967 2772.55 133.489 2764.05 134.786C2757.42 142.568 2749.42 146.459 2740.06 146.459C2728.67 146.459 2722.98 141.415 2722.98 131.327C2722.98 127.869 2723.99 124.987 2726.01 122.681C2727.88 120.375 2730.33 119.222 2733.36 119.222C2735.66 119.222 2738.33 120.519 2741.35 123.113C2745.1 126.428 2747.55 128.301 2748.7 128.733C2751.01 127.004 2752.88 124.194 2754.32 120.303C2755.91 116.412 2756.7 112.882 2756.7 109.711C2756.7 107.838 2755.98 104.595 2754.54 99.984C2753.24 95.2285 2752.59 91.4817 2752.59 88.7436C2752.59 84.1322 2753.39 79.809 2754.97 75.774C2757.13 70.5861 2760.16 67.9922 2764.05 67.9922C2767.65 67.9922 2769.46 69.2892 2769.46 71.8831C2769.46 75.0535 2767.22 80.6016 2762.75 88.5275C2767.08 98.4709 2769.24 106.325 2769.24 112.089C2769.24 121.024 2767.94 127.581 2765.35 131.76C2773.99 129.886 2780.77 127.076 2785.67 123.329C2792.87 117.853 2800.73 108.198 2809.23 94.3638L2810.96 95.877ZM2766.86 72.3154C2766.86 70.7302 2766 69.9377 2764.27 69.9377C2763.4 69.9377 2762.47 70.9464 2761.46 72.9639C2760.59 74.8373 2760.16 76.8548 2760.16 79.0164C2760.16 82.0427 2760.59 84.3484 2761.46 85.9336C2765.06 80.8898 2766.86 76.3504 2766.86 72.3154ZM2746.54 130.895C2745.53 130.463 2743.52 128.95 2740.49 126.356C2737.75 124.194 2735.88 123.113 2734.87 123.113C2732.28 123.113 2730.98 124.554 2730.98 127.436C2730.98 130.607 2733.28 132.624 2737.9 133.489C2742.65 133.489 2745.53 132.624 2746.54 130.895ZM2907.27 53.0771C2907.27 56.2475 2906.19 59.1296 2904.03 61.7236C2901.87 64.1734 2899.42 65.3983 2896.68 65.3983C2894.38 65.3983 2892.43 64.6057 2890.85 63.0205C2889.26 61.2912 2888.47 59.2737 2888.47 56.968C2888.47 53.9418 2889.55 51.3478 2891.71 49.1862C2894.02 46.8805 2896.61 45.7277 2899.49 45.7277C2901.65 45.7277 2903.46 46.4482 2904.9 47.8893C2906.48 49.3303 2907.27 51.0596 2907.27 53.0771ZM2920.24 95.877C2892 129.31 2873.05 146.026 2863.39 146.026C2854.46 146.026 2849.99 141.775 2849.99 133.273C2849.99 126.788 2852.66 118.574 2857.99 108.63C2861.02 103.298 2865.48 95.3005 2871.39 84.6366C2873.12 81.6103 2875.07 80.0972 2877.23 80.0972C2879.25 80.0972 2880.9 80.4575 2882.2 81.178C2883.64 81.7545 2884.43 82.0427 2884.58 82.0427C2885.15 82.0427 2886.45 81.0339 2888.47 79.0164C2890.63 76.8548 2892.07 75.7019 2892.79 75.5578L2865.34 127.869C2864.04 130.319 2863.39 133.057 2863.39 136.083C2863.39 139.83 2865.05 141.703 2868.37 141.703C2871.68 141.703 2880.4 134.57 2894.52 120.303C2905.04 109.639 2913.04 100.993 2918.52 94.3638L2920.24 95.877ZM3003.75 95.877C3001.59 98.4709 2990.5 110.936 2970.46 133.273C2962.68 141.919 2955.41 146.242 2948.63 146.242C2940.71 146.242 2936.53 141.919 2936.1 133.273C2935.95 129.382 2937.46 124.987 2940.63 120.087L2958.58 92.6345C2960.59 89.6083 2961.6 87.4467 2961.6 86.1497C2961.6 84.8528 2960.52 84.2043 2958.36 84.2043C2952.88 84.2043 2945.68 89.248 2936.74 99.3355C2930.4 106.685 2925.07 114.107 2920.75 121.6C2918.87 125.059 2916.14 130.102 2912.53 136.731C2909.94 141.631 2907.56 144.081 2905.4 144.081C2904.68 144.081 2903.31 143.793 2901.29 143.216C2899.13 142.64 2897.83 142.352 2897.4 142.352C2896.25 142.352 2893.58 144.441 2889.4 148.62L2922.48 85.2851C2924.35 81.8265 2926.51 80.0972 2928.96 80.0972C2929.97 80.0972 2931.34 80.3854 2933.07 80.9619C2934.94 81.5383 2936.1 81.8265 2936.53 81.8265C2936.82 81.8265 2937.97 80.8898 2939.99 79.0164C2942.15 77.143 2943.66 75.9902 2944.53 75.5578L2933.5 96.3093C2947.34 84.2043 2958.14 78.1518 2965.93 78.1518C2972.55 78.1518 2975.87 81.4662 2975.87 88.0952C2975.87 91.5537 2974.5 95.4446 2971.76 99.7678L2951.66 131.111C2949.06 135.146 2947.77 137.596 2947.77 138.461C2947.77 141.055 2949.28 142.352 2952.31 142.352C2956.49 142.352 2962.47 138.028 2970.25 129.382L3002.02 94.3638L3003.75 95.877ZM3112.97 95.877C3110.81 99.1914 3104.04 108.27 3092.65 123.113C3080.84 138.389 3068.23 146.026 3054.83 146.026C3051.66 146.026 3048.99 144.657 3046.83 141.919C3044.52 139.181 3043.37 135.867 3043.37 131.976C3043.37 128.229 3044.88 123.257 3047.91 117.061L3064.77 82.6911H3048.99L3052.45 79.4487H3069.74C3076.8 74.9814 3083.22 69.2892 3088.98 62.372C3092.58 58.0488 3097.55 50.9876 3103.9 41.1883H3106.27L3084.44 79.4487H3100.65L3099.36 82.6911H3083.14L3060.66 122.032C3057.49 127.508 3055.91 131.327 3055.91 133.489C3055.91 135.218 3056.48 137.02 3057.64 138.893C3058.93 140.766 3060.23 141.703 3061.53 141.703C3065.71 141.703 3071.04 139.181 3077.52 134.137C3082.71 130.102 3087.03 125.851 3090.49 121.384C3094.53 116.34 3101.45 107.333 3111.24 94.3638L3112.97 95.877ZM3192.59 11.5743C3192.59 24.9762 3183.51 40.4677 3165.36 58.0488C3152.39 70.5861 3140.64 79.5208 3130.12 84.8528C3128.68 88.1672 3127.24 91.3376 3125.8 94.3638C3137.33 83.5558 3146.62 78.1518 3153.68 78.1518C3159.59 78.1518 3162.55 81.178 3162.55 87.2305C3162.55 91.842 3157.79 101.353 3148.28 115.764C3138.91 130.03 3134.23 137.236 3134.23 137.38C3134.23 139.974 3135.24 141.271 3137.25 141.271C3141.58 141.271 3149.22 135.434 3160.17 123.762C3162.62 121.168 3171.05 111.368 3185.46 94.3638L3187.19 95.877C3172.34 114.323 3163.12 125.419 3159.52 129.166C3148.71 140.406 3140.06 146.026 3133.58 146.026C3130.12 146.026 3127.24 145.09 3124.93 143.216C3122.77 141.343 3121.69 138.893 3121.69 135.867C3121.69 132.264 3126.3 123.473 3135.53 109.495C3144.89 95.5167 3149.58 87.7349 3149.58 86.1497C3149.58 84.7086 3149 83.9881 3147.85 83.9881C3144.1 83.9881 3139.78 86.0777 3134.88 90.2568C3130.41 93.7153 3127.1 97.3901 3124.93 101.281C3122.77 105.028 3116.86 115.836 3107.21 133.705C3103.46 140.766 3100.58 144.297 3098.56 144.297C3097.7 144.297 3096.26 144.009 3094.24 143.432C3092.22 143 3091.07 142.784 3090.78 142.784C3089.92 142.784 3088.76 143.36 3087.32 144.513C3085.59 146.242 3084.01 147.539 3082.57 148.404C3092.22 129.958 3099.86 115.548 3105.48 105.172C3117.3 83.5558 3128.82 64.6778 3140.06 48.5378C3160.1 19.5722 3175.01 5.08944 3184.81 5.08944C3190 5.08944 3192.59 7.25104 3192.59 11.5743ZM3182.86 14.8167C3182.86 11.214 3182.14 9.41265 3180.7 9.41265C3176.96 9.41265 3170.47 16.618 3161.25 31.0287C3156.78 37.9459 3147.27 53.9418 3132.72 79.0164C3147.56 69.3612 3159.95 57.6886 3169.9 43.9984C3178.54 32.1816 3182.86 22.4543 3182.86 14.8167ZM3253.51 95.877C3248.46 104.379 3240.03 114.107 3228.21 125.059C3212.94 139.037 3200.11 146.026 3189.74 146.026C3184.26 146.026 3179.79 144.225 3176.34 140.622C3172.73 136.875 3170.93 132.264 3170.93 126.788C3170.93 112.954 3177.06 101.065 3189.31 91.1214C3199.97 82.475 3210.27 78.1518 3220.22 78.1518C3223.53 78.1518 3226.41 79.3046 3228.86 81.6103C3231.31 83.9161 3232.54 86.7261 3232.54 90.0406C3232.54 99.1194 3225.98 106.685 3212.87 112.737C3202.92 117.349 3194.57 119.655 3187.79 119.655C3185.2 125.275 3183.9 130.319 3183.9 134.786C3183.9 140.118 3185.85 142.784 3189.74 142.784C3199.25 142.784 3211.35 136.299 3226.05 123.329C3237.73 112.954 3246.3 103.298 3251.78 94.3638L3253.51 95.877ZM3221.73 85.9336C3221.73 82.6191 3220.22 80.9619 3217.19 80.9619C3210.27 80.9619 3201.19 92.1302 3189.95 114.467C3195.72 114.467 3202.56 110.72 3210.49 103.226C3217.98 96.1652 3221.73 90.4009 3221.73 85.9336ZM3403.99 95.877C3376.61 129.31 3357.65 146.026 3347.14 146.026C3340.07 146.026 3334.6 141.847 3330.71 133.489C3324.51 141.847 3317.67 146.026 3310.17 146.026C3300.52 146.026 3295.69 138.965 3295.69 124.842C3295.69 114.034 3300.16 103.803 3309.09 94.1477C3318.89 83.4837 3330.49 78.1518 3343.89 78.1518C3348.94 78.1518 3352.61 79.8811 3354.92 83.3396C3356.65 81.178 3358.16 80.0972 3359.46 80.0972C3360.03 80.0972 3361.55 80.3134 3364 80.7457C3366.45 81.178 3367.96 81.3942 3368.54 81.3942C3369.11 81.3942 3370.26 80.4575 3371.99 78.5841C3373.87 76.7107 3375.09 75.7019 3375.67 75.5578L3347.35 128.733C3344.9 133.345 3343.68 136.659 3343.68 138.677C3343.68 141.559 3345.26 143 3348.43 143C3353.19 143 3362.63 136.011 3376.75 122.032C3386.69 112.233 3395.19 103.01 3402.26 94.3638L3403.99 95.877ZM3351.67 87.2305C3351.67 83.772 3350.16 82.0427 3347.14 82.0427C3338.63 82.0427 3329.77 89.4642 3320.55 104.307C3312.33 117.565 3308.23 128.085 3308.23 135.867C3308.23 140.622 3309.67 143 3312.55 143C3318.31 143 3324.01 138.244 3329.63 128.733C3344.33 103.659 3351.67 89.8245 3351.67 87.2305ZM3441.77 53.0771C3441.77 56.2475 3440.69 59.1296 3438.52 61.7236C3436.36 64.1734 3433.91 65.3983 3431.17 65.3983C3428.87 65.3983 3426.92 64.6057 3425.34 63.0205C3423.75 61.2912 3422.96 59.2737 3422.96 56.968C3422.96 53.9418 3424.04 51.3478 3426.2 49.1862C3428.51 46.8805 3431.1 45.7277 3433.98 45.7277C3436.15 45.7277 3437.95 46.4482 3439.39 47.8893C3440.97 49.3303 3441.77 51.0596 3441.77 53.0771ZM3454.74 95.877C3426.49 129.31 3407.54 146.026 3397.89 146.026C3388.95 146.026 3384.48 141.775 3384.48 133.273C3384.48 126.788 3387.15 118.574 3392.48 108.63C3395.51 103.298 3399.98 95.3005 3405.88 84.6366C3407.61 81.6103 3409.56 80.0972 3411.72 80.0972C3413.74 80.0972 3415.39 80.4575 3416.69 81.178C3418.13 81.7545 3418.93 82.0427 3419.07 82.0427C3419.65 82.0427 3420.94 81.0339 3422.96 79.0164C3425.12 76.8548 3426.56 75.7019 3427.28 75.5578L3399.83 127.869C3398.53 130.319 3397.89 133.057 3397.89 136.083C3397.89 139.83 3399.54 141.703 3402.86 141.703C3406.17 141.703 3414.89 134.57 3429.01 120.303C3439.53 109.639 3447.53 100.993 3453.01 94.3638L3454.74 95.877ZM3518.57 95.877C3508.63 111.008 3500.63 121.672 3494.58 127.869C3483.05 139.974 3471.67 146.026 3460.43 146.026C3452.93 146.026 3449.11 140.766 3448.97 130.247C3448.97 126.788 3451.92 120.015 3457.83 109.927C3463.89 99.8399 3466.91 94.0756 3466.91 92.6345C3466.91 91.6258 3466.62 91.1214 3466.05 91.1214C3465.04 91.1214 3463.17 92.2743 3460.43 94.58C3457.83 96.7416 3455.17 97.8224 3452.43 97.8224C3448.97 97.8224 3447.24 95.0844 3447.24 89.6083C3447.24 86.2938 3448.47 82.7632 3450.92 79.0164C3453.51 75.1255 3456.39 73.1801 3459.56 73.1801C3463.02 73.1801 3464.75 74.8373 3464.75 78.1518C3464.75 82.1868 3462.23 87.1585 3457.18 93.0669C3461.8 89.176 3466.26 85.5733 3470.59 82.2588C3474.05 79.5208 3477.14 78.1518 3479.88 78.1518C3482.04 78.1518 3483.84 79.0164 3485.29 80.7457C3486.73 82.3309 3487.45 84.2763 3487.45 86.582C3487.45 88.4554 3485.93 91.9861 3482.91 97.1739L3465.83 126.356C3463.09 130.967 3461.72 133.921 3461.72 135.218C3461.72 139.109 3463.6 141.055 3467.34 141.055C3478.73 141.055 3495.23 125.491 3516.84 94.3638L3518.57 95.877ZM3461.51 78.3679C3461.51 77.071 3460.86 76.4225 3459.56 76.4225C3457.4 76.4225 3455.38 78.0797 3453.51 81.3942C3451.64 84.5645 3450.7 87.3026 3450.7 89.6083C3450.7 92.0581 3451.49 93.283 3453.08 93.283C3458.7 86.0777 3461.51 81.106 3461.51 78.3679ZM3598.54 8.11569C3598.4 16.618 3593.35 28.2907 3583.41 43.1337C3571.02 61.7236 3555.17 76.6386 3535.86 87.879L3525.48 110.576C3521.01 120.375 3518.78 129.022 3518.78 136.515C3518.78 139.974 3520.29 141.703 3523.32 141.703C3530.23 141.703 3538.74 135.362 3548.82 122.681C3556.03 113.746 3562.23 104.307 3567.41 94.3638L3569.14 95.877C3561.07 110.288 3554.23 120.807 3548.61 127.436C3538.38 139.397 3528 145.594 3517.48 146.026C3513.59 146.17 3510.49 144.585 3508.19 141.271C3505.88 137.956 3504.73 133.561 3504.73 128.085C3504.73 116.556 3510.78 100.128 3522.89 78.8003C3530.67 65.1101 3540.9 50.1229 3553.58 33.8388C3571.02 11.5022 3583.77 0.333898 3591.84 0.333898C3593.57 0.333898 3595.08 1.12649 3596.38 2.71166C3597.82 4.29685 3598.54 6.09819 3598.54 8.11569ZM3589.25 9.41265C3589.25 6.38639 3588.24 4.87327 3586.22 4.87327C3582.91 4.87327 3575.56 14.3843 3564.17 33.4065C3552.93 52.4286 3545.01 68.2084 3540.39 80.7457C3552.5 73.6844 3564.03 61.1471 3574.98 43.1337C3584.49 27.5702 3589.25 16.3298 3589.25 9.41265ZM3648.99 95.877C3644.09 101.929 3635.23 108.558 3622.4 115.764C3620.24 116.628 3617 117.709 3612.67 119.006C3608.21 126.356 3602.08 132.624 3594.3 137.812C3585.94 143.288 3577.8 146.026 3569.87 146.026C3564.97 146.026 3560.94 143.865 3557.77 139.541C3554.89 135.651 3553.45 131.183 3553.45 126.139C3553.45 113.89 3558.49 102.866 3568.58 93.0669C3578.81 83.1235 3590.05 78.1518 3602.3 78.1518C3607.34 78.1518 3611.52 80.0972 3614.84 83.9881C3618.15 87.879 3619.81 92.7066 3619.81 98.4709C3619.81 101.929 3619.16 105.244 3617.86 108.414C3617.28 109.855 3616.2 112.305 3614.62 115.764C3615.77 115.62 3617.93 114.827 3621.1 113.386C3628.89 109.783 3637.6 103.443 3647.26 94.3638L3648.99 95.877ZM3606.84 86.1497C3606.84 82.547 3605.11 80.7457 3601.65 80.7457C3594.88 80.7457 3587.09 88.3113 3578.3 103.443C3569.95 117.565 3565.77 128.445 3565.77 136.083C3565.77 140.838 3567.14 143.216 3569.87 143.216C3577.37 143.216 3586.3 134.57 3596.68 117.277C3588.75 114.683 3584.79 111.152 3584.79 106.685C3584.79 102.074 3587.02 99.7678 3591.49 99.7678C3594.52 99.7678 3596.03 101.281 3596.03 104.307C3596.03 106.757 3594.08 108.198 3590.19 108.63C3591.2 112.233 3593.94 114.395 3598.41 115.115C3604.03 103.154 3606.84 93.4992 3606.84 86.1497ZM3730.3 95.877C3717.61 108.126 3704.64 114.611 3691.39 115.331C3688.79 121.816 3682.96 128.301 3673.88 134.786C3663.36 142.279 3652.69 146.026 3641.89 146.026C3638.72 146.026 3635.98 144.801 3633.67 142.352C3631.22 139.758 3630 136.947 3630 133.921C3630 126.716 3632.09 119.222 3636.27 111.441L3651.61 83.1235C3652.77 81.106 3654.35 80.0972 3656.37 80.0972C3657.38 80.0972 3658.82 80.3854 3660.69 80.9619C3662.71 81.5383 3663.93 81.8265 3664.37 81.8265C3664.65 81.8265 3665.74 80.8898 3667.61 79.0164C3669.48 77.143 3670.92 76.0622 3671.93 75.774L3646.21 125.059C3644.19 128.95 3643.18 132.192 3643.18 134.786C3643.18 140.262 3645.42 143 3649.88 143C3658.96 143 3668.33 132.84 3677.98 112.521C3673.37 107.045 3671.07 101.785 3671.07 96.7416C3671.07 92.1302 3672.51 87.7349 3675.39 83.5558C3678.7 78.8003 3682.52 76.4225 3686.85 76.4225C3690.02 76.4225 3692.83 78.1518 3695.28 81.6103C3697.87 85.0689 3699.17 88.8878 3699.17 93.0669C3699.17 100.56 3697.15 107.045 3693.12 112.521C3702.91 112.521 3714.73 106.469 3728.57 94.3638L3730.3 95.877ZM3688.79 91.1214C3688.79 84.6366 3687.06 81.3942 3683.6 81.3942C3681.01 81.3942 3678.7 83.0514 3676.69 86.3659C3674.67 89.6803 3673.66 93.211 3673.66 96.9578C3673.66 100.705 3675.68 105.028 3679.71 109.927C3685.77 99.5517 3688.79 93.283 3688.79 91.1214ZM3796.86 95.877C3791.82 104.379 3783.39 114.107 3771.57 125.059C3756.3 139.037 3743.47 146.026 3733.1 146.026C3727.62 146.026 3723.15 144.225 3719.69 140.622C3716.09 136.875 3714.29 132.264 3714.29 126.788C3714.29 112.954 3720.41 101.065 3732.66 91.1214C3743.33 82.475 3753.63 78.1518 3763.57 78.1518C3766.89 78.1518 3769.77 79.3046 3772.22 81.6103C3774.67 83.9161 3775.89 86.7261 3775.89 90.0406C3775.89 99.1194 3769.34 106.685 3756.22 112.737C3746.28 117.349 3737.92 119.655 3731.15 119.655C3728.56 125.275 3727.26 130.319 3727.26 134.786C3727.26 140.118 3729.2 142.784 3733.1 142.784C3742.61 142.784 3754.71 136.299 3769.41 123.329C3781.08 112.954 3789.66 103.298 3795.13 94.3638L3796.86 95.877ZM3765.09 85.9336C3765.09 82.6191 3763.57 80.9619 3760.55 80.9619C3753.63 80.9619 3744.55 92.1302 3733.31 114.467C3739.08 114.467 3745.92 110.72 3753.85 103.226C3761.34 96.1652 3765.09 90.4009 3765.09 85.9336ZM3893.09 53.0771C3893.09 56.2475 3892.01 59.1296 3889.84 61.7236C3887.68 64.1734 3885.23 65.3983 3882.49 65.3983C3880.19 65.3983 3878.24 64.6057 3876.66 63.0205C3875.07 61.2912 3874.28 59.2737 3874.28 56.968C3874.28 53.9418 3875.36 51.3478 3877.52 49.1862C3879.83 46.8805 3882.42 45.7277 3885.3 45.7277C3887.47 45.7277 3889.27 46.4482 3890.71 47.8893C3892.29 49.3303 3893.09 51.0596 3893.09 53.0771ZM3906.06 95.877C3877.81 129.31 3858.86 146.026 3849.21 146.026C3840.27 146.026 3835.8 141.775 3835.8 133.273C3835.8 126.788 3838.47 118.574 3843.8 108.63C3846.83 103.298 3851.3 95.3005 3857.2 84.6366C3858.93 81.6103 3860.88 80.0972 3863.04 80.0972C3865.06 80.0972 3866.71 80.4575 3868.01 81.178C3869.45 81.7545 3870.25 82.0427 3870.39 82.0427C3870.97 82.0427 3872.26 81.0339 3874.28 79.0164C3876.44 76.8548 3877.88 75.7019 3878.6 75.5578L3851.15 127.869C3849.85 130.319 3849.21 133.057 3849.21 136.083C3849.21 139.83 3850.86 141.703 3854.18 141.703C3857.49 141.703 3866.21 134.57 3880.33 120.303C3890.85 109.639 3898.85 100.993 3904.33 94.3638L3906.06 95.877ZM3959.73 95.877C3950.66 111.296 3942.01 121.744 3933.8 127.22C3928.32 130.967 3921.33 133.489 3912.83 134.786C3906.2 142.568 3898.2 146.459 3888.83 146.459C3877.45 146.459 3871.76 141.415 3871.76 131.327C3871.76 127.869 3872.77 124.987 3874.78 122.681C3876.66 120.375 3879.11 119.222 3882.13 119.222C3884.44 119.222 3887.1 120.519 3890.13 123.113C3893.88 126.428 3896.33 128.301 3897.48 128.733C3899.79 127.004 3901.66 124.194 3903.1 120.303C3904.69 116.412 3905.48 112.882 3905.48 109.711C3905.48 107.838 3904.76 104.595 3903.32 99.984C3902.02 95.2285 3901.37 91.4817 3901.37 88.7436C3901.37 84.1322 3902.16 79.809 3903.75 75.774C3905.91 70.5861 3908.94 67.9922 3912.83 67.9922C3916.43 67.9922 3918.23 69.2892 3918.23 71.8831C3918.23 75.0535 3916 80.6016 3911.53 88.5275C3915.85 98.4709 3918.02 106.325 3918.02 112.089C3918.02 121.024 3916.72 127.581 3914.12 131.76C3922.77 129.886 3929.54 127.076 3934.44 123.329C3941.65 117.853 3949.5 108.198 3958.01 94.3638L3959.73 95.877ZM3915.64 72.3154C3915.64 70.7302 3914.77 69.9377 3913.04 69.9377C3912.18 69.9377 3911.24 70.9464 3910.23 72.9639C3909.37 74.8373 3908.94 76.8548 3908.94 79.0164C3908.94 82.0427 3909.37 84.3484 3910.23 85.9336C3913.84 80.8898 3915.64 76.3504 3915.64 72.3154ZM3895.32 130.895C3894.31 130.463 3892.29 128.95 3889.27 126.356C3886.53 124.194 3884.65 123.113 3883.65 123.113C3881.05 123.113 3879.76 124.554 3879.76 127.436C3879.76 130.607 3882.06 132.624 3886.67 133.489C3891.43 133.489 3894.31 132.624 3895.32 130.895ZM4056.05 53.0771C4056.05 56.2475 4054.97 59.1296 4052.81 61.7236C4050.65 64.1734 4048.2 65.3983 4045.46 65.3983C4043.15 65.3983 4041.21 64.6057 4039.62 63.0205C4038.04 61.2912 4037.25 59.2737 4037.25 56.968C4037.25 53.9418 4038.33 51.3478 4040.49 49.1862C4042.79 46.8805 4045.39 45.7277 4048.27 45.7277C4050.43 45.7277 4052.23 46.4482 4053.67 47.8893C4055.26 49.3303 4056.05 51.0596 4056.05 53.0771ZM4069.02 95.877C4040.78 129.31 4021.83 146.026 4012.17 146.026C4003.24 146.026 3998.77 141.775 3998.77 133.273C3998.77 126.788 4001.43 118.574 4006.77 108.63C4009.79 103.298 4014.26 95.3005 4020.17 84.6366C4021.9 81.6103 4023.84 80.0972 4026 80.0972C4028.02 80.0972 4029.68 80.4575 4030.98 81.178C4032.42 81.7545 4033.21 82.0427 4033.35 82.0427C4033.93 82.0427 4035.23 81.0339 4037.25 79.0164C4039.41 76.8548 4040.85 75.7019 4041.57 75.5578L4014.12 127.869C4012.82 130.319 4012.17 133.057 4012.17 136.083C4012.17 139.83 4013.83 141.703 4017.14 141.703C4020.46 141.703 4029.18 134.57 4043.3 120.303C4053.82 109.639 4061.82 100.993 4067.29 94.3638L4069.02 95.877ZM4152.53 95.877C4150.37 98.4709 4139.27 110.936 4119.24 133.273C4111.46 141.919 4104.18 146.242 4097.41 146.242C4089.48 146.242 4085.3 141.919 4084.87 133.273C4084.73 129.382 4086.24 124.987 4089.41 120.087L4107.35 92.6345C4109.37 89.6083 4110.38 87.4467 4110.38 86.1497C4110.38 84.8528 4109.3 84.2043 4107.14 84.2043C4101.66 84.2043 4094.45 89.248 4085.52 99.3355C4079.18 106.685 4073.85 114.107 4069.52 121.6C4067.65 125.059 4064.91 130.102 4061.31 136.731C4058.72 141.631 4056.34 144.081 4054.18 144.081C4053.46 144.081 4052.09 143.793 4050.07 143.216C4047.91 142.64 4046.61 142.352 4046.18 142.352C4045.03 142.352 4042.36 144.441 4038.18 148.62L4071.25 85.2851C4073.13 81.8265 4075.29 80.0972 4077.74 80.0972C4078.75 80.0972 4080.12 80.3854 4081.85 80.9619C4083.72 81.5383 4084.87 81.8265 4085.3 81.8265C4085.59 81.8265 4086.74 80.8898 4088.76 79.0164C4090.92 77.143 4092.44 75.9902 4093.3 75.5578L4082.28 96.3093C4096.11 84.2043 4106.92 78.1518 4114.7 78.1518C4121.33 78.1518 4124.65 81.4662 4124.65 88.0952C4124.65 91.5537 4123.28 95.4446 4120.54 99.7678L4100.44 131.111C4097.84 135.146 4096.54 137.596 4096.54 138.461C4096.54 141.055 4098.06 142.352 4101.08 142.352C4105.26 142.352 4111.24 138.028 4119.02 129.382L4150.8 94.3638L4152.53 95.877ZM4261.75 95.877C4259.59 99.1914 4252.82 108.27 4241.43 123.113C4229.61 138.389 4217 146.026 4203.6 146.026C4200.43 146.026 4197.77 144.657 4195.6 141.919C4193.3 139.181 4192.15 135.867 4192.15 131.976C4192.15 128.229 4193.66 123.257 4196.69 117.061L4213.55 82.6911H4197.77L4201.22 79.4487H4218.52C4225.58 74.9814 4231.99 69.2892 4237.76 62.372C4241.36 58.0488 4246.33 50.9876 4252.67 41.1883H4255.05L4233.22 79.4487H4249.43L4248.13 82.6911H4231.92L4209.44 122.032C4206.27 127.508 4204.68 131.327 4204.68 133.489C4204.68 135.218 4205.26 137.02 4206.41 138.893C4207.71 140.766 4209.01 141.703 4210.3 141.703C4214.48 141.703 4219.81 139.181 4226.3 134.137C4231.49 130.102 4235.81 125.851 4239.27 121.384C4243.3 116.34 4250.22 107.333 4260.02 94.3638L4261.75 95.877ZM4341.37 11.5743C4341.37 24.9762 4332.29 40.4677 4314.13 58.0488C4301.16 70.5861 4289.42 79.5208 4278.9 84.8528C4277.46 88.1672 4276.02 91.3376 4274.57 94.3638C4286.1 83.5558 4295.4 78.1518 4302.46 78.1518C4308.37 78.1518 4311.32 81.178 4311.32 87.2305C4311.32 91.842 4306.57 101.353 4297.06 115.764C4287.69 130.03 4283 137.236 4283 137.38C4283 139.974 4284.01 141.271 4286.03 141.271C4290.35 141.271 4297.99 135.434 4308.94 123.762C4311.39 121.168 4319.82 111.368 4334.23 94.3638L4335.96 95.877C4321.12 114.323 4311.9 125.419 4308.3 129.166C4297.49 140.406 4288.84 146.026 4282.36 146.026C4278.9 146.026 4276.02 145.09 4273.71 143.216C4271.55 141.343 4270.47 138.893 4270.47 135.867C4270.47 132.264 4275.08 123.473 4284.3 109.495C4293.67 95.5167 4298.35 87.7349 4298.35 86.1497C4298.35 84.7086 4297.78 83.9881 4296.62 83.9881C4292.88 83.9881 4288.55 86.0777 4283.65 90.2568C4279.19 93.7153 4275.87 97.3901 4273.71 101.281C4271.55 105.028 4265.64 115.836 4255.98 133.705C4252.24 140.766 4249.36 144.297 4247.34 144.297C4246.47 144.297 4245.03 144.009 4243.01 143.432C4241 143 4239.84 142.784 4239.56 142.784C4238.69 142.784 4237.54 143.36 4236.1 144.513C4234.37 146.242 4232.78 147.539 4231.34 148.404C4241 129.958 4248.64 115.548 4254.26 105.172C4266.07 83.5558 4277.6 64.6778 4288.84 48.5378C4308.87 19.5722 4323.79 5.08944 4333.59 5.08944C4338.77 5.08944 4341.37 7.25104 4341.37 11.5743ZM4331.64 14.8167C4331.64 11.214 4330.92 9.41265 4329.48 9.41265C4325.73 9.41265 4319.25 16.618 4310.02 31.0287C4305.56 37.9459 4296.05 53.9418 4281.49 79.0164C4296.33 69.3612 4308.73 57.6886 4318.67 43.9984C4327.32 32.1816 4331.64 22.4543 4331.64 14.8167ZM4402.28 95.877C4397.24 104.379 4388.81 114.107 4376.99 125.059C4361.72 139.037 4348.89 146.026 4338.51 146.026C4333.04 146.026 4328.57 144.225 4325.11 140.622C4321.51 136.875 4319.71 132.264 4319.71 126.788C4319.71 112.954 4325.83 101.065 4338.08 91.1214C4348.75 82.475 4359.05 78.1518 4368.99 78.1518C4372.31 78.1518 4375.19 79.3046 4377.64 81.6103C4380.09 83.9161 4381.31 86.7261 4381.31 90.0406C4381.31 99.1194 4374.76 106.685 4361.64 112.737C4351.7 117.349 4343.34 119.655 4336.57 119.655C4333.97 125.275 4332.68 130.319 4332.68 134.786C4332.68 140.118 4334.62 142.784 4338.51 142.784C4348.02 142.784 4360.13 136.299 4374.83 123.329C4386.5 112.954 4395.08 103.298 4400.55 94.3638L4402.28 95.877ZM4370.51 85.9336C4370.51 82.6191 4368.99 80.9619 4365.97 80.9619C4359.05 80.9619 4349.97 92.1302 4338.73 114.467C4344.49 114.467 4351.34 110.72 4359.27 103.226C4366.76 96.1652 4370.51 90.4009 4370.51 85.9336ZM4552.76 95.877C4525.38 129.31 4506.43 146.026 4495.91 146.026C4488.85 146.026 4483.37 141.847 4479.48 133.489C4473.29 141.847 4466.44 146.026 4458.95 146.026C4449.29 146.026 4444.46 138.965 4444.46 124.842C4444.46 114.034 4448.93 103.803 4457.87 94.1477C4467.67 83.4837 4479.27 78.1518 4492.67 78.1518C4497.71 78.1518 4501.39 79.8811 4503.69 83.3396C4505.42 81.178 4506.94 80.0972 4508.23 80.0972C4508.81 80.0972 4510.32 80.3134 4512.77 80.7457C4515.22 81.178 4516.73 81.3942 4517.31 81.3942C4517.89 81.3942 4519.04 80.4575 4520.77 78.5841C4522.64 76.7107 4523.87 75.7019 4524.44 75.5578L4496.13 128.733C4493.68 133.345 4492.45 136.659 4492.45 138.677C4492.45 141.559 4494.04 143 4497.21 143C4501.96 143 4511.4 136.011 4525.53 122.032C4535.47 112.233 4543.97 103.01 4551.03 94.3638L4552.76 95.877ZM4500.45 87.2305C4500.45 83.772 4498.94 82.0427 4495.91 82.0427C4487.41 82.0427 4478.55 89.4642 4469.32 104.307C4461.11 117.565 4457 128.085 4457 135.867C4457 140.622 4458.44 143 4461.33 143C4467.09 143 4472.78 138.244 4478.4 128.733C4493.1 103.659 4500.45 89.8245 4500.45 87.2305ZM4590.54 53.0771C4590.54 56.2475 4589.46 59.1296 4587.3 61.7236C4585.14 64.1734 4582.69 65.3983 4579.95 65.3983C4577.64 65.3983 4575.7 64.6057 4574.11 63.0205C4572.53 61.2912 4571.74 59.2737 4571.74 56.968C4571.74 53.9418 4572.82 51.3478 4574.98 49.1862C4577.28 46.8805 4579.88 45.7277 4582.76 45.7277C4584.92 45.7277 4586.72 46.4482 4588.16 47.8893C4589.75 49.3303 4590.54 51.0596 4590.54 53.0771ZM4603.51 95.877C4575.27 129.31 4556.32 146.026 4546.66 146.026C4537.73 146.026 4533.26 141.775 4533.26 133.273C4533.26 126.788 4535.93 118.574 4541.26 108.63C4544.28 103.298 4548.75 95.3005 4554.66 84.6366C4556.39 81.6103 4558.33 80.0972 4560.5 80.0972C4562.51 80.0972 4564.17 80.4575 4565.47 81.178C4566.91 81.7545 4567.7 82.0427 4567.85 82.0427C4568.42 82.0427 4569.72 81.0339 4571.74 79.0164C4573.9 76.8548 4575.34 75.7019 4576.06 75.5578L4548.61 127.869C4547.31 130.319 4546.66 133.057 4546.66 136.083C4546.66 139.83 4548.32 141.703 4551.63 141.703C4554.95 141.703 4563.67 134.57 4577.79 120.303C4588.31 109.639 4596.31 100.993 4601.78 94.3638L4603.51 95.877ZM4667.35 95.877C4657.41 111.008 4649.41 121.672 4643.36 127.869C4631.83 139.974 4620.44 146.026 4609.2 146.026C4601.71 146.026 4597.89 140.766 4597.75 130.247C4597.75 126.788 4600.7 120.015 4606.61 109.927C4612.66 99.8399 4615.69 94.0756 4615.69 92.6345C4615.69 91.6258 4615.4 91.1214 4614.82 91.1214C4613.81 91.1214 4611.94 92.2743 4609.2 94.58C4606.61 96.7416 4603.94 97.8224 4601.2 97.8224C4597.75 97.8224 4596.02 95.0844 4596.02 89.6083C4596.02 86.2938 4597.24 82.7632 4599.69 79.0164C4602.29 75.1255 4605.17 73.1801 4608.34 73.1801C4611.8 73.1801 4613.53 74.8373 4613.53 78.1518C4613.53 82.1868 4611 87.1585 4605.96 93.0669C4610.57 89.176 4615.04 85.5733 4619.36 82.2588C4622.82 79.5208 4625.92 78.1518 4628.66 78.1518C4630.82 78.1518 4632.62 79.0164 4634.06 80.7457C4635.5 82.3309 4636.22 84.2763 4636.22 86.582C4636.22 88.4554 4634.71 91.9861 4631.68 97.1739L4614.61 126.356C4611.87 130.967 4610.5 133.921 4610.5 135.218C4610.5 139.109 4612.37 141.055 4616.12 141.055C4627.5 141.055 4644 125.491 4665.62 94.3638L4667.35 95.877ZM4610.28 78.3679C4610.28 77.071 4609.64 76.4225 4608.34 76.4225C4606.18 76.4225 4604.16 78.0797 4602.29 81.3942C4600.41 84.5645 4599.48 87.3026 4599.48 89.6083C4599.48 92.0581 4600.27 93.283 4601.85 93.283C4607.47 86.0777 4610.28 81.106 4610.28 78.3679ZM4805.58 8.11569C4805.44 16.618 4800.39 28.2907 4790.45 43.1337C4778.06 61.7236 4762.2 76.6386 4742.89 87.879L4732.52 110.576C4728.05 120.375 4725.82 129.022 4725.82 136.515C4725.82 139.974 4727.33 141.703 4730.36 141.703C4737.27 141.703 4745.78 135.362 4755.86 122.681C4763.07 113.746 4769.27 104.307 4774.45 94.3638L4776.18 95.877C4768.11 110.288 4761.27 120.807 4755.65 127.436C4745.42 139.397 4735.04 145.594 4724.52 146.026C4720.63 146.17 4717.53 144.585 4715.22 141.271C4712.92 137.956 4711.77 133.561 4711.77 128.085C4711.77 116.556 4717.82 100.128 4729.92 78.8003C4737.71 65.1101 4747.94 50.1229 4760.62 33.8388C4778.06 11.5022 4790.81 0.333898 4798.88 0.333898C4800.61 0.333898 4802.12 1.12649 4803.42 2.71166C4804.86 4.29685 4805.58 6.09819 4805.58 8.11569ZM4796.29 9.41265C4796.29 6.38639 4795.28 4.87327 4793.26 4.87327C4789.94 4.87327 4782.59 14.3843 4771.21 33.4065C4759.97 52.4286 4752.04 68.2084 4747.43 80.7457C4759.54 73.6844 4771.07 61.1471 4782.02 43.1337C4791.53 27.5702 4796.29 16.3298 4796.29 9.41265ZM4856.03 95.877C4851.13 101.929 4842.26 108.558 4829.44 115.764C4827.28 116.628 4824.03 117.709 4819.71 119.006C4815.24 126.356 4809.12 132.624 4801.34 137.812C4792.98 143.288 4784.84 146.026 4776.91 146.026C4772.01 146.026 4767.98 143.865 4764.81 139.541C4761.92 135.651 4760.48 131.183 4760.48 126.139C4760.48 113.89 4765.53 102.866 4775.61 93.0669C4785.85 83.1235 4797.09 78.1518 4809.34 78.1518C4814.38 78.1518 4818.56 80.0972 4821.87 83.9881C4825.19 87.879 4826.84 92.7066 4826.84 98.4709C4826.84 101.929 4826.2 105.244 4824.9 108.414C4824.32 109.855 4823.24 112.305 4821.66 115.764C4822.81 115.62 4824.97 114.827 4828.14 113.386C4835.92 109.783 4844.64 103.443 4854.3 94.3638L4856.03 95.877ZM4813.88 86.1497C4813.88 82.547 4812.15 80.7457 4808.69 80.7457C4801.91 80.7457 4794.13 88.3113 4785.34 103.443C4776.98 117.565 4772.8 128.445 4772.8 136.083C4772.8 140.838 4774.17 143.216 4776.91 143.216C4784.41 143.216 4793.34 134.57 4803.72 117.277C4795.79 114.683 4791.83 111.152 4791.83 106.685C4791.83 102.074 4794.06 99.7678 4798.53 99.7678C4801.55 99.7678 4803.07 101.281 4803.07 104.307C4803.07 106.757 4801.12 108.198 4797.23 108.63C4798.24 112.233 4800.98 114.395 4805.44 115.115C4811.07 103.154 4813.88 93.4992 4813.88 86.1497ZM4937.33 95.877C4924.65 108.126 4911.68 114.611 4898.42 115.331C4895.83 121.816 4889.99 128.301 4880.92 134.786C4870.4 142.279 4859.73 146.026 4848.92 146.026C4845.75 146.026 4843.02 144.801 4840.71 142.352C4838.26 139.758 4837.03 136.947 4837.03 133.921C4837.03 126.716 4839.12 119.222 4843.3 111.441L4858.65 83.1235C4859.8 81.106 4861.39 80.0972 4863.41 80.0972C4864.42 80.0972 4865.86 80.3854 4867.73 80.9619C4869.75 81.5383 4870.97 81.8265 4871.4 81.8265C4871.69 81.8265 4872.77 80.8898 4874.65 79.0164C4876.52 77.143 4877.96 76.0622 4878.97 75.774L4853.25 125.059C4851.23 128.95 4850.22 132.192 4850.22 134.786C4850.22 140.262 4852.45 143 4856.92 143C4866 143 4875.37 132.84 4885.02 112.521C4880.41 107.045 4878.11 101.785 4878.11 96.7416C4878.11 92.1302 4879.55 87.7349 4882.43 83.5558C4885.74 78.8003 4889.56 76.4225 4893.89 76.4225C4897.06 76.4225 4899.87 78.1518 4902.32 81.6103C4904.91 85.0689 4906.21 88.8878 4906.21 93.0669C4906.21 100.56 4904.19 107.045 4900.15 112.521C4909.95 112.521 4921.77 106.469 4935.6 94.3638L4937.33 95.877ZM4895.83 91.1214C4895.83 84.6366 4894.1 81.3942 4890.64 81.3942C4888.05 81.3942 4885.74 83.0514 4883.73 86.3659C4881.71 89.6803 4880.7 93.211 4880.7 96.9578C4880.7 100.705 4882.72 105.028 4886.75 109.927C4892.8 99.5517 4895.83 93.283 4895.83 91.1214ZM5003.9 95.877C4998.86 104.379 4990.43 114.107 4978.61 125.059C4963.33 139.037 4950.51 146.026 4940.13 146.026C4934.66 146.026 4930.19 144.225 4926.73 140.622C4923.13 136.875 4921.33 132.264 4921.33 126.788C4921.33 112.954 4927.45 101.065 4939.7 91.1214C4950.37 82.475 4960.67 78.1518 4970.61 78.1518C4973.93 78.1518 4976.81 79.3046 4979.26 81.6103C4981.71 83.9161 4982.93 86.7261 4982.93 90.0406C4982.93 99.1194 4976.38 106.685 4963.26 112.737C4953.32 117.349 4944.96 119.655 4938.19 119.655C4935.59 125.275 4934.3 130.319 4934.3 134.786C4934.3 140.118 4936.24 142.784 4940.13 142.784C4949.64 142.784 4961.75 136.299 4976.45 123.329C4988.12 112.954 4996.7 103.298 5002.17 94.3638L5003.9 95.877ZM4972.13 85.9336C4972.13 82.6191 4970.61 80.9619 4967.59 80.9619C4960.67 80.9619 4951.59 92.1302 4940.35 114.467C4946.11 114.467 4952.96 110.72 4960.88 103.226C4968.38 96.1652 4972.13 90.4009 4972.13 85.9336ZM5100.12 53.0771C5100.12 56.2475 5099.04 59.1296 5096.88 61.7236C5094.72 64.1734 5092.27 65.3983 5089.53 65.3983C5087.23 65.3983 5085.28 64.6057 5083.7 63.0205C5082.11 61.2912 5081.32 59.2737 5081.32 56.968C5081.32 53.9418 5082.4 51.3478 5084.56 49.1862C5086.87 46.8805 5089.46 45.7277 5092.34 45.7277C5094.5 45.7277 5096.31 46.4482 5097.75 47.8893C5099.33 49.3303 5100.12 51.0596 5100.12 53.0771ZM5113.09 95.877C5084.85 129.31 5065.9 146.026 5056.24 146.026C5047.31 146.026 5042.84 141.775 5042.84 133.273C5042.84 126.788 5045.51 118.574 5050.84 108.63C5053.87 103.298 5058.33 95.3005 5064.24 84.6366C5065.97 81.6103 5067.92 80.0972 5070.08 80.0972C5072.1 80.0972 5073.75 80.4575 5075.05 81.178C5076.49 81.7545 5077.28 82.0427 5077.43 82.0427C5078 82.0427 5079.3 81.0339 5081.32 79.0164C5083.48 76.8548 5084.92 75.7019 5085.64 75.5578L5058.19 127.869C5056.89 130.319 5056.24 133.057 5056.24 136.083C5056.24 139.83 5057.9 141.703 5061.22 141.703C5064.53 141.703 5073.25 134.57 5087.37 120.303C5097.89 109.639 5105.89 100.993 5111.36 94.3638L5113.09 95.877ZM5166.77 95.877C5157.69 111.296 5149.05 121.744 5140.83 127.22C5135.36 130.967 5128.37 133.489 5119.87 134.786C5113.24 142.568 5105.24 146.459 5095.87 146.459C5084.49 146.459 5078.8 141.415 5078.8 131.327C5078.8 127.869 5079.8 124.987 5081.82 122.681C5083.7 120.375 5086.15 119.222 5089.17 119.222C5091.48 119.222 5094.14 120.519 5097.17 123.113C5100.92 126.428 5103.37 128.301 5104.52 128.733C5106.82 127.004 5108.7 124.194 5110.14 120.303C5111.72 116.412 5112.52 112.882 5112.52 109.711C5112.52 107.838 5111.8 104.595 5110.36 99.984C5109.06 95.2285 5108.41 91.4817 5108.41 88.7436C5108.41 84.1322 5109.2 79.809 5110.79 75.774C5112.95 70.5861 5115.98 67.9922 5119.87 67.9922C5123.47 67.9922 5125.27 69.2892 5125.27 71.8831C5125.27 75.0535 5123.04 80.6016 5118.57 88.5275C5122.89 98.4709 5125.05 106.325 5125.05 112.089C5125.05 121.024 5123.76 127.581 5121.16 131.76C5129.81 129.886 5136.58 127.076 5141.48 123.329C5148.69 117.853 5156.54 108.198 5165.04 94.3638L5166.77 95.877ZM5122.68 72.3154C5122.68 70.7302 5121.81 69.9377 5120.08 69.9377C5119.22 69.9377 5118.28 70.9464 5117.27 72.9639C5116.41 74.8373 5115.98 76.8548 5115.98 79.0164C5115.98 82.0427 5116.41 84.3484 5117.27 85.9336C5120.87 80.8898 5122.68 76.3504 5122.68 72.3154ZM5102.36 130.895C5101.35 130.463 5099.33 128.95 5096.3 126.356C5093.57 124.194 5091.69 123.113 5090.68 123.113C5088.09 123.113 5086.79 124.554 5086.79 127.436C5086.79 130.607 5089.1 132.624 5093.71 133.489C5098.47 133.489 5101.35 132.624 5102.36 130.895ZM5263.09 53.0771C5263.09 56.2475 5262.01 59.1296 5259.85 61.7236C5257.69 64.1734 5255.24 65.3983 5252.5 65.3983C5250.19 65.3983 5248.25 64.6057 5246.66 63.0205C5245.08 61.2912 5244.28 59.2737 5244.28 56.968C5244.28 53.9418 5245.36 51.3478 5247.53 49.1862C5249.83 46.8805 5252.43 45.7277 5255.31 45.7277C5257.47 45.7277 5259.27 46.4482 5260.71 47.8893C5262.3 49.3303 5263.09 51.0596 5263.09 53.0771ZM5276.06 95.877C5247.81 129.31 5228.86 146.026 5219.21 146.026C5210.27 146.026 5205.81 141.775 5205.81 133.273C5205.81 126.788 5208.47 118.574 5213.8 108.63C5216.83 103.298 5221.3 95.3005 5227.21 84.6366C5228.94 81.6103 5230.88 80.0972 5233.04 80.0972C5235.06 80.0972 5236.72 80.4575 5238.01 81.178C5239.46 81.7545 5240.25 82.0427 5240.39 82.0427C5240.97 82.0427 5242.27 81.0339 5244.28 79.0164C5246.45 76.8548 5247.89 75.7019 5248.61 75.5578L5221.15 127.869C5219.86 130.319 5219.21 133.057 5219.21 136.083C5219.21 139.83 5220.87 141.703 5224.18 141.703C5227.49 141.703 5236.21 134.57 5250.34 120.303C5260.86 109.639 5268.85 100.993 5274.33 94.3638L5276.06 95.877ZM5359.57 95.877C5357.41 98.4709 5346.31 110.936 5326.28 133.273C5318.5 141.919 5311.22 146.242 5304.45 146.242C5296.52 146.242 5292.34 141.919 5291.91 133.273C5291.77 129.382 5293.28 124.987 5296.45 120.087L5314.39 92.6345C5316.41 89.6083 5317.42 87.4467 5317.42 86.1497C5317.42 84.8528 5316.34 84.2043 5314.17 84.2043C5308.7 84.2043 5301.49 89.248 5292.56 99.3355C5286.22 106.685 5280.89 114.107 5276.56 121.6C5274.69 125.059 5271.95 130.102 5268.35 136.731C5265.75 141.631 5263.38 144.081 5261.21 144.081C5260.49 144.081 5259.13 143.793 5257.11 143.216C5254.95 142.64 5253.65 142.352 5253.22 142.352C5252.06 142.352 5249.4 144.441 5245.22 148.62L5278.29 85.2851C5280.17 81.8265 5282.33 80.0972 5284.78 80.0972C5285.79 80.0972 5287.15 80.3854 5288.88 80.9619C5290.76 81.5383 5291.91 81.8265 5292.34 81.8265C5292.63 81.8265 5293.78 80.8898 5295.8 79.0164C5297.96 77.143 5299.48 75.9902 5300.34 75.5578L5289.32 96.3093C5303.15 84.2043 5313.96 78.1518 5321.74 78.1518C5328.37 78.1518 5331.68 81.4662 5331.68 88.0952C5331.68 91.5537 5330.31 95.4446 5327.58 99.7678L5307.47 131.111C5304.88 135.146 5303.58 137.596 5303.58 138.461C5303.58 141.055 5305.1 142.352 5308.12 142.352C5312.3 142.352 5318.28 138.028 5326.06 129.382L5357.84 94.3638L5359.57 95.877ZM5468.79 95.877C5466.63 99.1914 5459.85 108.27 5448.47 123.113C5436.65 138.389 5424.04 146.026 5410.64 146.026C5407.47 146.026 5404.8 144.657 5402.64 141.919C5400.34 139.181 5399.18 135.867 5399.18 131.976C5399.18 128.229 5400.7 123.257 5403.72 117.061L5420.58 82.6911H5404.8L5408.26 79.4487H5425.56C5432.62 74.9814 5439.03 69.2892 5444.79 62.372C5448.4 58.0488 5453.37 50.9876 5459.71 41.1883H5462.09L5440.25 79.4487H5456.47L5455.17 82.6911H5438.96L5416.48 122.032C5413.31 127.508 5411.72 131.327 5411.72 133.489C5411.72 135.218 5412.3 137.02 5413.45 138.893C5414.75 140.766 5416.04 141.703 5417.34 141.703C5421.52 141.703 5426.85 139.181 5433.34 134.137C5438.53 130.102 5442.85 125.851 5446.31 121.384C5450.34 116.34 5457.26 107.333 5467.06 94.3638L5468.79 95.877ZM5548.41 11.5743C5548.41 24.9762 5539.33 40.4677 5521.17 58.0488C5508.2 70.5861 5496.46 79.5208 5485.94 84.8528C5484.49 88.1672 5483.05 91.3376 5481.61 94.3638C5493.14 83.5558 5502.44 78.1518 5509.5 78.1518C5515.41 78.1518 5518.36 81.178 5518.36 87.2305C5518.36 91.842 5513.6 101.353 5504.09 115.764C5494.73 130.03 5490.04 137.236 5490.04 137.38C5490.04 139.974 5491.05 141.271 5493.07 141.271C5497.39 141.271 5505.03 135.434 5515.98 123.762C5518.43 121.168 5526.86 111.368 5541.27 94.3638L5543 95.877C5528.16 114.323 5518.94 125.419 5515.33 129.166C5504.53 140.406 5495.88 146.026 5489.39 146.026C5485.94 146.026 5483.05 145.09 5480.75 143.216C5478.59 141.343 5477.51 138.893 5477.51 135.867C5477.51 132.264 5482.12 123.473 5491.34 109.495C5500.71 95.5167 5505.39 87.7349 5505.39 86.1497C5505.39 84.7086 5504.81 83.9881 5503.66 83.9881C5499.91 83.9881 5495.59 86.0777 5490.69 90.2568C5486.22 93.7153 5482.91 97.3901 5480.75 101.281C5478.59 105.028 5472.68 115.836 5463.02 133.705C5459.28 140.766 5456.39 144.297 5454.38 144.297C5453.51 144.297 5452.07 144.009 5450.05 143.432C5448.04 143 5446.88 142.784 5446.59 142.784C5445.73 142.784 5444.58 143.36 5443.14 144.513C5441.41 146.242 5439.82 147.539 5438.38 148.404C5448.04 129.958 5455.67 115.548 5461.29 105.172C5473.11 83.5558 5484.64 64.6778 5495.88 48.5378C5515.91 19.5722 5530.83 5.08944 5540.62 5.08944C5545.81 5.08944 5548.41 7.25104 5548.41 11.5743ZM5538.68 14.8167C5538.68 11.214 5537.96 9.41265 5536.52 9.41265C5532.77 9.41265 5526.29 16.618 5517.06 31.0287C5512.6 37.9459 5503.08 53.9418 5488.53 79.0164C5503.37 69.3612 5515.77 57.6886 5525.71 43.9984C5534.36 32.1816 5538.68 22.4543 5538.68 14.8167ZM5609.32 95.877C5604.28 104.379 5595.85 114.107 5584.03 125.059C5568.75 139.037 5555.93 146.026 5545.55 146.026C5540.08 146.026 5535.61 144.225 5532.15 140.622C5528.55 136.875 5526.75 132.264 5526.75 126.788C5526.75 112.954 5532.87 101.065 5545.12 91.1214C5555.78 82.475 5566.09 78.1518 5576.03 78.1518C5579.35 78.1518 5582.23 79.3046 5584.68 81.6103C5587.13 83.9161 5588.35 86.7261 5588.35 90.0406C5588.35 99.1194 5581.8 106.685 5568.68 112.737C5558.74 117.349 5550.38 119.655 5543.61 119.655C5541.01 125.275 5539.72 130.319 5539.72 134.786C5539.72 140.118 5541.66 142.784 5545.55 142.784C5555.06 142.784 5567.17 136.299 5581.87 123.329C5593.54 112.954 5602.11 103.298 5607.59 94.3638L5609.32 95.877ZM5577.54 85.9336C5577.54 82.6191 5576.03 80.9619 5573 80.9619C5566.09 80.9619 5557.01 92.1302 5545.77 114.467C5551.53 114.467 5558.38 110.72 5566.3 103.226C5573.8 96.1652 5577.54 90.4009 5577.54 85.9336ZM5759.8 95.877C5732.42 129.31 5713.47 146.026 5702.95 146.026C5695.89 146.026 5690.41 141.847 5686.52 133.489C5680.32 141.847 5673.48 146.026 5665.99 146.026C5656.33 146.026 5651.5 138.965 5651.5 124.842C5651.5 114.034 5655.97 103.803 5664.91 94.1477C5674.7 83.4837 5686.31 78.1518 5699.71 78.1518C5704.75 78.1518 5708.43 79.8811 5710.73 83.3396C5712.46 81.178 5713.97 80.0972 5715.27 80.0972C5715.85 80.0972 5717.36 80.3134 5719.81 80.7457C5722.26 81.178 5723.77 81.3942 5724.35 81.3942C5724.93 81.3942 5726.08 80.4575 5727.81 78.5841C5729.68 76.7107 5730.91 75.7019 5731.48 75.5578L5703.17 128.733C5700.72 133.345 5699.49 136.659 5699.49 138.677C5699.49 141.559 5701.08 143 5704.25 143C5709 143 5718.44 136.011 5732.56 122.032C5742.51 112.233 5751.01 103.01 5758.07 94.3638L5759.8 95.877ZM5707.49 87.2305C5707.49 83.772 5705.98 82.0427 5702.95 82.0427C5694.45 82.0427 5685.58 89.4642 5676.36 104.307C5668.15 117.565 5664.04 128.085 5664.04 135.867C5664.04 140.622 5665.48 143 5668.36 143C5674.13 143 5679.82 138.244 5685.44 128.733C5700.14 103.659 5707.49 89.8245 5707.49 87.2305ZM5797.58 53.0771C5797.58 56.2475 5796.5 59.1296 5794.34 61.7236C5792.18 64.1734 5789.73 65.3983 5786.99 65.3983C5784.68 65.3983 5782.74 64.6057 5781.15 63.0205C5779.57 61.2912 5778.77 59.2737 5778.77 56.968C5778.77 53.9418 5779.86 51.3478 5782.02 49.1862C5784.32 46.8805 5786.92 45.7277 5789.8 45.7277C5791.96 45.7277 5793.76 46.4482 5795.2 47.8893C5796.79 49.3303 5797.58 51.0596 5797.58 53.0771ZM5810.55 95.877C5782.31 129.31 5763.36 146.026 5753.7 146.026C5744.77 146.026 5740.3 141.775 5740.3 133.273C5740.3 126.788 5742.96 118.574 5748.3 108.63C5751.32 103.298 5755.79 95.3005 5761.7 84.6366C5763.43 81.6103 5765.37 80.0972 5767.53 80.0972C5769.55 80.0972 5771.21 80.4575 5772.51 81.178C5773.95 81.7545 5774.74 82.0427 5774.88 82.0427C5775.46 82.0427 5776.76 81.0339 5778.77 79.0164C5780.94 76.8548 5782.38 75.7019 5783.1 75.5578L5755.65 127.869C5754.35 130.319 5753.7 133.057 5753.7 136.083C5753.7 139.83 5755.36 141.703 5758.67 141.703C5761.99 141.703 5770.7 134.57 5784.83 120.303C5795.35 109.639 5803.34 100.993 5808.82 94.3638L5810.55 95.877ZM5874.39 95.877C5864.45 111.008 5856.45 121.672 5850.39 127.869C5838.87 139.974 5827.48 146.026 5816.24 146.026C5808.75 146.026 5804.93 140.766 5804.78 130.247C5804.78 126.788 5807.74 120.015 5813.65 109.927C5819.7 99.8399 5822.73 94.0756 5822.73 92.6345C5822.73 91.6258 5822.44 91.1214 5821.86 91.1214C5820.85 91.1214 5818.98 92.2743 5816.24 94.58C5813.65 96.7416 5810.98 97.8224 5808.24 97.8224C5804.78 97.8224 5803.06 95.0844 5803.06 89.6083C5803.06 86.2938 5804.28 82.7632 5806.73 79.0164C5809.32 75.1255 5812.21 73.1801 5815.38 73.1801C5818.84 73.1801 5820.56 74.8373 5820.56 78.1518C5820.56 82.1868 5818.04 87.1585 5813 93.0669C5817.61 89.176 5822.08 85.5733 5826.4 82.2588C5829.86 79.5208 5832.96 78.1518 5835.7 78.1518C5837.86 78.1518 5839.66 79.0164 5841.1 80.7457C5842.54 82.3309 5843.26 84.2763 5843.26 86.582C5843.26 88.4554 5841.75 91.9861 5838.72 97.1739L5821.65 126.356C5818.91 130.967 5817.54 133.921 5817.54 135.218C5817.54 139.109 5819.41 141.055 5823.16 141.055C5834.54 141.055 5851.04 125.491 5872.66 94.3638L5874.39 95.877ZM5817.32 78.3679C5817.32 77.071 5816.67 76.4225 5815.38 76.4225C5813.22 76.4225 5811.2 78.0797 5809.32 81.3942C5807.45 84.5645 5806.51 87.3026 5806.51 89.6083C5806.51 92.0581 5807.31 93.283 5808.89 93.283C5814.51 86.0777 5817.32 81.106 5817.32 78.3679ZM5954.36 8.11569C5954.21 16.618 5949.17 28.2907 5939.23 43.1337C5926.83 61.7236 5910.98 76.6386 5891.67 87.879L5881.29 110.576C5876.83 120.375 5874.59 129.022 5874.59 136.515C5874.59 139.974 5876.11 141.703 5879.13 141.703C5886.05 141.703 5894.55 135.362 5904.64 122.681C5911.84 113.746 5918.04 104.307 5923.23 94.3638L5924.96 95.877C5916.89 110.288 5910.04 120.807 5904.42 127.436C5894.19 139.397 5883.82 145.594 5873.3 146.026C5869.41 146.17 5866.31 144.585 5864 141.271C5861.7 137.956 5860.54 133.561 5860.54 128.085C5860.54 116.556 5866.6 100.128 5878.7 78.8003C5886.48 65.1101 5896.71 50.1229 5909.4 33.8388C5926.83 11.5022 5939.59 0.333898 5947.66 0.333898C5949.38 0.333898 5950.9 1.12649 5952.19 2.71166C5953.64 4.29685 5954.36 6.09819 5954.36 8.11569ZM5945.06 9.41265C5945.06 6.38639 5944.05 4.87327 5942.04 4.87327C5938.72 4.87327 5931.37 14.3843 5919.99 33.4065C5908.75 52.4286 5900.82 68.2084 5896.21 80.7457C5908.31 73.6844 5919.84 61.1471 5930.79 43.1337C5940.31 27.5702 5945.06 16.3298 5945.06 9.41265ZM6004.8 95.877C5999.9 101.929 5991.04 108.558 5978.22 115.764C5976.05 116.628 5972.81 117.709 5968.49 119.006C5964.02 126.356 5957.9 132.624 5950.11 137.812C5941.76 143.288 5933.61 146.026 5925.69 146.026C5920.79 146.026 5916.75 143.865 5913.58 139.541C5910.7 135.651 5909.26 131.183 5909.26 126.139C5909.26 113.89 5914.3 102.866 5924.39 93.0669C5934.62 83.1235 5945.86 78.1518 5958.11 78.1518C5963.16 78.1518 5967.34 80.0972 5970.65 83.9881C5973.96 87.879 5975.62 92.7066 5975.62 98.4709C5975.62 101.929 5974.97 105.244 5973.68 108.414C5973.1 109.855 5972.02 112.305 5970.43 115.764C5971.59 115.62 5973.75 114.827 5976.92 113.386C5984.7 109.783 5993.42 103.443 6003.07 94.3638L6004.8 95.877ZM5962.65 86.1497C5962.65 82.547 5960.92 80.7457 5957.46 80.7457C5950.69 80.7457 5942.91 88.3113 5934.12 103.443C5925.76 117.565 5921.58 128.445 5921.58 136.083C5921.58 140.838 5922.95 143.216 5925.69 143.216C5933.18 143.216 5942.12 134.57 5952.49 117.277C5944.57 114.683 5940.6 111.152 5940.6 106.685C5940.6 102.074 5942.84 99.7678 5947.3 99.7678C5950.33 99.7678 5951.84 101.281 5951.84 104.307C5951.84 106.757 5949.9 108.198 5946.01 108.63C5947.02 112.233 5949.75 114.395 5954.22 115.115C5959.84 103.154 5962.65 93.4992 5962.65 86.1497ZM6086.11 95.877C6073.43 108.126 6060.46 114.611 6047.2 115.331C6044.61 121.816 6038.77 128.301 6029.69 134.786C6019.17 142.279 6008.51 146.026 5997.7 146.026C5994.53 146.026 5991.79 144.801 5989.49 142.352C5987.04 139.758 5985.81 136.947 5985.81 133.921C5985.81 126.716 5987.9 119.222 5992.08 111.441L6007.43 83.1235C6008.58 81.106 6010.16 80.0972 6012.18 80.0972C6013.19 80.0972 6014.63 80.3854 6016.51 80.9619C6018.52 81.5383 6019.75 81.8265 6020.18 81.8265C6020.47 81.8265 6021.55 80.8898 6023.42 79.0164C6025.3 77.143 6026.74 76.0622 6027.75 75.774L6002.02 125.059C6000.01 128.95 5999 132.192 5999 134.786C5999 140.262 6001.23 143 6005.7 143C6014.78 143 6024.14 132.84 6033.8 112.521C6029.19 107.045 6026.88 101.785 6026.88 96.7416C6026.88 92.1302 6028.32 87.7349 6031.2 83.5558C6034.52 78.8003 6038.34 76.4225 6042.66 76.4225C6045.83 76.4225 6048.64 78.1518 6051.09 81.6103C6053.69 85.0689 6054.98 88.8878 6054.98 93.0669C6054.98 100.56 6052.96 107.045 6048.93 112.521C6058.73 112.521 6070.55 106.469 6084.38 94.3638L6086.11 95.877ZM6044.61 91.1214C6044.61 84.6366 6042.88 81.3942 6039.42 81.3942C6036.82 81.3942 6034.52 83.0514 6032.5 86.3659C6030.48 89.6803 6029.48 93.211 6029.48 96.9578C6029.48 100.705 6031.49 105.028 6035.53 109.927C6041.58 99.5517 6044.61 93.283 6044.61 91.1214ZM6152.68 95.877C6147.63 104.379 6139.2 114.107 6127.39 125.059C6112.11 139.037 6099.29 146.026 6088.91 146.026C6083.43 146.026 6078.97 144.225 6075.51 140.622C6071.9 136.875 6070.1 132.264 6070.1 126.788C6070.1 112.954 6076.23 101.065 6088.48 91.1214C6099.14 82.475 6109.44 78.1518 6119.39 78.1518C6122.7 78.1518 6125.58 79.3046 6128.03 81.6103C6130.48 83.9161 6131.71 86.7261 6131.71 90.0406C6131.71 99.1194 6125.15 106.685 6112.04 112.737C6102.1 117.349 6093.74 119.655 6086.96 119.655C6084.37 125.275 6083.07 130.319 6083.07 134.786C6083.07 140.118 6085.02 142.784 6088.91 142.784C6098.42 142.784 6110.53 136.299 6125.22 123.329C6136.9 112.954 6145.47 103.298 6150.95 94.3638L6152.68 95.877ZM6120.9 85.9336C6120.9 82.6191 6119.39 80.9619 6116.36 80.9619C6109.44 80.9619 6100.37 92.1302 6089.13 114.467C6094.89 114.467 6101.73 110.72 6109.66 103.226C6117.15 96.1652 6120.9 90.4009 6120.9 85.9336ZM6248.9 53.0771C6248.9 56.2475 6247.82 59.1296 6245.66 61.7236C6243.5 64.1734 6241.05 65.3983 6238.31 65.3983C6236 65.3983 6234.06 64.6057 6232.47 63.0205C6230.89 61.2912 6230.09 59.2737 6230.09 56.968C6230.09 53.9418 6231.18 51.3478 6233.34 49.1862C6235.64 46.8805 6238.24 45.7277 6241.12 45.7277C6243.28 45.7277 6245.08 46.4482 6246.52 47.8893C6248.11 49.3303 6248.9 51.0596 6248.9 53.0771ZM6261.87 95.877C6233.63 129.31 6214.67 146.026 6205.02 146.026C6196.09 146.026 6191.62 141.775 6191.62 133.273C6191.62 126.788 6194.28 118.574 6199.62 108.63C6202.64 103.298 6207.11 95.3005 6213.02 84.6366C6214.75 81.6103 6216.69 80.0972 6218.85 80.0972C6220.87 80.0972 6222.53 80.4575 6223.83 81.178C6225.27 81.7545 6226.06 82.0427 6226.2 82.0427C6226.78 82.0427 6228.08 81.0339 6230.09 79.0164C6232.26 76.8548 6233.7 75.7019 6234.42 75.5578L6206.97 127.869C6205.67 130.319 6205.02 133.057 6205.02 136.083C6205.02 139.83 6206.68 141.703 6209.99 141.703C6213.31 141.703 6222.02 134.57 6236.15 120.303C6246.67 109.639 6254.66 100.993 6260.14 94.3638L6261.87 95.877ZM6315.55 95.877C6306.47 111.296 6297.82 121.744 6289.61 127.22C6284.13 130.967 6277.14 133.489 6268.64 134.786C6262.01 142.568 6254.02 146.459 6244.65 146.459C6233.26 146.459 6227.57 141.415 6227.57 131.327C6227.57 127.869 6228.58 124.987 6230.6 122.681C6232.47 120.375 6234.92 119.222 6237.95 119.222C6240.25 119.222 6242.92 120.519 6245.95 123.113C6249.69 126.428 6252.14 128.301 6253.29 128.733C6255.6 127.004 6257.47 124.194 6258.91 120.303C6260.5 116.412 6261.29 112.882 6261.29 109.711C6261.29 107.838 6260.57 104.595 6259.13 99.984C6257.83 95.2285 6257.19 91.4817 6257.19 88.7436C6257.19 84.1322 6257.98 79.809 6259.56 75.774C6261.72 70.5861 6264.75 67.9922 6268.64 67.9922C6272.24 67.9922 6274.05 69.2892 6274.05 71.8831C6274.05 75.0535 6271.81 80.6016 6267.35 88.5275C6271.67 98.4709 6273.83 106.325 6273.83 112.089C6273.83 121.024 6272.53 127.581 6269.94 131.76C6278.59 129.886 6285.36 127.076 6290.26 123.329C6297.46 117.853 6305.32 108.198 6313.82 94.3638L6315.55 95.877ZM6271.45 72.3154C6271.45 70.7302 6270.59 69.9377 6268.86 69.9377C6267.99 69.9377 6267.06 70.9464 6266.05 72.9639C6265.18 74.8373 6264.75 76.8548 6264.75 79.0164C6264.75 82.0427 6265.18 84.3484 6266.05 85.9336C6269.65 80.8898 6271.45 76.3504 6271.45 72.3154ZM6251.13 130.895C6250.12 130.463 6248.11 128.95 6245.08 126.356C6242.34 124.194 6240.47 123.113 6239.46 123.113C6236.87 123.113 6235.57 124.554 6235.57 127.436C6235.57 130.607 6237.88 132.624 6242.49 133.489C6247.24 133.489 6250.12 132.624 6251.13 130.895ZM6411.87 53.0771C6411.87 56.2475 6410.78 59.1296 6408.62 61.7236C6406.46 64.1734 6404.01 65.3983 6401.27 65.3983C6398.97 65.3983 6397.02 64.6057 6395.44 63.0205C6393.85 61.2912 6393.06 59.2737 6393.06 56.968C6393.06 53.9418 6394.14 51.3478 6396.3 49.1862C6398.61 46.8805 6401.2 45.7277 6404.08 45.7277C6406.25 45.7277 6408.05 46.4482 6409.49 47.8893C6411.07 49.3303 6411.87 51.0596 6411.87 53.0771ZM6424.84 95.877C6396.59 129.31 6377.64 146.026 6367.99 146.026C6359.05 146.026 6354.58 141.775 6354.58 133.273C6354.58 126.788 6357.25 118.574 6362.58 108.63C6365.61 103.298 6370.07 95.3005 6375.98 84.6366C6377.71 81.6103 6379.66 80.0972 6381.82 80.0972C6383.84 80.0972 6385.49 80.4575 6386.79 81.178C6388.23 81.7545 6389.02 82.0427 6389.17 82.0427C6389.75 82.0427 6391.04 81.0339 6393.06 79.0164C6395.22 76.8548 6396.66 75.7019 6397.38 75.5578L6369.93 127.869C6368.63 130.319 6367.99 133.057 6367.99 136.083C6367.99 139.83 6369.64 141.703 6372.96 141.703C6376.27 141.703 6384.99 134.57 6399.11 120.303C6409.63 109.639 6417.63 100.993 6423.11 94.3638L6424.84 95.877ZM6508.34 95.877C6506.18 98.4709 6495.09 110.936 6475.06 133.273C6467.27 141.919 6460 146.242 6453.22 146.242C6445.3 146.242 6441.12 141.919 6440.69 133.273C6440.54 129.382 6442.05 124.987 6445.23 120.087L6463.17 92.6345C6465.18 89.6083 6466.19 87.4467 6466.19 86.1497C6466.19 84.8528 6465.11 84.2043 6462.95 84.2043C6457.47 84.2043 6450.27 89.248 6441.33 99.3355C6434.99 106.685 6429.66 114.107 6425.34 121.6C6423.46 125.059 6420.73 130.102 6417.12 136.731C6414.53 141.631 6412.15 144.081 6409.99 144.081C6409.27 144.081 6407.9 143.793 6405.88 143.216C6403.72 142.64 6402.43 142.352 6401.99 142.352C6400.84 142.352 6398.17 144.441 6393.99 148.62L6427.07 85.2851C6428.94 81.8265 6431.1 80.0972 6433.55 80.0972C6434.56 80.0972 6435.93 80.3854 6437.66 80.9619C6439.53 81.5383 6440.69 81.8265 6441.12 81.8265C6441.41 81.8265 6442.56 80.8898 6444.58 79.0164C6446.74 77.143 6448.25 75.9902 6449.12 75.5578L6438.09 96.3093C6451.93 84.2043 6462.73 78.1518 6470.52 78.1518C6477.14 78.1518 6480.46 81.4662 6480.46 88.0952C6480.46 91.5537 6479.09 95.4446 6476.35 99.7678L6456.25 131.111C6453.66 135.146 6452.36 137.596 6452.36 138.461C6452.36 141.055 6453.87 142.352 6456.9 142.352C6461.08 142.352 6467.06 138.028 6474.84 129.382L6506.61 94.3638L6508.34 95.877ZM6617.56 95.877C6615.4 99.1914 6608.63 108.27 6597.25 123.113C6585.43 138.389 6572.82 146.026 6559.42 146.026C6556.25 146.026 6553.58 144.657 6551.42 141.919C6549.11 139.181 6547.96 135.867 6547.96 131.976C6547.96 128.229 6549.47 123.257 6552.5 117.061L6569.36 82.6911H6553.58L6557.04 79.4487H6574.33C6581.39 74.9814 6587.81 69.2892 6593.57 62.372C6597.17 58.0488 6602.14 50.9876 6608.49 41.1883H6610.86L6589.03 79.4487H6605.24L6603.95 82.6911H6587.73L6565.25 122.032C6562.08 127.508 6560.5 131.327 6560.5 133.489C6560.5 135.218 6561.07 137.02 6562.23 138.893C6563.52 140.766 6564.82 141.703 6566.12 141.703C6570.3 141.703 6575.63 139.181 6582.11 134.137C6587.3 130.102 6591.63 125.851 6595.08 121.384C6599.12 116.34 6606.04 107.333 6615.84 94.3638L6617.56 95.877ZM6697.18 11.5743C6697.18 24.9762 6688.1 40.4677 6669.95 58.0488C6656.98 70.5861 6645.23 79.5208 6634.71 84.8528C6633.27 88.1672 6631.83 91.3376 6630.39 94.3638C6641.92 83.5558 6651.21 78.1518 6658.27 78.1518C6664.18 78.1518 6667.14 81.178 6667.14 87.2305C6667.14 91.842 6662.38 101.353 6652.87 115.764C6643.5 130.03 6638.82 137.236 6638.82 137.38C6638.82 139.974 6639.83 141.271 6641.85 141.271C6646.17 141.271 6653.81 135.434 6664.76 123.762C6667.21 121.168 6675.64 111.368 6690.05 94.3638L6691.78 95.877C6676.94 114.323 6667.71 125.419 6664.11 129.166C6653.3 140.406 6644.66 146.026 6638.17 146.026C6634.71 146.026 6631.83 145.09 6629.52 143.216C6627.36 141.343 6626.28 138.893 6626.28 135.867C6626.28 132.264 6630.89 123.473 6640.12 109.495C6649.48 95.5167 6654.17 87.7349 6654.17 86.1497C6654.17 84.7086 6653.59 83.9881 6652.44 83.9881C6648.69 83.9881 6644.37 86.0777 6639.47 90.2568C6635 93.7153 6631.69 97.3901 6629.52 101.281C6627.36 105.028 6621.45 115.836 6611.8 133.705C6608.05 140.766 6605.17 144.297 6603.15 144.297C6602.29 144.297 6600.85 144.009 6598.83 143.432C6596.81 143 6595.66 142.784 6595.37 142.784C6594.51 142.784 6593.35 143.36 6591.91 144.513C6590.18 146.242 6588.6 147.539 6587.16 148.404C6596.81 129.958 6604.45 115.548 6610.07 105.172C6621.89 83.5558 6633.42 64.6778 6644.66 48.5378C6664.69 19.5722 6679.6 5.08944 6689.4 5.08944C6694.59 5.08944 6697.18 7.25104 6697.18 11.5743ZM6687.46 14.8167C6687.46 11.214 6686.73 9.41265 6685.29 9.41265C6681.55 9.41265 6675.06 16.618 6665.84 31.0287C6661.37 37.9459 6651.86 53.9418 6637.31 79.0164C6652.15 69.3612 6664.54 57.6886 6674.49 43.9984C6683.13 32.1816 6687.46 22.4543 6687.46 14.8167ZM6758.1 95.877C6753.05 104.379 6744.62 114.107 6732.8 125.059C6717.53 139.037 6704.7 146.026 6694.33 146.026C6688.85 146.026 6684.38 144.225 6680.93 140.622C6677.32 136.875 6675.52 132.264 6675.52 126.788C6675.52 112.954 6681.65 101.065 6693.9 91.1214C6704.56 82.475 6714.86 78.1518 6724.81 78.1518C6728.12 78.1518 6731 79.3046 6733.45 81.6103C6735.9 83.9161 6737.13 86.7261 6737.13 90.0406C6737.13 99.1194 6730.57 106.685 6717.46 112.737C6707.51 117.349 6699.16 119.655 6692.38 119.655C6689.79 125.275 6688.49 130.319 6688.49 134.786C6688.49 140.118 6690.44 142.784 6694.33 142.784C6703.84 142.784 6715.94 136.299 6730.64 123.329C6742.32 112.954 6750.89 103.298 6756.37 94.3638L6758.1 95.877ZM6726.32 85.9336C6726.32 82.6191 6724.81 80.9619 6721.78 80.9619C6714.86 80.9619 6705.78 92.1302 6694.54 114.467C6700.31 114.467 6707.15 110.72 6715.08 103.226C6722.57 96.1652 6726.32 90.4009 6726.32 85.9336ZM6908.58 95.877C6881.2 129.31 6862.25 146.026 6851.73 146.026C6844.66 146.026 6839.19 141.847 6835.3 133.489C6829.1 141.847 6822.26 146.026 6814.76 146.026C6805.11 146.026 6800.28 138.965 6800.28 124.842C6800.28 114.034 6804.75 103.803 6813.68 94.1477C6823.48 83.4837 6835.08 78.1518 6848.48 78.1518C6853.53 78.1518 6857.2 79.8811 6859.51 83.3396C6861.24 81.178 6862.75 80.0972 6864.05 80.0972C6864.62 80.0972 6866.14 80.3134 6868.59 80.7457C6871.04 81.178 6872.55 81.3942 6873.13 81.3942C6873.7 81.3942 6874.85 80.4575 6876.58 78.5841C6878.46 76.7107 6879.68 75.7019 6880.26 75.5578L6851.94 128.733C6849.49 133.345 6848.27 136.659 6848.27 138.677C6848.27 141.559 6849.85 143 6853.02 143C6857.78 143 6867.22 136.011 6881.34 122.032C6891.28 112.233 6899.79 103.01 6906.85 94.3638L6908.58 95.877ZM6856.26 87.2305C6856.26 83.772 6854.75 82.0427 6851.73 82.0427C6843.22 82.0427 6834.36 89.4642 6825.14 104.307C6816.92 117.565 6812.82 128.085 6812.82 135.867C6812.82 140.622 6814.26 143 6817.14 143C6822.9 143 6828.6 138.244 6834.22 128.733C6848.92 103.659 6856.26 89.8245 6856.26 87.2305ZM6946.36 53.0771C6946.36 56.2475 6945.28 59.1296 6943.11 61.7236C6940.95 64.1734 6938.5 65.3983 6935.77 65.3983C6933.46 65.3983 6931.51 64.6057 6929.93 63.0205C6928.34 61.2912 6927.55 59.2737 6927.55 56.968C6927.55 53.9418 6928.63 51.3478 6930.79 49.1862C6933.1 46.8805 6935.69 45.7277 6938.58 45.7277C6940.74 45.7277 6942.54 46.4482 6943.98 47.8893C6945.56 49.3303 6946.36 51.0596 6946.36 53.0771ZM6959.33 95.877C6931.08 129.31 6912.13 146.026 6902.48 146.026C6893.54 146.026 6889.07 141.775 6889.07 133.273C6889.07 126.788 6891.74 118.574 6897.07 108.63C6900.1 103.298 6904.57 95.3005 6910.47 84.6366C6912.2 81.6103 6914.15 80.0972 6916.31 80.0972C6918.33 80.0972 6919.99 80.4575 6921.28 81.178C6922.72 81.7545 6923.52 82.0427 6923.66 82.0427C6924.24 82.0427 6925.53 81.0339 6927.55 79.0164C6929.71 76.8548 6931.15 75.7019 6931.87 75.5578L6904.42 127.869C6903.12 130.319 6902.48 133.057 6902.48 136.083C6902.48 139.83 6904.13 141.703 6907.45 141.703C6910.76 141.703 6919.48 134.57 6933.6 120.303C6944.12 109.639 6952.12 100.993 6957.6 94.3638L6959.33 95.877ZM7023.16 95.877C7013.22 111.008 7005.22 121.672 6999.17 127.869C6987.64 139.974 6976.26 146.026 6965.02 146.026C6957.52 146.026 6953.7 140.766 6953.56 130.247C6953.56 126.788 6956.51 120.015 6962.42 109.927C6968.48 99.8399 6971.5 94.0756 6971.5 92.6345C6971.5 91.6258 6971.21 91.1214 6970.64 91.1214C6969.63 91.1214 6967.76 92.2743 6965.02 94.58C6962.42 96.7416 6959.76 97.8224 6957.02 97.8224C6953.56 97.8224 6951.83 95.0844 6951.83 89.6083C6951.83 86.2938 6953.06 82.7632 6955.51 79.0164C6958.1 75.1255 6960.98 73.1801 6964.15 73.1801C6967.61 73.1801 6969.34 74.8373 6969.34 78.1518C6969.34 82.1868 6966.82 87.1585 6961.77 93.0669C6966.39 89.176 6970.85 85.5733 6975.18 82.2588C6978.64 79.5208 6981.73 78.1518 6984.47 78.1518C6986.63 78.1518 6988.43 79.0164 6989.88 80.7457C6991.32 82.3309 6992.04 84.2763 6992.04 86.582C6992.04 88.4554 6990.52 91.9861 6987.5 97.1739L6970.42 126.356C6967.68 130.967 6966.31 133.921 6966.31 135.218C6966.31 139.109 6968.19 141.055 6971.93 141.055C6983.32 141.055 6999.82 125.491 7021.44 94.3638L7023.16 95.877ZM6966.1 78.3679C6966.1 77.071 6965.45 76.4225 6964.15 76.4225C6961.99 76.4225 6959.97 78.0797 6958.1 81.3942C6956.23 84.5645 6955.29 87.3026 6955.29 89.6083C6955.29 92.0581 6956.08 93.283 6957.67 93.283C6963.29 86.0777 6966.1 81.106 6966.1 78.3679Z" fill="#FFD1E8"/>
</svg>
