<svg width="1637" height="362" viewBox="0 0 1637 362" fill="none" xmlns="http://www.w3.org/2000/svg">
<g clip-path="url(#clip0_1197_695)">
<path d="M453.505 16V16C505.114 77.1843 562.847 132.927 625.804 182.358L642.459 195.434H260L263.47 192.881C333.412 141.432 397.18 82.0786 453.505 16V16Z" fill="#94476D"/>
<path d="M296.457 193.289L303.605 188.505C359.104 151.36 409.254 106.789 452.657 56.0332V56.0332V56.0332C498.931 106.815 551.569 151.407 609.267 188.702L616.364 193.289L563.106 362H348.643L296.457 193.289Z" fill="#FFD4E9"/>
<path d="M301.105 208.301H611.719L610.289 212.59H302.382L301.105 208.301Z" fill="#FFC1DF"/>
<path d="M313.617 248.334H598.853L597.423 252.623H315.047L313.617 248.334Z" fill="#FFC1DF"/>
<path d="M325.879 288.367H586.342L584.913 292.656H327.203L325.879 288.367Z" fill="#FFC1DF"/>
<path d="M338.277 328.4H573.472L572.399 332.69H339.707L338.277 328.4Z" fill="#FFC1DF"/>
<path d="M417.273 288.562C417.273 274.701 424.75 261.76 436.664 254.676V254.676C449.021 247.33 464.618 247.346 476.853 254.893V254.893C488.253 261.924 495.195 274.362 495.195 287.756V362H417.273V288.562Z" fill="#94476D"/>
<rect x="1436.33" y="101.205" width="41.1795" height="247.077" fill="#C26493"/>
<rect x="1339" y="337" width="187" height="25" fill="#FFABD5"/>
<rect x="1526" y="217" width="232" height="126" fill="#C26493"/>
<rect x="1612.28" y="104.949" width="41.1795" height="86.1026" fill="#C26493"/>
<rect x="1519" y="341" width="247" height="21" fill="#FFABD5"/>
<rect x="1518.69" y="191.051" width="247.077" height="26.2051" fill="#FFABD5"/>
<path d="M1608.54 304.834C1608.54 292.508 1615.66 281.29 1626.81 276.042V276.042C1635.39 272.004 1645.33 272.004 1653.91 276.042V276.042C1665.06 281.29 1672.18 292.508 1672.18 304.834V340.794H1608.54V304.834Z" fill="#714058"/>
<rect x="1339" y="75" width="415.538" height="29.9487" fill="#FFABD5"/>
<rect x="201" y="340" width="154" height="22" fill="#FFBEDF"/>
<rect x="6.28125" y="235.373" width="194.779" height="111.186" fill="#FF88C4"/>
<rect x="84.8242" y="28.4414" width="37.6991" height="191.487" fill="#FF88C4"/>
<rect x="245.043" y="142.717" width="28.2743" height="197.664" fill="#FF88C4"/>
<rect y="346.559" width="207.345" height="15.4425" fill="#FFBEDF"/>
<rect y="219.93" width="207.345" height="15.4425" fill="#FFBEDF"/>
<rect x="31.4141" y="13" width="153.938" height="15.4425" fill="#FFBEDF"/>
<rect x="163.363" y="121.098" width="191.637" height="21.6195" fill="#FFBEDF"/>
<ellipse cx="102.103" cy="292.509" rx="42.4115" ry="41.6947" fill="#6B3A53"/>
<rect x="339.293" y="142.717" width="3.14159" height="83.3894" fill="#6B3A53"/>
<ellipse cx="339.291" cy="238.461" rx="18.8496" ry="18.531" fill="#FF88C4"/>
</g>
<defs>
<clipPath id="clip0_1197_695">
<rect width="1637" height="362" fill="white"/>
</clipPath>
</defs>
</svg>
