<svg width="460" height="361" viewBox="0 0 460 361" fill="none" xmlns="http://www.w3.org/2000/svg">
<path d="M223.638 6.35883C227.152 2.84639 232.848 2.84639 236.362 6.35882L413.812 183.713C419.484 189.382 415.469 199.079 407.45 199.079H52.5503C44.531 199.079 40.5161 189.382 46.1881 183.713L223.638 6.35883Z" fill="#801449"/>
<path d="M80 191.821L230 46.1406L379 191.821V360.83H80V191.821Z" fill="#FFB1D7"/>
<rect x="80" y="208.41" width="299" height="5.18434" fill="#C8709B"/>
<rect x="80" y="247.811" width="299" height="5.18434" fill="#C8709B"/>
<rect x="80" y="288.25" width="299" height="5.18434" fill="#C8709B"/>
<rect x="80" y="327.65" width="299" height="5.18434" fill="#C8709B"/>
<path d="M152 287.735C152 260.518 166.328 235.311 189.714 221.388V221.388C213.901 206.987 244.154 206.974 268.434 221.218V221.218C292.236 235.181 307 260.794 307 288.39V360.829H152V287.735Z" fill="#B06289"/>
<path d="M162 287.667C162 264.767 173.649 243.441 192.917 231.066V231.066C214.926 216.931 243.267 216.921 265.371 230.908V230.908C284.991 243.323 297 264.997 297 288.215V360.831H162V287.667Z" fill="#801449"/>
</svg>
