<svg width="460" height="348" viewBox="0 0 460 348" fill="none" xmlns="http://www.w3.org/2000/svg">
<path d="M223.754 6.02067C227.24 2.66036 232.76 2.66037 236.246 6.02067L413.127 176.52C418.957 182.14 414.979 192 406.881 192H53.1192C45.0212 192 41.0429 182.14 46.8733 176.52L223.754 6.02067Z" fill="#B63977"/>
<path d="M80 185L230 44.5L379 185V348H80V185Z" fill="#FFABD5"/>
<rect x="80" y="201" width="299" height="5" fill="#FF88C4"/>
<rect x="80" y="239" width="299" height="5" fill="#FF88C4"/>
<rect x="80" y="278" width="299" height="5" fill="#FF88C4"/>
<rect x="80" y="316" width="299" height="5" fill="#FF88C4"/>
<path d="M152 279.87C152 252.222 166.785 226.683 190.762 212.915C214.418 199.331 243.628 199.318 267.371 212.751C291.77 226.556 307 252.504 307 280.538V348H152V279.87Z" fill="#B13472"/>
<path d="M162 279.457C162 256.169 174.046 234.539 193.843 222.276C215.406 208.92 242.779 208.909 264.43 222.123C284.585 234.423 297 256.404 297 280.016V348H162V279.457Z" fill="#FF48A3"/>
</svg>
