<svg width="460" height="348" viewBox="0 0 460 348" fill="none" xmlns="http://www.w3.org/2000/svg">
<path d="M223.754 6.02067C227.24 2.66036 232.76 2.66037 236.246 6.02067L413.127 176.52C418.957 182.14 414.979 192 406.881 192H53.1192C45.0212 192 41.0429 182.14 46.8733 176.52L223.754 6.02067Z" fill="#B63977"/>
<path d="M80 185L230 44.5L379 185V348H80V185Z" fill="#FFABD5"/>
<rect x="80" y="201" width="299" height="5" fill="#FF88C4"/>
<rect x="80" y="239" width="299" height="5" fill="#FF88C4"/>
<rect x="80" y="278" width="299" height="5" fill="#FF88C4"/>
<rect x="80" y="316" width="299" height="5" fill="#FF88C4"/>
<path d="M152 279.87C152 252.222 166.785 226.683 190.762 212.915C214.418 199.331 243.628 199.318 267.371 212.751C291.77 226.556 307 252.504 307 280.538V348H152V279.87Z" fill="#B13472"/>
<path d="M162 279.457C162 256.169 174.046 234.539 193.843 222.276C215.406 208.92 242.779 208.909 264.43 222.123C284.585 234.423 297 256.404 297 280.016V348H162V279.457Z" fill="#B2B2B2"/>
<path d="M214.276 280.771C212.599 280.416 210.858 280.961 209.682 282.208C208.822 283.12 208.343 284.326 208.343 285.58V287.257C208.343 288.796 208.732 290.311 209.474 291.66L210.59 293.689C211.222 294.838 212.278 295.695 213.533 296.077L213.889 296.185C215.261 296.603 216.75 296.314 217.865 295.414C218.674 294.762 219.221 293.842 219.406 292.82L219.649 291.488C219.816 290.565 219.82 289.621 219.659 288.697L219.355 286.949C219.198 286.048 218.887 285.181 218.436 284.386L217.814 283.291C217.086 282.01 215.844 281.103 214.403 280.798L214.276 280.771Z" fill="black"/>
<path d="M247.403 264.036C246.191 264.22 245.143 264.983 244.595 266.08C244.332 266.604 244.196 267.182 244.196 267.768V269.335C244.196 271.125 244.677 272.882 245.588 274.422L245.982 275.086C246.671 276.252 247.673 277.201 248.873 277.829L249.781 278.304C250.789 278.831 251.957 278.966 253.058 278.683C254.394 278.341 255.505 277.419 256.088 276.17L256.324 275.663C256.905 274.418 257.024 273.007 256.66 271.682L256.471 270.995C256.256 270.214 255.92 269.471 255.475 268.795L254.366 267.111C253.797 266.247 253.044 265.52 252.162 264.981L251.582 264.626C250.545 263.992 249.316 263.745 248.114 263.928L247.403 264.036Z" fill="black"/>
<path fill-rule="evenodd" clip-rule="evenodd" d="M196.294 302.73L203.837 309.391L214.612 319.481L219.902 324.826C220.746 321.286 222.152 317.904 224.069 314.811L224.348 314.361C225.949 311.776 227.228 309.005 228.156 306.109L228.886 303.83C230.138 299.921 230.776 295.84 230.776 291.735C230.776 287.085 229.958 282.471 228.359 278.105L228.301 277.945C227.276 275.146 225.947 272.469 224.336 269.961L224.153 269.676C221.342 265.298 217.771 261.458 213.608 258.337L213.291 258.098C211.172 256.509 208.919 255.106 206.558 253.906L203.886 252.547C200.331 250.74 196.648 249.199 192.865 247.938L190.612 247.187L189.236 248.739C187.298 250.925 184.2 251.667 181.481 250.596C180.217 250.098 178.834 249.981 177.504 250.26L176.997 250.366C174.739 250.84 172.761 252.192 171.502 254.125L152.488 283.305C149.796 287.435 149.99 292.811 152.972 296.737C153.573 297.529 154.273 298.241 155.055 298.856L160.009 302.748C162.316 304.561 164.789 306.152 167.395 307.5L167.814 307.717C174.169 311.006 181.22 312.722 188.375 312.722H191.547C191.772 312.722 191.998 312.704 192.221 312.669C194.205 312.356 195.711 310.717 195.858 308.714L196.294 302.73ZM208.343 285.58C208.343 284.326 208.822 283.12 209.682 282.208C210.858 280.961 212.599 280.416 214.276 280.771L214.403 280.798C215.844 281.103 217.086 282.01 217.814 283.291L218.436 284.386C218.887 285.181 219.198 286.048 219.355 286.949L219.659 288.697C219.82 289.621 219.816 290.565 219.649 291.488L219.406 292.82C219.221 293.842 218.674 294.762 217.865 295.414C216.75 296.314 215.261 296.603 213.889 296.185L213.533 296.077C212.278 295.695 211.222 294.838 210.59 293.689L209.474 291.66C208.732 290.311 208.343 288.796 208.343 287.257V285.58Z" fill="#FFC78F"/>
<path fill-rule="evenodd" clip-rule="evenodd" d="M224.114 329.081L228.771 332.744C231.473 334.869 234.365 336.74 237.411 338.334L239.969 339.674C242.191 340.837 244.544 341.732 246.977 342.34L248.35 342.683C250.981 343.341 253.706 343.539 256.405 343.27L257.888 343.121C260.67 342.843 263.345 341.9 265.686 340.372L266.228 340.018C268.166 338.753 269.778 337.049 270.934 335.045C271.716 333.69 272.277 332.219 272.596 330.688L273.444 326.616C273.863 324.605 274.129 322.566 274.24 320.515L275.053 305.473L274.073 288.526L272.114 264.33L276.293 265.558C281.41 267.061 286.639 263.561 287.2 258.257L290.139 238.763L291.792 228.756C291.93 227.919 292 227.071 292 226.222V222.099C292 218.634 290.011 215.476 286.885 213.979C285.674 213.399 284.348 213.097 283.004 213.096L262.5 213.078L244.468 215.595C240.895 216.094 238.028 218.8 237.325 222.338C236.536 226.306 233.054 229.163 229.009 229.163H223.987C222.13 229.163 220.29 229.517 218.565 230.207L212.231 232.741C207.768 234.526 203.586 236.945 199.813 239.923L190.612 247.187L192.865 247.938C196.648 249.199 200.331 250.74 203.886 252.547L206.558 253.906C208.919 255.106 211.172 256.509 213.291 258.098L213.608 258.337C217.771 261.458 221.342 265.298 224.153 269.676L224.336 269.961C225.947 272.469 227.276 275.146 228.301 277.945L228.359 278.105C229.958 282.471 230.776 287.085 230.776 291.735C230.776 295.84 230.138 299.921 228.886 303.83L228.156 306.109C227.228 309.005 225.949 311.776 224.348 314.361L224.069 314.811C222.152 317.904 220.746 321.286 219.902 324.826L224.114 329.081ZM244.196 267.768C244.196 267.182 244.332 266.604 244.595 266.08C245.143 264.983 246.191 264.22 247.403 264.036L248.114 263.928C249.316 263.745 250.545 263.992 251.582 264.626L252.162 264.981C253.044 265.52 253.797 266.247 254.366 267.111L255.475 268.795C255.92 269.471 256.256 270.214 256.471 270.995L256.66 271.682C257.024 273.007 256.905 274.418 256.324 275.663L256.088 276.17C255.505 277.419 254.394 278.341 253.058 278.683C251.957 278.966 250.789 278.831 249.781 278.304L248.873 277.829C247.673 277.201 246.671 276.252 245.982 275.086L245.588 274.422C244.677 272.882 244.196 271.125 244.196 269.335V267.768ZM244.752 320.412C245.222 319.802 245.84 319.32 246.547 319.011L253.11 316.151L259.885 314.073C260.264 313.957 260.659 313.898 261.055 313.898C263.447 313.898 265.301 315.987 265.017 318.362L264.27 324.601C264.21 325.105 264.109 325.604 263.97 326.093L263.261 328.572C263.091 329.17 262.832 329.738 262.494 330.258L262.356 330.47C261.187 332.269 259.123 333.278 256.985 333.096C256.237 333.032 255.509 332.825 254.84 332.484L250.875 330.467C250.472 330.262 250.084 330.027 249.715 329.766L245.728 326.938C243.609 325.435 243.165 322.47 244.752 320.412Z" fill="white"/>
<path d="M253.11 316.151L246.547 319.011C245.84 319.32 245.222 319.802 244.752 320.412C243.165 322.47 243.609 325.435 245.728 326.938L249.715 329.766C250.084 330.027 250.472 330.262 250.875 330.467L254.84 332.484C255.509 332.825 256.237 333.032 256.985 333.096C259.123 333.278 261.187 332.269 262.356 330.47L262.494 330.258C262.832 329.738 263.091 329.17 263.261 328.572L263.97 326.093C264.109 325.604 264.21 325.105 264.27 324.601L265.017 318.362C265.301 315.987 263.447 313.898 261.055 313.898C260.659 313.898 260.264 313.957 259.885 314.073L253.11 316.151Z" fill="black"/>
<path d="M196.294 302.73L203.837 309.391L214.612 319.481L219.902 324.826M196.294 302.73L195.858 308.714C195.711 310.717 194.205 312.356 192.221 312.669V312.669C191.998 312.704 191.772 312.722 191.547 312.722H188.375C181.22 312.722 174.169 311.006 167.814 307.717L167.395 307.5C164.789 306.152 162.316 304.561 160.009 302.748L155.055 298.856C154.273 298.241 153.573 297.529 152.972 296.737V296.737C149.99 292.811 149.796 287.435 152.488 283.305L171.502 254.125C172.761 252.192 174.739 250.84 176.997 250.366L177.504 250.26C178.834 249.981 180.217 250.098 181.481 250.596V250.596C184.2 251.667 187.298 250.925 189.236 248.739L190.612 247.187M196.294 302.73L193.943 293.718L190.612 282.061L186.008 270.796M272.114 264.33L274.073 288.526L275.053 305.473L274.24 320.515C274.129 322.566 273.863 324.605 273.444 326.616L272.596 330.688C272.277 332.219 271.716 333.69 270.934 335.045V335.045C269.778 337.049 268.166 338.753 266.228 340.018L265.686 340.372C263.345 341.9 260.67 342.843 257.888 343.121L256.405 343.27C253.706 343.539 250.981 343.341 248.35 342.683L246.977 342.34C244.544 341.732 242.191 340.837 239.969 339.674L237.411 338.334C234.365 336.74 231.473 334.869 228.771 332.744L224.114 329.081L219.902 324.826M272.114 264.33L264.311 258.966C261.161 256.8 258.221 254.343 255.531 251.627L254.342 250.427C250.927 246.98 248.037 243.05 245.763 238.763V238.763M272.114 264.33L276.293 265.558C281.41 267.061 286.639 263.561 287.2 258.257V258.257L290.139 238.763L291.792 228.756C291.93 227.919 292 227.071 292 226.222V222.099C292 218.634 290.011 215.476 286.885 213.979V213.979C285.674 213.399 284.348 213.097 283.004 213.096L262.5 213.078L244.468 215.595C240.895 216.094 238.028 218.8 237.325 222.338V222.338C236.536 226.306 233.054 229.163 229.009 229.163H223.987C222.13 229.163 220.29 229.517 218.565 230.207L212.231 232.741C207.768 234.526 203.586 236.945 199.813 239.923L190.612 247.187M190.612 247.187L192.865 247.938C196.648 249.199 200.331 250.74 203.886 252.547L206.558 253.906C208.919 255.106 211.172 256.509 213.291 258.098L213.608 258.337C217.771 261.458 221.342 265.298 224.153 269.676L224.336 269.961C225.947 272.469 227.276 275.146 228.301 277.945L228.359 278.105C229.958 282.471 230.776 287.085 230.776 291.735V291.735C230.776 295.84 230.138 299.921 228.886 303.83L228.156 306.109C227.228 309.005 225.949 311.776 224.348 314.361L224.069 314.811C222.152 317.904 220.746 321.286 219.902 324.826V324.826M253.11 316.151L246.547 319.011C245.84 319.32 245.222 319.802 244.752 320.412V320.412C243.165 322.47 243.609 325.435 245.728 326.938L249.715 329.766C250.084 330.027 250.472 330.262 250.875 330.467L254.84 332.484C255.509 332.825 256.237 333.032 256.985 333.096V333.096C259.123 333.278 261.187 332.269 262.356 330.47L262.494 330.258C262.832 329.738 263.091 329.17 263.261 328.572L263.97 326.093C264.109 325.604 264.21 325.105 264.27 324.601L265.017 318.362C265.301 315.987 263.447 313.898 261.055 313.898V313.898C260.659 313.898 260.264 313.957 259.885 314.073L253.11 316.151ZM251.582 264.626L252.162 264.981C253.044 265.52 253.797 266.247 254.366 267.111L255.475 268.795C255.92 269.471 256.256 270.214 256.471 270.995L256.66 271.682C257.024 273.007 256.905 274.418 256.324 275.663L256.088 276.17C255.505 277.419 254.394 278.341 253.058 278.683V278.683C251.957 278.966 250.789 278.831 249.781 278.304L248.873 277.829C247.673 277.201 246.671 276.252 245.982 275.086L245.588 274.422C244.677 272.882 244.196 271.125 244.196 269.335V267.768C244.196 267.182 244.332 266.604 244.595 266.08V266.08C245.143 264.983 246.191 264.22 247.403 264.036L248.114 263.928C249.316 263.745 250.545 263.992 251.582 264.626ZM217.814 283.291L218.435 284.386C218.887 285.181 219.198 286.048 219.355 286.949L219.659 288.697C219.82 289.621 219.816 290.565 219.649 291.488L219.406 292.82C219.221 293.842 218.674 294.762 217.865 295.414V295.414C216.75 296.314 215.261 296.603 213.889 296.185L213.533 296.077C212.278 295.695 211.222 294.838 210.59 293.689L209.474 291.66C208.732 290.311 208.343 288.796 208.343 287.257V285.58C208.343 284.326 208.822 283.12 209.682 282.208V282.208C210.858 280.961 212.599 280.416 214.276 280.771L214.403 280.798C215.844 281.103 217.086 282.01 217.814 283.291Z" stroke="#B2B2B2" stroke-width="0.391837"/>
</svg>
