<svg width="253" height="388" viewBox="0 0 253 388" fill="none" xmlns="http://www.w3.org/2000/svg">
<rect y="368" width="114" height="16" fill="#E7CAD9"/>
<rect x="113.988" y="236.742" width="133.716" height="135.908" fill="#C26493"/>
<rect x="164.402" y="140.293" width="24.113" height="81.1073" fill="#C26493"/>
<rect x="164.402" y="15.3438" width="24.1128" height="109.603" fill="#C26493"/>
<rect x="59.1875" y="140.293" width="24.1128" height="227.975" fill="#C26493"/>
<rect x="19.7305" y="140.293" width="4.38414" height="118.372" fill="#482A39"/>
<rect x="107.41" y="372.652" width="144.677" height="15.3445" fill="#E7CAD9"/>
<rect x="107.41" y="221.398" width="144.677" height="15.3445" fill="#E7CAD9"/>
<circle cx="179.751" cy="311.274" r="39.4576" fill="#482A39"/>
<circle cx="21.9218" cy="268.529" r="18.6328" fill="#482A39"/>
<rect x="4.38281" y="124.947" width="241.128" height="15.3445" fill="#E7CAD9"/>
<rect x="107.41" width="138.1" height="15.3445" fill="#E7CAD9"/>
<path d="M190.151 324.959C188.695 325.368 187.173 324.57 186.683 323.139L186.568 322.804C186.504 322.619 186.458 322.429 186.429 322.236L186.362 321.785C186.255 321.078 186.247 320.359 186.335 319.649L186.364 319.422C186.436 318.844 186.589 318.279 186.819 317.743C187.3 316.62 188.102 315.663 189.124 314.992L189.728 314.596C190.201 314.286 190.743 314.098 191.306 314.05C192.697 313.93 194.02 314.672 194.645 315.921L194.68 315.991C194.869 316.369 194.989 316.778 195.033 317.198L195.082 317.668C195.125 318.075 195.126 318.484 195.085 318.891C195.007 319.68 194.772 320.446 194.395 321.143L194.233 321.442C193.533 322.738 192.465 323.799 191.165 324.493L190.721 324.73C190.54 324.827 190.349 324.903 190.151 324.959Z" fill="black"/>
<path d="M194.715 296.571C194.811 296.858 194.522 297.123 194.245 297.001L193.596 296.716C189.613 294.967 185.311 294.065 180.962 294.065C180.743 294.065 180.591 293.846 180.667 293.641L185.902 279.602C186.13 278.991 186.966 278.919 187.295 279.483C189.932 284.012 192.103 288.798 193.772 293.765L194.715 296.571Z" fill="#6E6E6E"/>
<path d="M143.216 325.688C141.036 322.862 139.088 319.864 137.392 316.723L135.496 313.213C134.003 310.45 132.711 307.584 131.628 304.636C134.601 304.16 137.643 304.368 140.524 305.242L148.905 307.785C149.066 307.834 149.122 308.031 149.012 308.158C145.54 312.134 143.537 317.182 143.338 322.458L143.216 325.688Z" fill="#6E6E6E"/>
<path d="M172.726 333.987C173.587 333.088 173.74 331.725 173.1 330.658L172.824 330.156C172.352 329.298 171.676 328.553 170.87 327.995C170.143 327.492 169.307 327.143 168.437 326.984C167.349 326.787 166.228 326.883 165.19 327.264L164.724 327.435C164.288 327.595 163.881 327.827 163.522 328.122L163.303 328.302C162.221 329.191 161.737 330.618 162.055 331.983C162.13 332.303 162.247 332.611 162.403 332.9L162.479 333.041C163.036 334.068 163.943 334.861 165.036 335.276L165.097 335.299C165.669 335.516 166.276 335.627 166.888 335.627H167.968C168.793 335.627 169.614 335.49 170.395 335.222L171.422 334.869C171.872 334.714 172.278 334.454 172.607 334.111L172.726 333.987Z" fill="black"/>
<path fill-rule="evenodd" clip-rule="evenodd" d="M205.32 314.977C205.977 318.363 206.11 321.83 205.713 325.257L205.537 326.773C203.493 329.178 201.248 331.405 198.827 333.431L196.59 335.303C191.709 339.387 186.01 342.381 179.877 344.082L179.81 344.051C178.594 343.497 177.317 343.089 176.005 342.836C173.907 342.431 171.751 342.428 169.652 342.826L169.054 342.939C168.079 343.124 167.119 343.386 166.185 343.722L165.044 344.132C162.917 344.896 160.637 345.133 158.398 344.822C156.358 344.539 154.406 343.808 152.682 342.682L150.873 341.5C148.781 339.229 147.107 336.607 145.926 333.754L145.542 332.826L143.216 325.688L143.338 322.458C143.537 317.182 145.54 312.134 149.012 308.158C149.122 308.031 149.066 307.834 148.905 307.785L140.524 305.242C137.643 304.368 134.601 304.16 131.628 304.636L131.234 303.565C130.701 302.114 131.983 300.646 133.493 300.98L145.54 303.64C149.428 304.499 153.497 303.559 156.615 301.082L159.654 299.056C161.853 297.59 164.182 296.33 166.612 295.292L168.479 294.495C169.15 294.208 169.84 293.971 170.545 293.785C174.856 292.645 178.439 289.653 180.33 285.614L184.138 277.477C184.675 276.332 186.224 276.142 187.021 277.124L187.563 277.793C190.434 281.332 192.751 285.286 194.435 289.52L197.088 296.189C197.961 298.383 199.008 300.504 200.219 302.531L201.172 304.127C203.173 307.476 204.577 311.147 205.32 314.977ZM180.962 294.065C185.311 294.065 189.613 294.967 193.596 296.716L194.245 297.001C194.522 297.123 194.811 296.858 194.715 296.571L193.772 293.765C192.103 288.798 189.932 284.012 187.295 279.483C186.966 278.919 186.13 278.991 185.902 279.602L180.667 293.641C180.591 293.846 180.743 294.065 180.962 294.065ZM186.429 322.236C186.458 322.429 186.504 322.619 186.568 322.804L186.683 323.139C187.173 324.57 188.695 325.368 190.151 324.959C190.349 324.903 190.54 324.827 190.721 324.73L191.165 324.493C192.465 323.799 193.533 322.738 194.233 321.442L194.395 321.143C194.772 320.446 195.007 319.68 195.085 318.891C195.126 318.484 195.125 318.075 195.082 317.668L195.033 317.198C194.989 316.778 194.869 316.369 194.68 315.991L194.645 315.921C194.02 314.672 192.697 313.93 191.306 314.05C190.743 314.098 190.201 314.286 189.728 314.596L189.124 314.992C188.102 315.663 187.3 316.62 186.819 317.743C186.589 318.279 186.436 318.844 186.364 319.422L186.335 319.649C186.247 320.359 186.255 321.078 186.362 321.785L186.429 322.236ZM173.1 330.658C173.74 331.725 173.587 333.088 172.726 333.987L172.607 334.111C172.278 334.454 171.872 334.714 171.422 334.869L170.395 335.222C169.614 335.49 168.793 335.627 167.968 335.627H166.888C166.276 335.627 165.669 335.516 165.097 335.299L165.036 335.276C163.943 334.861 163.036 334.068 162.479 333.041L162.403 332.9C162.247 332.611 162.13 332.303 162.055 331.983C161.737 330.618 162.221 329.191 163.303 328.302L163.522 328.122C163.881 327.827 164.288 327.595 164.724 327.435L165.19 327.264C166.228 326.883 167.349 326.787 168.437 326.984C169.307 327.143 170.143 327.492 170.87 327.995C171.676 328.553 172.352 329.298 172.824 330.156L173.1 330.658Z" fill="#A4A4A4"/>
<path d="M205.537 326.773C208.418 326.773 211.109 328.207 212.715 330.598L213.501 331.769C213.973 332.472 214.364 333.225 214.668 334.016L218.071 342.876C218.667 344.428 218.64 346.151 217.994 347.684C217.257 349.435 215.784 350.771 213.97 351.335L210.145 352.524L204.472 354.093C202.61 354.608 200.666 354.749 198.749 354.51C196.848 354.272 195.012 353.664 193.344 352.719L190.448 351.078L183.672 352.524C184.381 349.553 183.214 346.449 180.723 344.681L179.877 344.082C186.01 342.381 191.709 339.387 196.59 335.303L198.827 333.431C201.248 331.405 203.493 329.178 205.537 326.773Z" fill="#A4A4A4"/>
<path d="M176.005 342.836C177.317 343.089 178.594 343.497 179.81 344.051L179.877 344.082L180.723 344.681C183.214 346.449 184.381 349.553 183.672 352.524C182.247 354.067 180.449 355.254 178.474 355.97C177.022 356.495 175.473 356.77 173.929 356.77H171.384L165.985 356.44C163.689 356.299 161.419 355.883 159.222 355.2L157.278 354.596C156.325 354.3 155.411 353.887 154.559 353.368L153.833 352.926C152.428 352.071 151.281 350.852 150.514 349.398L150.489 349.35C150.144 348.698 149.884 348.004 149.715 347.285L149.54 346.54C149.347 345.721 149.347 344.869 149.54 344.05L149.705 343.35C149.876 342.62 150.288 341.969 150.873 341.5L152.682 342.682C154.406 343.808 156.358 344.539 158.398 344.822C160.637 345.133 162.917 344.896 165.044 344.132L166.185 343.722C167.119 343.386 168.079 343.124 169.054 342.939L169.652 342.826C171.751 342.428 173.907 342.431 176.005 342.836Z" fill="#A4A4A4"/>
<path d="M205.537 326.773L205.713 325.257C206.11 321.83 205.977 318.363 205.32 314.977V314.977C204.577 311.147 203.173 307.476 201.172 304.127L200.219 302.531C199.008 300.504 197.961 298.383 197.088 296.189L194.435 289.52C192.751 285.286 190.434 281.332 187.563 277.793L187.021 277.124C186.224 276.142 184.675 276.332 184.138 277.477L180.33 285.614C178.439 289.653 174.856 292.645 170.545 293.785V293.785C169.84 293.971 169.15 294.208 168.479 294.495L166.612 295.292C164.182 296.33 161.853 297.59 159.654 299.056L156.615 301.082V301.082C153.497 303.559 149.428 304.499 145.54 303.64L133.493 300.98C131.983 300.646 130.701 302.114 131.234 303.565L131.628 304.636M205.537 326.773V326.773C203.493 329.178 201.248 331.405 198.827 333.431L196.59 335.303C191.709 339.387 186.01 342.38 179.877 344.082V344.082M205.537 326.773V326.773C208.418 326.773 211.109 328.207 212.715 330.598L213.501 331.769C213.973 332.472 214.364 333.225 214.668 334.016L218.071 342.876C218.667 344.428 218.64 346.151 217.994 347.684V347.684C217.257 349.435 215.784 350.771 213.97 351.335L210.145 352.524L204.472 354.093C202.61 354.608 200.666 354.749 198.749 354.51V354.51C196.848 354.272 195.012 353.664 193.344 352.719L190.448 351.078M179.877 344.082L179.81 344.051C178.594 343.497 177.317 343.089 176.005 342.836V342.836C173.907 342.431 171.751 342.428 169.652 342.826L169.054 342.939C168.079 343.124 167.119 343.386 166.185 343.722L165.044 344.132C162.917 344.896 160.637 345.133 158.398 344.822V344.822C156.358 344.539 154.406 343.808 152.682 342.682L150.873 341.5M179.877 344.082L180.723 344.681C183.214 346.449 184.381 349.553 183.672 352.524V352.524M150.873 341.5V341.5C148.781 339.229 147.107 336.607 145.926 333.754L145.542 332.826L143.216 325.688M150.873 341.5V341.5C150.288 341.969 149.876 342.62 149.705 343.35L149.54 344.05C149.347 344.869 149.347 345.721 149.54 346.54L149.715 347.285C149.884 348.004 150.144 348.698 150.489 349.35L150.514 349.398C151.281 350.852 152.428 352.071 153.833 352.926L154.559 353.368C155.411 353.887 156.325 354.3 157.278 354.596L159.222 355.2C161.419 355.883 163.689 356.299 165.985 356.44L171.384 356.77H173.929C175.473 356.77 177.022 356.495 178.474 355.97V355.97C180.449 355.254 182.247 354.067 183.672 352.524V352.524M143.216 325.688V325.688C141.036 322.862 139.088 319.864 137.392 316.723L135.496 313.213C134.003 310.45 132.711 307.584 131.628 304.636V304.636M143.216 325.688L143.338 322.458C143.537 317.182 145.54 312.134 149.012 308.158V308.158C149.122 308.031 149.066 307.834 148.905 307.785L140.524 305.242C137.643 304.368 134.601 304.16 131.628 304.636V304.636M190.448 351.078L190.336 350.837C189.59 349.239 189.413 347.433 189.833 345.72V345.72C190.233 344.095 191.147 342.644 192.441 341.583L192.515 341.522C194.09 340.231 196.096 339.587 198.128 339.72L205.537 340.205M190.448 351.078L183.672 352.524M186.473 336.892L184.304 336.35M184.304 336.35L183.491 338.248M184.304 336.35L183.762 335.085M183.762 335.085L184.118 334.7C184.594 334.184 184.916 333.545 185.047 332.855V332.855C185.153 332.301 185.132 331.73 184.987 331.185L184.846 330.658M183.762 335.085H183.139C182.419 335.085 181.708 334.926 181.056 334.62V334.62C180.693 334.449 180.352 334.234 180.042 333.98L179.515 333.549M173.1 330.658V330.658C173.74 331.725 173.587 333.088 172.726 333.987L172.607 334.111C172.278 334.454 171.872 334.714 171.422 334.869L170.395 335.222C169.614 335.49 168.793 335.627 167.968 335.627H166.888C166.276 335.627 165.669 335.516 165.097 335.299L165.036 335.276C163.943 334.861 163.036 334.068 162.479 333.041L162.403 332.9C162.247 332.611 162.13 332.303 162.055 331.983V331.983C161.737 330.618 162.221 329.191 163.303 328.302L163.522 328.122C163.881 327.827 164.288 327.595 164.724 327.435L165.19 327.264C166.228 326.883 167.349 326.787 168.437 326.984V326.984C169.307 327.143 170.143 327.492 170.87 327.995V327.995C171.676 328.553 172.352 329.298 172.824 330.156L173.1 330.658ZM186.362 321.785L186.429 322.236C186.458 322.429 186.504 322.619 186.568 322.804L186.683 323.139C187.173 324.57 188.695 325.368 190.151 324.959V324.959C190.349 324.903 190.54 324.827 190.721 324.73L191.165 324.493C192.465 323.799 193.533 322.738 194.233 321.442L194.395 321.143C194.772 320.446 195.007 319.68 195.085 318.891V318.891C195.126 318.484 195.125 318.075 195.082 317.668L195.033 317.198C194.989 316.778 194.869 316.369 194.68 315.991L194.645 315.921C194.02 314.672 192.697 313.93 191.306 314.05V314.05C190.743 314.098 190.201 314.286 189.728 314.596L189.124 314.992C188.102 315.663 187.3 316.62 186.819 317.743V317.743C186.589 318.279 186.436 318.844 186.364 319.422L186.335 319.649C186.247 320.359 186.255 321.078 186.362 321.785ZM194.245 297.001L193.596 296.716C189.613 294.967 185.311 294.065 180.962 294.065V294.065C180.743 294.065 180.591 293.846 180.667 293.641L185.902 279.602C186.13 278.991 186.966 278.919 187.295 279.483V279.483C189.932 284.012 192.103 288.798 193.772 293.765L194.715 296.571C194.811 296.858 194.522 297.123 194.245 297.001Z" stroke="#4E4E4E" stroke-width="0.180708"/>
<g filter="url(#filter0_f_1098_260)">
<circle cx="0.632476" cy="0.632476" r="0.632476" transform="matrix(-1 0 0 1 168.398 327.406)" fill="#D9D9D9"/>
<circle cx="0.632476" cy="0.632476" r="0.626152" transform="matrix(-1 0 0 1 168.398 327.406)" stroke="#4E4E4E" stroke-width="0.0126495"/>
</g>
<g filter="url(#filter1_f_1098_260)">
<circle cx="0.632476" cy="0.632476" r="0.632476" transform="matrix(-1 0 0 1 189.727 315.842)" fill="#D9D9D9"/>
<circle cx="0.632476" cy="0.632476" r="0.626152" transform="matrix(-1 0 0 1 189.727 315.842)" stroke="#4E4E4E" stroke-width="0.0126495"/>
</g>
<defs>
<filter id="filter0_f_1098_260" x="166.934" y="327.207" width="1.66318" height="1.66318" filterUnits="userSpaceOnUse" color-interpolation-filters="sRGB">
<feFlood flood-opacity="0" result="BackgroundImageFix"/>
<feBlend mode="normal" in="SourceGraphic" in2="BackgroundImageFix" result="shape"/>
<feGaussianBlur stdDeviation="0.0993891" result="effect1_foregroundBlur_1098_260"/>
</filter>
<filter id="filter1_f_1098_260" x="188.262" y="315.643" width="1.66318" height="1.66318" filterUnits="userSpaceOnUse" color-interpolation-filters="sRGB">
<feFlood flood-opacity="0" result="BackgroundImageFix"/>
<feBlend mode="normal" in="SourceGraphic" in2="BackgroundImageFix" result="shape"/>
<feGaussianBlur stdDeviation="0.0993891" result="effect1_foregroundBlur_1098_260"/>
</filter>
</defs>
</svg>
