<svg width="469" height="465" viewBox="0 0 469 465" fill="none" xmlns="http://www.w3.org/2000/svg">
<rect x="263" y="435" width="201" height="30" fill="#FFC9E4"/>
<rect x="8" y="296" width="255" height="148" fill="#DD388A"/>
<rect x="110.867" y="20.5293" width="49.2741" height="254.583" fill="#DD388A"/>
<rect x="320.281" y="172.459" width="36.9556" height="262.795" fill="#DD388A"/>
<rect y="444" width="271" height="21" fill="#FFC9E4"/>
<rect y="275.113" width="271.008" height="20.5309" fill="#FFC9E4"/>
<rect x="41.0586" width="201.203" height="20.5309" fill="#FFC9E4"/>
<rect x="213.523" y="143.715" width="250.477" height="28.7432" fill="#FFC9E4"/>
<circle cx="133.453" cy="371.609" r="55.4334" fill="#612744"/>
<rect x="443.469" y="172.459" width="4.10618" height="110.867" fill="#612744"/>
<circle cx="443.465" cy="299.75" r="24.6371" fill="#612744"/>
<path d="M113.926 386.872C115.99 387.453 118.15 386.32 118.845 384.291L119.009 383.815C119.098 383.553 119.164 383.283 119.205 383.009L119.301 382.37C119.452 381.366 119.464 380.347 119.338 379.34L119.298 379.018C119.196 378.197 118.978 377.396 118.653 376.636C117.97 375.042 116.832 373.685 115.383 372.734L114.525 372.171C113.855 371.731 113.085 371.465 112.286 371.396C110.313 371.227 108.436 372.279 107.551 374.05L107.5 374.151C107.232 374.687 107.063 375.267 107 375.863L106.93 376.529C106.869 377.106 106.868 377.687 106.925 378.264C107.037 379.384 107.37 380.47 107.905 381.459L108.134 381.883C109.128 383.722 110.642 385.227 112.487 386.211L113.117 386.547C113.374 386.684 113.645 386.793 113.926 386.872Z" fill="black"/>
<path d="M107.451 346.601C107.314 347.008 107.725 347.383 108.117 347.211L109.039 346.806C114.688 344.326 120.791 343.045 126.961 343.045C127.272 343.045 127.488 342.735 127.379 342.444L119.953 322.529C119.63 321.661 118.444 321.56 117.978 322.36C114.236 328.785 111.157 335.573 108.788 342.621L107.451 346.601Z" fill="#A2918D"/>
<path d="M180.507 387.907C183.601 383.898 186.364 379.644 188.771 375.188L191.46 370.21C193.577 366.29 195.411 362.224 196.947 358.042C192.73 357.367 188.414 357.661 184.327 358.901L172.437 362.509C172.21 362.578 172.129 362.859 172.285 363.038C177.212 368.679 180.053 375.84 180.335 383.325L180.507 387.907Z" fill="#A2918D"/>
<path d="M138.644 399.679C137.423 398.405 137.206 396.47 138.114 394.957L138.505 394.245C139.175 393.027 140.134 391.971 141.277 391.179C142.308 390.465 143.495 389.97 144.729 389.746C146.272 389.465 147.863 389.602 149.336 390.142L149.996 390.384C150.615 390.611 151.192 390.941 151.701 391.359L152.012 391.614C153.548 392.876 154.234 394.901 153.783 396.837C153.677 397.291 153.511 397.728 153.289 398.138L153.181 398.337C152.391 399.795 151.104 400.92 149.554 401.508L149.467 401.541C148.656 401.849 147.795 402.007 146.927 402.007H145.395C144.223 402.007 143.06 401.812 141.952 401.431L140.494 400.93C139.857 400.711 139.28 400.343 138.814 399.856L138.644 399.679Z" fill="black"/>
<path fill-rule="evenodd" clip-rule="evenodd" d="M92.4066 372.711C91.4744 377.515 91.2865 382.434 91.8494 387.295L92.0983 389.445C94.9985 392.857 98.1828 396.017 101.617 398.891L104.791 401.546C111.716 407.341 119.8 411.587 128.5 414L128.596 413.956C130.321 413.171 132.133 412.592 133.994 412.233C136.97 411.659 140.028 411.654 143.006 412.218L143.854 412.379C145.238 412.642 146.598 413.013 147.924 413.489L149.543 414.071C152.56 415.155 155.795 415.491 158.97 415.05C161.864 414.648 164.633 413.611 167.079 412.014L169.645 410.338C172.613 407.116 174.989 403.396 176.663 399.349L177.208 398.033L180.507 387.907L180.335 383.325C180.053 375.84 177.212 368.679 172.285 363.038C172.129 362.859 172.21 362.578 172.437 362.509L184.327 358.901C188.414 357.661 192.73 357.367 196.947 358.042L197.505 356.523C198.261 354.464 196.443 352.382 194.301 352.855L177.211 356.629C171.695 357.847 165.923 356.514 161.5 353L157.188 350.126C154.069 348.046 150.765 346.259 147.318 344.787L144.669 343.655C143.718 343.249 142.739 342.913 141.739 342.648C135.624 341.032 130.54 336.786 127.858 331.057L122.455 319.514C121.694 317.889 119.496 317.62 118.366 319.014L117.597 319.962C113.525 324.982 110.238 330.591 107.848 336.598L104.085 346.059C102.846 349.172 101.361 352.181 99.6427 355.056L98.2904 357.32C95.4517 362.07 93.4608 367.278 92.4066 372.711ZM126.961 343.045C120.791 343.045 114.688 344.326 109.039 346.806L108.117 347.211C107.725 347.383 107.314 347.008 107.451 346.601L108.788 342.621C111.157 335.573 114.236 328.785 117.978 322.36C118.444 321.56 119.63 321.661 119.953 322.529L127.379 342.444C127.488 342.735 127.272 343.045 126.961 343.045ZM119.205 383.009C119.164 383.283 119.098 383.553 119.009 383.815L118.845 384.291C118.15 386.32 115.99 387.453 113.926 386.872C113.645 386.793 113.374 386.684 113.117 386.547L112.487 386.211C110.642 385.227 109.128 383.722 108.134 381.883L107.905 381.459C107.37 380.47 107.037 379.384 106.925 378.264C106.868 377.687 106.869 377.106 106.93 376.529L107 375.863C107.063 375.267 107.232 374.687 107.5 374.151L107.551 374.05C108.436 372.279 110.313 371.227 112.286 371.396C113.085 371.465 113.855 371.731 114.525 372.171L115.383 372.734C116.832 373.685 117.97 375.042 118.653 376.636C118.978 377.396 119.196 378.197 119.298 379.018L119.338 379.34C119.464 380.347 119.452 381.366 119.301 382.37L119.205 383.009ZM138.114 394.957C137.206 396.47 137.423 398.405 138.644 399.679L138.814 399.856C139.28 400.343 139.857 400.711 140.494 400.93L141.952 401.431C143.06 401.812 144.223 402.007 145.395 402.007H146.927C147.795 402.007 148.656 401.849 149.467 401.541L149.554 401.508C151.104 400.92 152.391 399.795 153.181 398.337L153.289 398.138C153.511 397.728 153.677 397.291 153.783 396.837C154.234 394.901 153.548 392.876 152.012 391.614L151.701 391.359C151.192 390.941 150.615 390.611 149.996 390.384L149.336 390.142C147.863 389.602 146.272 389.465 144.729 389.746C143.495 389.97 142.308 390.465 141.277 391.179C140.134 391.971 139.175 393.027 138.505 394.245L138.114 394.957Z" fill="#E4CCC6"/>
<path d="M92.0983 389.445C88.0124 389.445 84.1947 391.48 81.9166 394.872L80.8013 396.533C80.1315 397.53 79.576 398.599 79.1453 399.721L74.3182 412.289C73.4724 414.492 73.5113 416.936 74.4268 419.11C75.4726 421.594 77.5617 423.489 80.1353 424.289L85.5613 425.976L93.6103 428.202C96.2507 428.932 99.0094 429.133 101.728 428.794C104.425 428.456 107.03 427.593 109.395 426.253L113.504 423.925L123.117 425.976C122.11 421.761 123.766 417.358 127.301 414.851L128.5 414C119.8 411.587 111.716 407.341 104.791 401.546L101.617 398.891C98.1828 396.017 94.9985 392.857 92.0983 389.445Z" fill="#E4CCC6"/>
<path d="M133.994 412.233C132.133 412.592 130.321 413.171 128.596 413.956L128.5 414L127.301 414.851C123.766 417.358 122.11 421.761 123.117 425.976C125.138 428.165 127.689 429.85 130.491 430.864C132.55 431.61 134.748 432 136.938 432H140.549L148.208 431.531C151.464 431.332 154.685 430.741 157.801 429.773L160.559 428.916C161.912 428.495 163.207 427.91 164.417 427.174L165.447 426.547C167.44 425.334 169.067 423.605 170.155 421.542L170.191 421.474C170.68 420.548 171.048 419.564 171.288 418.544L171.537 417.488C171.81 416.326 171.81 415.117 171.537 413.955L171.303 412.961C171.059 411.926 170.476 411.002 169.645 410.338L167.079 412.014C164.633 413.611 161.864 414.648 158.97 415.05C155.795 415.491 152.56 415.155 149.543 414.071L147.924 413.489C146.598 413.013 145.238 412.642 143.854 412.379L143.006 412.218C140.028 411.654 136.97 411.659 133.994 412.233Z" fill="#E4CCC6"/>
<path d="M92.0983 389.445L91.8494 387.295C91.2865 382.434 91.4744 377.515 92.4066 372.711V372.711C93.4608 367.278 95.4517 362.07 98.2904 357.32L99.6427 355.056C101.361 352.181 102.846 349.172 104.085 346.059L107.848 336.598C110.238 330.591 113.525 324.982 117.597 319.962L118.366 319.014C119.496 317.62 121.694 317.889 122.455 319.514L127.858 331.057C130.54 336.786 135.624 341.032 141.739 342.648V342.648C142.739 342.913 143.718 343.249 144.669 343.655L147.318 344.787C150.765 346.259 154.069 348.046 157.188 350.126L161.5 353V353C165.923 356.514 171.695 357.847 177.211 356.629L194.301 352.855C196.443 352.382 198.261 354.464 197.505 356.523L196.947 358.042M92.0983 389.445V389.445C94.9985 392.857 98.1828 396.017 101.617 398.891L104.791 401.546C111.716 407.341 119.8 411.587 128.5 414V414M92.0983 389.445V389.445C88.0124 389.445 84.1947 391.48 81.9166 394.872L80.8013 396.533C80.1315 397.53 79.576 398.599 79.1453 399.721L74.3182 412.289C73.4724 414.492 73.5113 416.936 74.4268 419.11V419.11C75.4726 421.594 77.5617 423.489 80.1353 424.289L85.5613 425.976L93.6103 428.202C96.2507 428.932 99.0094 429.133 101.728 428.794V428.794C104.425 428.456 107.03 427.593 109.395 426.253L113.504 423.925M128.5 414L128.596 413.956C130.321 413.171 132.133 412.592 133.994 412.233V412.233C136.97 411.659 140.028 411.654 143.006 412.218L143.854 412.379C145.238 412.642 146.598 413.013 147.924 413.489L149.543 414.071C152.56 415.155 155.795 415.491 158.97 415.05V415.05C161.864 414.648 164.633 413.611 167.079 412.014L169.645 410.338M128.5 414L127.301 414.851C123.766 417.358 122.11 421.761 123.117 425.976V425.976M169.645 410.338V410.338C172.613 407.116 174.989 403.396 176.663 399.349L177.208 398.033L180.507 387.907M169.645 410.338V410.338C170.476 411.002 171.059 411.926 171.303 412.961L171.537 413.955C171.81 415.117 171.81 416.326 171.537 417.488L171.288 418.544C171.048 419.564 170.68 420.548 170.191 421.474L170.155 421.542C169.067 423.605 167.44 425.334 165.447 426.547L164.417 427.174C163.207 427.91 161.912 428.495 160.559 428.916L157.801 429.773C154.685 430.741 151.464 431.332 148.208 431.531L140.549 432H136.938C134.748 432 132.55 431.61 130.491 430.864V430.864C127.689 429.85 125.138 428.165 123.117 425.976V425.976M180.507 387.907V387.907C183.601 383.898 186.364 379.644 188.771 375.188L191.46 370.21C193.577 366.29 195.411 362.224 196.947 358.042V358.042M180.507 387.907L180.335 383.325C180.053 375.84 177.212 368.679 172.285 363.038V363.038C172.129 362.859 172.21 362.578 172.437 362.509L184.327 358.901C188.414 357.661 192.73 357.367 196.947 358.042V358.042M113.504 423.925L113.663 423.584C114.721 421.316 114.973 418.755 114.376 416.324V416.324C113.81 414.019 112.512 411.96 110.677 410.455L110.571 410.369C108.338 408.537 105.491 407.623 102.609 407.812L92.0983 408.5M113.504 423.925L123.117 425.976M119.144 403.801L122.22 403.032M122.22 403.032L123.373 405.724M122.22 403.032L122.989 401.238M122.989 401.238L122.485 400.691C121.809 399.959 121.352 399.053 121.166 398.074V398.074C121.016 397.288 121.045 396.478 121.251 395.704L121.451 394.957M122.989 401.238H123.873C124.895 401.238 125.903 401.012 126.828 400.577V400.577C127.343 400.335 127.826 400.03 128.267 399.669L129.013 399.059M138.114 394.957V394.957C137.206 396.47 137.423 398.405 138.644 399.679L138.814 399.856C139.28 400.343 139.857 400.711 140.494 400.93L141.952 401.431C143.06 401.812 144.223 402.007 145.395 402.007H146.927C147.795 402.007 148.656 401.849 149.467 401.541L149.554 401.508C151.104 400.92 152.391 399.795 153.181 398.337L153.289 398.138C153.511 397.728 153.677 397.291 153.783 396.837V396.837C154.234 394.901 153.548 392.876 152.012 391.614L151.701 391.359C151.192 390.941 150.615 390.611 149.996 390.384L149.336 390.142C147.863 389.602 146.272 389.465 144.729 389.746V389.746C143.495 389.97 142.308 390.465 141.277 391.179V391.179C140.134 391.971 139.175 393.027 138.505 394.245L138.114 394.957ZM119.301 382.37L119.205 383.009C119.164 383.283 119.098 383.553 119.009 383.815L118.845 384.291C118.15 386.32 115.99 387.453 113.926 386.872V386.872C113.645 386.793 113.374 386.684 113.117 386.547L112.487 386.211C110.642 385.227 109.128 383.722 108.134 381.883L107.905 381.459C107.37 380.47 107.037 379.384 106.925 378.264V378.264C106.868 377.687 106.869 377.106 106.93 376.529L107 375.863C107.063 375.267 107.232 374.687 107.5 374.151L107.551 374.05C108.436 372.279 110.313 371.227 112.286 371.396V371.396C113.085 371.465 113.855 371.731 114.525 372.171L115.383 372.734C116.832 373.685 117.97 375.042 118.653 376.636V376.636C118.978 377.396 119.196 378.197 119.298 379.018L119.338 379.34C119.464 380.347 119.452 381.366 119.301 382.37ZM108.117 347.211L109.039 346.806C114.688 344.326 120.791 343.045 126.961 343.045V343.045C127.272 343.045 127.488 342.735 127.379 342.444L119.953 322.529C119.63 321.661 118.444 321.56 117.978 322.36V322.36C114.236 328.785 111.157 335.573 108.788 342.621L107.451 346.601C107.314 347.008 107.725 347.383 108.117 347.211Z" stroke="#969696" stroke-width="0.256354"/>
<g filter="url(#filter0_f_1098_254)">
<circle cx="145.678" cy="391.239" r="0.897238" fill="#D9D9D9"/>
<circle cx="145.678" cy="391.239" r="0.888265" stroke="#969696" stroke-width="0.0179447"/>
</g>
<g filter="url(#filter1_f_1098_254)">
<circle cx="115.425" cy="374.835" r="0.897238" fill="#D9D9D9"/>
<circle cx="115.425" cy="374.835" r="0.888265" stroke="#969696" stroke-width="0.0179447"/>
</g>
<defs>
<filter id="filter0_f_1098_254" x="144.499" y="390.06" width="2.35695" height="2.3589" filterUnits="userSpaceOnUse" color-interpolation-filters="sRGB">
<feFlood flood-opacity="0" result="BackgroundImageFix"/>
<feBlend mode="normal" in="SourceGraphic" in2="BackgroundImageFix" result="shape"/>
<feGaussianBlur stdDeviation="0.140994" result="effect1_foregroundBlur_1098_254"/>
</filter>
<filter id="filter1_f_1098_254" x="114.245" y="373.656" width="2.35695" height="2.3589" filterUnits="userSpaceOnUse" color-interpolation-filters="sRGB">
<feFlood flood-opacity="0" result="BackgroundImageFix"/>
<feBlend mode="normal" in="SourceGraphic" in2="BackgroundImageFix" result="shape"/>
<feGaussianBlur stdDeviation="0.140994" result="effect1_foregroundBlur_1098_254"/>
</filter>
</defs>
</svg>
