<svg width="460" height="361" viewBox="0 0 460 361" fill="none" xmlns="http://www.w3.org/2000/svg">
<path d="M223.754 6.02067C227.24 2.66036 232.76 2.66037 236.246 6.02067L413.127 176.52C418.957 182.14 414.979 192 406.881 192H53.1192C45.0212 192 41.0429 182.14 46.8733 176.52L223.754 6.02067Z" fill="#801449"/>
<path d="M80 185L230 44.5L379 185V348H80V185Z" fill="#FFB1D7"/>
<rect x="80" y="201" width="299" height="5" fill="#C8709B"/>
<rect x="80" y="239" width="299" height="5" fill="#C8709B"/>
<rect x="80" y="278" width="299" height="5" fill="#C8709B"/>
<rect x="80" y="316" width="299" height="5" fill="#C8709B"/>
<path d="M152 279.87C152 252.222 166.785 226.683 190.762 212.915C214.418 199.331 243.628 199.318 267.371 212.751C291.77 226.556 307 252.504 307 280.538V348H152V279.87Z" fill="#B06289"/>
<path d="M162 279.457C162 256.169 174.046 234.539 193.843 222.276C215.406 208.92 242.779 208.909 264.43 222.123C284.585 234.423 297 256.404 297 280.016V348H162V279.457Z" fill="#462E2E"/>
<path d="M249.979 289.624C251.878 289.223 253.848 289.839 255.179 291.251C256.153 292.284 256.695 293.649 256.695 295.068V296.966C256.695 298.709 256.255 300.423 255.415 301.951L254.152 304.247C253.437 305.548 252.241 306.518 250.821 306.95L250.417 307.073C248.865 307.545 247.179 307.218 245.916 306.2C245.001 305.462 244.382 304.42 244.172 303.263L243.898 301.755C243.708 300.711 243.704 299.642 243.886 298.597L244.23 296.618C244.407 295.598 244.759 294.616 245.271 293.716L245.975 292.477C246.799 291.027 248.204 290 249.835 289.655L249.979 289.624Z" fill="black"/>
<path d="M212.481 270.681C213.854 270.89 215.039 271.753 215.66 272.995C215.957 273.589 216.112 274.243 216.112 274.906V276.68C216.112 278.706 215.567 280.694 214.535 282.438L214.09 283.19C213.31 284.509 212.176 285.584 210.818 286.294L209.789 286.832C208.648 287.428 207.327 287.581 206.08 287.261C204.568 286.874 203.31 285.83 202.65 284.416L202.383 283.843C201.725 282.434 201.59 280.836 202.003 279.336L202.217 278.558C202.46 277.674 202.841 276.834 203.345 276.068L204.6 274.162C205.244 273.185 206.096 272.361 207.094 271.751L207.751 271.35C208.925 270.632 210.316 270.352 211.677 270.559L212.481 270.681Z" fill="black"/>
<path fill-rule="evenodd" clip-rule="evenodd" d="M270.334 314.481L261.796 322.021L249.599 333.442L243.611 339.492C242.656 335.485 241.064 331.658 238.894 328.156L238.578 327.647C236.766 324.721 235.318 321.584 234.268 318.306L233.442 315.726C232.024 311.301 231.303 306.682 231.303 302.035C231.303 296.772 232.229 291.549 234.038 286.607L234.104 286.426C235.264 283.258 236.769 280.227 238.592 277.388L238.799 277.066C241.981 272.111 246.023 267.764 250.735 264.23L251.094 263.96C253.493 262.161 256.043 260.573 258.716 259.214L261.741 257.676C265.764 255.631 269.933 253.887 274.215 252.46L276.765 251.61L278.323 253.366C280.517 255.841 284.024 256.68 287.101 255.468C288.532 254.904 290.098 254.772 291.603 255.088L292.177 255.208C294.733 255.744 296.971 257.275 298.397 259.463L319.92 292.493C322.967 297.168 322.748 303.253 319.373 307.698C318.692 308.594 317.899 309.4 317.014 310.095L311.406 314.501C308.795 316.553 305.996 318.354 303.046 319.881L302.571 320.126C295.378 323.849 287.397 325.791 279.297 325.791H275.708C275.452 325.791 275.197 325.771 274.945 325.732C272.699 325.377 270.993 323.522 270.828 321.254L270.334 314.481ZM256.695 295.068C256.695 293.649 256.153 292.284 255.179 291.251C253.848 289.839 251.878 289.223 249.979 289.624L249.835 289.655C248.204 290 246.799 291.027 245.975 292.477L245.271 293.716C244.759 294.616 244.407 295.598 244.23 296.618L243.886 298.597C243.704 299.642 243.708 300.711 243.898 301.755L244.172 303.263C244.382 304.42 245.001 305.462 245.916 306.2C247.179 307.218 248.865 307.545 250.417 307.073L250.821 306.95C252.241 306.518 253.437 305.548 254.152 304.247L255.415 301.951C256.255 300.423 256.695 298.709 256.695 296.966V295.068Z" fill="#271616"/>
<path fill-rule="evenodd" clip-rule="evenodd" d="M238.843 344.309L233.571 348.455C230.513 350.861 227.239 352.979 223.792 354.783L220.896 356.299C218.38 357.616 215.718 358.629 212.964 359.317L211.409 359.706C208.431 360.451 205.346 360.675 202.292 360.37L200.613 360.202C197.464 359.887 194.436 358.819 191.786 357.089L191.172 356.688C188.979 355.257 187.154 353.328 185.845 351.059C184.96 349.526 184.326 347.861 183.964 346.128L183.004 341.518C182.53 339.242 182.229 336.934 182.103 334.612L181.183 317.586L182.292 298.403L184.51 271.015L179.779 272.404C173.987 274.105 168.068 270.143 167.433 264.14L164.107 242.074L162.235 230.747C162.079 229.799 162 228.839 162 227.878V223.211C162 219.289 164.252 215.714 167.79 214.02C169.161 213.363 170.662 213.021 172.182 213.02L195.392 213L215.804 215.849C219.848 216.414 223.093 219.476 223.89 223.482C224.783 227.973 228.724 231.207 233.302 231.207H238.987C241.089 231.207 243.172 231.608 245.124 232.389L252.294 235.257C257.345 237.278 262.08 240.016 266.35 243.387L276.765 251.61L274.215 252.46C269.933 253.887 265.764 255.631 261.741 257.676L258.716 259.214C256.043 260.573 253.493 262.161 251.094 263.96L250.735 264.23C246.023 267.764 241.981 272.111 238.799 277.066L238.592 277.388C236.769 280.227 235.264 283.258 234.104 286.426L234.038 286.607C232.229 291.549 231.303 296.772 231.303 302.035C231.303 306.682 232.024 311.301 233.442 315.726L234.268 318.306C235.318 321.584 236.766 324.721 238.578 327.647L238.894 328.156C241.064 331.658 242.656 335.485 243.611 339.492L238.843 344.309ZM216.112 274.906C216.112 274.243 215.957 273.589 215.66 272.995C215.039 271.753 213.854 270.89 212.481 270.681L211.677 270.559C210.316 270.352 208.925 270.632 207.751 271.35L207.094 271.751C206.096 272.361 205.244 273.185 204.6 274.162L203.345 276.068C202.841 276.834 202.46 277.674 202.217 278.558L202.003 279.336C201.59 280.836 201.725 282.434 202.383 283.843L202.65 284.416C203.31 285.83 204.568 286.874 206.08 287.261C207.327 287.581 208.648 287.428 209.789 286.832L210.818 286.294C212.176 285.584 213.31 284.509 214.09 283.19L214.535 282.438C215.567 280.694 216.112 278.706 216.112 276.68V274.906ZM215.483 334.496C214.95 333.805 214.25 333.26 213.45 332.911L206.021 329.672L198.352 327.321C197.923 327.189 197.477 327.122 197.028 327.122C194.321 327.122 192.222 329.487 192.543 332.175L193.389 339.238C193.457 339.809 193.571 340.373 193.728 340.926L194.53 343.733C194.724 344.409 195.017 345.052 195.4 345.642L195.555 345.881C196.879 347.917 199.215 349.059 201.635 348.854C202.481 348.782 203.306 348.546 204.063 348.161L208.551 345.878C209.008 345.645 209.446 345.38 209.864 345.084L214.377 341.883C216.776 340.181 217.278 336.826 215.483 334.496Z" fill="#9C6969"/>
<path d="M206.021 329.672L213.45 332.911C214.25 333.26 214.95 333.805 215.483 334.496C217.278 336.826 216.776 340.181 214.377 341.883L209.864 345.084C209.446 345.38 209.008 345.645 208.551 345.878L204.063 348.161C203.306 348.546 202.481 348.782 201.635 348.854C199.215 349.059 196.879 347.917 195.555 345.881L195.4 345.642C195.017 345.052 194.724 344.409 194.53 343.733L193.728 340.926C193.571 340.373 193.457 339.809 193.389 339.238L192.543 332.175C192.222 329.487 194.321 327.122 197.028 327.122C197.477 327.122 197.923 327.189 198.352 327.321L206.021 329.672Z" fill="black"/>
<path d="M270.334 314.481L261.796 322.021L249.599 333.442L243.611 339.492M270.334 314.481L270.828 321.254C270.993 323.522 272.699 325.377 274.945 325.732V325.732C275.197 325.771 275.452 325.791 275.708 325.791H279.297C287.397 325.791 295.378 323.849 302.571 320.126L303.046 319.881C305.996 318.354 308.795 316.553 311.406 314.501L317.014 310.095C317.899 309.4 318.692 308.594 319.373 307.698V307.698C322.748 303.253 322.967 297.168 319.92 292.493L298.397 259.463C296.971 257.275 294.733 255.744 292.177 255.208L291.603 255.088C290.098 254.772 288.532 254.904 287.101 255.468V255.468C284.024 256.68 280.517 255.841 278.323 253.366L276.765 251.61M270.334 314.481L272.995 304.28L276.765 291.085L281.977 278.333M184.51 271.015L182.292 298.403L181.183 317.586L182.103 334.612C182.229 336.934 182.53 339.242 183.004 341.518L183.964 346.128C184.326 347.861 184.96 349.526 185.845 351.059V351.059C187.154 353.328 188.979 355.257 191.172 356.688L191.786 357.089C194.436 358.819 197.464 359.887 200.613 360.202L202.292 360.37C205.346 360.675 208.431 360.451 211.409 359.706L212.964 359.317C215.718 358.629 218.38 357.616 220.896 356.299L223.792 354.783C227.239 352.979 230.513 350.861 233.571 348.455L238.843 344.309L243.611 339.492M184.51 271.015L193.342 264.942C196.908 262.491 200.236 259.709 203.281 256.635L204.627 255.277C208.492 251.375 211.764 246.926 214.337 242.074V242.074M184.51 271.015L179.779 272.404C173.987 274.105 168.068 270.143 167.433 264.14V264.14L164.107 242.074L162.235 230.747C162.079 229.799 162 228.839 162 227.878V223.211C162 219.289 164.252 215.714 167.79 214.02V214.02C169.161 213.363 170.662 213.021 172.182 213.02L195.392 213L215.804 215.849C219.848 216.414 223.093 219.476 223.89 223.482V223.482C224.783 227.973 228.724 231.207 233.302 231.207H238.987C241.089 231.207 243.172 231.608 245.124 232.389L252.294 235.257C257.345 237.278 262.08 240.016 266.35 243.387L276.765 251.61M276.765 251.61L274.215 252.46C269.933 253.887 265.764 255.631 261.741 257.676L258.716 259.214C256.043 260.573 253.493 262.161 251.094 263.96L250.735 264.23C246.023 267.764 241.981 272.111 238.799 277.066L238.592 277.388C236.769 280.227 235.264 283.258 234.104 286.426L234.038 286.607C232.229 291.549 231.303 296.772 231.303 302.035V302.035C231.303 306.682 232.024 311.301 233.442 315.726L234.268 318.306C235.318 321.584 236.766 324.721 238.578 327.647L238.894 328.156C241.064 331.658 242.656 335.485 243.611 339.492V339.492M206.021 329.672L213.45 332.911C214.25 333.26 214.95 333.805 215.483 334.496V334.496C217.278 336.826 216.776 340.181 214.377 341.883L209.864 345.084C209.446 345.38 209.008 345.645 208.551 345.878L204.063 348.161C203.306 348.546 202.481 348.782 201.635 348.854V348.854C199.215 349.059 196.879 347.917 195.555 345.881L195.4 345.642C195.017 345.052 194.724 344.409 194.53 343.733L193.728 340.926C193.571 340.373 193.457 339.809 193.389 339.238L192.543 332.175C192.222 329.487 194.321 327.122 197.028 327.122V327.122C197.477 327.122 197.923 327.189 198.352 327.32L206.021 329.672ZM207.751 271.35L207.094 271.751C206.096 272.361 205.244 273.185 204.6 274.162L203.345 276.068C202.841 276.834 202.46 277.674 202.217 278.558L202.003 279.336C201.59 280.836 201.725 282.434 202.383 283.843L202.65 284.416C203.31 285.83 204.568 286.874 206.08 287.261V287.261C207.327 287.581 208.648 287.428 209.789 286.832L210.818 286.294C212.176 285.584 213.31 284.509 214.09 283.19L214.535 282.438C215.567 280.694 216.112 278.706 216.112 276.68V274.906C216.112 274.243 215.957 273.589 215.66 272.995V272.995C215.039 271.753 213.854 270.89 212.481 270.681L211.677 270.559C210.316 270.352 208.925 270.632 207.751 271.35ZM245.975 292.477L245.271 293.716C244.759 294.616 244.407 295.598 244.23 296.618L243.886 298.597C243.704 299.642 243.708 300.711 243.898 301.755L244.172 303.263C244.382 304.42 245.001 305.462 245.916 306.2V306.2C247.179 307.218 248.865 307.545 250.417 307.073L250.821 306.95C252.241 306.518 253.437 305.548 254.152 304.247L255.415 301.951C256.255 300.423 256.695 298.709 256.695 296.966V295.068C256.695 293.649 256.153 292.284 255.179 291.251V291.251C253.848 289.839 251.878 289.223 249.979 289.624L249.835 289.655C248.204 290 246.799 291.027 245.975 292.477Z" stroke="#B2B2B2" stroke-width="0.443537"/>
</svg>
