<svg width="131" height="98" viewBox="0 0 131 98" fill="none" xmlns="http://www.w3.org/2000/svg">
<path d="M91.7625 71.1591C91.8584 71.1401 91.9526 71.1988 91.978 71.2933L92.1407 71.9007L92.6012 73.2316L93.1681 74.3782L93.806 75.4018L94.1504 75.8205C94.4332 76.1642 94.7576 76.4715 95.1161 76.7352L95.1907 76.7901C95.4702 76.9957 95.7721 77.1687 96.0907 77.3059C96.5123 77.4874 96.9652 77.6049 97.4216 77.6532L97.8723 77.6683C98.3734 77.6852 98.8746 77.6379 99.3637 77.5276C99.6883 77.4544 100.006 77.3538 100.314 77.2268L100.927 76.9736L101.915 76.3972L102.429 75.9927C102.886 75.6335 103.299 75.2226 103.661 74.7681C103.893 74.4762 104.104 74.1674 104.29 73.8442L104.619 73.275C104.922 72.7502 105.18 72.2004 105.389 71.6317L105.796 70.5271L105.963 69.8596C106.102 69.3034 106.196 68.7369 106.244 68.1655L106.284 67.6956L106.35 66.5871L106.251 65.0554L105.942 63.3204L105.553 61.8667L105.083 60.6941L104.86 60.1971C104.579 59.5717 104.239 58.9749 103.844 58.415L103.371 57.7455C103.307 57.6551 103.302 57.5358 103.357 57.4399L112.012 42.4494C112.043 42.3962 112.105 42.3701 112.165 42.3857C112.617 42.5048 113.083 42.5612 113.551 42.5533L114.087 42.5443L114.6 42.5315C115.254 42.5151 115.905 42.4386 116.545 42.3027L117.451 42.1104L119.46 41.4682L120.737 40.8642C121.237 40.6279 121.718 40.353 122.175 40.0419L122.697 39.6868C123.15 39.3787 123.578 39.0361 123.978 38.6621L124.046 38.5992C124.43 38.2396 124.788 37.852 125.115 37.4395L125.34 37.1562C125.664 36.7473 125.958 36.3151 126.219 35.863L126.465 35.436L127.017 34.1977L127.44 32.8005C127.58 32.3395 127.66 31.8623 127.677 31.3809C127.693 30.9565 127.66 30.5317 127.58 30.1147L127.553 29.9739C127.474 29.5651 127.358 29.1643 127.206 28.7766L126.938 28.09L126.786 27.7978C126.603 27.4478 126.368 27.1278 126.089 26.8491C125.851 26.6119 125.584 26.4068 125.293 26.2389L124.932 26.0306C124.192 25.7122 123.41 25.502 122.611 25.4066L122.207 25.3585L120.905 25.3439L119.848 25.4712L118.72 25.7214L118.363 25.8172C118.194 25.8623 118.025 25.7463 118.007 25.5729L117.941 24.9435L117.852 24.3628C117.729 23.555 117.514 22.764 117.21 22.0055L117.197 21.9745L116.873 21.2896C116.77 21.0705 116.647 20.8608 116.508 20.6628C116.258 20.3101 115.956 19.9979 115.612 19.7372L115.22 19.44C114.57 19.0653 113.854 18.8213 113.111 18.7219L112.944 18.6995L112.243 18.7003C111.674 18.701 111.108 18.7759 110.558 18.9232C110.142 19.0347 109.738 19.1871 109.352 19.378L109.126 19.4895C108.443 19.8271 107.806 20.2493 107.228 20.7462L106.958 20.9785L106.402 21.6007C106.001 22.0499 105.639 22.5324 105.319 23.043L104.745 23.9607L104.123 25.322L103.624 26.7542L103.354 28.073L103.327 28.2219C103.219 28.8133 103.161 29.4128 103.154 30.0139L103.15 30.4129L103.145 31.5569L103.227 32.8333L103.442 34.0223L103.701 34.9915L103.97 35.8023L104.327 36.7455L104.755 37.5658L104.96 37.9176C105.011 38.0056 105.011 38.1143 104.961 38.2025L96.0784 53.5868C96.028 53.6742 95.9349 53.7282 95.8339 53.7287L95.0113 53.7324L93.6994 53.8761L92.8626 54.0484L91.7965 54.3341L90.3333 54.8819L89.7238 55.1633C89.2372 55.388 88.7683 55.6491 88.321 55.9444L87.5366 56.4623L86.8493 56.9709C86.3548 57.3368 85.8931 57.7449 85.4691 58.1905L84.6474 59.0543L84.0502 59.859C83.7111 60.3159 83.4092 60.7992 83.1474 61.3043L82.8217 61.9326L82.2871 63.4263L82.2482 63.5767C82.0538 64.3297 81.9425 65.1018 81.9164 65.879L81.9152 65.9151L81.9352 66.3352C81.9594 66.8404 82.0303 67.3422 82.1472 67.8342C82.3002 68.4781 82.5308 69.101 82.834 69.6893L82.9185 69.8532L83.1005 70.1289C83.328 70.4735 83.5949 70.7905 83.8957 71.0734L84.0109 71.1817C84.2333 71.3908 84.4791 71.5735 84.7434 71.7261C84.9692 71.8565 85.2105 71.9653 85.4575 72.0488C85.6625 72.1182 85.8756 72.1718 86.0891 72.2073L86.1996 72.2257C86.7068 72.3101 87.2233 72.3217 87.7337 72.2602L88.0208 72.2256L89.0514 72.0014L90.2499 71.6283L90.6502 71.477C91.0115 71.3404 91.3836 71.234 91.7625 71.1591Z" fill="#FFC9E4"/>
<path d="M93.3754 69.0566L93.2694 68.6613C93.253 68.5998 93.1916 68.5617 93.1292 68.574C92.8826 68.6228 92.6405 68.6919 92.4054 68.7808L92.1449 68.8793L91.365 69.1221L90.6944 69.268L90.5076 69.2905C90.1754 69.3305 89.8393 69.323 89.5093 69.2681L89.4374 69.2561C89.2984 69.233 89.1598 69.1981 89.0263 69.153C88.8656 69.0986 88.7086 69.0278 88.5617 68.943C88.3896 68.8437 88.2297 68.7248 88.085 68.5887L88.01 68.5182C87.8143 68.3341 87.6406 68.1279 87.4925 67.9036L87.3741 67.7242L87.3191 67.6175C87.1218 67.2347 86.9718 66.8294 86.8722 66.4104C86.7962 66.0902 86.75 65.7636 86.7343 65.4349L86.7212 65.1615L86.722 65.1381C86.739 64.6323 86.8114 64.1299 86.938 63.6399L86.9632 63.542L87.3111 62.57L87.5231 62.1612C87.6934 61.8324 87.8899 61.5179 88.1105 61.2206L88.4992 60.697L89.0339 60.1349C89.3098 59.8449 89.6103 59.5793 89.932 59.3412L90.3793 59.0103L90.8897 58.6732C91.1808 58.4811 91.4859 58.3112 91.8026 58.165L92.1992 57.9819L93.1514 57.6253L94.7755 57.2L96.7308 56.8738L97.7716 56.7922C98.631 56.7248 99.4482 57.1748 99.8507 57.9371L101.378 60.8288L101.797 61.7641L102.103 62.5271L102.357 63.4731L102.558 64.6021L102.622 65.5988L102.579 66.3202L102.553 66.626C102.522 66.9978 102.461 67.3664 102.37 67.7284L102.261 68.1627L101.997 68.8816C101.86 69.2516 101.693 69.6094 101.495 69.9509L101.282 70.3213C101.16 70.5316 101.023 70.7326 100.872 70.9225C100.637 71.2182 100.368 71.4857 100.07 71.7194L99.736 71.9826L99.093 72.3577L98.6938 72.5224C98.4937 72.6051 98.2868 72.6706 98.0756 72.7182C97.7573 72.79 97.4312 72.8208 97.1051 72.8098L96.8118 72.7999C96.5148 72.7685 96.2201 72.692 95.9458 72.5739C95.7384 72.4847 95.5419 72.3721 95.3601 72.2383L95.3115 72.2026C95.0782 72.0309 94.8671 71.831 94.6831 71.6073L94.459 71.3349L94.0439 70.6687L93.675 69.9227L93.3754 69.0566Z" fill="#001AFF"/>
<path d="M117.395 27.4534L117 27.5593C116.938 27.5758 116.875 27.5417 116.854 27.4815C116.773 27.2436 116.712 26.9993 116.671 26.7513L116.626 26.4764L116.447 25.6796L116.238 25.0259L116.164 24.8528C116.032 24.5452 115.858 24.2579 115.645 23.9995L115.599 23.9432C115.509 23.8344 115.41 23.7318 115.304 23.6388C115.177 23.5268 115.037 23.4262 114.89 23.3414C114.718 23.2421 114.535 23.163 114.345 23.1057L114.246 23.0761C113.989 22.9986 113.723 22.9513 113.455 22.9352L113.241 22.9223L113.121 22.928C112.69 22.9486 112.264 23.0213 111.852 23.1446C111.536 23.2388 111.231 23.3621 110.938 23.5129L110.695 23.6383L110.675 23.6507C110.245 23.9183 109.846 24.2322 109.485 24.5868L109.413 24.6576L108.745 25.4449L108.497 25.8329C108.298 26.1448 108.124 26.4722 107.976 26.8119L107.717 27.4103L107.498 28.1544C107.385 28.5383 107.305 28.9313 107.26 29.329L107.197 29.8818L107.16 30.4924C107.139 30.8406 107.145 31.1898 107.176 31.5371L107.216 31.9721L107.383 32.975L107.827 34.5942L108.522 36.4507L108.972 37.3929C109.343 38.1708 110.142 38.6535 111.003 38.621L114.271 38.4975L115.29 38.3932L116.104 38.2766L117.05 38.0231L118.129 37.6328L119.024 37.1901L119.627 36.7919L119.879 36.6168C120.185 36.4039 120.474 36.1665 120.742 35.9071L121.064 35.5957L121.554 35.0071C121.806 34.704 122.032 34.3799 122.23 34.0384L122.443 33.668C122.565 33.4577 122.67 33.2387 122.759 33.0127C122.898 32.6609 122.995 32.2943 123.049 31.9201L123.109 31.4989L123.113 30.7544L123.056 30.3264C123.027 30.1117 122.981 29.8999 122.916 29.6931C122.819 29.3816 122.683 29.0838 122.51 28.8068L122.355 28.5578C122.179 28.3163 121.966 28.0993 121.726 27.9208C121.545 27.7858 121.35 27.672 121.143 27.5814L121.088 27.5572C120.822 27.4409 120.544 27.3581 120.258 27.3106L119.91 27.2527L119.125 27.2263L118.295 27.2799L117.395 27.4534Z" fill="#001AFF"/>
<path d="M40.9258 40.0956C40.9821 40.1755 40.9668 40.2854 40.8908 40.347L40.4021 40.7428L39.3736 41.7047L38.5567 42.689L37.881 43.6881L37.6386 44.173C37.4396 44.5711 37.2909 44.9924 37.1958 45.4272L37.176 45.5178C37.1018 45.8567 37.0666 46.2029 37.0709 46.5498C37.0765 47.0087 37.1534 47.4702 37.2949 47.9068L37.4644 48.3247C37.6528 48.7894 37.8999 49.228 38.1996 49.6299C38.3985 49.8967 38.6197 50.1461 38.8608 50.3755L39.3416 50.8328L40.2701 51.5011L40.8486 51.8062C41.3624 52.0771 41.906 52.2875 42.4683 52.4333C42.8295 52.5269 43.1973 52.5935 43.5684 52.6325L44.222 52.7012C44.8247 52.7646 45.4317 52.7763 46.0365 52.7363L47.211 52.6587L47.8888 52.5399C48.4535 52.4408 49.0094 52.2963 49.5508 52.1077L49.9961 51.9527L51.0359 51.5626L52.395 50.8493L53.8543 49.8613L55.0239 48.9141L55.9039 48.0079L56.2672 47.602C56.7244 47.0913 57.1313 46.5377 57.482 45.9487L57.9013 45.2446C57.9579 45.1495 58.0647 45.096 58.1748 45.1076L75.3896 46.917C75.4507 46.9234 75.4999 46.9699 75.5098 47.0306C75.585 47.4922 75.7233 47.9413 75.9206 48.3653L76.147 48.8514L76.3674 49.315C76.6483 49.9058 76.983 50.4694 77.3674 50.9987L77.9114 51.7477L79.3154 53.3221L80.3867 54.2434C80.8059 54.6039 81.2526 54.9312 81.7226 55.2223L82.2593 55.5547C82.725 55.8431 83.2122 56.0951 83.7166 56.3084L83.8014 56.3443C84.2863 56.5494 84.7858 56.7183 85.2958 56.8494L85.646 56.9395C86.1515 57.0696 86.6659 57.1623 87.185 57.2168L87.6753 57.2684L89.0308 57.2681L90.4795 57.0868C90.9575 57.027 91.4258 56.9057 91.8728 56.7261C92.2669 56.5677 92.6416 56.365 92.9898 56.122L93.1075 56.0399C93.4489 55.8016 93.7678 55.5327 94.0605 55.2366L94.5786 54.7123L94.7836 54.4543C95.0291 54.1453 95.2258 53.8005 95.3668 53.4318C95.4868 53.1182 95.5653 52.7902 95.6004 52.4562L95.644 52.042C95.634 51.2367 95.508 50.437 95.2698 49.6676L95.1496 49.2792L94.6332 48.0835L94.0872 47.17L93.4 46.2417L93.167 45.954C93.0573 45.8185 93.0946 45.617 93.2456 45.5297L93.7935 45.213L94.288 44.896C94.976 44.455 95.6108 43.9363 96.18 43.3501L96.2033 43.3261L96.6973 42.7517C96.8553 42.568 96.9971 42.3709 97.1212 42.1626C97.3421 41.7916 97.5045 41.3887 97.6025 40.9682L97.7143 40.4886C97.7927 39.7432 97.7242 38.9897 97.5129 38.2706L97.4651 38.1083L97.1795 37.4688C96.9474 36.9492 96.6485 36.4621 96.2904 36.0198C96.0193 35.685 95.7158 35.3778 95.3843 35.1027L95.1908 34.9421C94.6046 34.4556 93.9595 34.0448 93.2707 33.7193L92.9487 33.5672L92.1543 33.3126C91.5807 33.1288 90.9925 32.994 90.3961 32.9097L89.3241 32.7582L87.8275 32.7436L86.316 32.8701L85.0015 33.16L84.8544 33.1957C84.2702 33.3376 83.6991 33.5288 83.1472 33.7671L82.7808 33.9253L81.7337 34.386L80.6011 34.9803L79.6023 35.6601L78.8225 36.2915L78.1913 36.8672L77.4747 37.5766L76.8992 38.3009L76.6612 38.6315C76.6017 38.7141 76.5025 38.7586 76.4012 38.7479L58.7343 36.8911C58.634 36.8805 58.5467 36.8174 58.5053 36.7254L58.1673 35.9754L57.5024 34.8354L57.0047 34.141L56.3101 33.2833L55.2144 32.1694L54.7095 31.7271C54.3063 31.3739 53.877 31.0517 53.4253 30.7632L52.6331 30.2573L51.8889 29.8363C51.3536 29.5334 50.793 29.2775 50.2134 29.0715L49.0901 28.6721L48.112 28.4538C47.5568 28.3299 46.9924 28.2507 46.4245 28.217L45.718 28.175L44.136 28.2941L43.9828 28.3198C43.2158 28.4485 42.4653 28.6609 41.7446 28.9531L41.7112 28.9667L41.3355 29.1559C40.8839 29.3834 40.4543 29.6523 40.0524 29.9592C39.5263 30.3609 39.0511 30.8249 38.637 31.3411L38.5216 31.485L38.3437 31.7634C38.1215 32.1114 37.9405 32.4841 37.8044 32.874L37.7523 33.0233C37.6517 33.3115 37.5848 33.6104 37.5529 33.914C37.5256 34.1732 37.5244 34.438 37.5485 34.6975C37.5685 34.9131 37.6062 35.1295 37.6606 35.339L37.6888 35.4475C37.818 35.9451 38.0175 36.4217 38.2812 36.863L38.4296 37.1111L39.0536 37.9615L39.8819 38.9046L40.183 39.2087C40.4547 39.4832 40.7032 39.7799 40.9258 40.0956Z" fill="#FFC9E4"/>
<path d="M43.5006 40.7123L43.8187 40.4547C43.8681 40.4147 43.8781 40.3432 43.8414 40.2911C43.6966 40.0857 43.5349 39.8927 43.3581 39.7141L43.1621 39.5161L42.6231 38.9024L42.2171 38.3491L42.1205 38.1876C41.9489 37.9004 41.8191 37.5903 41.735 37.2665L41.7167 37.1959C41.6812 37.0596 41.6567 36.9187 41.6437 36.7784C41.628 36.6095 41.6288 36.4373 41.6465 36.2686C41.6673 36.071 41.7109 35.8765 41.7763 35.689L41.8102 35.5918C41.8988 35.3381 42.0166 35.0956 42.1612 34.8691L42.2769 34.6879L42.352 34.5943C42.6215 34.2584 42.9308 33.9564 43.2731 33.6951C43.5346 33.4954 43.8141 33.3203 44.1081 33.1723L44.3525 33.0492L44.3742 33.0404C44.8432 32.8502 45.3316 32.712 45.8308 32.6282L45.9305 32.6115L46.9599 32.534L47.4196 32.5613C47.7892 32.5833 48.1564 32.6348 48.5178 32.7155L49.1542 32.8575L49.8852 33.1174C50.2624 33.2515 50.6272 33.418 50.9755 33.6151L51.4598 33.889L51.9753 34.2183C52.2693 34.406 52.5486 34.6157 52.811 34.8455L53.1395 35.1333L53.8525 35.8582L54.9017 37.1689L55.995 38.8224L56.4929 39.7401C56.904 40.4978 56.8253 41.4274 56.2926 42.1051L54.272 44.6762L53.5882 45.44L53.0156 46.0297L52.2544 46.646L51.3048 47.289L50.4204 47.7531L49.7438 48.007L49.454 48.1079C49.1017 48.2306 48.74 48.3246 48.3725 48.3891L47.9315 48.4664L47.1671 48.5169C46.7736 48.543 46.3786 48.5353 45.9864 48.4941L45.5611 48.4494C45.3196 48.424 45.0803 48.3807 44.8452 48.3197C44.4793 48.2249 44.1256 48.0879 43.7912 47.9116L43.4148 47.7131L42.8105 47.2783L42.4977 46.9806C42.3408 46.8314 42.1968 46.6691 42.0674 46.4955C41.8724 46.2339 41.7116 45.9485 41.589 45.6462L41.4787 45.3742C41.3866 45.0901 41.3366 44.7898 41.3329 44.4911C41.3301 44.2654 41.353 44.0401 41.4013 43.8196L41.4142 43.7606C41.4761 43.4777 41.5729 43.2036 41.7024 42.9445L41.8601 42.6289L42.2998 41.9788L42.8314 41.3383L43.5006 40.7123Z" fill="#001AFF"/>
<path d="M91.2802 45.7336L91.0226 45.4156C90.9826 45.3661 90.9877 45.2941 91.0344 45.2508C91.2188 45.08 91.4171 44.9248 91.6272 44.7868L91.86 44.634L92.5148 44.1457L93.027 43.6889L93.155 43.551C93.3826 43.3058 93.5741 43.0294 93.7237 42.7302L93.7563 42.665C93.8192 42.539 93.8725 42.4063 93.9144 42.2718C93.9649 42.1099 93.9999 41.9412 94.0176 41.7725C94.0384 41.5749 94.0362 41.3756 94.0112 41.1786L93.9982 41.0765C93.9644 40.8099 93.8996 40.5482 93.8052 40.2966L93.7297 40.0953L93.6757 39.9881C93.482 39.6035 93.2422 39.2439 92.9617 38.917C92.7474 38.6673 92.5104 38.438 92.2537 38.2321L92.0402 38.0608L92.0207 38.0477C91.6015 37.7642 91.1525 37.5274 90.6817 37.3418L90.5877 37.3047L89.5968 37.0148L89.1415 36.946C88.7754 36.8906 88.4055 36.8646 88.0353 36.8684L87.3832 36.875L86.6142 36.9772C86.2174 37.03 85.8259 37.117 85.4442 37.2373L84.9136 37.4046L84.3409 37.6195C84.0143 37.742 83.6975 37.889 83.3931 38.0593L83.0119 38.2725L82.1637 38.8333L80.865 39.8972L79.4518 41.2873L78.774 42.0814C78.2143 42.7371 78.0981 43.6627 78.4782 44.4364L79.9201 47.3714L80.4301 48.2606L80.8676 48.9565L81.484 49.7177L82.2791 50.544L83.0477 51.1819L83.6568 51.5709L83.9192 51.7298C84.2384 51.9231 84.5726 52.0903 84.9187 52.2297L85.334 52.3971L86.0711 52.6054C86.4506 52.7127 86.8386 52.7873 87.2308 52.8285L87.6561 52.8732C87.8976 52.8986 88.1407 52.906 88.3833 52.8953C88.761 52.8786 89.1354 52.8182 89.4991 52.7152L89.9086 52.5993L90.59 52.2996L90.958 52.0735C91.1425 51.9601 91.317 51.8313 91.4797 51.6884C91.7249 51.4731 91.9415 51.2274 92.1242 50.9571L92.2887 50.714C92.4378 50.4553 92.5492 50.1719 92.6149 49.8806C92.6645 49.6603 92.6889 49.4352 92.6876 49.2095L92.6872 49.1491C92.6855 48.8595 92.6478 48.5712 92.5751 48.2909L92.4864 47.9494L92.1914 47.2221L91.8047 46.4851L91.2802 45.7336Z" fill="#001AFF"/>
<path d="M70.5518 15.9436C70.5108 16.0324 70.4079 16.0742 70.3166 16.0391L69.7295 15.8137L68.3821 15.404L67.1213 15.1887L65.9182 15.1031L65.377 15.1356C64.9328 15.1624 64.4935 15.2442 64.0694 15.3792L63.9811 15.4073C63.6506 15.5126 63.3331 15.6551 63.0348 15.8323C62.6402 16.0667 62.279 16.364 61.9716 16.7049L61.6944 17.0606C61.3863 17.4561 61.1299 17.8893 60.9317 18.3499C60.8001 18.6555 60.6947 18.9718 60.6167 19.2953L60.461 19.9403L60.3465 21.0786L60.3715 21.7321C60.3938 22.3126 60.4833 22.8885 60.6383 23.4484C60.7378 23.808 60.864 24.1598 61.0158 24.5007L61.2831 25.1011C61.5296 25.6547 61.8229 26.1863 62.1599 26.69L62.8144 27.6684L63.2562 28.1959C63.6244 28.6355 64.0274 29.0446 64.4615 29.4193L64.8184 29.7274L65.6761 30.4328L66.9733 31.2531L68.5587 32.0229L69.9638 32.5623L71.1886 32.8712L71.7217 32.983C72.3926 33.1236 73.0755 33.1991 73.7609 33.2083L74.5803 33.2194C74.691 33.2209 74.7907 33.2866 74.8357 33.3878L81.8762 49.2009C81.9012 49.257 81.8855 49.3229 81.8379 49.3618C81.4758 49.6577 81.156 50.002 80.8875 50.3849L80.5796 50.824L80.2883 51.2467C79.9172 51.7854 79.5964 52.3571 79.3302 52.9546L78.9535 53.8002L78.2921 55.8033L78.0299 57.1917C77.9273 57.735 77.8671 58.2855 77.8501 58.8381L77.8306 59.4691C77.8137 60.0166 77.839 60.5645 77.9065 61.1081L77.9178 61.1994C77.9826 61.7219 78.0862 62.2389 78.2275 62.7461L78.3246 63.0944C78.4647 63.5973 78.6417 64.0891 78.854 64.566L79.0545 65.0164L79.7324 66.1901L80.6138 67.3541C80.9046 67.7381 81.2438 68.0831 81.6229 68.3804C81.9571 68.6424 82.3199 68.8656 82.7045 69.0457L82.8345 69.1065C83.2115 69.283 83.6039 69.4248 84.0066 69.5302L84.7197 69.7167L85.0456 69.7652C85.436 69.8234 85.833 69.8213 86.2228 69.7591C86.5544 69.7062 86.8777 69.6102 87.1845 69.4736L87.5649 69.3042C88.2574 68.8929 88.887 68.3839 89.4342 67.793L89.7105 67.4947L90.4878 66.4496L91.0058 65.52L91.4662 64.4608L91.5989 64.1151C91.6614 63.9523 91.8545 63.8839 92.0056 63.971L92.5538 64.2872L93.0756 64.5569C93.8015 64.9322 94.5681 65.2227 95.3604 65.4225L95.3929 65.4307L96.1373 65.5713C96.3754 65.6163 96.617 65.6405 96.8594 65.6438C97.2911 65.6496 97.7212 65.5888 98.1345 65.4635L98.6057 65.3205C99.2904 65.0157 99.9088 64.5796 100.426 64.037L100.543 63.9145L100.954 63.3474C101.287 62.8866 101.56 62.3842 101.764 61.8529C101.918 61.4508 102.032 61.0343 102.105 60.6097L102.147 60.3618C102.276 59.6109 102.309 58.8468 102.246 58.0876L102.217 57.7326L102.04 56.9174C101.913 56.3287 101.735 55.7519 101.51 55.1933L101.105 54.1891L100.37 52.8857L99.5044 51.64L98.5961 50.6465L98.4916 50.537C98.0766 50.1021 97.6255 49.703 97.1431 49.3442L96.8229 49.1061L95.9004 48.4295L94.8194 47.7459L93.7313 47.2207L92.7946 46.8612L91.9804 46.6024L91.0077 46.3364L90.0927 46.2002L89.6875 46.1594C89.5861 46.1492 89.498 46.0855 89.4566 45.9925L82.2313 29.7641C82.1902 29.6719 82.2012 29.5648 82.2602 29.4829L82.7407 28.8152L83.3955 27.6693L83.748 26.8911L84.1435 25.8607L84.5604 24.3549L84.6909 23.6964C84.7952 23.1707 84.8596 22.6379 84.8836 22.1024L84.9257 21.1634L84.9182 20.3084C84.9128 19.6933 84.8541 19.0799 84.7428 18.475L84.5269 17.3024L84.227 16.3463C84.0567 15.8034 83.8431 15.2751 83.5883 14.7663L83.2714 14.1336L82.3773 12.8231L82.2784 12.7033C81.7835 12.1034 81.2243 11.5595 80.6108 11.0815L80.5824 11.0594L80.2307 10.8287C79.8079 10.5513 79.3602 10.3137 78.8934 10.1191C78.2826 9.86435 77.6431 9.68477 76.989 9.58426L76.8067 9.55625L76.4766 9.54147C76.0641 9.52299 75.6508 9.55259 75.2452 9.62968L75.0898 9.6592C74.7899 9.71619 74.4976 9.80767 74.2188 9.93183C73.9806 10.0379 73.7507 10.1691 73.538 10.3198C73.3613 10.4449 73.1927 10.5858 73.0385 10.7377L72.9587 10.8163C72.5923 11.177 72.2793 11.588 72.029 12.0371L71.8883 12.2897L71.4639 13.2553L71.0613 14.4441L70.9484 14.857C70.8466 15.2296 70.7139 15.593 70.5518 15.9436Z" fill="#FFC9E4"/>
<path d="M71.308 18.4852L71.6901 18.6319C71.7495 18.6547 71.8164 18.6275 71.8431 18.5698C71.9486 18.3416 72.0349 18.1051 72.1012 17.8626L72.1747 17.594L72.4367 16.8204L72.7128 16.192L72.8044 16.0277C72.9673 15.7354 73.171 15.4679 73.4093 15.2332L73.4613 15.1821C73.5617 15.0832 73.6714 14.9916 73.7864 14.9101C73.9248 14.8121 74.0744 14.7267 74.2293 14.6577C74.4108 14.5769 74.601 14.5173 74.7962 14.4803L74.8973 14.4611C75.1612 14.4109 75.4302 14.3916 75.6986 14.4036L75.9134 14.4133L76.032 14.4315C76.4577 14.4969 76.8738 14.6138 77.2713 14.7795C77.575 14.9062 77.8664 15.0608 78.1415 15.2413L78.3704 15.3914L78.3889 15.4058C78.7881 15.7169 79.152 16.0708 79.474 16.4611L79.5384 16.5391L80.1202 17.3919L80.3264 17.8037C80.4922 18.1347 80.6312 18.4785 80.742 18.8318L80.9372 19.454L81.0777 20.217C81.1501 20.6106 81.1883 21.0098 81.1918 21.4101L81.1967 21.9664L81.1693 22.5775C81.1537 22.9259 81.1118 23.2727 81.044 23.6148L80.959 24.0432L80.6877 25.0232L80.0772 26.5871L79.1919 28.3607L78.6461 29.2507C78.1954 29.9856 77.3511 30.3822 76.4977 30.2598L73.2608 29.7954L72.2575 29.5852L71.4605 29.3841L70.5461 29.0331L69.5145 28.5322L68.6704 27.9984L68.1122 27.5393L67.8799 27.3388C67.5975 27.095 67.3352 26.8288 67.0956 26.5428L66.8081 26.1995L66.3822 25.5628C66.1629 25.235 65.972 24.8891 65.8116 24.5288L65.6377 24.1382C65.5389 23.9163 65.4568 23.6874 65.392 23.4534C65.2912 23.0891 65.233 22.7143 65.2185 22.3365L65.2021 21.9113L65.2767 21.1706L65.378 20.7508C65.4288 20.5403 65.4974 20.3345 65.583 20.1356C65.712 19.8359 65.8788 19.554 66.0793 19.2966L66.2597 19.0651C66.4597 18.8433 66.6948 18.6498 66.9516 18.4973C67.1457 18.382 67.3522 18.2892 67.5673 18.2208L67.6248 18.2025C67.9008 18.1146 68.1866 18.0614 68.4757 18.044L68.8279 18.0228L69.6108 18.0785L70.4312 18.2186L71.308 18.4852Z" fill="#001AFF"/>
<path d="M90.8442 62.371L90.9909 61.989C91.0137 61.9295 91.0787 61.898 91.1395 61.9168C91.3796 61.9911 91.6131 62.0852 91.8377 62.1982L92.0864 62.3233L92.8367 62.6463L93.4884 62.8615L93.6718 62.9034C93.998 62.9779 94.3331 63.0056 94.667 62.9855L94.7398 62.9811C94.8804 62.9726 95.0219 62.9524 95.1594 62.9215C95.3248 62.8842 95.4884 62.8302 95.6434 62.7612C95.8249 62.6804 95.9964 62.5789 96.1545 62.4587L96.2364 62.3964C96.4504 62.2338 96.6446 62.0468 96.8153 61.8393L96.9519 61.6732L97.0177 61.5729C97.2539 61.2128 97.4455 60.8253 97.5883 60.419C97.6974 60.1086 97.7775 59.7886 97.8275 59.4634L97.869 59.1928L97.8707 59.1694C97.9066 58.6646 97.8871 58.1574 97.8126 57.6569L97.7977 57.5569L97.5532 56.5538L97.3852 56.1251C97.2502 55.7804 97.0876 55.447 96.8993 55.1283L96.5675 54.5669L96.0945 53.952C95.8504 53.6347 95.5793 53.3392 95.2842 53.0688L94.874 52.6929L94.4016 52.3044C94.1322 52.0828 93.8465 51.882 93.5468 51.7035L93.1716 51.4799L92.2619 51.0258L90.6911 50.433L88.7807 49.9042L87.754 49.7142C86.9064 49.5574 86.0466 49.9195 85.5666 50.6356L83.7458 53.3518L83.2307 54.2381L82.8468 54.965L82.4958 55.8793L82.1778 56.9811L82.0097 57.9657L81.9773 58.6876L81.9709 58.9944C81.9631 59.3674 81.9854 59.7404 82.0377 60.1099L82.1004 60.5532L82.2886 61.2958C82.3854 61.6781 82.5147 62.0514 82.6752 62.4117L82.8491 62.8023C82.9479 63.0242 83.063 63.2384 83.1936 63.4431C83.3969 63.7618 83.6364 64.0559 83.9075 64.3194L84.2126 64.6161L84.8129 65.0564L85.1926 65.2619C85.383 65.365 85.5819 65.4518 85.787 65.5213C86.096 65.6259 86.4171 65.6906 86.7426 65.7138L87.0353 65.7346C87.334 65.7344 87.635 65.6892 87.9202 65.6004C88.1358 65.5333 88.3429 65.4419 88.5378 65.3278L88.5898 65.2974C88.8398 65.1511 89.0706 64.9743 89.277 64.7711L89.5284 64.5236L90.0108 63.9045L90.4557 63.201L90.8442 62.371Z" fill="#001AFF"/>
<path d="M14.8688 35.9686C14.8742 36.0662 14.803 36.1514 14.7059 36.1633L14.0817 36.2399L12.6997 36.5107L11.4854 36.9125L10.383 37.4017L9.92042 37.6845C9.5407 37.9167 9.19129 38.1952 8.88022 38.5135L8.81543 38.5798C8.57298 38.8279 8.35961 39.1028 8.17944 39.3993C7.94106 39.7915 7.76166 40.2236 7.65034 40.6689L7.57259 41.1131C7.48615 41.6069 7.46323 42.1098 7.5044 42.6095C7.53172 42.9412 7.58714 43.2699 7.67008 43.5922L7.83546 44.2348L8.26873 45.2936L8.59768 45.8588C8.88987 46.3609 9.23929 46.8274 9.63894 47.249C9.89567 47.5198 10.1722 47.7712 10.4663 48.0009L10.9842 48.4055C11.4617 48.7786 11.9703 49.1103 12.5043 49.3968L13.5416 49.9534L14.1793 50.2118C14.7107 50.4271 15.2587 50.5991 15.8178 50.7261L16.2776 50.8305L17.3661 51.0507L18.8966 51.1661L20.6577 51.1014L22.1516 50.918L23.3781 50.6158L23.9013 50.4642C24.5596 50.2734 25.198 50.0194 25.8076 49.7058L26.5363 49.3309C26.6347 49.2803 26.7536 49.2915 26.8408 49.3596L40.481 60.0165C40.5294 60.0543 40.5465 60.1199 40.5227 60.1765C40.3419 60.6079 40.2211 61.062 40.1639 61.5261L40.0982 62.0583L40.0394 62.5683C39.9646 63.2182 39.9498 63.8735 39.9953 64.5261L40.0597 65.4496L40.416 67.5287L40.8363 68.8777C41.0008 69.4056 41.2061 69.9199 41.4505 70.4158L41.7296 70.9821C41.9716 71.4734 42.2513 71.9453 42.566 72.3936L42.6189 72.4689C42.9214 72.8998 43.2556 73.3077 43.6185 73.6892L43.8677 73.9512C44.2275 74.3293 44.6146 74.6805 45.026 75.0019L45.4145 75.3054L46.5641 76.0236L47.8887 76.6375C48.3258 76.84 48.7872 76.9854 49.2615 77.0699C49.6796 77.1444 50.1048 77.1711 50.5289 77.1495L50.6722 77.1422C51.088 77.121 51.501 77.0621 51.906 76.966L52.6233 76.7959L52.9338 76.6858C53.3058 76.5538 53.6554 76.3656 53.9703 76.1277C54.2382 75.9253 54.4786 75.6888 54.6854 75.4242L54.9418 75.096C55.3601 74.4077 55.677 73.6627 55.8828 72.884L55.9866 72.491L56.1823 71.2033L56.2033 70.1393L56.1125 68.9879L56.0674 68.6205C56.0461 68.4474 56.1846 68.2962 56.3588 68.3022L56.9914 68.324L57.5787 68.3173C58.3958 68.3079 59.2091 68.2044 60.0024 68.0089L60.0349 68.0009L60.7582 67.7755C60.9896 67.7034 61.2143 67.6114 61.4298 67.5006C61.8138 67.303 62.165 67.0474 62.471 66.7427L62.8199 66.3953C63.2814 65.8047 63.6227 65.1293 63.8245 64.4075L63.87 64.2446L63.9667 63.5509C64.0452 62.9873 64.0498 62.4158 63.9805 61.8509C63.928 61.4233 63.8334 61.002 63.698 60.593L63.619 60.3543C63.3797 59.6311 63.0503 58.9408 62.6387 58.2998L62.4462 58.0002L61.9074 57.3633C61.5184 56.9035 61.091 56.4775 60.6299 56.0899L59.8011 55.3933L58.5396 54.5879L57.1908 53.8942L55.9224 53.4434L55.7788 53.3958C55.2081 53.2066 54.6225 53.066 54.0282 52.9757L53.6336 52.9157L52.5015 52.7515L51.2261 52.6553L50.0188 52.7025L49.0229 52.8248L48.1825 52.9785L47.1988 53.2004L46.327 53.5096L45.95 53.6639C45.8558 53.7024 45.7481 53.6875 45.6678 53.6248L31.6694 42.6881C31.5899 42.626 31.5494 42.5263 31.563 42.4262L31.6738 41.6111L31.714 40.292L31.6599 39.4394L31.5254 38.3439L31.1865 36.8186L30.9926 36.176C30.8379 35.6628 30.6446 35.1621 30.4144 34.6781L30.0107 33.8292L29.6027 33.0778C29.3092 32.5373 28.9694 32.0232 28.5871 31.5414L27.846 30.6074L27.1323 29.904C26.727 29.5046 26.2904 29.1384 25.8266 28.8088L25.2498 28.3989L23.8451 27.6616L23.7015 27.6022C22.9829 27.3049 22.2338 27.0872 21.4678 26.9532L21.4323 26.9469L21.0134 26.9083C20.5098 26.8619 20.003 26.8624 19.4995 26.9096C18.8406 26.9715 18.1917 27.1132 17.5669 27.3315L17.3928 27.3924L17.0945 27.5343C16.7216 27.7116 16.3706 27.9318 16.0486 28.1903L15.9252 28.2893C15.6872 28.4804 15.4721 28.6984 15.2842 28.9389C15.1237 29.1443 14.9823 29.3682 14.8652 29.6011C14.768 29.7945 14.6852 29.998 14.6203 30.2045L14.5868 30.3114C14.4327 30.8019 14.3493 31.3118 14.3391 31.8258L14.3334 32.1149L14.412 33.1667L14.6147 34.4054L14.7088 34.8229C14.7938 35.1997 14.8473 35.5829 14.8688 35.9686Z" fill="#FFC9E4"/>
<path d="M16.7285 37.8588L17.1347 37.8089C17.1979 37.8012 17.2442 37.7458 17.2407 37.6822C17.2267 37.4313 17.1919 37.1819 17.1366 36.9367L17.0753 36.665L16.9435 35.8589L16.8923 35.1745L16.896 34.9864C16.9026 34.6519 16.9569 34.3201 17.0572 34.0009L17.079 33.9314C17.1213 33.797 17.1751 33.6646 17.2384 33.5387C17.3146 33.3871 17.4066 33.2415 17.511 33.1078C17.6333 32.9513 17.7733 32.8094 17.9282 32.6851L18.0084 32.6206C18.218 32.4524 18.4464 32.3091 18.689 32.1937L18.8832 32.1014L18.9965 32.0618C19.403 31.9197 19.8253 31.8275 20.2541 31.7873C20.5817 31.7565 20.9115 31.7562 21.2392 31.7864L21.5118 31.8115L21.5349 31.8156C22.0334 31.9028 22.5208 32.0445 22.9885 32.2379L23.0819 32.2766L23.996 32.7564L24.3714 33.0231C24.6732 33.2376 24.9573 33.4759 25.221 33.7358L25.6854 34.1935L26.1677 34.8013C26.4164 35.1148 26.6376 35.4494 26.8286 35.8011L27.0941 36.2901L27.3568 36.8425C27.5066 37.1574 27.6324 37.4833 27.7331 37.8172L27.8592 38.2354L28.0797 39.2279L28.2749 40.8955L28.3258 42.8771L28.2618 43.9192C28.2089 44.7796 27.6495 45.5262 26.8386 45.8187L23.7626 46.9284L22.778 47.2137L21.9799 47.4104L21.0078 47.5297L19.8617 47.5718L18.8658 47.4967L18.1575 47.3534L17.8582 47.2855C17.4944 47.2028 17.1378 47.0909 16.792 46.9508L16.377 46.7827L15.702 46.4205C15.3545 46.234 15.0236 46.0182 14.7128 45.7754L14.3758 45.5121C14.1845 45.3626 14.0045 45.199 13.8375 45.0228C13.5774 44.7485 13.35 44.4449 13.1599 44.1182L12.9458 43.7504L12.6639 43.0614L12.5562 42.6432C12.5023 42.4335 12.4662 42.2196 12.4484 42.0037C12.4216 41.6786 12.4366 41.3513 12.4928 41.0299L12.5434 40.7409C12.6158 40.4511 12.7326 40.1699 12.8877 39.9147C13.0049 39.7218 13.1438 39.5429 13.3016 39.3814L13.3437 39.3383C13.5462 39.1312 13.7735 38.95 14.0206 38.7989L14.3216 38.6148L15.039 38.2965L15.8292 38.035L16.7285 37.8588Z" fill="#001AFF"/>
<path d="M54.5865 67.4363L54.5366 67.0301C54.5289 66.967 54.5714 66.9086 54.6339 66.8966C54.8808 66.8495 55.1312 66.8229 55.3825 66.8173L55.6609 66.811L56.475 66.744L57.1514 66.628L57.3331 66.5789C57.656 66.4916 57.9649 66.3586 58.2503 66.1841L58.3125 66.1461C58.4327 66.0726 58.5481 65.9883 58.6549 65.8965C58.7836 65.7859 58.9027 65.6614 59.0071 65.5277C59.1294 65.3712 59.2332 65.201 59.3164 65.0207L59.3595 64.9272C59.472 64.6832 59.5557 64.4269 59.609 64.1635L59.6516 63.9528L59.6626 63.8333C59.7022 63.4045 59.6894 62.9724 59.6248 62.5466C59.5754 62.2213 59.4959 61.9012 59.3873 61.5906L59.297 61.3322L59.2875 61.3107C59.0822 60.8481 58.8269 60.4095 58.526 60.0025L58.4659 59.9212L57.7792 59.1504L57.4296 58.8507C57.1485 58.6097 56.8485 58.3917 56.5325 58.1987L55.976 57.8588L55.2697 57.5379C54.9052 57.3724 54.5272 57.2387 54.1397 57.1385L53.601 56.9992L53.0014 56.8779C52.6596 56.8088 52.313 56.7655 51.9646 56.7486L51.5284 56.7274L50.5119 56.7535L48.8467 56.9676L46.9116 57.3975L45.916 57.7118C45.094 57.9713 44.5048 58.6946 44.4172 59.5522L44.0847 62.8053L44.046 63.8297L44.0482 64.6517L44.1676 65.6238L44.4041 66.746L44.7178 67.6942L45.0282 68.3468L45.1666 68.6207C45.3348 68.9537 45.5296 69.2726 45.7492 69.5743L46.0128 69.9363L46.5275 70.5036C46.7925 70.7956 47.0819 71.0645 47.3927 71.3073L47.7297 71.5706C47.9211 71.7201 48.1233 71.8552 48.3347 71.9746C48.6638 72.1606 49.0134 72.3078 49.3764 72.4133L49.7851 72.532L50.5218 72.6389L50.9536 72.6421C51.1702 72.6437 51.3864 72.627 51.6001 72.592C51.9221 72.5394 52.2361 72.4457 52.5343 72.3134L52.8025 72.1944C53.0661 72.054 53.3107 71.8727 53.5209 71.6604C53.6797 71.5 53.8197 71.322 53.9381 71.1298L53.9698 71.0785C54.1218 70.832 54.2426 70.5675 54.3295 70.2912L54.4352 69.9546L54.5705 69.1815L54.6331 68.3515L54.5865 67.4363Z" fill="#001AFF"/>
<path fill-rule="evenodd" clip-rule="evenodd" d="M19 48C19 75.6142 41.3858 98 69 98C96.6142 98 119 75.6142 119 48H19Z" fill="#FF88C4"/>
<rect x="40" y="88" width="58" height="10" rx="4" fill="#FF88C4"/>
</svg>
