<svg width="149" height="93" viewBox="0 0 149 93" fill="none" xmlns="http://www.w3.org/2000/svg">
<path d="M85.8899 54.5416C85.9813 54.5763 86.0301 54.676 86.0015 54.7696L85.8177 55.371L85.5029 56.7436L85.3761 58.0164L85.3746 59.2225L85.4448 59.7601C85.5025 60.2014 85.6148 60.6339 85.779 61.0475L85.8132 61.1337C85.9413 61.4561 86.1057 61.7628 86.3032 62.048C86.5645 62.4253 86.8863 62.7649 87.2478 63.0478L87.622 63.2995C88.038 63.5793 88.4881 63.8048 88.9613 63.9704C89.2754 64.0804 89.5983 64.1634 89.9264 64.2187L90.5808 64.329L91.7243 64.3639L92.3744 64.2933C92.9519 64.2305 93.5202 64.1011 94.0679 63.9075C94.4197 63.7831 94.7618 63.6327 95.0913 63.4575L95.6716 63.1489C96.2067 62.8644 96.7165 62.5347 97.1955 62.1634L98.1258 61.4422L98.6213 60.9647C99.0341 60.5668 99.4141 60.1362 99.7575 59.6771L100.04 59.2995L100.684 58.3947L101.412 57.0434L102.069 55.4082L102.509 53.9689L102.732 52.7255L102.806 52.1859C102.9 51.5068 102.927 50.8203 102.889 50.136L102.843 49.3178C102.836 49.2073 102.895 49.1032 102.993 49.0512L118.276 40.9249C118.33 40.896 118.397 40.9071 118.439 40.9518C118.76 41.2925 119.126 41.5875 119.526 41.8286L119.986 42.1051L120.428 42.3662C120.991 42.6989 121.584 42.9789 122.198 43.2028L123.068 43.5196L125.113 44.0397L126.516 44.2044C127.065 44.2689 127.618 44.2905 128.171 44.2689L128.802 44.2444C129.349 44.223 129.894 44.1595 130.431 44.0543L130.522 44.0366C131.038 43.9355 131.547 43.7962 132.043 43.6198L132.384 43.4987C132.875 43.3238 133.354 43.113 133.815 42.8679L134.25 42.6365L135.374 41.8783L136.473 40.9179C136.836 40.601 137.157 40.2386 137.427 39.8397C137.665 39.488 137.862 39.1105 138.015 38.7142L138.066 38.5804C138.216 38.1919 138.33 37.7907 138.407 37.3815L138.544 36.6572L138.569 36.3286C138.6 35.9352 138.57 35.5393 138.481 35.1548C138.405 34.8277 138.287 34.5119 138.129 34.2154L137.934 33.8477C137.475 33.1856 136.923 32.593 136.296 32.0883L135.979 31.8336L134.882 31.131L133.919 30.6791L132.83 30.2938L132.476 30.1855C132.309 30.1345 132.227 29.9466 132.304 29.7898L132.581 29.2209L132.814 28.6815C133.137 27.9313 133.374 27.1462 133.518 26.3419L133.524 26.309L133.612 25.5566C133.64 25.3159 133.648 25.0732 133.634 24.8312C133.61 24.4001 133.519 23.9753 133.365 23.5718L133.19 23.1117C132.838 22.4499 132.36 21.8635 131.782 21.3855L131.652 21.2776L131.058 20.9072C130.575 20.6062 130.054 20.3695 129.51 20.2031C129.098 20.0772 128.675 19.9922 128.246 19.9495L127.996 19.9246C127.238 19.8491 126.473 19.8692 125.72 19.9846L125.368 20.0385L124.567 20.2717C123.989 20.44 123.426 20.6572 122.884 20.9208L121.911 21.3947L120.662 22.2194L119.48 23.1695L118.552 24.1449L118.45 24.2568C118.045 24.7011 117.679 25.1789 117.354 25.6851L117.139 26.0212L116.528 26.9886L115.922 28.1147L115.474 29.2368L115.181 30.1963L114.979 31.0266L114.782 32.0154L114.71 32.9377L114.697 33.3448C114.694 33.4466 114.637 33.5389 114.547 33.5867L98.862 41.9265C98.7728 41.9739 98.6652 41.9704 98.5794 41.9173L97.8798 41.4845L96.6911 40.9112L95.8902 40.6139L94.8347 40.2912L93.3034 39.9804L92.6375 39.8961C92.1058 39.8287 91.5698 39.8017 91.034 39.8151L90.0942 39.8386L89.2419 39.9057C88.6287 39.954 88.0208 40.0553 87.4252 40.2086L86.2705 40.5057L85.3376 40.8716C84.808 41.0794 84.2958 41.3293 83.8061 41.619L83.197 41.9792L81.9521 42.9626L81.8394 43.0696C81.2755 43.6051 80.772 44.2009 80.338 44.8462L80.3178 44.8761L80.1122 45.243C79.865 45.6842 79.6593 46.1474 79.4976 46.6266C79.2862 47.2537 79.1516 47.9042 79.097 48.5637L79.0818 48.7475L79.09 49.0778C79.1004 49.4906 79.1587 49.9008 79.2639 50.3001L79.3042 50.453C79.382 50.7482 79.4936 51.0334 79.637 51.3029C79.7593 51.5331 79.9063 51.7533 80.0715 51.955C80.2086 52.1225 80.3609 52.2808 80.5231 52.4241L80.6071 52.4983C80.9925 52.8385 81.4244 53.1221 81.8899 53.3405L82.1516 53.4632L83.1445 53.8192L84.3585 54.138L84.7782 54.2217C85.157 54.2974 85.5289 54.4043 85.8899 54.5416Z" fill="#FFC9E4"/>
<path d="M88.3723 53.612L88.492 53.2206C88.5106 53.1598 88.4788 53.0949 88.4193 53.0723C88.1844 52.983 87.9424 52.9134 87.6959 52.8642L87.4228 52.8096L86.6328 52.6022L85.9867 52.3706L85.8163 52.2907C85.5135 52.1486 85.2324 51.9641 84.9816 51.7426L84.927 51.6944C84.8214 51.6011 84.7223 51.4981 84.633 51.3891C84.5256 51.2578 84.4299 51.1146 84.3503 50.9648C84.257 50.7894 84.1844 50.6038 84.1338 50.4117L84.1076 50.3122C84.0391 50.0524 84.0011 49.7854 83.9944 49.5168L83.989 49.3019L83.9989 49.1823C84.0345 48.7531 84.122 48.3298 84.2596 47.9217C84.3648 47.6099 84.4987 47.3085 84.6596 47.0214L84.7934 46.7826L84.8065 46.7632C85.0889 46.3433 85.4166 45.9556 85.7835 45.6071L85.8568 45.5374L86.6669 44.8975L87.0633 44.6631C87.382 44.4746 87.7153 44.312 88.0599 44.1768L88.667 43.9387L89.4184 43.7453C89.806 43.6456 90.2015 43.5796 90.6005 43.5482L91.1552 43.5046L91.7667 43.4892C92.1154 43.4805 92.4642 43.4981 92.8102 43.5419L93.2436 43.5968L94.24 43.7991L95.8427 44.299L97.6738 45.0585L98.5997 45.5408C99.3642 45.9391 99.8188 46.7538 99.7562 47.6136L99.5187 50.875L99.379 51.8905L99.234 52.6997L98.9476 53.6362L98.5199 54.7003L98.0463 55.5796L97.6273 56.1684L97.4435 56.4141C97.22 56.7129 96.9727 56.9931 96.7041 57.252L96.3817 57.5628L95.7763 58.0321C95.4646 58.2737 95.1328 58.4883 94.7846 58.6734L94.407 58.8742C94.1926 58.9882 93.97 59.0861 93.741 59.167C93.3846 59.293 93.0148 59.3772 92.639 59.4181L92.2159 59.464L91.4718 59.4413L91.046 59.3696C90.8325 59.3336 90.6224 59.2795 90.418 59.208C90.1101 59.1002 89.8172 58.9535 89.5464 58.7714L89.3029 58.6076C89.0677 58.4235 88.8583 58.2025 88.6882 57.957C88.5597 57.7714 88.4527 57.5718 88.3694 57.362L88.3472 57.3059C88.2403 57.0368 88.1672 56.7554 88.1297 56.4682L88.084 56.1183L88.085 55.3335L88.1675 54.5052L88.3723 53.612Z" fill="#001AFF"/>
<path d="M130.788 31.0588L130.397 30.9391C130.336 30.9205 130.3 30.8579 130.314 30.796C130.372 30.5512 130.449 30.3117 130.546 30.0798L130.654 29.8229L130.924 29.052L131.093 28.3868L131.122 28.2009C131.173 27.8704 131.178 27.5342 131.134 27.2024L131.125 27.1302C131.107 26.9905 131.077 26.8507 131.036 26.7158C130.987 26.5533 130.922 26.3939 130.842 26.2441C130.749 26.0687 130.636 25.9047 130.505 25.7553L130.437 25.6779C130.26 25.4759 130.06 25.2951 129.841 25.1393L129.666 25.0147L129.561 24.956C129.186 24.7455 128.786 24.5814 128.37 24.4673C128.053 24.3801 127.728 24.3225 127.4 24.2954L127.128 24.2728L127.104 24.2727C126.598 24.2721 126.093 24.3269 125.599 24.4363L125.501 24.4581L124.517 24.7719L124.101 24.9694C123.767 25.1282 123.445 25.3136 123.141 25.5237L122.604 25.8938L122.023 26.4086C121.724 26.6742 121.448 26.9653 121.199 27.2785L120.852 27.7139L120.498 28.2123C120.296 28.4965 120.115 28.7955 119.958 29.1069L119.761 29.4968L119.372 30.436L118.89 32.0443L118.496 33.987L118.378 35.0243C118.28 35.8809 118.702 36.7133 119.449 37.1422L122.286 38.7691L123.206 39.2211L123.958 39.5534L124.894 39.8397L126.016 40.0801L127.01 40.1791L127.732 40.161L128.039 40.1461C128.411 40.1278 128.782 40.0795 129.147 40.0016L129.585 39.9081L130.312 39.6686C130.687 39.5453 131.05 39.3903 131.398 39.2051L131.776 39.0043C131.99 38.8903 132.196 38.7605 132.391 38.616C132.695 38.391 132.972 38.1315 133.216 37.8427L133.49 37.5177L133.888 36.8881L134.066 36.495C134.156 36.2978 134.228 36.0934 134.283 35.884C134.366 35.5684 134.408 35.2435 134.409 34.9173L134.409 34.6238C134.388 34.3259 134.322 34.0287 134.214 33.7504C134.132 33.5401 134.026 33.3398 133.899 33.1534L133.865 33.1036C133.701 32.8644 133.509 32.6465 133.292 32.4548L133.027 32.2213L132.376 31.7832L131.643 31.3885L130.788 31.0588Z" fill="#001AFF"/>
<path d="M68.6949 56.6083C68.7926 56.6131 68.8698 56.6929 68.8715 56.7906L68.8825 57.4194L69.0073 58.8222L69.28 60.0718L69.6513 61.2194L69.8842 61.709C70.0754 62.1109 70.3158 62.4875 70.5999 62.8301L70.6591 62.9015C70.8805 63.1685 71.1316 63.4095 71.4076 63.6196C71.7727 63.8977 72.1837 64.1213 72.6149 64.2786L73.0486 64.4023C73.5307 64.5399 74.0284 64.6153 74.5297 64.6266C74.8624 64.6341 75.1951 64.6133 75.5243 64.5645L76.1807 64.4672L77.279 64.147L77.8755 63.8789C78.4053 63.6408 78.9058 63.3421 79.3669 62.9887C79.663 62.7616 79.9419 62.5129 80.2011 62.2444L80.6577 61.7717C81.0787 61.3358 81.4616 60.8646 81.8024 60.3635L82.4644 59.3901L82.788 58.7829C83.0577 58.2769 83.286 57.7499 83.4708 57.2071L83.6227 56.7607L83.9555 55.7012L84.2301 54.1912L84.35 52.4329L84.3237 50.9281L84.1513 49.6767L84.0552 49.1405C83.9343 48.4658 83.7485 47.8044 83.5003 47.1654L83.2036 46.4015C83.1635 46.2984 83.1871 46.1813 83.264 46.1017L95.2883 33.6502C95.331 33.606 95.3979 33.5958 95.4518 33.6254C95.8619 33.8503 96.3009 34.0178 96.7565 34.1233L97.2789 34.2443L97.78 34.356C98.4185 34.4984 99.0687 34.5816 99.7224 34.6046L100.648 34.6371L102.753 34.5L104.138 34.223C104.68 34.1146 105.213 33.9641 105.732 33.7729L106.324 33.5546C106.838 33.3652 107.337 33.1364 107.816 32.8703L107.896 32.8256C108.356 32.5697 108.797 32.2801 109.214 31.959L109.501 31.7385C109.914 31.4202 110.304 31.0719 110.667 30.6964L111.009 30.3418L111.844 29.2735L112.593 28.0203C112.84 27.6068 113.032 27.1631 113.166 26.7003C113.284 26.2923 113.355 25.8722 113.378 25.4481L113.385 25.3049C113.408 24.8892 113.392 24.4723 113.339 24.0594L113.245 23.3283L113.168 23.0079C113.076 22.6242 112.925 22.2569 112.721 21.9188C112.548 21.6312 112.338 21.3674 112.096 21.1341L111.797 20.8448C111.156 20.3568 110.448 19.9638 109.695 19.6777L109.315 19.5334L108.055 19.2041L106.999 19.072L105.845 19.042L105.474 19.0485C105.3 19.0515 105.164 18.8981 105.188 18.7254L105.276 18.0986L105.331 17.5137C105.407 16.7002 105.389 15.8805 105.277 15.0711L105.273 15.0379L105.124 14.295C105.077 14.0574 105.009 13.8243 104.921 13.5984C104.765 13.1958 104.547 12.8199 104.276 12.4837L103.967 12.1003C103.428 11.5797 102.792 11.1697 102.095 10.8935L101.938 10.8312L101.258 10.6626C100.706 10.5255 100.138 10.4612 99.5691 10.4711C99.1383 10.4786 98.7094 10.5287 98.2885 10.6205L98.0428 10.6741C97.2985 10.8366 96.5776 11.092 95.8971 11.4344L95.579 11.5945L94.8893 12.0637C94.3913 12.4026 93.923 12.7831 93.4894 13.2012L92.71 13.9526L91.7771 15.123L90.9462 16.3919L90.3653 17.6062L90.3029 17.7441C90.0551 18.2918 89.8541 18.8595 89.7021 19.4412L89.6013 19.8273L89.3196 20.9361L89.0906 22.1945L89.0113 23.4001L89.0288 24.4033L89.0939 25.2551L89.2117 26.2566L89.4281 27.156L89.5421 27.547C89.5706 27.6448 89.5446 27.7503 89.4738 27.8236L77.1338 40.6021C77.0637 40.6747 76.9603 40.7046 76.8622 40.6806L76.0631 40.4852L74.7554 40.3073L73.9018 40.272L72.7983 40.2913L71.246 40.4689L70.5866 40.5945C70.0601 40.6948 69.5419 40.8347 69.0364 41.013L68.15 41.3258L67.3601 41.653C66.7918 41.8884 66.245 42.1726 65.7259 42.5024L64.7196 43.1418L63.9454 43.7781C63.5059 44.1394 63.096 44.5353 62.7198 44.9621L62.2518 45.493L61.3717 46.8129L61.2976 46.9495C60.9268 47.6331 60.6321 48.3553 60.4186 49.1031L60.4088 49.1378L60.3266 49.5503C60.2278 50.0463 60.1753 50.5504 60.1696 51.056C60.1623 51.7178 60.2353 52.378 60.3872 53.0222L60.4295 53.2017L60.5394 53.5132C60.6768 53.9026 60.8591 54.2747 61.0825 54.622L61.1681 54.755C61.3333 55.0117 61.5276 55.2484 61.7472 55.4605C61.9347 55.6415 62.1425 55.8055 62.3619 55.9463C62.5441 56.0632 62.7379 56.1668 62.9365 56.2529L63.0393 56.2975C63.5109 56.502 64.0093 56.6383 64.5195 56.7021L64.8064 56.738L65.8606 56.7697L67.1137 56.6977L67.5388 56.6477C67.9224 56.6025 68.3091 56.5894 68.6949 56.6083Z" fill="#FFC9E4"/>
<path d="M70.7671 54.9582L70.76 54.5491C70.7589 54.4854 70.7086 54.4335 70.6451 54.4304C70.394 54.4181 70.1424 54.4266 69.8927 54.456L69.6162 54.4886L68.8007 54.5354L68.1147 54.5148L67.928 54.4914C67.596 54.4499 67.2717 54.3612 66.9647 54.2281L66.8979 54.1991C66.7686 54.1431 66.6425 54.0757 66.524 53.9996C66.3812 53.908 66.246 53.8013 66.1239 53.6834C65.9811 53.5455 65.8546 53.3914 65.7471 53.2244L65.6914 53.1378C65.546 52.9118 65.4274 52.6697 65.338 52.4163L65.2665 52.2136L65.2389 52.0968C65.1401 51.6776 65.0926 51.248 65.0974 50.8173C65.101 50.4883 65.1352 50.1602 65.1995 49.8375L65.253 49.5691L65.2594 49.5465C65.3983 49.0599 65.5901 48.5899 65.8314 48.145L65.8796 48.0562L66.4523 47.1972L66.7568 46.8518C67.0017 46.5741 67.2684 46.3164 67.5544 46.0813L68.0582 45.6673L68.713 45.2512C69.0509 45.0366 69.4067 44.8516 69.7764 44.6984L70.2905 44.4855L70.8673 44.282C71.1962 44.1659 71.5334 44.0749 71.876 44.0096L72.3051 43.9279L73.3153 43.8123L74.9941 43.7925L76.9702 43.949L77.9999 44.1216C78.85 44.2642 79.5341 44.8985 79.7402 45.7356L80.5223 48.9107L80.7031 49.9198L80.8153 50.7341L80.8324 51.7133L80.7544 52.8575L80.5756 53.8401L80.3591 54.5296L80.2602 54.8201C80.14 55.1733 79.9914 55.5162 79.816 55.8455L79.6054 56.2406L79.1746 56.874C78.9528 57.2001 78.7036 57.5067 78.4297 57.7904L78.1326 58.098C77.9639 58.2727 77.7824 58.4346 77.5897 58.5823C77.2897 58.8123 76.964 59.0067 76.6192 59.1616L76.231 59.3361L75.5163 59.5445L75.0892 59.6078C74.875 59.6395 74.6585 59.653 74.442 59.6482C74.1158 59.6408 73.7919 59.5918 73.4781 59.5022L73.1959 59.4217C72.9154 59.3194 72.6479 59.1739 72.4103 58.9929C72.2307 58.8562 72.0673 58.6994 71.9232 58.5256L71.8847 58.4791C71.6999 58.2562 71.5434 58.0111 71.419 57.7496L71.2674 57.431L71.0258 56.6842L70.8484 55.871L70.7671 54.9582Z" fill="#001AFF"/>
<path d="M104.142 20.4004L103.733 20.4076C103.669 20.4087 103.616 20.3603 103.61 20.2968C103.589 20.0464 103.589 19.7946 103.61 19.5441L103.632 19.2665L103.651 18.4499L103.606 17.765L103.576 17.5793C103.523 17.249 103.423 16.9279 103.28 16.6258L103.248 16.56C103.188 16.4328 103.116 16.3091 103.036 16.1933C102.939 16.0538 102.828 15.9224 102.706 15.8045C102.563 15.6666 102.405 15.5456 102.234 15.444L102.146 15.3913C101.915 15.2539 101.669 15.1438 101.412 15.0633L101.207 14.9989L101.089 14.9755C100.667 14.8913 100.236 14.8588 99.8058 14.8786C99.477 14.8938 99.1504 14.9394 98.8301 15.0149L98.5637 15.0777L98.5414 15.0849C98.0599 15.2407 97.5969 15.4488 97.1607 15.7054L97.0736 15.7567L96.2352 16.3591L95.9006 16.6755C95.6316 16.9298 95.3834 17.2054 95.1584 17.4994L94.7622 18.0174L94.3692 18.6863C94.1665 19.0314 93.9941 19.3935 93.8539 19.7684L93.6591 20.2895L93.4758 20.8731C93.3713 21.2059 93.2921 21.5461 93.2388 21.8907L93.1721 22.3224L93.0919 23.336L93.1306 25.0145L93.356 26.9839L93.5645 28.0069C93.7366 28.8516 94.3944 29.5131 95.2381 29.6899L98.4387 30.3606L99.4534 30.5062L100.271 30.5899L101.25 30.5728L102.391 30.4549L103.367 30.242L104.048 30.0015L104.335 29.8926C104.684 29.7601 105.022 29.5996 105.345 29.4128L105.732 29.1885L106.35 28.7359C106.668 28.5029 106.966 28.2431 107.24 27.9594L107.537 27.6518C107.706 27.4771 107.861 27.2901 108.002 27.0923C108.221 26.7845 108.404 26.4522 108.547 26.1022L108.708 25.7082L108.891 24.9867L108.94 24.5575C108.964 24.3424 108.97 24.1255 108.957 23.9093C108.939 23.5836 108.878 23.2616 108.778 22.9512L108.688 22.672C108.575 22.3951 108.421 22.1329 108.232 21.9018C108.089 21.7271 107.926 21.5692 107.748 21.4313L107.7 21.3944C107.471 21.2175 107.22 21.0697 106.954 20.9545L106.631 20.8141L105.876 20.5987L105.057 20.4498L104.142 20.4004Z" fill="#001AFF"/>
<path d="M31.2358 24.9254C31.2531 25.0217 31.1927 25.1149 31.0979 25.1386L30.4876 25.2907L29.1489 25.7279L27.9927 26.2747L26.958 26.8946L26.5334 27.2317C26.1848 27.5084 25.8719 27.8274 25.602 28.1812L25.5457 28.2549C25.3353 28.5307 25.1571 28.8296 25.0144 29.1458C24.8256 29.5641 24.7002 30.0149 24.6439 30.4704L24.6209 30.9208C24.5953 31.4215 24.6338 31.9234 24.7356 32.4144C24.8031 32.7402 24.8982 33.0597 25.0198 33.3695L25.2622 33.9872L25.8213 34.9853L26.2167 35.5062C26.5679 35.969 26.9716 36.3894 27.4196 36.7591C27.7075 36.9967 28.0126 37.2124 28.3324 37.4046L28.8958 37.7431C29.4152 38.0552 29.9604 38.3224 30.5254 38.5418L31.6227 38.9678L32.2872 39.1465C32.8409 39.2954 33.4057 39.3994 33.9762 39.4573L34.4453 39.5049L35.5525 39.5908L37.0856 39.5188L38.8258 39.24L40.2861 38.8759L41.4667 38.4265L41.9675 38.2122C42.5977 37.9426 43.2004 37.6127 43.7671 37.2272L44.4447 36.7663C44.5362 36.704 44.6556 36.7007 44.7505 36.7577L59.5877 45.6728C59.6404 45.7044 59.6654 45.7674 59.6487 45.8265C59.5218 46.2767 59.4573 46.7421 59.457 47.2098L59.4566 47.746L59.4605 48.2594C59.4654 48.9135 59.5306 49.5658 59.6553 50.2079L59.8317 51.1167L60.4388 53.1369L61.0203 54.4246C61.2479 54.9285 61.5144 55.414 61.8174 55.8765L62.1634 56.4045C62.4635 56.8627 62.7986 57.2969 63.1656 57.7035L63.2273 57.7718C63.5801 58.1627 63.9614 58.5268 64.3682 58.8612L64.6474 59.0908C65.0506 59.4223 65.4777 59.7237 65.9251 59.9926L66.3477 60.2465L67.5763 60.8192L68.9659 61.2671C69.4244 61.4149 69.9001 61.5029 70.3811 61.529C70.8052 61.552 71.2305 61.5267 71.6488 61.4535L71.7901 61.4288C72.2002 61.3572 72.6029 61.2483 72.9933 61.1036L73.6844 60.8474L73.9792 60.7002C74.3324 60.5239 74.6564 60.2945 74.94 60.02C75.1813 59.7864 75.391 59.5224 75.564 59.2345L75.7785 58.8775C76.1098 58.1434 76.3336 57.3654 76.4429 56.5674L76.4981 56.1646L76.5354 54.8627L76.4266 53.8041L76.1961 52.6723L76.1065 52.3131C76.0644 52.1439 76.1833 51.977 76.357 51.9617L76.9875 51.9063L77.5697 51.828C78.3795 51.7191 79.1741 51.5173 79.9377 51.2265L79.969 51.2146L80.6594 50.9028C80.8803 50.8031 81.0921 50.6844 81.2925 50.548C81.6495 50.3052 81.967 50.0087 82.2336 49.669L82.5376 49.2816C82.9236 48.6391 83.18 47.9273 83.2924 47.1862L83.3177 47.0189L83.3291 46.3186C83.3384 45.7496 83.2733 45.1819 83.1356 44.6297C83.0314 44.2117 82.8862 43.805 82.702 43.4155L82.5945 43.1882C82.2688 42.4996 81.8578 41.8546 81.3711 41.2686L81.1435 40.9946L80.5312 40.4282C80.089 40.0191 79.6129 39.6484 79.108 39.3199L78.2004 38.7296L76.8502 38.0838L75.4269 37.5597L74.113 37.2669L73.9646 37.2371C73.3752 37.1188 72.7768 37.0507 72.1759 37.0335L71.777 37.022L70.6333 36.997L69.3556 37.057L68.1631 37.2509L67.1895 37.4937L66.3741 37.7487L65.4249 38.0888L64.5972 38.5019L64.2418 38.701C64.153 38.7508 64.0443 38.7491 63.957 38.6966L48.7301 29.5474C48.6436 29.4954 48.5912 29.4014 48.5925 29.3005L48.6032 28.4779L48.4823 27.1637L48.3247 26.3241L48.0577 25.2531L47.5354 23.7805L47.2647 23.1663C47.0486 22.6758 46.7957 22.2024 46.5082 21.75L46.0041 20.9567L45.5075 20.2606C45.1503 19.7599 44.7504 19.291 44.3122 18.8594L43.4629 18.0227L42.6687 17.4115C42.2179 17.0645 41.7399 16.7542 41.2394 16.4836L40.6169 16.1471L39.1328 15.5864L38.983 15.545C38.2335 15.3375 37.4635 15.2127 36.6869 15.173L36.6508 15.1712L36.2304 15.1839C35.7249 15.1992 35.222 15.2614 34.728 15.3697C34.0815 15.5114 33.4547 15.7311 32.8612 16.0239L32.6958 16.1056L32.417 16.2828C32.0684 16.5042 31.7469 16.7655 31.4588 17.0614L31.3485 17.1746C31.1355 17.3933 30.9485 17.6359 30.7913 17.8976C30.6571 18.121 30.544 18.3604 30.4562 18.6059C30.3833 18.8097 30.3259 19.0218 30.2867 19.2347L30.2664 19.3448C30.1732 19.8504 30.1526 20.3667 30.2052 20.8781L30.2347 21.1657L30.4409 22.2001L30.793 23.4049L30.9374 23.8078C31.0676 24.1714 31.1674 24.5453 31.2358 24.9254Z" fill="#FFC9E4"/>
<path d="M33.3101 26.5727L33.7072 26.4737C33.769 26.4583 33.8082 26.3976 33.797 26.335C33.7525 26.0876 33.6876 25.8444 33.6028 25.6077L33.5089 25.3455L33.2797 24.5615L33.1456 23.8884L33.1263 23.7013C33.0921 23.3685 33.1055 23.0325 33.1662 22.7035L33.1794 22.6318C33.2049 22.4933 33.2422 22.3553 33.2897 22.2226C33.3468 22.0629 33.4204 21.9071 33.5077 21.7617C33.6101 21.5915 33.7317 21.4336 33.8703 21.2913L33.9421 21.2176C34.1296 21.0251 34.3388 20.855 34.5656 20.7109L34.747 20.5956L34.8547 20.5425C35.2409 20.3519 35.6488 20.2089 36.0695 20.1167C36.3909 20.0463 36.7182 20.0058 37.0472 19.9958L37.3207 19.9876L37.3442 19.9887C37.8496 20.0146 38.3507 20.0958 38.8384 20.2308L38.9358 20.2578L39.9016 20.6226L40.3067 20.8416C40.6324 21.0177 40.9434 21.2196 41.2368 21.4454L41.7536 21.8431L42.3063 22.3876C42.5914 22.6685 42.8517 22.9736 43.0841 23.2994L43.4072 23.7524L43.7353 24.2687C43.9223 24.563 44.0869 24.8711 44.2276 25.1903L44.4037 25.59L44.7436 26.5482L45.1405 28.1795L45.4326 30.1402L45.496 31.1823C45.5483 32.0428 45.0841 32.852 44.3149 33.2411L41.397 34.7174L40.4546 35.1206L39.6863 35.4131L38.7361 35.65L37.6037 35.8314L36.606 35.8783L35.8855 35.8224L35.5802 35.7914C35.209 35.7537 34.8415 35.6861 34.4812 35.5892L34.0488 35.4729L33.3347 35.1956C32.9671 35.0529 32.6123 34.879 32.2742 34.6759L31.9077 34.4556C31.6995 34.3306 31.501 34.1902 31.3137 34.0356C31.0221 33.795 30.7594 33.5214 30.5309 33.2203L30.2736 32.8813L29.9098 32.2318L29.752 31.8299C29.6729 31.6283 29.611 31.4204 29.5671 31.2083C29.5008 30.8889 29.4758 30.5622 29.4924 30.2364L29.5074 29.9433C29.544 29.6469 29.6256 29.3536 29.7485 29.0813C29.8413 28.8756 29.9573 28.6811 30.0943 28.5016L30.1309 28.4537C30.3065 28.2234 30.5101 28.0158 30.737 27.8358L31.0133 27.6164L31.6866 27.213L32.439 26.8572L33.3101 26.5727Z" fill="#001AFF"/>
<path d="M74.4894 51.3159L74.3904 50.9188C74.375 50.8571 74.4101 50.794 74.4707 50.7745C74.71 50.6976 74.9553 50.6407 75.204 50.6045L75.4796 50.5643L76.2794 50.3986L76.9367 50.201L77.111 50.1302C77.4209 50.0041 77.7113 49.8346 77.9733 49.6266L78.0304 49.5812C78.1407 49.4936 78.2451 49.3959 78.3399 49.2917C78.4541 49.1663 78.5571 49.0282 78.6445 48.8828C78.7468 48.7126 78.829 48.531 78.8896 48.3418L78.921 48.2438C79.003 47.9879 79.0549 47.7234 79.0757 47.4555L79.0923 47.2411L79.0886 47.1212C79.0756 46.6907 79.0103 46.2634 78.8943 45.8487C78.8056 45.5318 78.6876 45.2238 78.542 44.9287L78.4209 44.6832L78.4088 44.6631C78.1487 44.229 77.8418 43.8247 77.4936 43.4574L77.424 43.3841L76.6485 42.7026L76.265 42.4478C75.9566 42.2429 75.6323 42.063 75.2952 41.91L74.7014 41.6404L73.9612 41.408C73.5793 41.2881 73.1878 41.2016 72.7909 41.1493L72.2393 41.0767L71.6294 41.0294C71.2817 41.0024 70.9324 41.0017 70.5846 41.0274L70.149 41.0595L69.1433 41.2093L67.5166 41.6247L65.6484 42.2873L64.6984 42.7205C63.9141 43.0783 63.4176 43.868 63.4351 44.7299L63.5015 47.9993L63.5879 49.0208L63.6904 49.8364L63.9273 50.7867L64.2988 51.8716L64.7257 52.7746L65.1133 53.3845L65.284 53.6395C65.4916 53.9495 65.7239 54.2423 65.9786 54.5149L66.2843 54.8421L66.8643 55.3425C67.1629 55.6 67.483 55.8317 67.821 56.0348L68.1876 56.255C68.3957 56.3801 68.6129 56.4895 68.8373 56.5823C69.1866 56.7268 69.5515 56.8303 69.9247 56.8907L70.3448 56.9587L71.0891 56.975L71.5181 56.9257C71.7332 56.9009 71.9458 56.8579 72.1537 56.7971C72.4668 56.7056 72.767 56.5744 73.0469 56.4067L73.2986 56.2559C73.5432 56.0844 73.7638 55.8747 73.9465 55.6384C74.0846 55.4598 74.2019 55.2661 74.296 55.0609L74.3212 55.0061C74.442 54.7429 74.5297 54.4657 74.5822 54.1809L74.6462 53.8339L74.6863 53.0501L74.6472 52.2187L74.4894 51.3159Z" fill="#001AFF"/>
<path d="M70.5035 11.6355C70.4096 11.6628 70.3106 11.6126 70.2772 11.5207L70.0621 10.9297L69.4874 9.64403L68.8227 8.55126L68.098 7.58708L67.7184 7.20001C67.4068 6.88225 67.0568 6.60444 66.6767 6.37295L66.5975 6.32473C66.3013 6.14431 65.9854 5.99825 65.656 5.88938C65.2202 5.74534 64.7588 5.66774 64.2999 5.65943L63.8496 5.6836C63.349 5.71048 62.8538 5.80127 62.3762 5.95379C62.0592 6.05501 61.7513 6.18296 61.456 6.33627L60.867 6.64197L59.9328 7.30232L59.4561 7.74998C59.0326 8.14763 58.6567 8.59304 58.3358 9.07728C58.1296 9.38835 57.947 9.71435 57.7892 10.0526L57.5115 10.6482C57.2554 11.1974 57.0466 11.7676 56.8876 12.3524L56.5786 13.4882L56.4703 14.1677C56.3801 14.734 56.3357 15.3066 56.3377 15.8799L56.3394 16.3515L56.3697 17.4616L56.6016 18.9788L57.0608 20.6803L57.5755 22.0946L58.1459 23.2216L58.4113 23.6973C58.7453 24.2959 59.1364 24.8608 59.5791 25.3842L60.1083 26.0098C60.1798 26.0944 60.1956 26.2127 60.1488 26.313L52.8335 42.0009C52.8075 42.0566 52.7475 42.088 52.6869 42.0776C52.226 41.9984 51.7563 41.9829 51.2912 42.0315L50.7578 42.0872L50.2477 42.1447C49.5977 42.218 48.9558 42.351 48.3302 42.5421L47.4448 42.8126L45.4992 43.6275L44.2793 44.3405C43.8019 44.6195 43.347 44.9353 42.9187 45.2849L42.4297 45.6842C42.0055 46.0306 41.6086 46.4092 41.2426 46.8167L41.1811 46.8852C40.8293 47.2769 40.507 47.6942 40.217 48.1337L40.0178 48.4355C39.7302 48.8711 39.4751 49.3273 39.2545 49.8004L39.0462 50.2472L38.6051 51.5289L38.3049 52.9577C38.2058 53.4292 38.168 53.9114 38.1923 54.3926C38.2138 54.8167 38.2834 55.237 38.3999 55.6454L38.4392 55.7834C38.5534 56.1837 38.7037 56.5728 38.8884 56.9459L39.2155 57.6065L39.3927 57.8843C39.6049 58.2171 39.8669 58.5154 40.1696 58.7687C40.4271 58.9843 40.7116 59.1653 41.016 59.3072L41.3934 59.4832C42.1582 59.736 42.9553 59.8772 43.7604 59.9025L44.1667 59.9153L45.4654 59.8163L46.5068 59.5974L47.6083 59.2499L47.9562 59.1233C48.1201 59.0637 48.2985 59.1645 48.3318 59.3357L48.4529 59.9569L48.5916 60.5277C48.7846 61.3217 49.0683 62.0908 49.4373 62.8199L49.4524 62.8498L49.8347 63.5038C49.957 63.7131 50.0972 63.9113 50.2537 64.0964C50.5325 64.4261 50.8606 64.7107 51.2263 64.9404L51.6433 65.2022C52.3226 65.519 53.0574 65.6996 53.8061 65.7338L53.9751 65.7416L54.6728 65.6797C55.2396 65.6294 55.7975 65.5054 56.3323 65.3108C56.7371 65.1634 57.1264 64.9765 57.4944 64.7526L57.7093 64.6219C58.3601 64.226 58.9586 63.7498 59.4905 63.2045L59.7392 62.9496L60.2385 62.2814C60.5991 61.7989 60.918 61.2866 61.1919 60.7501L61.6842 59.7858L62.1853 58.3755L62.5577 56.9053L62.7116 55.568L62.7257 55.4173C62.7817 54.8187 62.7869 54.2165 62.7413 53.617L62.7109 53.2191L62.6163 52.079L62.4231 50.8147L62.1055 49.6489L61.7624 48.7061L61.4235 47.9218L60.9861 47.0133L60.4886 46.2333L60.2535 45.9007C60.1948 45.8176 60.185 45.7093 60.2281 45.617L67.7355 29.5172C67.7782 29.4257 67.8662 29.3638 67.9668 29.3545L68.7859 29.2791L70.0803 29.0216L70.8989 28.777L71.936 28.3995L73.346 27.7262L73.9285 27.3928C74.3937 27.1266 74.8381 26.8256 75.258 26.4924L75.9943 25.9081L76.6346 25.3415C77.0953 24.9339 77.5197 24.4872 77.9032 24.0063L78.6466 23.0742L79.1714 22.2205C79.4694 21.7358 79.728 21.228 79.9448 20.702L80.2144 20.0477L80.6169 18.5131L80.6424 18.3599C80.7705 17.5928 80.814 16.814 80.7723 16.0374L80.7704 16.0014L80.7138 15.5846C80.6457 15.0835 80.5313 14.5898 80.372 14.1098C80.1635 13.4817 79.8795 12.8812 79.5262 12.3216L79.4277 12.1656L79.2224 11.9069C78.9657 11.5834 78.6722 11.2909 78.3479 11.0353L78.2237 10.9375C77.9839 10.7485 77.7231 10.5879 77.4464 10.4589C77.2102 10.3488 76.9603 10.2614 76.707 10.1997C76.4967 10.1485 76.2798 10.1136 76.0639 10.0968L75.9523 10.0882C75.4397 10.0483 74.9241 10.0818 74.421 10.1875L74.138 10.247L73.1309 10.5602L71.9695 11.0363L71.5839 11.222C71.2358 11.3895 70.8745 11.5279 70.5035 11.6355Z" fill="#FFC9E4"/>
<path d="M69.0803 13.8712L69.2203 14.2557C69.242 14.3155 69.3065 14.3482 69.3676 14.3305C69.609 14.2604 69.8441 14.1704 70.0706 14.0613L70.3215 13.9405L71.0773 13.6307L71.7327 13.4269L71.9168 13.3882C72.2442 13.3194 72.5797 13.2976 72.9133 13.3235L72.9859 13.3292C73.1264 13.3401 73.2675 13.3628 73.4044 13.3961C73.5692 13.4363 73.7318 13.4931 73.8856 13.5648C74.0656 13.6488 74.2353 13.7532 74.3913 13.8762L74.4722 13.9399C74.6832 14.1062 74.8742 14.2965 75.0412 14.507L75.1749 14.6754L75.2389 14.7769C75.4688 15.1411 75.6536 15.5318 75.7893 15.9405C75.893 16.2529 75.9675 16.5742 76.0118 16.9002L76.0486 17.1715L76.0499 17.1949C76.077 17.7002 76.0486 18.207 75.9653 18.7062L75.9487 18.8059L75.6868 19.8045L75.5113 20.2303C75.3702 20.5726 75.202 20.9031 75.008 21.2185L74.6665 21.774L74.1828 22.3806C73.9333 22.6935 73.6571 22.9842 73.3573 23.2494L72.9406 23.6181L72.4614 23.9984C72.1882 24.2152 71.8991 24.411 71.5963 24.5843L71.2172 24.8012L70.2997 25.2394L68.7189 25.8047L66.7995 26.3001L65.7697 26.4721C64.9194 26.6141 64.0661 26.237 63.5987 25.5127L61.8256 22.7651L61.326 21.8699L60.9549 21.1365L60.6199 20.2162L60.3211 19.109L60.1702 18.1217L60.1505 17.3993L60.1494 17.0924C60.1481 16.7193 60.1769 16.3467 60.2357 15.9783L60.3061 15.5361L60.5072 14.7969C60.6107 14.4164 60.7465 14.0454 60.9132 13.688L61.0939 13.3004C61.1966 13.0803 61.3154 12.8681 61.4496 12.6657C61.6584 12.3506 61.903 12.0608 62.1786 11.802L62.4888 11.5107L63.0967 11.081L63.48 10.882C63.6722 10.7823 63.8725 10.699 64.0788 10.6331C64.3896 10.5339 64.7118 10.4748 65.0376 10.4573L65.3307 10.4416C65.6293 10.447 65.9295 10.4975 66.2131 10.5912C66.4275 10.6621 66.633 10.7571 66.8258 10.8745L66.8773 10.9059C67.1247 11.0565 67.3524 11.2373 67.5552 11.4441L67.8022 11.696L68.2738 12.3234L68.7063 13.0345L69.0803 13.8712Z" fill="#001AFF"/>
<path d="M48.7776 57.4095L49.1621 57.2695C49.2219 57.2478 49.2884 57.2761 49.3141 57.3343C49.4156 57.5643 49.4978 57.8023 49.5598 58.0458L49.6285 58.3157L49.877 59.0938L50.1422 59.7269L50.2309 59.8928C50.3886 60.1878 50.5876 60.4589 50.8218 60.6977L50.8729 60.7498C50.9715 60.8503 51.0796 60.9439 51.1932 61.0273C51.3298 61.1277 51.4779 61.2158 51.6317 61.2875C51.8117 61.3714 52.0008 61.4343 52.1953 61.4747L52.296 61.4957C52.5591 61.5505 52.8277 61.5744 53.0963 61.5671L53.3112 61.5612L53.4301 61.5451C53.8569 61.4871 54.275 61.3775 54.6753 61.2187C54.9812 61.0974 55.2752 60.9479 55.5535 60.7722L55.7849 60.6261L55.8036 60.612C56.2082 60.308 56.5782 59.9605 56.907 59.5758L56.9727 59.4989L57.5694 58.6564L57.7827 58.2484C57.9543 57.9203 58.0992 57.5789 58.2162 57.2277L58.4222 56.609L58.576 55.8485C58.6553 55.4562 58.7005 55.0577 58.7109 54.6576L58.7255 54.1014L58.7088 53.49C58.6993 53.1413 58.6634 52.7939 58.6016 52.4506L58.5241 52.0208L58.27 51.0363L57.6869 49.4619L56.8326 47.6731L56.3024 46.7737C55.8647 46.0311 55.0273 45.6198 54.172 45.7273L50.9275 46.1351L49.9207 46.3278L49.1202 46.515L48.1999 46.8499L47.1597 47.3328L46.3064 47.8518L45.7403 48.301L45.5045 48.4974C45.2179 48.7362 44.951 48.9978 44.7065 49.2797L44.413 49.6179L43.9761 50.247C43.7511 50.5709 43.5542 50.9135 43.3875 51.2709L43.2068 51.6585C43.1042 51.8786 43.0181 52.106 42.9492 52.3389C42.8421 52.7014 42.7773 53.0751 42.7562 53.4525L42.7324 53.8774L42.794 54.6193L42.888 55.0408C42.9351 55.2521 43.0001 55.4591 43.0822 55.6595C43.206 55.9614 43.3678 56.2462 43.5639 56.507L43.7402 56.7416C43.9363 56.9669 44.1679 57.1644 44.422 57.3214C44.6141 57.44 44.819 57.5364 45.0329 57.6086L45.09 57.6279C45.3644 57.7206 45.6493 57.7788 45.938 57.8013L46.2898 57.8286L47.0735 57.7865L47.8963 57.6608L48.7776 57.4095Z" fill="#001AFF"/>
<path d="M32.6813 17.9007C32.6327 17.9856 32.5266 18.0182 32.4387 17.9754L31.8734 17.6997L30.5669 17.1741L29.3297 16.8497L28.1386 16.6595L27.5967 16.6448C27.1518 16.6327 26.7071 16.6759 26.2728 16.7735L26.1824 16.7938C25.8439 16.8698 25.5152 16.9842 25.2027 17.1347C24.7891 17.3338 24.4033 17.5985 24.0674 17.9113L23.7603 18.2415C23.4188 18.6086 23.1257 19.0179 22.8881 19.4594C22.7304 19.7524 22.5978 20.0583 22.4919 20.3737L22.2805 21.0028L22.0673 22.1267L22.0353 22.7799C22.0069 23.3601 22.0459 23.9417 22.1514 24.5129C22.2192 24.8799 22.3143 25.2413 22.4358 25.5941L22.6497 26.2155C22.847 26.7885 23.0929 27.3437 23.3847 27.8748L23.9515 28.9065L24.3456 29.4706C24.6741 29.9406 25.0399 30.3832 25.4397 30.7943L25.7684 31.1323L26.5614 31.9098L27.7822 32.8401L29.2944 33.7451L30.6471 34.4049L31.8403 34.8194L32.3617 34.9772C33.0178 35.1758 33.6915 35.3105 34.3735 35.3794L35.1888 35.4619C35.2989 35.473 35.3926 35.5472 35.4286 35.6519L41.064 52.0184C41.084 52.0765 41.0627 52.1408 41.0119 52.1754C40.6253 52.4386 40.2767 52.7537 39.9759 53.1118L39.6309 53.5224L39.3039 53.9181C38.8872 54.4223 38.5179 54.9639 38.2006 55.536L37.7516 56.3455L36.9181 58.2833L36.5359 59.6436C36.3863 60.1759 36.2785 60.719 36.2133 61.2681L36.1389 61.895C36.0743 62.4389 36.0519 62.987 36.0717 63.5343L36.075 63.6263C36.094 64.1525 36.1521 64.6765 36.2487 65.1941L36.3151 65.5496C36.4108 66.0627 36.5442 66.5681 36.7142 67.0616L36.8747 67.5278L37.4477 68.7562L38.2243 69.9925C38.4805 70.4005 38.7884 70.7736 39.1401 71.1028C39.4502 71.393 39.7922 71.647 40.1597 71.8599L40.2838 71.9318C40.644 72.1405 41.0225 72.316 41.4146 72.456L42.1087 72.704L42.4291 72.7808C42.813 72.8727 43.2086 72.9053 43.6023 72.8772C43.9373 72.8534 44.2677 72.786 44.5852 72.6767L44.979 72.5411C45.7047 72.1917 46.3762 71.7395 46.9729 71.1985L47.2741 70.9254L48.1395 69.9521L48.7367 69.0712L49.2876 68.0561L49.4499 67.7233C49.5263 67.5666 49.7247 67.5152 49.8676 67.6151L50.3862 67.9779L50.8825 68.2921C51.5729 68.7293 52.3113 69.0854 53.0832 69.3536L53.1148 69.3645L53.8441 69.5695C54.0774 69.635 54.316 69.6803 54.5571 69.7046C54.9867 69.7481 55.4205 69.725 55.8431 69.6361L56.3249 69.5348C57.0336 69.2908 57.6876 68.9103 58.25 68.4148L58.377 68.303L58.8358 67.7738C59.2087 67.3439 59.5238 66.8672 59.7733 66.3557C59.9621 65.9685 60.1123 65.5636 60.2215 65.1469L60.2853 64.9036C60.4785 64.1667 60.5782 63.4084 60.582 62.6467L60.5838 62.2905L60.4788 61.463C60.403 60.8654 60.2766 60.2754 60.1009 59.6992L59.7852 58.6636L59.166 57.3011L58.4126 55.9847L57.5943 54.9158L57.4998 54.7976C57.1243 54.3281 56.7097 53.8913 56.2604 53.4918L55.9622 53.2267L55.1021 52.4723L54.0848 51.697L53.0466 51.079L52.1448 50.6392L51.3563 50.3104L50.4105 49.9608L49.5109 49.7453L49.1107 49.6693C49.0106 49.6503 48.9284 49.5792 48.8953 49.4829L43.1118 32.6865C43.0789 32.5911 43.0992 32.4854 43.1651 32.4089L43.702 31.7856L44.4542 30.7012L44.8732 29.9567L45.357 28.9647L45.9035 27.5009L46.091 26.8564C46.2406 26.3417 46.3512 25.8165 46.4218 25.2852L46.5456 24.3534L46.6126 23.501C46.6609 22.8878 46.6559 22.2716 46.5977 21.6593L46.4848 20.4724L46.2693 19.4937C46.147 18.9381 45.9803 18.3931 45.7708 17.8641L45.5103 17.2062L44.7338 15.8227L44.6457 15.6947C44.205 15.054 43.6953 14.4635 43.1258 13.9338L43.0994 13.9093L42.7692 13.6488C42.3721 13.3356 41.9468 13.06 41.4988 12.8254C40.9125 12.5184 40.2911 12.2837 39.6482 12.1266L39.4691 12.0828L39.1416 12.0393C38.7322 11.985 38.318 11.9784 37.9071 12.0199L37.7498 12.0357C37.4461 12.0664 37.1469 12.132 36.8583 12.2314C36.6118 12.3163 36.3713 12.427 36.1463 12.5586C35.9594 12.6678 35.7792 12.7934 35.6123 12.9313L35.5259 13.0027C35.1295 13.33 34.7819 13.7123 34.4934 14.1379L34.3312 14.3772L33.8243 15.3021L33.3195 16.4514L33.1711 16.8528C33.0372 17.2151 32.8734 17.5656 32.6813 17.9007Z" fill="#FFC9E4"/>
<path d="M33.2108 20.4986L33.5786 20.678C33.6359 20.7059 33.7049 20.6846 33.7365 20.6294C33.8615 20.4113 33.9681 20.1832 34.0553 19.9475L34.1519 19.6863L34.4803 18.9384L34.8102 18.3365L34.9157 18.1808C35.1034 17.9039 35.3297 17.6551 35.5876 17.4421L35.6438 17.3956C35.7524 17.3059 35.8697 17.2242 35.9913 17.1531C36.1378 17.0675 36.2942 16.9954 36.4546 16.9402C36.6425 16.8755 36.8371 16.8328 37.0348 16.8129L37.1371 16.8025C37.4045 16.7756 37.6741 16.7798 37.9405 16.8152L38.1536 16.8435L38.2702 16.872C38.6885 16.9742 39.0929 17.1269 39.4744 17.3267C39.7659 17.4794 40.0427 17.6587 40.3011 17.8625L40.516 18.032L40.5332 18.048C40.9037 18.3927 41.2354 18.777 41.5222 19.1939L41.5795 19.2772L42.0848 20.1774L42.2543 20.6056C42.3906 20.9498 42.4991 21.3045 42.5788 21.666L42.719 22.3029L42.7924 23.0752C42.8303 23.4737 42.8335 23.8747 42.8021 24.2737L42.7585 24.8284L42.678 25.4347C42.632 25.7805 42.5601 26.1223 42.4627 26.4572L42.3407 26.8766L41.9851 27.8291L41.2406 29.3339L40.204 31.0236L39.5827 31.8627C39.0697 32.5555 38.194 32.877 37.3546 32.6807L34.1705 31.9359L33.1893 31.639L32.4128 31.3693L31.5325 30.9399L30.5485 30.351L29.7541 29.7456L29.2381 29.2397L29.0241 29.0197C28.764 28.7522 28.5259 28.4642 28.3122 28.1583L28.0557 27.7913L27.6869 27.1199C27.497 26.7743 27.337 26.413 27.2086 26.0401L27.0694 25.6358C26.9903 25.4062 26.9285 25.171 26.8844 24.9322C26.8157 24.5605 26.7903 24.182 26.8088 23.8045L26.8296 23.3794L26.9684 22.648L27.1059 22.2387C27.1749 22.0334 27.2611 21.8344 27.3637 21.6437C27.5184 21.3564 27.7091 21.0901 27.9313 20.8512L28.1312 20.6363C28.3498 20.4327 28.6008 20.2605 28.8699 20.1309C29.0733 20.033 29.2872 19.9586 29.5074 19.9091L29.5663 19.8959C29.8489 19.8324 30.1383 19.8043 30.4278 19.8121L30.7805 19.8217L31.5555 19.9455L32.3606 20.1565L33.2108 20.4986Z" fill="#001AFF"/>
<path d="M48.8523 65.9203L49.0316 65.5525C49.0595 65.4953 49.127 65.4695 49.186 65.4936C49.4187 65.5885 49.6431 65.7026 49.857 65.8347L50.0939 65.9811L50.8131 66.3682L51.4436 66.6394L51.6227 66.6972C51.9411 66.7998 52.2725 66.8565 52.607 66.8656L52.6798 66.8676C52.8206 66.8714 52.9634 66.8636 53.103 66.8448C53.2711 66.8221 53.4388 66.7825 53.5992 66.7273C53.787 66.6626 53.9667 66.5765 54.1347 66.4705L54.2217 66.4156C54.449 66.2722 54.6588 66.1029 54.847 65.911L54.9975 65.7575L55.0718 65.6633C55.3385 65.3252 55.5632 64.9559 55.7408 64.5636C55.8766 64.2638 55.9842 63.9521 56.0624 63.6324L56.1273 63.3665L56.131 63.3433C56.2108 62.8436 56.2356 62.3366 56.2049 61.8314L56.1988 61.7305L56.0427 60.71L55.9127 60.2683C55.8082 59.9131 55.6754 59.5668 55.5155 59.2329L55.2339 58.6447L54.8163 57.9909C54.6008 57.6536 54.3565 57.3356 54.0861 57.0405L53.7102 56.6303L53.2734 56.202C53.0244 55.9579 52.7573 55.7328 52.4743 55.5289L52.12 55.2735L51.2533 54.7418L49.7402 54.0144L47.8831 53.3211L46.8769 53.0424C46.0462 52.8123 45.1581 53.0981 44.6176 53.7696L42.5669 56.3168L41.9765 57.1548L41.5307 57.8454L41.1014 58.7257L40.6885 59.7956L40.4353 60.7618L40.3401 61.4781L40.307 61.7832C40.2667 62.1541 40.2564 62.5277 40.2763 62.9003L40.3002 63.3474L40.4229 64.1035C40.486 64.4928 40.5823 64.876 40.7107 65.2488L40.85 65.6532C40.929 65.8828 41.0251 66.1062 41.1373 66.3216C41.312 66.6568 41.5251 66.9706 41.7721 67.2567L42.0501 67.5789L42.6098 68.0698L42.9702 68.3077C43.1509 68.427 43.3414 68.5307 43.5397 68.6178C43.8384 68.749 44.1527 68.8414 44.4749 68.8929L44.7647 68.9392C45.0622 68.965 45.3661 68.9462 45.6579 68.8826C45.8785 68.8345 46.0928 68.7615 46.2969 68.6649L46.3514 68.6391C46.6131 68.5151 46.8585 68.3591 47.0818 68.1747L47.3538 67.95L47.8884 67.3753L48.3929 66.7133L48.8523 65.9203Z" fill="#001AFF"/>
<path fill-rule="evenodd" clip-rule="evenodd" d="M28.0117 42.998C28.0117 70.6123 50.3975 92.998 78.0117 92.998C105.626 92.998 128.012 70.6123 128.012 42.998H28.0117Z" fill="#FF88C4"/>
<rect x="49.0117" y="82.998" width="58" height="10" rx="4" fill="#FF88C4"/>
</svg>
