<svg width="149" height="101" viewBox="0 0 149 101" fill="none" xmlns="http://www.w3.org/2000/svg">
<path d="M14.9619 30.4142C13.7577 27.9224 15.7515 25.0748 18.505 25.3542L34.7445 27.0018C36.7608 27.2064 37.813 29.5042 36.6505 31.1643L26.6277 45.4783C25.4653 47.1384 22.9463 46.9356 22.0644 45.1109L14.9619 30.4142Z" fill="#001AFF"/>
<path d="M19.8348 30.2113L14.413 27.3271L15.4163 25.9462L19.8348 30.2113Z" fill="#FFD4F1"/>
<ellipse cx="28.8059" cy="29.793" rx="2.28524" ry="2.06409" transform="rotate(74 28.8059 29.793)" fill="#FFD4F1"/>
<path d="M53.3789 58.791L48.0269 52.9637L41.612 47.4411L28.2479 37.9802L28.9228 37.0163L41.1243 45.7403L48.2484 51.5964L54.0766 57.7474L53.3789 58.791Z" fill="#001AFF"/>
<path d="M43.8814 34.2427C43.9704 34.1963 44.068 34.1689 44.168 34.162L44.3386 34.1504C44.714 34.1247 45.017 34.4528 44.9618 34.825C44.9466 34.9277 44.9045 35.0245 44.8399 35.1057L30.6992 52.8659C30.646 52.9327 30.5733 52.9812 30.4913 53.0048C30.2562 53.0722 30.0146 52.9203 29.9736 52.6792L29.9606 52.6027C29.9461 52.5178 29.9548 52.4307 29.9856 52.3503L32.2487 46.4496C32.4916 45.8162 32.8303 45.2238 33.2528 44.693L37.5204 39.3326L39.9721 36.7068C40.4852 36.1574 41.0878 35.6991 41.7544 35.3516L43.8814 34.2427Z" fill="#001AFF"/>
<path d="M52.8724 42.7913C53.008 42.7134 53.1661 42.6841 53.3207 42.708C53.6758 42.7631 53.9289 43.082 53.9019 43.4404L53.8966 43.5102C53.8814 43.7116 53.7871 43.8987 53.6343 44.0308L51.069 46.2484C50.7267 46.5443 50.4157 46.8744 50.1406 47.2335L47.318 50.9189L44.3668 55.2162L42.3175 58.6238C42.2616 58.7166 42.1691 58.7814 42.0628 58.802C41.865 58.8405 41.6714 58.7188 41.6202 58.5239L41.5911 58.4132C41.5667 58.32 41.5694 58.2218 41.599 58.1301L43.134 53.3729C43.3806 52.6088 43.7638 51.8959 44.265 51.2686L47.615 47.0763L49.7391 44.8783C50.1544 44.4485 50.6281 44.0795 51.1464 43.782L52.8724 42.7913Z" fill="#001AFF"/>
<path d="M49.1265 38.6453C49.2139 38.6006 49.3179 38.6023 49.4038 38.65L49.765 38.8502C49.8964 38.923 49.952 39.083 49.8941 39.2217L49.6619 39.778C49.6424 39.8248 49.6112 39.8657 49.5713 39.8968L46.3954 42.3773C46.3812 42.3884 46.368 42.4008 46.3561 42.4143L43.7161 45.3972L42.2638 47.2561L40.8267 49.0955C40.8165 49.1085 40.8075 49.1223 40.7997 49.1367L38.7896 52.8511L37.1182 55.4431C37.1002 55.4712 37.0775 55.4959 37.0512 55.5163L36.9008 55.6329C36.7144 55.7776 36.442 55.6555 36.4259 55.42L36.3952 54.9697C36.3929 54.9362 36.3963 54.9026 36.4054 54.8703L37.2898 51.7041C37.2965 51.68 37.3063 51.6569 37.3189 51.6352L39.4173 48.0258L40.8696 46.1669L42.3219 44.308L45.8187 40.3603C45.8431 40.3328 45.8724 40.3101 45.9052 40.2934L49.1265 38.6453Z" fill="#001AFF"/>
<path d="M55.9891 48.4791C56.0472 48.4461 56.1148 48.4339 56.1808 48.4444L56.9459 48.5658C57.124 48.5941 57.2352 48.774 57.1808 48.9459L57.0675 49.3045C57.0513 49.3556 57.0215 49.4014 56.9813 49.4368L56.1245 50.192L53.1715 52.5137C53.1529 52.5284 53.136 52.5453 53.1214 52.564L51.8133 54.2383L50.0613 56.0587L47.5668 59.4355C47.5528 59.4545 47.5411 59.4751 47.5319 59.4969L46.5328 61.8859C46.4983 61.9685 46.4281 62.0309 46.342 62.0556L45.7695 62.2197C45.613 62.2646 45.4497 62.1741 45.4048 62.0176L45.3277 61.7486C45.3081 61.6802 45.3139 61.6071 45.3439 61.5426L47.1864 57.5931C47.1935 57.5779 47.2019 57.5632 47.2116 57.5494L49.0891 54.8515L50.4192 53.149L51.728 51.4738C51.7421 51.4557 51.7583 51.4394 51.7762 51.4251L54.1479 49.5281C54.16 49.5184 54.173 49.5097 54.1865 49.502L55.9891 48.4791Z" fill="#001AFF"/>
<path d="M57.3313 61.8738C53.9049 61.6942 52.8779 59.3066 52.9416 58.0913C53.0053 56.876 55.8345 56.0363 59.2609 56.2159C62.6872 56.3954 65.4132 57.5262 65.3495 58.7416C65.2858 59.9569 60.7576 62.0533 57.3313 61.8738Z" fill="#001AFF"/>
<path d="M54.1419 63.7383C52.8566 60.5571 52.7294 57.6086 53.8578 57.1527C54.9862 56.6968 57.0655 56.6361 58.3508 59.8174C59.6361 62.9986 59.6407 68.217 58.5123 68.6729C57.3839 69.1288 55.4272 66.9195 54.1419 63.7383Z" fill="#001AFF"/>
<path d="M37.9034 26.9098C35.1433 27.1128 33.6742 30.2633 35.2929 32.5082L44.8395 45.7482C46.0248 47.3921 48.5408 47.1544 49.3973 45.3176L56.7822 29.4806C57.6387 27.6439 56.2035 25.5637 54.1824 25.7124L37.9034 26.9098Z" fill="#001AFF"/>
<path d="M40.1625 31.2286L34.9538 27.9753L34.2595 29.5346L40.1625 31.2286Z" fill="#FFD4F1"/>
<ellipse cx="2.28524" cy="2.06409" rx="2.28524" ry="2.06409" transform="matrix(0.970296 -0.241922 -0.241922 -0.970296 42.5664 41.7617)" fill="#FFD4F1"/>
<path d="M81.6836 45.9883L73.961 44.267L65.9708 41.4728L51.0954 34.6296L50.5981 35.696L64.2541 41.9008L72.8876 45.1424L81.1286 47.1143L81.6836 45.9883Z" fill="#001AFF"/>
<path d="M55.6795 50.0407C55.6839 50.1409 55.7089 50.2391 55.753 50.3292L55.8282 50.4827C55.9937 50.8207 56.4293 50.9191 56.724 50.6851C56.8053 50.6206 56.8681 50.5358 56.9061 50.4392L65.2166 29.3129C65.2479 29.2334 65.2536 29.1462 65.2329 29.0634C65.1737 28.8261 64.9214 28.6929 64.6921 28.7779L64.6193 28.8049C64.5386 28.8348 64.4675 28.8858 64.4133 28.9527L60.4347 33.863C60.0076 34.39 59.6639 34.9795 59.4155 35.6108L56.907 41.9869L55.8589 45.423C55.6396 46.1421 55.544 46.8931 55.5764 47.6442L55.6795 50.0407Z" fill="#001AFF"/>
<path d="M67.5774 53.5525C67.5778 53.7089 67.6314 53.8605 67.7295 53.9824C67.9547 54.2624 68.3575 54.3222 68.6543 54.1195L68.7121 54.0801C68.8789 53.9662 68.9938 53.7909 69.0318 53.5926L69.6697 50.2622C69.7548 49.8178 69.8851 49.3834 70.0586 48.9656L71.839 44.6785L74.0849 39.9741L76.0113 36.4954C76.0638 36.4007 76.0736 36.2882 76.0383 36.1858C75.9727 35.9953 75.7705 35.8884 75.5762 35.9415L75.4657 35.9717C75.3728 35.9971 75.2891 36.0486 75.2245 36.12L71.8722 39.828C71.3337 40.4236 70.9079 41.1119 70.6153 41.8596L68.6596 46.857L67.8181 49.7955C67.6536 50.37 67.5709 50.9649 67.5724 51.5624L67.5774 53.5525Z" fill="#001AFF"/>
<path d="M62.1149 52.3813C62.1199 52.4793 62.1734 52.5685 62.2575 52.6191L62.6115 52.8318C62.7403 52.9091 62.9067 52.8773 62.9978 52.7579L63.3635 52.2785C63.3942 52.2383 63.4141 52.1908 63.4211 52.1407L63.9813 48.15C63.9838 48.1322 63.988 48.1146 63.9937 48.0975L65.257 44.3197L66.1407 42.1326L67.0151 39.9683C67.0213 39.953 67.0287 39.9383 67.0373 39.9243L69.249 36.3263L70.6581 33.5829C70.6733 33.5532 70.6834 33.5212 70.6879 33.4882L70.7138 33.2997C70.7458 33.0659 70.5039 32.8911 70.2919 32.9949L69.8865 33.1934C69.8564 33.2082 69.829 33.228 69.8055 33.252L67.5058 35.601C67.4883 35.6189 67.4731 35.6389 67.4607 35.6606L65.384 39.2826L64.5003 41.4698L63.6166 43.657L61.9462 48.6591C61.9346 48.694 61.9296 48.7307 61.9314 48.7675L62.1149 52.3813Z" fill="#001AFF"/>
<path d="M74.0634 53.4071C74.0639 53.4739 74.0871 53.5386 74.1292 53.5905L74.6169 54.1924C74.7304 54.3324 74.9419 54.3388 75.0635 54.2057L75.3174 53.9283C75.3536 53.8887 75.3783 53.84 75.3889 53.7875L75.6145 52.6679L76.1487 48.9497C76.1521 48.9262 76.1583 48.9032 76.1672 48.8811L76.9631 46.9112L77.6636 44.4836L79.3408 40.635C79.3502 40.6133 79.3622 40.5929 79.3765 40.5741L80.9459 38.5143C81.0001 38.4431 81.0191 38.3511 80.9974 38.2642L80.8534 37.6864C80.814 37.5284 80.6539 37.4322 80.4959 37.4716L80.2244 37.5393C80.1554 37.5565 80.0949 37.5981 80.0542 37.6563L77.555 41.2267C77.5453 41.2405 77.5369 41.2551 77.5297 41.2704L76.132 44.2453L75.3227 46.2484L74.5263 48.2195C74.5177 48.2408 74.5117 48.263 74.5082 48.2856L74.0513 51.288C74.0489 51.3034 74.0478 51.319 74.0479 51.3346L74.0634 53.4071Z" fill="#001AFF"/>
<path d="M86.3328 47.8698C84.4641 44.9923 81.8829 45.2966 80.8622 45.9595C79.8415 46.6223 80.529 49.4923 82.3977 52.3698C84.2664 55.2474 86.6087 57.0427 87.6293 56.3799C88.65 55.7171 88.2015 50.7474 86.3328 47.8698Z" fill="#001AFF"/>
<path d="M86.3543 44.1766C82.9567 44.6541 80.3396 46.0181 80.509 47.2233C80.6784 48.4285 81.6655 50.2595 85.0632 49.782C88.4608 49.3045 92.9824 46.6992 92.8131 45.4941C92.6437 44.2889 89.752 43.699 86.3543 44.1766Z" fill="#001AFF"/>
<path d="M131.922 38.798C133.656 36.6409 132.354 33.4179 129.608 33.0707L113.414 31.023C111.404 30.7687 109.862 32.7709 110.621 34.65L117.167 50.8518C117.926 52.7308 120.426 53.0999 121.696 51.5203L131.922 38.798Z" fill="#001AFF"/>
<path d="M127.221 37.5048L133.153 35.9141L132.486 34.3429L127.221 37.5048Z" fill="#FFD4F1"/>
<ellipse cx="2.28524" cy="2.06409" rx="2.28524" ry="2.06409" transform="matrix(-0.48481 0.87462 0.87462 0.48481 117.875 32.0801)" fill="#FFD4F1"/>
<path d="M88.1055 57.8066L94.6312 53.3326L102.124 49.3946L117.274 43.1825L116.833 42.0914L102.982 47.8471L94.723 51.9506L87.6604 56.6328L88.1055 57.8066Z" fill="#001AFF"/>
<path d="M102.881 36.0225C102.805 35.9573 102.716 35.9086 102.62 35.8794L102.457 35.8297C102.096 35.7203 101.727 35.9717 101.698 36.3469C101.689 36.4503 101.708 36.5541 101.753 36.6477L111.536 57.1338C111.573 57.2108 111.633 57.2744 111.708 57.3158C111.922 57.4344 112.191 57.3407 112.285 57.115L112.315 57.0434C112.348 56.964 112.36 56.8771 112.348 56.7919L111.47 50.5333C111.376 49.8615 111.179 49.2081 110.887 48.5959L107.934 42.4129L106.136 39.3029C105.76 38.6521 105.276 38.07 104.704 37.5814L102.881 36.0225Z" fill="#001AFF"/>
<path d="M92.198 42.3297C92.0834 42.2233 91.9359 42.1591 91.7799 42.1477C91.4215 42.1214 91.1031 42.3753 91.0489 42.7305L91.0383 42.7997C91.0079 42.9994 91.0576 43.2029 91.1768 43.366L93.1775 46.1039C93.4444 46.4691 93.6733 46.8607 93.8605 47.2725L95.7817 51.4984L97.6906 56.3494L98.9209 60.1307C98.9544 60.2337 99.03 60.3176 99.1289 60.3617C99.313 60.4436 99.529 60.3686 99.6227 60.1902L99.676 60.0889C99.7208 60.0036 99.7402 59.9073 99.732 59.8113L99.3064 54.8307C99.2381 54.0308 99.0251 53.2499 98.6778 52.526L96.3567 47.6875L94.7815 45.068C94.4736 44.5558 94.095 44.0897 93.6569 43.6832L92.198 42.3297Z" fill="#001AFF"/>
<path d="M96.7786 39.1319C96.7035 39.0687 96.6018 39.047 96.5074 39.0741L96.1104 39.1879C95.966 39.2293 95.8758 39.3727 95.901 39.5208L96.0021 40.1152C96.0106 40.1651 96.0318 40.212 96.0637 40.2513L98.6002 43.3826C98.6116 43.3966 98.6216 43.4117 98.6302 43.4275L100.531 46.9279L101.528 49.0658L102.515 51.1813C102.522 51.1962 102.528 51.2117 102.532 51.2276L103.655 55.2989L104.7 58.2005C104.712 58.2318 104.728 58.2611 104.749 58.2869L104.87 58.4343C105.019 58.6172 105.312 58.5595 105.38 58.3337L105.511 57.9018C105.521 57.8697 105.525 57.8362 105.524 57.8026L105.374 54.5187C105.373 54.4937 105.369 54.4689 105.361 54.445L104.129 50.456L103.132 48.3181L102.135 46.1802L99.6158 41.5471C99.5982 41.5148 99.5748 41.486 99.5467 41.4623L96.7786 39.1319Z" fill="#001AFF"/>
<path d="M87.8789 47.1724C87.8297 47.1272 87.7666 47.1 87.6999 47.0954L86.9271 47.0416C86.7473 47.0291 86.5984 47.1794 86.6127 47.3591L86.6425 47.734C86.6468 47.7875 86.6655 47.8387 86.6967 47.8823L87.3616 48.8109L89.7167 51.7374C89.7316 51.7559 89.7442 51.7761 89.7542 51.7976L90.6521 53.7233L91.9498 55.8911L93.6207 59.7425C93.6301 59.7642 93.6369 59.7869 93.6408 59.8102L94.077 62.3627C94.0921 62.451 94.1464 62.5276 94.2247 62.571L94.7456 62.8597C94.888 62.9387 95.0675 62.8872 95.1464 62.7448L95.2821 62.5C95.3166 62.4378 95.3274 62.3653 95.3126 62.2957L94.4058 58.033C94.4023 58.0165 94.3974 58.0003 94.3911 57.9847L93.1686 54.9336L92.2556 52.9756L91.3571 51.0488C91.3474 51.028 91.3354 51.0085 91.3211 50.9905L89.437 48.6087C89.4273 48.5965 89.4167 48.585 89.4052 48.5745L87.8789 47.1724Z" fill="#001AFF"/>
<path d="M83.5614 59.9222C86.9404 60.518 88.4782 58.4227 88.6895 57.2242C88.9008 56.0257 86.333 54.5711 82.954 53.9753C79.5751 53.3795 76.6646 53.8681 76.4533 55.0666C76.242 56.2651 80.1825 59.3264 83.5614 59.9222Z" fill="#001AFF"/>
<path d="M86.2483 62.4547C88.2163 59.6441 89.0035 56.7998 88.0066 56.1018C87.0097 55.4038 84.9973 54.8769 83.0293 57.6875C81.0614 60.4981 79.883 65.5817 80.8799 66.2798C81.8768 66.9778 84.2803 65.2653 86.2483 62.4547Z" fill="#001AFF"/>
<path d="M100.759 17.1558C100.459 14.4045 97.2597 13.0462 95.0726 14.7422L82.1738 24.7451C80.5723 25.9871 80.8977 28.4933 82.7632 29.2851L98.8483 36.1129C100.714 36.9047 102.743 35.3978 102.523 33.3831L100.759 17.1558Z" fill="#001AFF"/>
<path d="M96.5231 19.5664L99.5926 14.2473L98.01 13.6079L96.5231 19.5664Z" fill="#FFD4F1"/>
<ellipse cx="2.28524" cy="2.06409" rx="2.28524" ry="2.06409" transform="matrix(0.275637 0.961262 0.961262 -0.275637 86.0781 22.3359)" fill="#FFD4F1"/>
<path d="M83.2188 61.5781L84.6695 53.8001L87.1831 45.7174L93.503 30.6122L92.4199 30.1524L86.6954 44.0166L83.7571 52.758L82.074 61.0628L83.2188 61.5781Z" fill="#001AFF"/>
<path d="M78.262 35.7292C78.162 35.737 78.0647 35.7654 77.9762 35.8127L77.8254 35.8931C77.4934 36.0704 77.4102 36.5091 77.6544 36.7955C77.7217 36.8745 77.8086 36.9343 77.9065 36.9689L99.31 44.5371C99.3904 44.5655 99.4778 44.5682 99.5599 44.5446C99.795 44.4772 99.9193 44.2204 99.8263 43.9942L99.7968 43.9224C99.7641 43.8428 99.7106 43.7735 99.6419 43.7217L94.5958 39.9168C94.0541 39.5084 93.453 39.1855 92.8134 38.9593L86.3537 36.6749L82.883 35.7473C82.1568 35.5532 81.4029 35.4839 80.6534 35.5424L78.262 35.7292Z" fill="#001AFF"/>
<path d="M75.1672 47.7438C75.0109 47.7497 74.8612 47.8086 74.7429 47.9108C74.4709 48.1457 74.4252 48.5503 74.6381 48.8399L74.6795 48.8962C74.7992 49.059 74.9783 49.1677 75.1779 49.1988L78.5286 49.72C78.9756 49.7896 79.4143 49.9046 79.8379 50.0634L84.1845 51.6931L88.9645 53.7735L92.5082 55.5773C92.6047 55.6265 92.7175 55.6323 92.8186 55.5935C93.0067 55.5213 93.1064 55.3155 93.0466 55.1231L93.0126 55.0138C92.9839 54.9218 92.9296 54.84 92.8559 54.7779L89.0332 51.557C88.4192 51.0397 87.7164 50.6381 86.959 50.3718L81.8964 48.5917L78.9303 47.8533C78.3504 47.709 77.753 47.647 77.1559 47.6694L75.1672 47.7438Z" fill="#001AFF"/>
<path d="M76.1462 42.2408C76.0483 42.2492 75.9611 42.3058 75.9135 42.3916L75.7133 42.7529C75.6404 42.8843 75.678 43.0494 75.8006 43.1363L76.2924 43.4851C76.3337 43.5144 76.3819 43.5325 76.4322 43.5378L80.44 43.9584C80.4579 43.9603 80.4756 43.9638 80.4929 43.9689L84.3124 45.0996L86.5291 45.9065L88.7226 46.7048C88.7381 46.7104 88.753 46.7173 88.7673 46.7255L92.4403 48.8102L95.2313 50.1227C95.2614 50.1369 95.2938 50.1459 95.3269 50.1492L95.5162 50.1685C95.751 50.1923 95.9173 49.9444 95.8061 49.7363L95.5935 49.338C95.5777 49.3084 95.557 49.2817 95.5322 49.2591L93.1044 47.0428C93.0859 47.0259 93.0653 47.0115 93.0432 46.9998L89.3509 45.0508L87.1342 44.2439L84.9175 43.4371L79.8602 41.9423C79.8249 41.9319 79.788 41.9282 79.7514 41.9313L76.1462 42.2408Z" fill="#001AFF"/>
<path d="M75.5415 54.2182C75.4747 54.221 75.4109 54.2464 75.3605 54.2903L74.776 54.7987C74.64 54.917 74.641 55.1286 74.7782 55.2456L75.0644 55.4896C75.1052 55.5244 75.1547 55.5474 75.2076 55.5561L76.3343 55.7425L80.0689 56.1466C80.0925 56.1492 80.1158 56.1546 80.1381 56.1627L82.1346 56.8894L84.5851 57.5047L88.49 59.0466C88.512 59.0552 88.5328 59.0665 88.5521 59.0802L90.6654 60.5767C90.7384 60.6284 90.831 60.6442 90.9171 60.6195L91.4896 60.4553C91.6461 60.4105 91.7366 60.2472 91.6917 60.0906L91.6146 59.8216C91.595 59.7533 91.5514 59.6943 91.4917 59.6556L87.8363 57.2826C87.8222 57.2734 87.8073 57.2654 87.7918 57.2588L84.7699 55.9658L82.7397 55.2269L80.742 54.4998C80.7205 54.4919 80.6981 54.4866 80.6753 54.484L77.6588 54.1321C77.6434 54.1303 77.6278 54.1297 77.6122 54.1304L75.5415 54.2182Z" fill="#001AFF"/>
<path d="M81.5048 66.2865C84.3154 64.3185 83.9212 61.7495 83.2231 60.7526C82.5251 59.7557 79.6808 60.5429 76.8702 62.5109C74.0597 64.4789 72.3471 66.8824 73.0452 67.8793C73.7432 68.8762 78.6943 68.2545 81.5048 66.2865Z" fill="#001AFF"/>
<path d="M85.1952 66.1797C84.5994 62.8007 83.1448 60.2329 81.9463 60.4442C80.7478 60.6555 78.9523 61.706 79.5481 65.0849C80.1439 68.4638 82.9053 72.8918 84.1039 72.6804C85.3024 72.4691 85.791 69.5586 85.1952 66.1797Z" fill="#001AFF"/>
<path fill-rule="evenodd" clip-rule="evenodd" d="M22 51C22 78.6142 44.3858 101 72 101C99.6142 101 122 78.6142 122 51H22Z" fill="#FFC9E4"/>
<rect x="43" y="91" width="58" height="10" rx="4" fill="#FFC9E4"/>
</svg>
