<svg width="149" height="108" viewBox="0 0 149 108" fill="none" xmlns="http://www.w3.org/2000/svg">
<path d="M14.9619 37.4142C13.7577 34.9224 15.7515 32.0748 18.505 32.3542L34.7445 34.0018C36.7608 34.2064 37.813 36.5042 36.6505 38.1643L26.6277 52.4783C25.4653 54.1384 22.9463 53.9356 22.0644 52.1109L14.9619 37.4142Z" fill="#001AFF"/>
<path d="M19.8348 37.2113L14.413 34.3271L15.4163 32.9462L19.8348 37.2113Z" fill="#FFD4F1"/>
<ellipse cx="28.8059" cy="36.793" rx="2.28524" ry="2.06409" transform="rotate(74 28.8059 36.793)" fill="#FFD4F1"/>
<path d="M53.3789 65.791L48.0269 59.9637L41.612 54.4411L28.2479 44.9802L28.9228 44.0163L41.1243 52.7403L48.2484 58.5964L54.0766 64.7474L53.3789 65.791Z" fill="#001AFF"/>
<path d="M43.8814 41.2427C43.9704 41.1963 44.068 41.1689 44.168 41.162L44.3386 41.1504C44.714 41.1247 45.017 41.4528 44.9618 41.825C44.9466 41.9277 44.9045 42.0245 44.8399 42.1057L30.6992 59.8659C30.646 59.9327 30.5733 59.9812 30.4913 60.0048C30.2562 60.0722 30.0146 59.9203 29.9736 59.6792L29.9606 59.6027C29.9461 59.5178 29.9548 59.4307 29.9856 59.3503L32.2487 53.4496C32.4916 52.8162 32.8303 52.2238 33.2528 51.693L37.5204 46.3326L39.9721 43.7068C40.4852 43.1574 41.0878 42.6991 41.7544 42.3516L43.8814 41.2427Z" fill="#001AFF"/>
<path d="M52.8724 49.7913C53.008 49.7134 53.1661 49.6841 53.3207 49.708C53.6758 49.7631 53.9289 50.082 53.9019 50.4404L53.8966 50.5102C53.8814 50.7116 53.7871 50.8987 53.6343 51.0308L51.069 53.2484C50.7267 53.5443 50.4157 53.8744 50.1406 54.2335L47.318 57.9189L44.3668 62.2162L42.3175 65.6238C42.2616 65.7166 42.1691 65.7814 42.0628 65.802C41.865 65.8405 41.6714 65.7188 41.6202 65.5239L41.5911 65.4132C41.5667 65.32 41.5694 65.2218 41.599 65.1301L43.134 60.3729C43.3806 59.6088 43.7638 58.8959 44.265 58.2686L47.615 54.0763L49.7391 51.8783C50.1544 51.4485 50.6281 51.0795 51.1464 50.782L52.8724 49.7913Z" fill="#001AFF"/>
<path d="M49.1265 45.6453C49.2139 45.6006 49.3179 45.6023 49.4038 45.65L49.765 45.8502C49.8964 45.923 49.952 46.083 49.8941 46.2217L49.6619 46.778C49.6424 46.8248 49.6112 46.8657 49.5713 46.8968L46.3954 49.3773C46.3812 49.3884 46.368 49.4008 46.3561 49.4143L43.7161 52.3972L42.2638 54.2561L40.8267 56.0955C40.8165 56.1085 40.8075 56.1223 40.7997 56.1367L38.7896 59.8511L37.1182 62.4431C37.1002 62.4712 37.0775 62.4959 37.0512 62.5163L36.9008 62.6329C36.7144 62.7776 36.442 62.6555 36.4259 62.42L36.3952 61.9697C36.3929 61.9362 36.3963 61.9026 36.4054 61.8703L37.2898 58.7041C37.2965 58.68 37.3063 58.6569 37.3189 58.6352L39.4173 55.0258L40.8696 53.1669L42.3219 51.308L45.8187 47.3603C45.8431 47.3328 45.8724 47.3101 45.9052 47.2934L49.1265 45.6453Z" fill="#001AFF"/>
<path d="M55.9891 55.4791C56.0472 55.4461 56.1148 55.4339 56.1808 55.4444L56.9459 55.5658C57.124 55.5941 57.2352 55.774 57.1808 55.9459L57.0675 56.3045C57.0513 56.3556 57.0215 56.4014 56.9813 56.4368L56.1245 57.192L53.1715 59.5137C53.1529 59.5284 53.136 59.5453 53.1214 59.564L51.8133 61.2383L50.0613 63.0587L47.5668 66.4355C47.5528 66.4545 47.5411 66.4751 47.5319 66.4969L46.5328 68.8859C46.4983 68.9685 46.4281 69.0309 46.342 69.0556L45.7695 69.2197C45.613 69.2646 45.4497 69.1741 45.4048 69.0176L45.3277 68.7486C45.3081 68.6802 45.3139 68.6071 45.3439 68.5426L47.1864 64.5931C47.1935 64.5779 47.2019 64.5632 47.2116 64.5494L49.0891 61.8515L50.4192 60.149L51.728 58.4738C51.7421 58.4557 51.7583 58.4394 51.7762 58.4251L54.1479 56.5281C54.16 56.5184 54.173 56.5097 54.1865 56.502L55.9891 55.4791Z" fill="#001AFF"/>
<path d="M57.3313 68.8738C53.9049 68.6942 52.8779 66.3066 52.9416 65.0913C53.0053 63.876 55.8345 63.0363 59.2609 63.2159C62.6872 63.3954 65.4132 64.5262 65.3495 65.7416C65.2858 66.9569 60.7576 69.0533 57.3313 68.8738Z" fill="#001AFF"/>
<path d="M54.1419 70.7383C52.8566 67.5571 52.7294 64.6086 53.8578 64.1527C54.9862 63.6968 57.0655 63.6361 58.3508 66.8174C59.6361 69.9986 59.6407 75.217 58.5123 75.6729C57.3839 76.1288 55.4272 73.9195 54.1419 70.7383Z" fill="#001AFF"/>
<path d="M66.641 16.9034C66.438 14.1433 63.2875 12.6742 61.0426 14.2929L47.8026 23.8395C46.1587 25.0248 46.3964 27.5408 48.2332 28.3973L64.0702 35.7822C65.9069 36.6387 67.9871 35.2035 67.8384 33.1824L66.641 16.9034Z" fill="#001AFF"/>
<path d="M62.3221 19.1645L65.5755 13.9557L64.0161 13.2615L62.3221 19.1645Z" fill="#FFD4F1"/>
<ellipse cx="2.28524" cy="2.06409" rx="2.28524" ry="2.06409" transform="matrix(0.241922 0.970296 0.970296 -0.241922 51.7891 21.5703)" fill="#FFD4F1"/>
<path d="M47.5625 60.6875L49.2838 52.9649L52.078 44.9748L58.9212 30.0993L57.8547 29.602L51.65 43.258L48.4084 51.8915L46.4365 60.1325L47.5625 60.6875Z" fill="#001AFF"/>
<path d="M43.5121 34.6815C43.4118 34.6858 43.3136 34.7108 43.2235 34.7549L43.07 34.8301C42.732 34.9957 42.6336 35.4312 42.8676 35.726C42.9321 35.8073 43.017 35.8701 43.1135 35.9081L64.2398 44.2186C64.3193 44.2498 64.4065 44.2555 64.4893 44.2349C64.7267 44.1757 64.8599 43.9234 64.7748 43.694L64.7479 43.6213C64.718 43.5406 64.6669 43.4694 64.6 43.4153L59.6898 39.4366C59.1627 39.0095 58.5732 38.6658 57.9419 38.4174L51.5658 35.909L48.1297 34.8608C47.4107 34.6415 46.6596 34.546 45.9086 34.5783L43.5121 34.6815Z" fill="#001AFF"/>
<path d="M39.9983 46.5793C39.8419 46.5797 39.6903 46.6334 39.5684 46.7314C39.2883 46.9567 39.2286 47.3594 39.4313 47.6562L39.4707 47.714C39.5846 47.8808 39.7598 47.9958 39.9582 48.0338L43.2886 48.6716C43.7329 48.7567 44.1674 48.887 44.5852 49.0605L48.8723 50.8409L53.5767 53.0868L57.0554 55.0133C57.1501 55.0657 57.2626 55.0755 57.365 55.0403C57.5555 54.9747 57.6624 54.7725 57.6092 54.5781L57.579 54.4677C57.5537 54.3748 57.5022 54.2911 57.4308 54.2265L53.7228 50.8741C53.1272 50.3357 52.4388 49.9098 51.6912 49.6172L46.6938 47.6616L43.7552 46.8201C43.1807 46.6556 42.5859 46.5729 41.9883 46.5744L39.9983 46.5793Z" fill="#001AFF"/>
<path d="M41.1676 41.1149C41.0695 41.1199 40.9803 41.1734 40.9298 41.2575L40.7171 41.6115C40.6397 41.7403 40.6715 41.9067 40.791 41.9978L41.2703 42.3635C41.3106 42.3942 41.358 42.4141 41.4082 42.4211L45.3988 42.9813C45.4167 42.9838 45.4342 42.988 45.4513 42.9937L49.2291 44.257L51.4163 45.1407L53.5806 46.0151C53.5958 46.0213 53.6105 46.0287 53.6245 46.0373L57.2225 48.249L59.9659 49.6581C59.9956 49.6733 60.0276 49.6834 60.0606 49.6879L60.2491 49.7138C60.4829 49.7458 60.6578 49.5038 60.554 49.2919L60.3554 48.8865C60.3406 48.8564 60.3209 48.829 60.2969 48.8055L57.9478 46.5058C57.93 46.4883 57.9099 46.4731 57.8882 46.4607L54.2662 44.384L52.079 43.5003L49.8919 42.6166L44.8897 40.9462C44.8548 40.9346 44.8181 40.9296 44.7814 40.9314L41.1676 41.1149Z" fill="#001AFF"/>
<path d="M40.1437 53.0634C40.0769 53.0639 40.0122 53.0871 39.9603 53.1292L39.3584 53.6169C39.2184 53.7304 39.212 53.9419 39.345 54.0635L39.6225 54.3174C39.6621 54.3536 39.7107 54.3783 39.7633 54.3889L40.8829 54.6145L44.6011 55.1487C44.6246 55.1521 44.6476 55.1583 44.6696 55.1672L46.6396 55.9631L49.0672 56.6636L52.9158 58.3408C52.9375 58.3502 52.9579 58.3622 52.9767 58.3765L55.0365 59.9459C55.1077 60.0001 55.1997 60.0191 55.2865 59.9974L55.8644 59.8534C56.0224 59.814 56.1186 59.6539 56.0792 59.4959L56.0115 59.2244C55.9943 59.1554 55.9527 59.0949 55.8945 59.0542L52.3241 56.555C52.3103 56.5453 52.2957 56.5369 52.2804 56.5297L49.3055 55.132L47.3024 54.3227L45.3312 53.5263C45.31 53.5177 45.2878 53.5117 45.2651 53.5082L42.2628 53.0513C42.2474 53.0489 42.2318 53.0478 42.2162 53.0479L40.1437 53.0634Z" fill="#001AFF"/>
<path d="M45.6829 65.3328C48.5604 63.4641 48.2561 60.8829 47.5933 59.8622C46.9305 58.8415 44.0604 59.529 41.1829 61.3977C38.3054 63.2664 36.51 65.6087 37.1728 66.6293C37.8356 67.65 42.8054 67.2015 45.6829 65.3328Z" fill="#001AFF"/>
<path d="M49.3723 65.3543C48.8948 61.9567 47.5307 59.3396 46.3255 59.509C45.1204 59.6784 43.2893 60.6655 43.7668 64.0632C44.2443 67.4608 46.8496 71.9824 48.0547 71.8131C49.2599 71.6437 49.8498 68.752 49.3723 65.3543Z" fill="#001AFF"/>
<path d="M131.922 45.798C133.656 43.6409 132.354 40.4179 129.608 40.0707L113.414 38.023C111.404 37.7687 109.862 39.7709 110.621 41.65L117.167 57.8518C117.926 59.7308 120.426 60.0999 121.696 58.5203L131.922 45.798Z" fill="#001AFF"/>
<path d="M127.221 44.5048L133.153 42.9141L132.486 41.3429L127.221 44.5048Z" fill="#FFD4F1"/>
<ellipse cx="2.28524" cy="2.06409" rx="2.28524" ry="2.06409" transform="matrix(-0.48481 0.87462 0.87462 0.48481 117.875 39.0801)" fill="#FFD4F1"/>
<path d="M88.1055 64.8066L94.6312 60.3326L102.124 56.3946L117.274 50.1825L116.833 49.0914L102.982 54.8471L94.723 58.9506L87.6604 63.6328L88.1055 64.8066Z" fill="#001AFF"/>
<path d="M102.881 43.0225C102.805 42.9573 102.716 42.9086 102.62 42.8794L102.457 42.8297C102.096 42.7203 101.727 42.9717 101.698 43.3469C101.689 43.4503 101.708 43.5541 101.753 43.6477L111.536 64.1338C111.573 64.2108 111.633 64.2744 111.708 64.3158C111.922 64.4344 112.191 64.3407 112.285 64.115L112.315 64.0434C112.348 63.964 112.36 63.8771 112.348 63.7919L111.47 57.5333C111.376 56.8615 111.179 56.2081 110.887 55.5959L107.934 49.4129L106.136 46.3029C105.76 45.6521 105.276 45.07 104.704 44.5814L102.881 43.0225Z" fill="#001AFF"/>
<path d="M92.198 49.3297C92.0834 49.2233 91.9359 49.1591 91.7799 49.1477C91.4215 49.1214 91.1031 49.3753 91.0489 49.7305L91.0383 49.7997C91.0079 49.9994 91.0576 50.2029 91.1768 50.366L93.1775 53.1039C93.4444 53.4691 93.6733 53.8607 93.8605 54.2725L95.7817 58.4984L97.6906 63.3494L98.9209 67.1307C98.9544 67.2337 99.03 67.3176 99.1289 67.3617C99.313 67.4436 99.529 67.3686 99.6227 67.1902L99.676 67.0889C99.7208 67.0036 99.7402 66.9073 99.732 66.8113L99.3064 61.8307C99.2381 61.0308 99.0251 60.2499 98.6778 59.526L96.3567 54.6875L94.7815 52.068C94.4736 51.5558 94.095 51.0897 93.6569 50.6832L92.198 49.3297Z" fill="#001AFF"/>
<path d="M96.7786 46.1319C96.7035 46.0687 96.6018 46.047 96.5074 46.0741L96.1104 46.1879C95.966 46.2293 95.8758 46.3727 95.901 46.5208L96.0021 47.1152C96.0106 47.1651 96.0318 47.212 96.0637 47.2513L98.6002 50.3826C98.6116 50.3966 98.6216 50.4117 98.6302 50.4275L100.531 53.9279L101.528 56.0658L102.515 58.1813C102.522 58.1962 102.528 58.2117 102.532 58.2276L103.655 62.2989L104.7 65.2005C104.712 65.2318 104.728 65.2611 104.749 65.2869L104.87 65.4343C105.019 65.6172 105.312 65.5595 105.38 65.3337L105.511 64.9018C105.521 64.8697 105.525 64.8362 105.524 64.8026L105.374 61.5187C105.373 61.4937 105.369 61.4689 105.361 61.445L104.129 57.456L103.132 55.3181L102.135 53.1802L99.6158 48.5471C99.5982 48.5148 99.5748 48.486 99.5467 48.4623L96.7786 46.1319Z" fill="#001AFF"/>
<path d="M87.8789 54.1724C87.8297 54.1272 87.7666 54.1 87.6999 54.0954L86.9271 54.0416C86.7473 54.0291 86.5984 54.1794 86.6127 54.3591L86.6425 54.734C86.6468 54.7875 86.6655 54.8387 86.6967 54.8823L87.3616 55.8109L89.7167 58.7374C89.7316 58.7559 89.7442 58.7761 89.7542 58.7976L90.6521 60.7233L91.9498 62.8911L93.6207 66.7425C93.6301 66.7642 93.6369 66.7869 93.6408 66.8102L94.077 69.3627C94.0921 69.451 94.1464 69.5276 94.2247 69.571L94.7456 69.8597C94.888 69.9387 95.0675 69.8872 95.1464 69.7448L95.2821 69.5C95.3166 69.4378 95.3274 69.3653 95.3126 69.2957L94.4058 65.033C94.4023 65.0165 94.3974 65.0003 94.3911 64.9847L93.1686 61.9336L92.2556 59.9756L91.3571 58.0488C91.3474 58.028 91.3354 58.0085 91.3211 57.9905L89.437 55.6087C89.4273 55.5965 89.4167 55.585 89.4052 55.5745L87.8789 54.1724Z" fill="#001AFF"/>
<path d="M83.5614 66.9222C86.9404 67.518 88.4782 65.4227 88.6895 64.2242C88.9008 63.0257 86.333 61.5711 82.954 60.9753C79.5751 60.3795 76.6646 60.8681 76.4533 62.0666C76.242 63.2651 80.1825 66.3264 83.5614 66.9222Z" fill="#001AFF"/>
<path d="M86.2483 69.4547C88.2163 66.6441 89.0035 63.7998 88.0066 63.1018C87.0097 62.4038 84.9973 61.8769 83.0293 64.6875C81.0614 67.4981 79.883 72.5817 80.8799 73.2798C81.8768 73.9778 84.2803 72.2653 86.2483 69.4547Z" fill="#001AFF"/>
<path d="M92.0449 42.8468C93.3354 40.3985 91.4421 37.4831 88.6806 37.6662L72.3935 38.7461C70.3713 38.8802 69.2396 41.1398 70.3433 42.8395L79.8605 57.4946C80.9642 59.1943 83.4888 59.0795 84.4338 57.2866L92.0449 42.8468Z" fill="#001AFF"/>
<path d="M87.1839 42.4752L92.7031 39.7819L91.7486 38.3668L87.1839 42.4752Z" fill="#FFD4F1"/>
<ellipse cx="2.28524" cy="2.06409" rx="2.28524" ry="2.06409" transform="matrix(-0.309017 0.951056 0.951056 0.309017 76.9766 38.9336)" fill="#FFD4F1"/>
<path d="M52.6641 69.8672L58.2162 64.2302L64.8199 58.9349L78.5061 49.9461L77.8652 48.9593L65.3667 57.2521L58.0426 62.856L52.0032 68.7998L52.6641 69.8672Z" fill="#001AFF"/>
<path d="M63.0111 45.665C62.9238 45.6156 62.8273 45.5847 62.7275 45.5744L62.5575 45.5568C62.1831 45.5181 61.8689 45.8353 61.9111 46.2093C61.9227 46.3124 61.9614 46.4106 62.0231 46.494L75.5354 64.7369C75.5862 64.8055 75.6571 64.8566 75.7383 64.883C75.9709 64.9586 76.2176 64.8152 76.267 64.5756L76.2827 64.4996C76.3001 64.4154 76.2945 64.328 76.2665 64.2466L74.2108 58.2705C73.9901 57.629 73.6723 57.0251 73.2686 56.4799L69.1906 50.9738L66.832 48.2641C66.3385 47.697 65.7522 47.218 65.0981 46.8474L63.0111 45.665Z" fill="#001AFF"/>
<path d="M53.7248 53.8958C53.5919 53.8132 53.4349 53.7784 53.2796 53.7969C52.9228 53.8396 52.6587 54.1495 52.6733 54.5086L52.6761 54.5785C52.6843 54.7803 52.772 54.9706 52.9201 55.108L55.4064 57.4138C55.7381 57.7214 56.0375 58.0621 56.2998 58.4307L58.9921 62.2123L61.7915 66.6099L63.7207 70.087C63.7732 70.1817 63.8635 70.2497 63.969 70.274C64.1653 70.3193 64.3631 70.2045 64.421 70.0115L64.4539 69.9019C64.4816 69.8096 64.4824 69.7114 64.456 69.6187L63.0879 64.8108C62.8682 64.0386 62.5101 63.3127 62.0311 62.6684L58.8294 58.3617L56.7833 56.0908C56.3833 55.6469 55.9227 55.2615 55.4151 54.9461L53.7248 53.8958Z" fill="#001AFF"/>
<path d="M57.6155 49.882C57.5297 49.8342 57.4258 49.8323 57.3383 49.8769L56.9703 50.0644C56.8364 50.1326 56.7753 50.2906 56.8283 50.4312L57.041 50.9953C57.0588 51.0427 57.0886 51.0847 57.1274 51.1172L60.2148 53.707C60.2286 53.7186 60.2413 53.7314 60.2528 53.7453L62.787 56.8186L64.1736 58.727L65.5456 60.6155C65.5553 60.6288 65.5638 60.6429 65.5711 60.6576L67.4504 64.4399L69.0303 67.0886C69.0473 67.1173 69.0691 67.1428 69.0948 67.1641L69.2409 67.2859C69.4222 67.437 69.6987 67.3244 69.723 67.0897L69.7694 66.6407C69.7729 66.6073 69.7706 66.5736 69.7627 66.541L68.9893 63.3459C68.9834 63.3216 68.9744 63.2981 68.9626 63.2761L66.9915 59.5955L65.6049 57.6871L64.2184 55.7787L60.8615 51.7114C60.8381 51.683 60.8096 51.6593 60.7774 51.6414L57.6155 49.882Z" fill="#001AFF"/>
<path d="M50.4131 59.4709C50.3562 59.4359 50.289 59.4213 50.2227 59.4294L49.4538 59.5241C49.2749 59.5461 49.1575 59.7221 49.2058 59.8958L49.3066 60.2581C49.3209 60.3098 49.3491 60.3565 49.3881 60.3933L50.218 61.178L53.0881 63.6014C53.1063 63.6167 53.1225 63.6341 53.1365 63.6533L54.3853 65.3722L56.0728 67.2527L58.4479 70.7145C58.4612 70.734 58.4722 70.755 58.4806 70.7771L59.3957 73.1995C59.4274 73.2833 59.4953 73.3481 59.5804 73.3757L60.1469 73.5598C60.3017 73.6101 60.4681 73.5253 60.5184 73.3705L60.6049 73.1043C60.6269 73.0367 60.6237 72.9634 60.5959 72.898L58.8924 68.8866C58.8858 68.871 58.8779 68.8561 58.8687 68.8419L57.0865 66.0801L55.8166 64.3323L54.567 62.6124C54.5536 62.5939 54.538 62.577 54.5206 62.562L52.2166 60.5835C52.2048 60.5734 52.1921 60.5642 52.1789 60.556L50.4131 59.4709Z" fill="#001AFF"/>
<path d="M48.6066 72.8106C52.0371 72.7508 53.1469 70.4005 53.1256 69.1837C53.1044 67.9668 50.3062 67.029 46.8756 67.0888C43.4451 67.1487 40.6813 68.1837 40.7025 69.4005C40.7238 70.6173 45.176 72.8705 48.6066 72.8106Z" fill="#001AFF"/>
<path d="M51.7266 74.7847C53.1222 71.6502 53.3522 68.708 52.2404 68.213C51.1286 67.718 49.0527 67.5848 47.6572 70.7192C46.2616 73.8537 46.0749 79.0688 47.1867 79.5638C48.2985 80.0588 50.3311 77.9191 51.7266 74.7847Z" fill="#001AFF"/>
<path fill-rule="evenodd" clip-rule="evenodd" d="M22 58C22 85.6142 44.3858 108 72 108C99.6142 108 122 85.6142 122 58H22Z" fill="#FFC9E4"/>
<rect x="43" y="98" width="58" height="10" rx="4" fill="#FFC9E4"/>
</svg>
