<svg width="1920" height="713" viewBox="0 0 1920 713" fill="none" xmlns="http://www.w3.org/2000/svg">
<g clip-path="url(#clip0_1231_2363)">
<rect x="-42" y="-101" width="2004" height="916" fill="#FFC9E4"/>
<path d="M821.934 516.93V516.93C1010.58 436.852 1228.43 524.868 1308.51 713.519V713.519V713.519C1119.86 793.596 902.011 705.58 821.934 516.93V516.93Z" fill="white"/>
<path d="M-79.4648 252.383V252.383C30.0692 112.186 232.517 87.3282 372.714 196.862V196.862V196.862C263.18 337.059 60.7324 361.917 -79.4648 252.383V252.383Z" fill="white"/>
<path d="M490.992 524.043V524.043C560.864 359.434 750.949 282.635 915.557 352.508V352.508V352.508C845.685 517.116 655.601 593.915 490.992 524.043V524.043Z" fill="white"/>
<path d="M-151.438 555.15V555.15C-101.984 402.948 61.4903 319.654 213.692 369.107V369.107V369.107C164.239 521.31 0.764659 604.604 -151.438 555.15V555.15Z" fill="white"/>
<path d="M413.781 133.248V133.248C573.975 40.76 778.815 95.6465 871.303 255.841V255.841V255.841C711.109 348.329 506.269 293.442 413.781 133.248V133.248Z" fill="white"/>
<path d="M1136.71 249.477V249.477C1216.61 116.505 1389.17 73.4798 1522.14 153.377V153.377V153.377C1442.25 286.349 1269.68 329.374 1136.71 249.477V249.477Z" fill="white"/>
<path d="M1652.09 181.293V181.293C1783.18 89.5008 1963.86 121.36 2055.66 252.453V252.453V252.453C1924.56 344.245 1743.88 312.386 1652.09 181.293V181.293Z" fill="white"/>
<path d="M1701.73 712.793V712.793C1781.8 598.435 1939.42 570.642 2053.78 650.717V650.717V650.717C1973.71 765.075 1816.09 792.867 1701.73 712.793V712.793Z" fill="white"/>
<path d="M1819.39 474.154V474.154C1943.83 387.023 2115.34 417.265 2202.47 541.701V541.701V541.701C2078.03 628.833 1906.52 598.591 1819.39 474.154V474.154Z" fill="white"/>
<path d="M706.113 639.768V639.768C822.889 608.478 942.92 677.777 974.21 794.553V794.553V794.553C857.434 825.843 737.403 756.543 706.113 639.768V639.768Z" fill="white"/>
<path d="M904.246 215.379V215.379C1048.64 210.337 1169.78 323.302 1174.82 467.695V467.695V467.695C1030.43 472.737 909.288 359.771 904.246 215.379V215.379Z" fill="white"/>
<path d="M236.215 396.1V396.1C311.58 288.468 459.928 262.31 567.56 337.675V337.675V337.675C492.195 445.307 343.847 471.464 236.215 396.1V396.1Z" fill="white"/>
<path d="M1349.73 739.295V739.295C1412.39 576.062 1595.52 494.531 1758.75 557.19V557.19V557.19C1696.09 720.423 1512.97 801.954 1349.73 739.295V739.295Z" fill="white"/>
</g>
<defs>
<clipPath id="clip0_1231_2363">
<rect width="1920" height="713" fill="white"/>
</clipPath>
</defs>
</svg>
