<svg width="651" height="103" viewBox="0 0 651 103" fill="none" xmlns="http://www.w3.org/2000/svg">
<path fill-rule="evenodd" clip-rule="evenodd" d="M0 0C72.4469 44.1908 191.172 73 325.347 73C459.521 73 578.247 44.1908 650.694 0H632.637C623.788 4.79603 614.31 9.4 604.242 13.7852C533.327 44.672 434.729 64 325.347 64C215.964 64 117.367 44.672 46.4514 13.7852C36.383 9.4 26.9054 4.79603 18.0566 0H0Z" fill="#FFC9E4"/>
<circle cx="104.5" cy="53.5" r="16.5" fill="white"/>
<circle cx="179.5" cy="72.5" r="16.5" fill="white"/>
<circle cx="262.5" cy="82.5" r="16.5" fill="white"/>
<circle cx="349.5" cy="86.5" r="16.5" fill="white"/>
<circle cx="436.5" cy="77.5" r="16.5" fill="white"/>
<circle cx="524.5" cy="60.5" r="16.5" fill="white"/>
<circle cx="596.5" cy="39.5" r="16.5" fill="white"/>
</svg>
