<svg width="902" height="892" viewBox="0 0 902 892" fill="none" xmlns="http://www.w3.org/2000/svg">
<path d="M359.747 161.449C369.216 167.833 382.163 163.594 386.024 152.847L391.686 137.084C402.579 106.757 424.251 81.4976 452.57 66.1206L454.934 64.8372C482.817 49.6969 515.43 45.7778 546.107 53.8809C554.372 56.064 562.39 59.0929 570.034 62.9195L581.89 68.8549C601.018 78.4301 617.778 92.1378 630.957 108.986C642.752 124.065 651.428 141.339 656.482 159.804L665.433 192.51C671.608 215.075 675.235 238.262 676.244 261.635L679.541 337.991C679.988 348.347 687.774 356.903 698.042 358.323L724.9 362.036C752.707 365.88 778.58 378.438 798.802 397.907L802.159 401.139C816.488 414.933 826.97 432.229 832.567 451.315L833.318 453.875C838.84 472.709 838.973 492.713 833.699 511.618L831.549 519.326C826.939 535.851 817.174 550.472 803.676 561.061C792.508 569.823 779.223 575.477 765.166 577.453L715.65 584.412C714.006 584.643 712.971 586.305 713.49 587.883L731.784 643.51C736.463 657.739 737.808 672.854 735.715 687.687L735.04 692.473C730.879 721.959 712.203 747.39 685.314 760.185C660.353 772.063 631.282 771.627 606.689 759.006L566.048 738.149L525.366 714.461C524.079 713.712 522.429 714.126 521.648 715.394L476.383 788.914C462.195 811.957 438.472 827.475 411.675 831.241C393.623 833.778 375.034 830.731 358.683 822.672C333.754 810.385 315.358 787.403 309.092 760.326L295.961 703.58C295.688 702.398 294.493 701.675 293.319 701.981L237.823 716.441C225.096 719.757 211.784 720.152 198.883 717.594C175.026 712.865 154.229 698.386 141.512 677.654L138.774 673.189C127.342 654.551 122.39 632.657 124.69 610.914L125.241 605.699C127.737 582.094 137.503 559.846 153.188 542.03L203.939 484.387C214.147 472.792 215.706 455.935 207.799 442.665L166.108 372.702L155.812 353.52C141.676 327.183 134.595 297.321 135.245 267.438C135.626 249.963 138.7 232.468 144.353 215.929L148.173 204.751C154.91 185.042 166.502 167.347 181.881 153.3L183.114 152.174C202.359 134.596 226.841 123.819 252.803 121.498C280.038 119.063 307.281 126.078 329.954 141.363L359.747 161.449Z" fill="#FF88C4"/>
<path d="M392.234 187.677L387.018 198.372C386.207 200.035 384.245 200.784 382.532 200.086C375.765 197.326 369.239 194.008 363.022 190.167L356.134 185.911L335.222 174.655L316.89 166.771L311.684 165.092C302.426 162.107 292.79 160.458 283.067 160.194L280.948 160.136C276.854 160.025 272.703 160.252 268.644 160.8C263.757 161.46 258.882 162.61 254.219 164.215C248.758 166.096 243.533 168.601 238.648 171.682L236.117 173.278C229.509 177.446 223.409 182.369 217.939 187.948L213.563 192.411L211.402 195.151C203.647 204.982 197.116 215.719 191.95 227.125C188.003 235.841 184.874 244.905 182.602 254.2L180.712 261.93L180.605 262.604C178.285 277.134 177.564 291.874 178.456 306.561L178.634 309.495L183.172 339.166L186.952 352.011C189.991 362.338 193.853 372.404 198.501 382.114L206.688 399.215L218.831 418.224C225.096 428.031 232.199 437.277 240.061 445.857L250.99 457.784L263.689 470.235C270.93 477.335 278.697 483.877 286.923 489.806L297.226 497.232L322.424 512.69L366.418 533.84L420.412 553.998L477.868 569.913C484.905 571.862 492.427 569.441 497.006 563.753L574.98 466.9L592.144 442.533L605.106 422.454L617.589 396.86L629.593 365.753L636.957 337.662L639.723 316.834L640.687 307.964C641.858 297.18 642.157 286.319 641.579 275.486L640.885 262.486L637.317 240.502C635.481 229.183 632.68 218.043 628.947 207.201L624.899 195.444C622.601 188.769 619.808 182.273 616.544 176.012C611.464 166.266 605.271 157.142 598.089 148.822L590.004 139.456L573.732 125.183L563.254 118.266C558 114.797 552.461 111.781 546.696 109.249C538.011 105.435 528.873 102.747 519.506 101.251L511.08 99.9056C502.429 99.1544 493.594 99.7021 485.109 101.551C478.696 102.948 472.463 105.071 466.532 107.88L464.946 108.631C457.336 112.235 450.202 116.77 443.71 122.133L435.801 128.666L420.259 145.375L405.591 164.622L392.234 187.677Z" fill="white"/>
<ellipse cx="613.985" cy="637.659" rx="76.096" ry="104.722" transform="rotate(144 613.985 637.659)" fill="white"/>
<ellipse cx="403.482" cy="694.062" rx="76.096" ry="104.722" transform="rotate(-174 403.482 694.062)" fill="white"/>
<ellipse cx="227.889" cy="598.658" rx="68.6208" ry="90.5001" transform="rotate(-164 227.889 598.658)" fill="white"/>
<ellipse cx="720.375" cy="466.931" rx="68.6208" ry="90.5001" transform="rotate(135 720.375 466.931)" fill="white"/>
</svg>
