<svg width="878" height="655" viewBox="0 0 878 655" fill="none" xmlns="http://www.w3.org/2000/svg">
<path d="M0 224.008C0 210.496 12.3618 200.361 25.6115 203.011V203.011C28.0182 203.493 30.3242 204.384 32.4287 205.647L37.4783 208.677C50.8649 216.709 60.2422 230.015 63.3038 245.323L64.3464 250.536L76.0458 244.686V244.686C87.6134 236.975 100.686 231.805 114.399 229.52L118.925 228.765C125.426 227.682 132.005 227.137 138.595 227.137H152.092L154.539 212.45C156.787 198.963 161.553 186.02 168.587 174.295V174.295C173.172 166.655 178.676 159.605 184.977 153.304L188.754 149.527C195.467 142.814 203.218 137.228 211.708 132.982V132.982C218.73 129.472 226.188 126.913 233.886 125.373L239.103 124.33C247.371 122.676 255.783 121.843 264.215 121.843H274.935V109.364C274.935 102.112 275.824 94.8867 277.583 87.8508V87.8508C279.706 79.3609 283.073 71.2317 287.575 63.7276L290.989 58.0375C295.867 49.9081 301.723 42.4076 308.427 35.7039V35.7039C317.239 26.8914 327.415 19.5573 338.562 13.9837L339.281 13.6242C350.904 7.81252 363.389 3.91274 376.253 2.07493L378.607 1.73868C391.323 -0.0778835 404.233 -0.0778841 416.949 1.73868L423.899 2.73161C433.748 4.13862 443.394 6.717 452.631 10.412L456.142 11.8161C463.996 14.9577 471.402 19.1199 478.169 24.1953V24.1953C486.908 30.7494 494.468 38.7418 500.528 47.8307L504.505 53.796C511.319 64.0171 516.74 75.101 520.624 86.7548L526.471 104.294L547.244 108.449C552.88 109.576 558.614 110.144 564.362 110.144H566.037C578.486 110.144 590.838 113.079 601.973 118.647V118.647C606.208 120.764 610.271 123.272 614.059 126.113L616.824 128.187C626.596 135.516 634.164 145.391 638.701 156.732V156.732C641.847 164.599 643.464 172.994 643.464 181.466V197.889V221.288H659.442C664.37 221.288 669.281 221.892 674.062 223.088V223.088C684.662 225.737 694.343 231.218 702.068 238.944L703.189 240.065C706.262 243.138 709.025 246.508 711.436 250.124L712.066 251.069C716.992 258.458 720.611 266.639 722.765 275.254L725.359 285.634V285.634C736.802 278.005 750.247 273.935 764 273.935H764.949C769.742 273.935 774.524 274.408 779.225 275.348L780.617 275.627C794.277 278.359 807.235 284.448 818.113 293.15V293.15C826.331 299.725 833.426 307.804 838.841 316.828L839.187 317.405C845.144 327.334 849.18 338.295 851.083 349.716L851.219 350.529C853.092 361.769 852.907 373.256 850.672 384.43V384.43C849.033 392.625 846.309 400.566 842.571 408.041L836.503 420.177L848.203 437.726L852.081 443.544C857.257 451.306 861.059 459.901 863.321 468.952V468.952C864.935 475.409 865.752 482.038 865.752 488.693V502.072V519.621L877.451 654.163H304.183H0V224.008Z" fill="white"/>
</svg>
