<svg width="1181" height="952" viewBox="0 0 1181 952" fill="none" xmlns="http://www.w3.org/2000/svg">
<path d="M332.645 547.869L323.515 529.609C317.979 518.536 315.096 506.326 315.096 493.946V493.946C315.096 475.839 321.259 458.271 332.571 444.131L332.866 443.761C336.607 439.085 340.855 434.838 345.531 431.097L349.722 427.744C361.642 418.208 375.156 410.856 389.637 406.029L402.841 401.627V400.639C402.841 378.319 408.907 356.42 420.39 337.281V337.281L437.939 313.882L434.493 305.267C429.041 291.637 426.24 277.092 426.24 262.412V256.807C426.24 248.117 427.641 239.483 430.389 231.239L430.555 230.742C435.375 216.282 444.272 203.522 456.175 194V194C463.459 188.172 471.717 183.68 480.567 180.73L485.565 179.064C496.64 175.372 508.237 173.49 519.911 173.49H549.083L560.797 153.967C564.672 147.508 569.325 141.548 574.652 136.222V136.222C584.765 126.108 597.095 118.488 610.664 113.966L625.129 109.144L627.981 86.3273C629.941 70.6466 636.204 55.8146 646.076 43.4748V43.4748C651.577 36.5981 658.107 30.6117 665.434 25.7268L672.011 21.3421C683.568 13.6376 696.363 7.97738 709.838 4.60869L711.608 4.1661C727.848 0.106054 744.787 -0.297034 761.202 2.98593L766.396 4.02468C784.897 7.72485 801.889 16.8185 815.23 30.1597V30.1597C824.877 39.8063 832.346 51.4064 837.136 64.1801L847.417 91.5948L870.815 97.4444L884.53 102.016C898.329 106.616 910.027 115.999 917.51 128.472V128.472C921.443 135.027 924.108 142.263 925.364 149.804L929.312 173.49L943.627 170.627C953.558 168.641 963.662 167.641 973.79 167.641H989.359C999.915 167.641 1010.36 169.785 1020.06 173.943V173.943C1037.01 181.205 1050.83 194.238 1059.07 210.727L1062.89 218.368C1067.41 227.396 1070.55 237.049 1072.21 247.007L1075.55 267.085H1094.16C1097.33 267.085 1100.49 267.597 1103.5 268.601V268.601C1111.75 271.35 1118.36 277.589 1121.59 285.658L1128.2 302.183L1138.21 292.17C1143.21 287.179 1148.97 283.025 1155.28 279.868L1167.15 273.934C1168.46 273.277 1169.91 272.935 1171.38 272.935V272.935C1176.61 272.935 1180.85 277.172 1180.85 282.4V951.497H67.0292C36.4798 951.497 9.8551 930.694 2.46559 901.052V901.052C0.181371 891.889 -0.126326 882.345 1.56295 873.054L6.122 847.979C9.10255 831.586 17.0113 816.492 28.7929 804.71V804.71C36.1617 797.342 44.869 791.446 54.4475 787.341L80.8954 776.007L78.4733 763.896C76.2071 752.565 76.0193 740.917 77.919 729.519V729.519C79.8857 717.718 84.0554 706.394 90.2104 696.135L93.5061 690.642C96.785 685.177 100.746 680.152 105.293 675.686V675.686C108.662 672.378 112.335 669.394 116.264 666.775L122.58 662.564C126.122 660.203 129.896 658.211 133.845 656.62V656.62C148.671 650.646 165.228 650.604 180.084 656.504L186.403 659.013L209.802 670.712L230.425 658.339C236.144 654.907 242.339 652.341 248.809 650.724V650.724C257.806 648.474 267.17 648.101 276.318 649.625L297.547 653.163V623.915V623.915C297.547 604.93 303.705 586.456 315.096 571.268V571.268L332.645 547.869Z" fill="white"/>
</svg>
