<svg width="1920" height="1199" viewBox="0 0 1920 1199" fill="none" xmlns="http://www.w3.org/2000/svg">
<g clip-path="url(#clip0_1224_2333)">
<path d="M-63.9888 -4.46756L1369.87 -31.9431L1400.38 18.1255C1449.56 98.8383 1429.49 200.212 1354.44 250.187V250.187C1338.09 261.069 1319.83 268.977 1300.45 273.567L1254.99 284.333C1163.68 305.958 1066.22 297.887 976.576 261.276L930.043 242.272L856.136 284.783C800.507 316.781 733.234 325.082 668.791 307.9V307.9C651.696 303.342 635.029 297.049 619.059 289.124L573.739 266.631V266.631C559.622 321.461 517.418 363.499 462.27 377.66L434.688 384.743C392.91 395.471 348.151 393.256 306.237 378.387L275.306 367.413C221.811 348.435 174.196 314.653 138.291 270.203V270.203L124.793 285.649C95.7603 318.869 56.3164 341.455 12.1681 350.138L-11.5905 354.811C-21.7754 356.814 -32.3526 356.888 -42.7787 355.028L-86.5722 347.215C-113.149 342.474 -130.944 316.027 -124.713 290.529V290.529L-63.9888 -4.46756Z" fill="white"/>
<path d="M2012.88 -37.1498L1067.04 -66.9467L1055.43 53.586C1052.04 88.9006 1082.73 116.218 1117.93 109.214V109.214C1138.25 105.172 1158.51 112.632 1170.45 128.547L1240.51 221.944L1323.51 260.93C1352.09 274.356 1384.4 279.137 1416.61 274.709V274.709C1457.87 269.038 1497.47 252.671 1531.39 227.276L1538.51 221.944L1558.24 257.962C1578.13 294.258 1611.1 321.347 1650.94 334.139V334.139C1687.51 345.877 1727.66 344.865 1764.98 331.264L1770.48 329.259C1798.55 319.03 1824.23 302.638 1845.52 281.352L1867.73 259.15L1905.23 294.273C1918.59 306.782 1935.45 315.082 1953.87 318.214L1973.16 321.494C1996.24 325.419 2020.35 316.635 2036.35 298.472V298.472C2050.13 282.835 2056.21 262.142 2052.82 242.402L2050.75 230.356L2012.88 -37.1498Z" fill="white"/>
<path d="M814.211 552.737L1188.16 539L1568.21 552.737L1578.7 669.973C1582.89 716.886 1583.02 764.073 1579.08 811.007L1568.21 940.421L1188.16 960.263L814.211 940.421L802 746.579L814.211 552.737Z" fill="#FFC9E4"/>
<path d="M815.734 555.787L1194.26 783.208L1566.68 555.787" stroke="#801449" stroke-width="3.05263"/>
<path d="M815.734 938.894L1069.1 708.42M1566.68 941.946L1319.42 708.42" stroke="#801449" stroke-width="3.05263"/>
<path fill-rule="evenodd" clip-rule="evenodd" d="M1191.68 745.076V846.939L1207.28 830.641L1227.34 807.971L1234.47 798.337C1238.62 792.723 1242.2 786.711 1245.17 780.388V780.388L1247.52 773.934C1248.92 770.102 1249.83 766.113 1250.25 762.056V762.056C1250.57 758.892 1250.59 755.704 1250.3 752.537L1249.62 745.076H1191.68Z" fill="#FF00AE"/>
<path d="M1191.68 745.076L1197.26 735.732C1199.46 732.042 1202.41 728.85 1205.91 726.359L1208.17 724.751C1211.94 722.069 1216.46 720.628 1221.08 720.628V720.628C1225.17 720.628 1229.19 721.755 1232.68 723.884L1234.18 724.8C1238.46 727.406 1241.97 731.09 1244.38 735.482L1249.62 745.076H1191.68Z" fill="#FF00AE"/>
<path fill-rule="evenodd" clip-rule="evenodd" d="M1191.68 745.076V846.939L1177.97 830.815L1157.3 806.627L1150.78 798.16C1146.55 792.669 1142.97 786.705 1140.11 780.388V780.388L1137.85 773.964C1136.5 770.112 1135.61 766.111 1135.21 762.047V762.047C1134.9 758.889 1134.88 755.708 1135.16 752.547L1135.81 745.076H1191.68Z" fill="#FF00AE"/>
<path d="M1191.68 745.076L1186.2 735.542C1184.15 731.976 1181.38 728.875 1178.07 726.434L1175.71 724.697C1172.13 722.054 1167.79 720.628 1163.34 720.628V720.628C1159.39 720.628 1155.53 721.747 1152.2 723.854L1150.59 724.868C1146.54 727.429 1143.23 731.009 1140.99 735.25L1135.81 745.076H1191.68Z" fill="#FF00AE"/>
</g>
<defs>
<clipPath id="clip0_1224_2333">
<rect width="1920" height="1199" fill="white"/>
</clipPath>
</defs>
</svg>
