<svg width="1924" height="1144" viewBox="0 0 1924 1144" fill="none" xmlns="http://www.w3.org/2000/svg">
<g clip-path="url(#clip0_1208_1500)">
<rect width="1924" height="1144" fill="#FFEAF5"/>
<path d="M-68.9888 -8.19084L1364.87 -42.2176L1408.89 47.2582C1452.3 135.484 1430.94 239.972 1357.04 300.914V300.914C1335.72 318.496 1310.98 331.583 1284.25 339.422L1252.87 348.626C1160.82 375.623 1060.78 366.034 973.396 321.836L925.043 297.38L849.708 351.045C796.007 389.299 726.497 399.361 662.324 378.172V378.172C646.218 372.854 630.747 365.659 616.237 356.741L568.739 327.548V327.548C554.645 395.338 504.658 449.979 438.663 470.967V470.967C392.001 485.807 340.3 483.112 294.552 463.013L267.577 451.161C215.93 428.469 171.827 391.054 140.979 343.759L133.291 331.971L113.547 359.95C88.723 395.128 51.9593 420.055 9.73297 430.341L-11.8055 435.587C-25.0923 438.823 -39.0427 438.951 -52.5811 435.96L-81.5521 429.559C-114.558 422.267 -136.156 389.792 -129.713 357.143V357.143L-68.9888 -8.19084Z" fill="white"/>
<path d="M2022.26 -6.55744L1076.41 -43.4589L1063.4 123.979C1060.77 157.77 1091.49 183.529 1124.67 175.355V175.355C1146 170.099 1167.89 178.939 1179.01 197.3L1249.89 314.314L1332.3 362.256C1360.97 378.935 1394.89 384.954 1428.22 379.279V379.279C1467.82 372.538 1504.85 354.211 1534.58 326.652L1547.88 314.314L1573.75 372.771C1589.63 408.682 1618.86 436.777 1655.47 451.33V451.33C1694.62 466.897 1738.95 465.678 1778.23 447.954L1783.86 445.413C1809.26 433.948 1831.7 416.61 1849.25 394.881L1877.1 360.391L1916.62 406.222C1928.6 420.107 1944.84 429.661 1962.97 433.48L1970.42 435.049C2000.32 441.346 2031.64 428.887 2049.69 403.512V403.512C2061.16 387.393 2066.08 367.676 2063.41 348.473L2060.12 324.731L2022.26 -6.55744Z" fill="white"/>
<path d="M708.957 588.826L1167 572L1632.52 588.826L1645.36 732.428C1650.5 789.89 1650.66 847.689 1645.83 905.178L1632.52 1063.7L1167 1088L708.957 1063.7L694 826.261L708.957 588.826Z" fill="#FFC9E4"/>
<path d="M710.824 592.564L1174.48 871.13L1630.65 592.564" stroke="#801449" stroke-width="3.73913"/>
<path d="M710.824 1061.83L1021.17 779.521M1630.65 1065.56L1327.78 779.521" stroke="#801449" stroke-width="3.73913"/>
<path fill-rule="evenodd" clip-rule="evenodd" d="M1171.32 824.42V949.191L1190.43 929.228L1214.99 901.46L1223.72 889.659C1228.81 882.783 1233.2 875.418 1236.83 867.674V867.674L1239.71 859.768C1241.43 855.075 1242.55 850.188 1243.06 845.219V845.219C1243.46 841.344 1243.48 837.439 1243.12 833.559L1242.29 824.42H1171.32Z" fill="#FF00AE"/>
<path d="M1171.32 824.42L1178.15 812.975C1180.85 808.454 1184.45 804.545 1188.74 801.494L1191.51 799.525C1196.13 796.24 1201.66 794.474 1207.33 794.474V794.474C1212.34 794.474 1217.26 795.854 1221.54 798.462L1223.38 799.585C1228.62 802.776 1232.92 807.288 1235.86 812.669L1242.29 824.42H1171.32Z" fill="#FF00AE"/>
<path fill-rule="evenodd" clip-rule="evenodd" d="M1171.32 824.42V949.191L1154.53 929.44L1129.21 899.814L1121.21 889.442C1116.03 882.716 1111.65 875.411 1108.15 867.674V867.674L1105.38 859.805C1103.72 855.086 1102.64 850.185 1102.14 845.208V845.208C1101.76 841.339 1101.74 837.443 1102.08 833.571L1102.88 824.42H1171.32Z" fill="#FF00AE"/>
<path d="M1171.32 824.42L1164.6 812.742C1162.09 808.375 1158.7 804.576 1154.64 801.586L1151.76 799.459C1147.37 796.221 1142.06 794.474 1136.6 794.474V794.474C1131.77 794.474 1127.04 795.844 1122.96 798.425L1120.99 799.667C1116.03 802.805 1111.97 807.19 1109.23 812.384L1102.88 824.42H1171.32Z" fill="#FF00AE"/>
</g>
<defs>
<clipPath id="clip0_1208_1500">
<rect width="1924" height="1144" fill="white"/>
</clipPath>
</defs>
</svg>
