<svg width="515" height="640" viewBox="0 0 515 640" fill="none" xmlns="http://www.w3.org/2000/svg">
<rect x="117.996" width="405.3" height="567.538" transform="rotate(12 117.996 0)" fill="white"/>
<rect x="432.637" y="83.1602" width="62.7473" height="28.6623" transform="rotate(12 432.637 83.1602)" fill="#FF00AE"/>
<rect x="120.566" y="366.48" width="127.044" height="78.2404" transform="rotate(12 120.566 366.48)" fill="#FF00AE"/>
<rect x="191.594" y="32.3203" width="125.495" height="73.5925" transform="rotate(12 191.594 32.3203)" fill="#FF00AE"/>
<rect x="132.41" y="20.1387" width="60.4233" height="46.4795" transform="rotate(12 132.41 20.1387)" fill="#FFC9E4"/>
<rect x="124.359" y="58.0254" width="60.4233" height="150.284" transform="rotate(12 124.359 58.0254)" fill="#FF00AE"/>
<rect x="314.348" y="58.4141" width="120.847" height="104.579" transform="rotate(12 314.348 58.4141)" fill="#FFC9E4"/>
<rect x="241.176" y="406.373" width="120.072" height="64.2966" transform="rotate(12 241.176 406.373)" fill="#FFC9E4"/>
<rect x="358.625" y="431.336" width="62.7473" height="64.2966" transform="rotate(12 358.625 431.336)" fill="#FF00AE"/>
<rect x="204.145" y="327.227" width="53.4514" height="80.5644" transform="rotate(12 204.145 327.227)" fill="#FFC9E4"/>
<rect x="289.77" y="181.488" width="96.0575" height="168.101" transform="rotate(12 289.77 181.488)" fill="#FFC9E4"/>
<rect x="195.809" y="161.518" width="96.0575" height="168.101" transform="rotate(12 195.809 161.518)" fill="#FF00AE"/>
<path d="M370.399 90.9185L430.639 103.723L413.002 186.694L393.633 268.505L335.288 256.104L345.53 200.467L322.188 170.559L356.321 149.699L370.399 90.9185Z" fill="#FF00AE"/>
<rect x="346.465" y="242.641" width="51.1274" height="79.0151" transform="rotate(12 346.465 242.641)" fill="#FFC9E4"/>
<rect x="396.797" y="251.754" width="62.7473" height="79.0151" transform="rotate(12 396.797 251.754)" fill="#FF00AE"/>
<path d="M247.644 64.828L187.405 52.0237L169.769 134.995L154.188 217.611L212.533 230.013L231.286 167.87L264.485 155.128L239.661 128.468L247.644 64.828Z" fill="#FFC9E4"/>
<rect x="153.098" y="213.418" width="68.9445" height="53.4514" transform="rotate(12 153.098 213.418)" fill="#FF00AE"/>
<rect x="93.918" y="201.236" width="60.4233" height="53.4514" transform="rotate(12 93.918 201.236)" fill="#FFC9E4"/>
<path d="M204 270.172L143.76 257.367L126.124 340.339L110.544 422.955L168.889 435.357L187.641 373.214L220.84 360.471L196.017 333.812L204 270.172Z" fill="#FFC9E4"/>
<path d="M326.751 296.266L386.99 309.07L369.354 392.042L349.985 473.853L291.639 461.451L301.881 405.815L278.54 375.907L312.672 355.047L326.751 296.266Z" fill="#FF00AE"/>
<rect x="81.1914" y="261.096" width="60.4233" height="152.608" transform="rotate(12 81.1914 261.096)" fill="#FF00AE"/>
<rect x="49.4688" y="410.367" width="60.4233" height="20.9158" transform="rotate(12 49.4688 410.367)" fill="#FFC9E4"/>
<rect x="301.254" y="123.738" width="59.6486" height="65.0712" transform="rotate(12 301.254 123.738)" fill="#FF00AE"/>
<rect x="239.359" y="128.006" width="59.6486" height="41.8315" transform="rotate(12 239.359 128.006)" fill="#FFC9E4"/>
<path fill-rule="evenodd" clip-rule="evenodd" d="M152.142 217.572L169.758 134.695L183.111 151.393L199.983 174.257L205.933 184.039C209.114 189.271 211.717 194.833 213.696 200.627L215.072 206.627C215.821 209.893 216.067 213.254 215.801 216.594C215.587 219.281 215.043 221.932 214.182 224.486L212.21 230.34L152.142 217.572Z" fill="#FF00AE"/>
<path d="M152.142 217.572L155.717 225.155C157.75 229.466 160.652 233.311 164.24 236.448L165.318 237.39C169.055 240.658 173.566 242.915 178.422 243.947C182.672 244.85 187.072 244.79 191.296 243.771L191.938 243.616C197.32 242.318 202.274 239.646 206.315 235.861L212.21 230.34L152.142 217.572Z" fill="#FFC9E4"/>
<path fill-rule="evenodd" clip-rule="evenodd" d="M152.142 217.572L169.758 134.695L152.757 144.794L127.142 159.917L118.49 165.648C113.438 168.995 108.832 172.969 104.782 177.477L101.199 182.384C99.2188 185.096 97.6516 188.087 96.5483 191.258C95.6656 193.796 95.0868 196.429 94.8242 199.103L94.2195 205.26L152.142 217.572Z" fill="#FFC9E4"/>
<path d="M152.142 217.572L145.814 223.221C142.406 226.263 138.405 228.564 134.063 229.98L132.573 230.465C128.029 231.947 123.175 232.204 118.5 231.21C114.402 230.339 110.561 228.532 107.277 225.931L106.661 225.443C102.5 222.148 99.2708 217.824 97.291 212.9L94.2195 205.26L152.142 217.572Z" fill="#FF00AE"/>
<path fill-rule="evenodd" clip-rule="evenodd" d="M187.374 51.8188L169.758 134.695L188.748 124.873L213.462 110.848L222.875 104.331C227.91 100.846 232.55 96.8236 236.714 92.335L240.412 87.4136C242.424 84.7349 244.016 81.7643 245.131 78.6049C246.029 76.0628 246.61 73.42 246.863 70.736L247.441 64.5866L187.374 51.8188Z" fill="#FF00AE"/>
<path d="M187.374 51.8188L193.724 46.3459C197.335 43.2341 201.549 40.9018 206.104 39.4953L207.472 39.0729C212.215 37.6081 217.254 37.3809 222.109 38.413C226.36 39.3165 230.354 41.1606 233.799 43.8099L234.323 44.2124C238.712 47.5877 242.15 52.0438 244.302 57.1452L247.441 64.5866L187.374 51.8188Z" fill="#FFC9E4"/>
<path fill-rule="evenodd" clip-rule="evenodd" d="M187.374 51.8188L169.758 134.695L158.334 118.555L141.085 94.3209L135.512 85.5656C132.258 80.4537 129.667 74.9494 127.8 69.1846L126.523 63.2439C125.817 59.961 125.602 56.5916 125.884 53.2456C126.11 50.5682 126.652 47.9271 127.5 45.3775L129.451 39.507L187.374 51.8188Z" fill="#FFC9E4"/>
<path d="M187.374 51.8188L183.89 44.0841C182.015 39.9196 179.295 36.1897 175.904 33.1302L174.741 32.0805C171.192 28.879 166.862 26.6699 162.187 25.6762C158.089 24.8052 153.845 24.8934 149.787 25.934L149.026 26.1292C143.885 27.4475 139.176 30.0834 135.365 33.7768L129.451 39.507L187.374 51.8188Z" fill="#FF00AE"/>
<path fill-rule="evenodd" clip-rule="evenodd" d="M108.45 423.109L126.066 340.232L139.42 356.93L156.292 379.794L162.242 389.577C165.423 394.808 168.026 400.37 170.004 406.164L171.381 412.164C172.13 415.43 172.376 418.791 172.11 422.131C171.895 424.818 171.352 427.469 170.491 430.024L168.518 435.877L108.45 423.109Z" fill="#FF00AE"/>
<path d="M108.45 423.109L112.026 430.692C114.059 435.003 116.96 438.848 120.549 441.985L121.626 442.927C125.364 446.195 129.875 448.452 134.73 449.484C138.981 450.387 143.38 450.327 147.605 449.308L148.247 449.154C153.629 447.855 158.583 445.183 162.624 441.398L168.518 435.877L108.45 423.109Z" fill="#FFC9E4"/>
<path fill-rule="evenodd" clip-rule="evenodd" d="M108.45 423.109L126.066 340.232L109.065 350.331L83.4504 365.454L74.7983 371.186C69.7467 374.532 65.1406 378.507 61.0905 383.014L57.5075 387.921C55.5274 390.633 53.9602 393.624 52.8569 396.795C51.9741 399.333 51.3954 401.966 51.1328 404.64L50.5281 410.797L108.45 423.109Z" fill="#FFC9E4"/>
<path d="M108.45 423.109L102.122 428.758C98.7149 431.8 94.7136 434.101 90.3712 435.517L88.8814 436.002C84.3375 437.484 79.4831 437.741 74.8082 436.747C70.7103 435.876 66.8693 434.069 63.5853 431.468L62.9692 430.98C58.8088 427.685 55.5794 423.362 53.5996 418.437L50.5281 410.797L108.45 423.109Z" fill="#FF00AE"/>
<path fill-rule="evenodd" clip-rule="evenodd" d="M143.682 257.356L126.066 340.232L145.057 330.41L169.77 316.385L179.184 309.868C184.218 306.383 188.858 302.361 193.023 297.872L196.72 292.951C198.733 290.272 200.325 287.301 201.44 284.142C202.337 281.6 202.919 278.957 203.171 276.273L203.75 270.124L143.682 257.356Z" fill="#FF00AE"/>
<path d="M143.682 257.356L150.033 251.883C153.643 248.771 157.858 246.439 162.412 245.032L163.78 244.61C168.523 243.145 173.562 242.918 178.418 243.95C182.669 244.854 186.663 246.698 190.108 249.347L190.631 249.749C195.02 253.125 198.459 257.581 200.611 262.682L203.75 270.124L143.682 257.356Z" fill="#FFC9E4"/>
<path fill-rule="evenodd" clip-rule="evenodd" d="M143.682 257.356L126.066 340.232L114.643 324.092L97.3933 299.858L91.8204 291.103C88.5667 285.991 85.9754 280.486 84.1087 274.722L82.8315 268.781C82.1258 265.498 81.9104 262.129 82.1924 258.783C82.4181 256.105 82.9605 253.464 83.8082 250.915L85.76 245.044L143.682 257.356Z" fill="#FFC9E4"/>
<path d="M143.682 257.356L140.199 249.621C138.323 245.457 135.604 241.727 132.213 238.667L131.049 237.618C127.501 234.416 123.171 232.207 118.496 231.213C114.398 230.342 110.154 230.431 106.096 231.471L105.335 231.666C100.194 232.985 95.485 235.621 91.6735 239.314L85.76 245.044L143.682 257.356Z" fill="#FF00AE"/>
<rect x="430.637" y="103.725" width="60.4233" height="168.875" transform="rotate(12 430.637 103.725)" fill="#FFC9E4"/>
<path fill-rule="evenodd" clip-rule="evenodd" d="M393.103 268.787L410.719 185.91L424.072 202.608L440.944 225.472L446.894 235.254C450.075 240.486 452.678 246.047 454.657 251.842L456.033 257.842C456.782 261.107 457.028 264.469 456.762 267.809C456.548 270.496 456.004 273.147 455.143 275.701L453.17 281.554L393.103 268.787Z" fill="#FF00AE"/>
<path d="M393.103 268.787L396.678 276.369C398.711 280.681 401.613 284.526 405.201 287.663L406.279 288.605C410.016 291.873 414.527 294.13 419.383 295.162C423.633 296.065 428.032 296.005 432.257 294.986L432.899 294.831C438.281 293.533 443.235 290.861 447.276 287.076L453.17 281.554L393.103 268.787Z" fill="#FFC9E4"/>
<path fill-rule="evenodd" clip-rule="evenodd" d="M393.103 268.787L410.719 185.91L393.718 196.008L368.103 211.132L359.451 216.863C354.399 220.21 349.793 224.184 345.743 228.691L342.16 233.599C340.18 236.311 338.613 239.302 337.509 242.473C336.626 245.011 336.048 247.644 335.785 250.318L335.18 256.475L393.103 268.787Z" fill="#FFC9E4"/>
<path d="M393.103 268.787L386.774 274.436C383.367 277.477 379.366 279.779 375.024 281.194L373.534 281.68C368.99 283.162 364.135 283.419 359.461 282.425C355.363 281.554 351.522 279.747 348.238 277.146L347.622 276.658C343.461 273.362 340.232 269.039 338.252 264.115L335.18 256.475L393.103 268.787Z" fill="#FF00AE"/>
<path fill-rule="evenodd" clip-rule="evenodd" d="M428.335 103.034L410.719 185.91L429.709 176.087L454.423 162.063L463.836 155.546C468.871 152.061 473.511 148.038 477.675 143.55L481.373 138.628C483.385 135.95 484.977 132.979 486.092 129.82C486.99 127.278 487.571 124.635 487.824 121.951L488.402 115.801L428.335 103.034Z" fill="#FF00AE"/>
<path d="M428.335 103.034L434.685 97.5607C438.296 94.4489 442.51 92.1167 447.065 90.7101L448.433 90.2877C453.176 88.8229 458.214 88.5958 463.07 89.6278C467.321 90.5314 471.315 92.3755 474.76 95.0247L475.284 95.4272C479.673 98.8025 483.111 103.259 485.263 108.36L488.402 115.801L428.335 103.034Z" fill="#FFC9E4"/>
<path fill-rule="evenodd" clip-rule="evenodd" d="M428.335 103.034L410.719 185.91L399.295 169.77L382.046 145.536L376.473 136.78C373.219 131.669 370.628 126.164 368.761 120.399L367.484 114.459C366.778 111.176 366.563 107.806 366.845 104.46C367.07 101.783 367.613 99.142 368.46 96.5924L370.412 90.7218L428.335 103.034Z" fill="#FFC9E4"/>
<path d="M428.335 103.034L424.851 95.2989C422.976 91.1345 420.256 87.4046 416.865 84.3451L415.702 83.2954C412.153 80.0938 407.823 77.8847 403.148 76.891C399.05 76.02 394.806 76.1082 390.748 77.1488L389.987 77.3441C384.846 78.6624 380.137 81.2982 376.326 84.9916L370.412 90.7218L428.335 103.034Z" fill="#FF00AE"/>
<rect x="386.992" y="309.07" width="60.4233" height="168.875" transform="rotate(12 386.992 309.07)" fill="#FFC9E4"/>
<path fill-rule="evenodd" clip-rule="evenodd" d="M349.415 474.328L367.031 391.451L380.385 408.149L397.257 431.013L403.206 440.795C406.388 446.027 408.991 451.588 410.969 457.383L412.346 463.383C413.095 466.648 413.341 470.01 413.074 473.35C412.86 476.037 412.317 478.688 411.456 481.242L409.483 487.095L349.415 474.328Z" fill="#FF00AE"/>
<path d="M349.415 474.328L352.991 481.91C355.023 486.222 357.925 490.067 361.514 493.204L362.591 494.146C366.329 497.414 370.839 499.671 375.695 500.703C379.946 501.606 384.345 501.546 388.57 500.527L389.211 500.372C394.594 499.074 399.547 496.402 403.588 492.617L409.483 487.095L349.415 474.328Z" fill="#FFC9E4"/>
<path fill-rule="evenodd" clip-rule="evenodd" d="M349.415 474.328L367.031 391.451L350.03 401.549L324.415 416.673L315.763 422.404C310.712 425.751 306.105 429.725 302.055 434.232L298.472 439.14C296.492 441.852 294.925 444.843 293.822 448.014C292.939 450.552 292.36 453.185 292.098 455.859L291.493 462.016L349.415 474.328Z" fill="#FFC9E4"/>
<path d="M349.415 474.328L343.087 479.977C339.68 483.018 335.678 485.32 331.336 486.736L329.846 487.221C325.302 488.703 320.448 488.96 315.773 487.966C311.675 487.095 307.834 485.288 304.55 482.687L303.934 482.199C299.774 478.903 296.544 474.58 294.564 469.656L291.493 462.016L349.415 474.328Z" fill="#FF00AE"/>
<path fill-rule="evenodd" clip-rule="evenodd" d="M384.647 308.575L367.031 391.451L386.022 381.628L410.735 367.604L420.149 361.087C425.183 357.602 429.823 353.579 433.987 349.091L437.685 344.169C439.698 341.491 441.289 338.52 442.405 335.361C443.302 332.819 443.884 330.176 444.136 327.492L444.715 321.342L384.647 308.575Z" fill="#FF00AE"/>
<path d="M384.647 308.575L390.998 303.102C394.608 299.99 398.823 297.658 403.377 296.251L404.745 295.829C409.488 294.364 414.527 294.137 419.383 295.169C423.633 296.072 427.628 297.916 431.073 300.566L431.596 300.968C435.985 304.344 439.424 308.8 441.576 313.901L444.715 321.342L384.647 308.575Z" fill="#FFC9E4"/>
<path fill-rule="evenodd" clip-rule="evenodd" d="M384.647 308.575L367.031 391.451L355.607 375.311L338.358 351.077L332.785 342.321C329.532 337.21 326.94 331.705 325.074 325.94L323.796 320C323.091 316.717 322.875 313.347 323.157 310.001C323.383 307.324 323.925 304.683 324.773 302.133L326.725 296.263L384.647 308.575Z" fill="#FFC9E4"/>
<path d="M384.647 308.575L381.164 300.84C379.288 296.676 376.569 292.946 373.178 289.886L372.014 288.836C368.466 285.635 364.136 283.426 359.461 282.432C355.363 281.561 351.119 281.649 347.061 282.69L346.3 282.885C341.158 284.203 336.45 286.839 332.638 290.533L326.725 296.263L384.647 308.575Z" fill="#FF00AE"/>
<path fill-rule="evenodd" clip-rule="evenodd" d="M296.431 140.836L314.047 57.959L327.4 74.6567L344.273 97.5208L350.222 107.303C353.404 112.534 356.006 118.096 357.985 123.891L359.361 129.891C360.11 133.156 360.356 136.517 360.09 139.857C359.876 142.545 359.332 145.196 358.471 147.75L356.499 153.603L296.431 140.836Z" fill="#FF00AE"/>
<path d="M296.431 140.836L300.006 148.418C302.039 152.73 304.941 156.574 308.529 159.712L309.607 160.654C313.344 163.921 317.855 166.178 322.711 167.21C326.961 168.114 331.361 168.054 335.585 167.035L336.227 166.88C341.609 165.582 346.563 162.91 350.604 159.124L356.499 153.603L296.431 140.836Z" fill="#FFC9E4"/>
<path fill-rule="evenodd" clip-rule="evenodd" d="M296.431 140.836L314.047 57.959L297.046 68.0572L271.431 83.1804L262.779 88.9121C257.727 92.2586 253.121 96.2331 249.071 100.74L245.488 105.648C243.508 108.36 241.941 111.35 240.837 114.522C239.955 117.06 239.376 119.693 239.113 122.367L238.509 128.524L296.431 140.836Z" fill="#FFC9E4"/>
<path d="M296.431 140.836L290.103 146.485C286.695 149.526 282.694 151.828 278.352 153.243L276.862 153.729C272.318 155.21 267.464 155.467 262.789 154.474C258.691 153.603 254.85 151.796 251.566 149.195L250.95 148.707C246.789 145.411 243.56 141.088 241.58 136.164L238.509 128.524L296.431 140.836Z" fill="#FF00AE"/>
<rect x="255.512" y="338.934" width="53.4514" height="80.5644" transform="rotate(12 255.512 338.934)" fill="#FF00AE"/>
<path fill-rule="evenodd" clip-rule="evenodd" d="M245.421 386.088L227.805 468.965L246.795 459.142L271.508 445.117L280.922 438.6C285.957 435.115 290.597 431.093 294.761 426.604L298.459 421.683C300.471 419.004 302.063 416.034 303.178 412.874C304.076 410.332 304.657 407.69 304.91 405.006L305.488 398.856L245.421 386.088Z" fill="#FF00AE"/>
<path d="M245.421 386.088L251.771 380.615C255.382 377.504 259.596 375.171 264.151 373.765L265.518 373.342C270.262 371.878 275.3 371.65 280.156 372.683C284.407 373.586 288.401 375.43 291.846 378.079L292.369 378.482C296.758 381.857 300.197 386.313 302.349 391.415L305.488 398.856L245.421 386.088Z" fill="#FFC9E4"/>
<path fill-rule="evenodd" clip-rule="evenodd" d="M245.421 386.088L227.805 468.965L216.381 452.825L199.132 428.59L193.559 419.835C190.305 414.723 187.714 409.219 185.847 403.454L184.57 397.513C183.864 394.231 183.649 390.861 183.931 387.515C184.156 384.838 184.699 382.197 185.546 379.647L187.498 373.777L245.421 386.088Z" fill="#FFC9E4"/>
<path d="M245.421 386.088L241.937 378.354C240.062 374.189 237.342 370.459 233.951 367.4L232.788 366.35C229.239 363.148 224.909 360.939 220.234 359.946C216.136 359.075 211.892 359.163 207.834 360.204L207.073 360.399C201.932 361.717 197.223 364.353 193.412 368.046L187.498 373.777L245.421 386.088Z" fill="#FF00AE"/>
<path fill-rule="evenodd" clip-rule="evenodd" d="M253.825 346.498L271.441 263.621L284.795 280.319L301.667 303.183L307.617 312.965C310.798 318.197 313.401 323.758 315.379 329.553L316.756 335.553C317.505 338.818 317.751 342.179 317.485 345.519C317.27 348.207 316.727 350.858 315.866 353.412L313.893 359.265L253.825 346.498Z" fill="#FF00AE"/>
<path d="M253.825 346.498L257.401 354.08C259.434 358.392 262.335 362.237 265.924 365.374L267.001 366.316C270.739 369.583 275.25 371.84 280.105 372.873C284.356 373.776 288.755 373.716 292.98 372.697L293.622 372.542C299.004 371.244 303.958 368.572 307.999 364.787L313.893 359.265L253.825 346.498Z" fill="#FFC9E4"/>
<path fill-rule="evenodd" clip-rule="evenodd" d="M253.825 346.498L271.441 263.621L254.44 273.719L228.825 288.843L220.173 294.574C215.122 297.921 210.516 301.895 206.465 306.402L202.882 311.31C200.902 314.022 199.335 317.013 198.232 320.184C197.349 322.722 196.77 325.355 196.508 328.029L195.903 334.186L253.825 346.498Z" fill="#FFC9E4"/>
<path d="M253.825 346.498L247.497 352.147C244.09 355.188 240.089 357.49 235.746 358.905L234.256 359.391C229.712 360.873 224.858 361.129 220.183 360.136C216.085 359.265 212.244 357.458 208.96 354.857L208.344 354.369C204.184 351.073 200.954 346.75 198.975 341.826L195.903 334.186L253.825 346.498Z" fill="#FF00AE"/>
<path fill-rule="evenodd" clip-rule="evenodd" d="M289.057 180.745L271.441 263.621L290.432 253.798L315.145 239.774L324.559 233.257C329.593 229.772 334.233 225.749 338.398 221.261L342.095 216.339C344.108 213.661 345.7 210.69 346.815 207.531C347.712 204.989 348.294 202.346 348.546 199.662L349.125 193.512L289.057 180.745Z" fill="#FF00AE"/>
<path d="M289.057 180.745L295.408 175.272C299.018 172.16 303.233 169.828 307.787 168.421L309.155 167.999C313.898 166.534 318.937 166.307 323.793 167.339C328.044 168.242 332.038 170.086 335.483 172.736L336.006 173.138C340.395 176.513 343.834 180.97 345.986 186.071L349.125 193.512L289.057 180.745Z" fill="#FFC9E4"/>
<path fill-rule="evenodd" clip-rule="evenodd" d="M289.057 180.745L271.441 263.621L260.018 247.481L242.768 223.247L237.195 214.491C233.942 209.38 231.35 203.875 229.484 198.11L228.207 192.17C227.501 188.887 227.285 185.517 227.567 182.171C227.793 179.494 228.335 176.853 229.183 174.303L231.135 168.433L289.057 180.745Z" fill="#FFC9E4"/>
<path d="M289.057 180.745L285.574 173.01C283.698 168.845 280.979 165.116 277.588 162.056L276.424 161.006C272.876 157.805 268.546 155.596 263.871 154.602C259.773 153.731 255.529 153.819 251.471 154.86L250.71 155.055C245.569 156.373 240.86 159.009 237.048 162.703L231.135 168.433L289.057 180.745Z" fill="#FF00AE"/>
<path d="M155.927 506.727C154.662 508.063 153.676 509.488 152.967 511.002C152.259 512.516 151.742 514.041 151.415 515.577C151.204 516.572 151.013 517.75 150.842 519.111C150.672 520.472 150.424 521.92 150.097 523.456C149.91 524.338 149.304 524.67 148.28 524.452C147.313 524.247 146.909 523.774 147.066 523.035C147.537 520.4 148.031 517.934 148.549 515.636C149.067 513.339 149.605 511.09 150.161 508.89C150.718 506.69 151.304 504.495 151.917 502.307C152.509 500.085 153.127 497.734 153.773 495.256C154.419 492.777 155.086 490.125 155.776 487.299C156.494 484.479 157.248 481.355 158.036 477.926C158.121 477.527 158.32 477.288 158.635 477.206C158.956 477.096 159.301 477.08 159.671 477.158C160.41 477.316 160.812 477.594 160.875 477.994C160.973 478.372 160.965 478.831 160.85 479.371C160.324 481.845 159.797 484.185 159.269 486.392C158.746 488.569 158.225 490.673 157.704 492.703C157.184 494.732 156.658 496.716 156.127 498.654C155.631 500.57 155.134 502.486 154.638 504.402C155.931 503.071 157.259 502.209 158.621 501.815C159.989 501.392 161.27 501.308 162.465 501.562C163.801 501.846 164.845 502.321 165.595 502.985C166.352 503.622 166.904 504.378 167.253 505.255C167.636 506.109 167.85 507.061 167.894 508.111C167.973 509.139 167.989 510.182 167.942 511.242C167.901 512.274 167.846 513.303 167.777 514.328C167.742 515.332 167.785 516.247 167.906 517.076C168.033 517.876 168.287 518.569 168.668 519.155C169.083 519.719 169.717 520.091 170.571 520.273C170.94 520.351 171.283 520.35 171.597 520.268C171.946 520.164 172.27 520.039 172.568 519.895C172.895 519.756 173.187 519.64 173.445 519.546C173.709 519.424 173.969 519.39 174.225 519.444C174.651 519.535 174.973 519.767 175.191 520.14C175.444 520.491 175.522 520.894 175.425 521.349C175.316 521.861 175.037 522.263 174.589 522.554C174.141 522.845 173.619 523.061 173.025 523.202C172.464 523.321 171.888 523.376 171.295 523.369C170.73 523.368 170.263 523.328 169.893 523.25C168.613 522.978 167.61 522.527 166.882 521.896C166.16 521.237 165.635 520.487 165.309 519.645C164.989 518.774 164.803 517.828 164.753 516.807C164.709 515.757 164.707 514.716 164.748 513.685C164.795 512.624 164.836 511.593 164.871 510.59C164.94 509.564 164.897 508.648 164.741 507.842C164.592 507.008 164.295 506.306 163.851 505.736C163.414 505.137 162.74 504.742 161.83 504.548C161.375 504.451 160.873 504.434 160.325 504.496C159.805 504.564 159.285 504.706 158.763 504.922C158.248 505.109 157.734 505.357 157.223 505.664C156.74 505.978 156.308 506.332 155.927 506.727ZM184.096 519.581C184.296 518.642 184.435 517.706 184.515 516.771C184.595 515.837 184.554 514.981 184.392 514.204C184.23 513.426 183.91 512.764 183.432 512.216C182.954 511.669 182.246 511.295 181.307 511.096C180.596 510.945 179.914 511.008 179.26 511.285C178.641 511.54 178.072 511.909 177.553 512.394C177.069 512.855 176.654 513.406 176.31 514.047C175.972 514.658 175.746 515.234 175.631 515.775C175.449 516.628 175.433 517.546 175.581 518.529C175.728 519.511 175.991 520.444 176.368 521.327C176.78 522.187 177.29 522.934 177.898 523.569C178.512 524.175 179.189 524.557 179.928 524.714C180.753 524.889 181.547 524.582 182.309 523.793C183.077 522.976 183.673 521.571 184.096 519.581ZM186.293 519.735C186.331 520.814 186.253 521.808 186.06 522.718C185.673 524.538 184.889 525.917 183.709 526.855C182.529 527.793 181.057 528.075 179.294 527.7C178.185 527.464 177.156 526.919 176.208 526.064C175.295 525.186 174.521 524.144 173.885 522.939C173.278 521.74 172.854 520.446 172.615 519.057C172.352 517.634 172.36 516.269 172.638 514.96C172.856 513.937 173.27 512.969 173.879 512.058C174.495 511.119 175.229 510.324 176.081 509.673C176.904 509.016 177.822 508.542 178.835 508.252C179.848 507.962 180.866 507.926 181.89 508.143C182.914 508.361 183.793 508.771 184.527 509.373C185.267 509.946 185.892 510.644 186.401 511.465C186.91 512.287 187.341 513.196 187.694 514.192C188.053 515.16 188.377 516.151 188.667 517.164C188.825 517.821 188.994 518.704 189.174 519.813C189.355 520.921 189.567 522.022 189.81 523.114C190.082 524.212 190.395 525.185 190.75 526.033C191.139 526.859 191.618 527.333 192.187 527.454C192.785 527.58 193.339 527.49 193.85 527.183C194.367 526.847 194.848 526.473 195.292 526.062C195.77 525.629 196.223 525.25 196.649 524.924C197.081 524.57 197.51 524.438 197.936 524.529C198.42 524.632 198.756 524.867 198.946 525.234C199.135 525.601 199.188 525.984 199.103 526.382C199.031 526.723 198.83 527.037 198.502 527.324C198.023 527.758 197.499 528.196 196.929 528.64C196.365 529.055 195.768 529.418 195.137 529.73C194.534 530.048 193.921 530.274 193.298 530.409C192.703 530.551 192.121 530.561 191.553 530.44C190.642 530.246 189.867 529.769 189.226 529.009C188.614 528.254 188.088 527.37 187.65 526.355C187.218 525.312 186.889 524.202 186.664 523.025C186.467 521.853 186.343 520.757 186.293 519.735ZM202.094 523.317C202.129 523.295 202.041 523.425 201.833 523.707C201.624 523.99 201.355 524.349 201.024 524.784C200.7 525.191 200.324 525.631 199.896 526.105C199.475 526.55 199.054 526.921 198.634 527.219C198.415 527.41 198.183 527.524 197.937 527.561C197.726 527.576 197.521 527.562 197.322 527.519C197.009 527.453 196.706 527.27 196.413 526.97C196.098 526.635 195.991 526.226 196.094 525.742C196.161 525.43 196.289 525.175 196.48 524.977C196.93 524.538 197.478 523.986 198.125 523.321C198.743 522.649 199.347 521.975 199.937 521.298C200.527 520.621 201.034 519.985 201.457 519.392C201.887 518.77 202.141 518.274 202.219 517.904C202.28 517.62 202.332 517.304 202.376 516.956C202.42 516.609 202.475 516.279 202.542 515.966C202.663 515.397 202.857 514.904 203.124 514.485C203.42 514.072 203.952 513.947 204.72 514.111C205.146 514.201 205.444 514.339 205.613 514.523C205.788 514.679 205.9 514.852 205.949 515.041C205.998 515.229 205.998 515.437 205.95 515.665C205.936 515.87 205.939 516.064 205.96 516.247C206.348 516.24 206.718 516.245 207.072 516.26C207.425 516.276 207.758 516.317 208.071 516.383C209.01 516.583 209.798 516.929 210.437 517.421C211.104 517.92 211.661 518.514 212.109 519.204C212.591 519.871 212.984 520.608 213.288 521.416C213.627 522.201 213.934 522.995 214.209 523.797C214.352 524.243 214.51 524.827 214.684 525.547C214.886 526.274 215.134 526.995 215.428 527.712C215.728 528.4 216.085 529.026 216.5 529.589C216.921 530.125 217.431 530.456 218.028 530.583C218.369 530.656 218.74 530.66 219.14 530.596C219.574 530.51 220.031 530.251 220.509 529.817C220.832 529.559 221.235 529.481 221.718 529.584C222.031 529.65 222.331 529.848 222.618 530.176C222.911 530.476 222.997 530.911 222.876 531.48C222.809 531.792 222.684 532.033 222.499 532.202C221.761 532.878 220.98 533.336 220.156 533.577C219.366 533.795 218.445 533.793 217.393 533.569C216.17 533.309 215.196 532.79 214.469 532.011C213.778 531.21 213.216 530.288 212.783 529.245C212.351 528.202 211.962 527.094 211.617 525.921C211.301 524.754 210.92 523.677 210.476 522.691C210.031 521.705 209.437 520.865 208.693 520.172C207.977 519.484 206.992 519.082 205.739 518.964C205.636 520.429 205.464 521.938 205.223 523.492C205.01 525.052 204.803 526.583 204.603 528.086C204.173 531.086 203.721 534.26 203.248 537.607C202.803 540.961 202.291 544.627 201.712 548.606C201.157 552.62 200.505 557.014 199.757 561.79C199.032 566.6 198.181 571.933 197.204 577.789C197.037 578.853 196.848 579.883 196.636 580.878C196.425 581.874 196.195 582.955 195.947 584.121C195.838 584.633 195.718 585.127 195.587 585.605C195.45 586.111 195.285 586.536 195.093 586.882C194.894 587.256 194.671 587.535 194.424 587.721C194.17 587.934 193.873 588.005 193.532 587.932C193.105 587.842 192.825 587.693 192.69 587.486C192.556 587.279 192.511 587.002 192.555 586.654C193.145 582.618 193.832 578.127 194.616 573.181C195.4 568.235 196.224 563.03 197.088 557.566C197.952 552.102 198.81 546.458 199.661 540.635C200.535 534.846 201.346 529.073 202.094 523.317ZM222.277 532.333C221.892 532.608 221.486 532.7 221.059 532.609C220.667 532.496 220.356 532.282 220.126 531.965C219.861 531.671 219.754 531.336 219.804 530.961C219.854 530.585 220.012 530.262 220.278 529.991C221.219 529.062 222.027 528.193 222.704 527.386C223.41 526.584 224.049 525.814 224.623 525.074C225.23 524.311 225.793 523.554 226.309 522.802C226.826 522.049 227.369 521.243 227.938 520.383C228.226 520.147 228.51 520 228.79 519.94C229.076 519.852 229.339 519.804 229.579 519.796C229.847 519.793 230.063 519.824 230.228 519.889C230.399 519.925 230.523 519.967 230.603 520.013C230.926 520.171 231.108 520.433 231.149 520.798C231.164 521.01 231.166 521.278 231.157 521.603C231.182 521.905 231.186 522.233 231.171 522.586C231.155 522.94 231.139 523.293 231.124 523.646C231.114 523.971 231.116 524.239 231.131 524.451C231.74 524.104 232.403 523.71 233.121 523.269C233.845 522.798 234.575 522.374 235.309 521.995C236.078 521.593 236.826 521.292 237.553 521.089C238.314 520.865 239.021 520.822 239.676 520.961C240.699 521.179 241.526 521.696 242.155 522.513C242.812 523.337 243.359 524.33 243.795 525.493C244.232 526.656 244.587 527.92 244.861 529.286C245.17 530.63 245.485 531.946 245.806 533.233C246.133 534.491 246.524 535.659 246.979 536.737C247.439 537.786 248.04 538.597 248.78 539.171C249.396 539.628 250.049 539.842 250.74 539.81C251.458 539.784 252.127 539.644 252.746 539.389C253.4 539.112 253.991 538.777 254.52 538.384C255.05 537.991 255.447 537.66 255.713 537.389C256.082 537.052 256.491 536.945 256.94 537.07C257.395 537.167 257.737 537.374 257.967 537.69C258.169 538.001 258.245 538.344 258.195 538.719C258.173 539.101 258.009 539.453 257.703 539.774C256.728 540.726 255.62 541.531 254.38 542.189C253.175 542.825 252.014 543.113 250.897 543.054C249.346 543.081 248.033 542.683 246.96 541.86C245.921 541.015 245.044 539.967 244.329 538.715C243.648 537.441 243.095 536.06 242.668 534.572C242.241 533.084 241.893 531.717 241.622 530.471C241.504 529.91 241.369 529.287 241.217 528.601C241.066 527.915 240.863 527.262 240.608 526.643C240.381 526.03 240.063 525.502 239.652 525.058C239.247 524.585 238.708 524.322 238.036 524.269C237.512 524.217 236.886 524.366 236.157 524.716C235.429 525.067 234.697 525.506 233.96 526.033C233.23 526.532 232.543 527.039 231.898 527.556C231.281 528.079 230.812 528.47 230.489 528.728C229.746 532.227 229.042 535.466 228.379 538.446C227.75 541.404 227.147 544.173 226.568 546.755C225.984 549.366 225.418 551.817 224.872 554.108C224.347 556.434 223.835 558.704 223.335 560.916C222.835 563.128 222.339 565.326 221.845 567.51C221.373 569.728 220.89 572.004 220.394 574.336C220.315 574.705 220.05 574.976 219.597 575.147C219.167 575.353 218.747 575.442 218.336 575.414C218.012 575.405 217.659 575.315 217.279 575.145C216.899 574.975 216.754 574.677 216.845 574.25C217.685 570.297 218.534 566.375 219.39 562.485C220.247 558.595 221.107 554.69 221.969 550.772C222.832 546.853 223.689 542.889 224.542 538.879C225.394 534.869 226.25 530.77 227.111 526.583C227.062 526.811 226.832 527.193 226.421 527.73C226.038 528.273 225.572 528.857 225.023 529.484C224.508 530.088 223.985 530.66 223.454 531.201C222.951 531.748 222.559 532.126 222.277 532.333ZM258.831 533.281C259.174 533.205 259.492 533.318 259.785 533.618C260.078 533.918 260.162 534.218 260.039 534.519C259.881 534.842 259.677 535.244 259.426 535.726C259.209 536.185 259.04 536.7 258.92 537.268C258.805 537.809 258.707 538.338 258.627 538.856C258.575 539.38 258.575 539.87 258.626 540.327C258.712 540.761 258.87 541.137 259.1 541.453C259.336 541.741 259.696 541.937 260.179 542.039C260.748 542.16 261.311 542.027 261.869 541.641C262.456 541.26 263.023 540.756 263.573 540.13C264.15 539.51 264.715 538.812 265.266 538.038C265.845 537.269 266.41 536.572 266.959 535.945C267.537 535.325 268.09 534.818 268.62 534.426C269.177 534.039 269.727 533.903 270.267 534.018C271.433 534.266 271.865 534.818 271.564 535.676C270.875 537.521 270.288 539.09 269.805 540.385C269.351 541.685 268.943 542.832 268.583 543.826C268.23 544.791 267.905 545.688 267.61 546.517C267.321 547.318 267.006 548.172 266.664 549.08C266.351 549.995 265.985 551.017 265.566 552.147C265.148 553.276 264.646 554.656 264.062 556.286C264.524 555.789 265.125 555.129 265.865 554.306C266.599 553.51 267.397 552.625 268.258 551.649C269.114 550.701 270.007 549.717 270.937 548.696C271.867 547.675 272.754 546.719 273.597 545.828C274.441 544.937 275.186 544.159 275.832 543.494C276.514 542.806 277.033 542.322 277.39 542.041C277.672 541.834 278.006 541.727 278.394 541.72C278.782 541.713 279.151 541.866 279.501 542.178C279.727 542.375 279.858 542.596 279.895 542.841C279.938 543.059 279.938 543.267 279.896 543.466C279.854 543.665 279.786 543.844 279.693 544.002C279.634 544.138 279.587 544.218 279.553 544.24C278.821 544.887 277.982 545.69 277.035 546.648C276.088 547.606 275.084 548.626 274.021 549.708C272.981 550.824 271.91 551.949 270.807 553.082C269.733 554.221 268.702 555.295 267.715 556.304C266.721 557.341 265.809 558.277 264.978 559.111C264.14 559.973 263.448 560.643 262.901 561.122C261.77 564.062 260.688 566.775 259.655 569.26C258.644 571.78 257.605 573.937 256.54 575.732C255.475 577.527 254.358 578.865 253.19 579.746C252.044 580.662 250.775 580.972 249.381 580.675C249.011 580.597 248.609 580.392 248.174 580.062C247.739 579.732 247.35 579.322 247.008 578.833C246.666 578.345 246.41 577.8 246.241 577.199C246.043 576.592 246.013 575.962 246.152 575.307C246.424 574.028 247.054 572.675 248.04 571.25C249.027 569.825 250.179 568.39 251.497 566.946C252.808 565.531 254.202 564.148 255.678 562.797C257.148 561.474 258.506 560.262 259.751 559.159C260.169 558.029 260.535 557.007 260.848 556.093C261.184 555.213 261.502 554.344 261.804 553.487C262.133 552.636 262.452 551.767 262.759 550.881C263.088 550.03 263.442 549.064 263.82 547.985C264.227 546.913 264.663 545.697 265.13 544.34C265.625 542.989 266.2 541.402 266.855 539.579C266.376 540.577 265.886 541.484 265.386 542.299C264.914 543.12 264.341 543.786 263.668 544.297C263.023 544.814 262.255 545.141 261.364 545.278C260.478 545.388 259.397 545.232 258.119 544.812C257.454 544.581 256.911 544.198 256.49 543.663C256.103 543.105 255.82 542.48 255.64 541.788C255.432 541.09 255.332 540.37 255.341 539.629C255.328 538.853 255.391 538.138 255.53 537.484C255.784 536.29 256.208 535.34 256.804 534.634C257.4 533.928 258.076 533.477 258.831 533.281ZM258.209 564.316C255.81 566.511 253.792 568.593 252.154 570.564C250.511 572.563 249.52 574.359 249.181 575.951C249.079 576.435 249.102 576.811 249.253 577.081C249.398 577.379 249.627 577.562 249.939 577.628C250.508 577.749 251.157 577.426 251.884 576.66C252.612 575.893 253.352 574.861 254.103 573.564C254.854 572.267 255.582 570.802 256.286 569.168C257.018 567.54 257.659 565.923 258.209 564.316Z" fill="#001AFF"/>
</svg>
