<svg width="464" height="608" viewBox="0 0 464 608" fill="none" xmlns="http://www.w3.org/2000/svg">
<rect x="0.9375" y="43.2637" width="405.3" height="567.538" transform="rotate(-6 0.9375 43.2637)" fill="white"/>
<rect x="21" y="55.4102" width="368.848" height="423.657" transform="rotate(-6 21 55.4102)" fill="#FFC9E4"/>
<path fill-rule="evenodd" clip-rule="evenodd" d="M115.913 113.912L124.77 198.176L139.795 182.965L158.965 161.99L165.904 152.883C169.615 148.013 172.785 142.754 175.359 137.198L177.355 131.375C178.441 128.205 179.037 124.888 179.121 121.539C179.189 118.844 178.926 116.151 178.336 113.52L176.986 107.493L115.913 113.912Z" fill="#001AFF"/>
<path d="M115.913 113.912L120.261 106.744C122.734 102.669 126.021 99.1487 129.918 96.4036L131.088 95.5792C135.147 92.7204 139.869 90.9473 144.806 90.4284C149.128 89.9741 153.496 90.4936 157.591 91.9487L158.214 92.1698C163.431 94.0236 168.078 97.199 171.701 101.386L176.986 107.493L115.913 113.912Z" fill="#001AFF"/>
<path fill-rule="evenodd" clip-rule="evenodd" d="M115.913 113.912L124.77 198.176L108.917 186.356L85.0234 168.638L77.0177 162.033C72.3436 158.177 68.1782 153.743 64.6214 148.837L61.571 143.582C59.8853 140.678 58.6393 137.54 57.8735 134.27C57.2608 131.654 56.9605 128.975 56.9788 126.288L57.021 120.102L115.913 113.912Z" fill="#001AFF"/>
<path d="M115.913 113.912L110.21 107.632C107.139 104.251 103.4 101.544 99.2298 99.6823L97.799 99.0435C93.4347 97.0952 88.6338 96.3323 83.8806 96.8319C79.7142 97.2698 75.7054 98.6651 72.1674 100.909L71.5037 101.33C67.0216 104.172 63.358 108.134 60.8744 112.825L57.021 120.102L115.913 113.912Z" fill="#001AFF"/>
<circle cx="288.247" cy="406.361" r="44.8367" transform="rotate(-6 288.247 406.361)" fill="#FF00AE"/>
<circle cx="238.782" cy="212.244" r="44.8367" transform="rotate(-6 238.782 212.244)" fill="#FF00AE"/>
<circle cx="256.735" cy="106.547" r="44.8367" transform="rotate(-6 256.735 106.547)" fill="#FF00AE"/>
<circle cx="373.332" cy="307.252" r="44.8367" transform="rotate(-6 373.332 307.252)" fill="#FF00AE"/>
<circle cx="104.602" cy="425.664" r="44.8367" transform="rotate(-6 104.602 425.664)" fill="#FF00AE"/>
<circle cx="189.071" cy="320.686" r="44.8367" transform="rotate(-6 189.071 320.686)" fill="#FF00AE"/>
<circle cx="84.809" cy="237.324" r="44.8367" transform="rotate(-6 84.809 237.324)" fill="#FF00AE"/>
<path fill-rule="evenodd" clip-rule="evenodd" d="M422.62 347.151C422.62 347.151 422.619 347.151 422.618 347.151C397.991 349.74 380.126 371.802 382.714 396.429C385.302 421.056 407.365 438.922 431.992 436.333C431.992 436.333 431.993 436.333 431.994 436.333L422.62 347.151Z" fill="#FF00AE"/>
<path fill-rule="evenodd" clip-rule="evenodd" d="M342.809 445.71C342.81 445.71 342.811 445.71 342.811 445.71C367.438 443.122 385.304 421.059 382.716 396.432C380.127 371.805 358.065 353.94 333.438 356.528C333.437 356.528 333.437 356.528 333.436 356.528L342.809 445.71Z" fill="#FF00AE"/>
<path fill-rule="evenodd" clip-rule="evenodd" d="M135.132 287.202C135.131 287.202 135.131 287.202 135.13 287.202C110.503 289.79 92.6374 311.853 95.2258 336.48C97.8142 361.107 119.877 378.973 144.504 376.384C144.504 376.384 144.505 376.384 144.505 376.384L135.132 287.202Z" fill="#FF00AE"/>
<path fill-rule="evenodd" clip-rule="evenodd" d="M359.171 82.1354C359.17 82.1354 359.17 82.1355 359.169 82.1356C334.542 84.724 316.676 106.786 319.265 131.413C321.853 156.04 343.916 173.906 368.543 171.318C368.543 171.318 368.544 171.318 368.544 171.318L359.171 82.1354Z" fill="#FF00AE"/>
<path fill-rule="evenodd" clip-rule="evenodd" d="M169.304 183.358C169.303 183.358 169.303 183.358 169.302 183.358C144.675 185.947 126.809 208.009 129.398 232.636C131.986 257.263 154.048 275.129 178.675 272.54C178.676 272.54 178.677 272.54 178.677 272.54L169.304 183.358Z" fill="#FF00AE"/>
<path fill-rule="evenodd" clip-rule="evenodd" d="M55.3211 385.759C55.3217 385.759 55.3224 385.759 55.323 385.759C79.95 383.171 97.8158 361.108 95.2274 336.481C92.639 311.854 70.5765 293.988 45.9496 296.577C45.9489 296.577 45.9483 296.577 45.9477 296.577L55.3211 385.759Z" fill="#FF00AE"/>
<path fill-rule="evenodd" clip-rule="evenodd" d="M149.786 375.833C152.375 400.46 174.437 418.326 199.064 415.737C223.691 413.149 241.556 391.087 238.968 366.46L149.786 375.833Z" fill="#FF00AE"/>
<path fill-rule="evenodd" clip-rule="evenodd" d="M20.7235 56.6105C23.3121 81.2372 45.3744 99.1028 70.0012 96.5145C94.6281 93.9261 112.494 71.8639 109.906 47.237L20.7235 56.6105Z" fill="#FF00AE"/>
<path fill-rule="evenodd" clip-rule="evenodd" d="M248.339 455.64C245.75 431.013 223.688 413.147 199.061 415.736C174.434 418.324 156.569 440.386 159.157 465.013L248.339 455.64Z" fill="#FF00AE"/>
<path fill-rule="evenodd" clip-rule="evenodd" d="M228.981 271.405C231.57 296.032 253.632 313.898 278.259 311.309C302.886 308.721 320.752 286.659 318.163 262.032L228.981 271.405Z" fill="#FF00AE"/>
<path fill-rule="evenodd" clip-rule="evenodd" d="M327.538 351.212C324.95 326.585 302.887 308.719 278.26 311.308C253.634 313.896 235.768 335.958 238.356 360.585L327.538 351.212Z" fill="#FF00AE"/>
<path fill-rule="evenodd" clip-rule="evenodd" d="M314.688 178.161C317.277 202.788 339.339 220.654 363.966 218.065C388.593 215.477 406.459 193.415 403.87 168.788L314.688 178.161Z" fill="#FF00AE"/>
<path fill-rule="evenodd" clip-rule="evenodd" d="M413.245 257.97C410.657 233.343 388.594 215.477 363.968 218.066C339.341 220.654 321.475 242.716 324.063 267.343L413.245 257.97Z" fill="#FF00AE"/>
<path fill-rule="evenodd" clip-rule="evenodd" d="M354.442 21.5325C348.411 30.0936 345.336 40.7927 346.517 52.0253C349.105 76.6523 371.168 94.5181 395.795 91.9297L395.797 91.9295L388.027 18.0025L354.442 21.5325Z" fill="#FF00AE"/>
<path d="M220.368 516.761L221.803 530.411C222.018 532.456 222.369 533.79 222.856 534.414C223.344 535.038 224.026 535.304 224.903 535.212C230.955 534.576 233.518 529.854 232.593 521.047C232.044 515.83 230.906 512.024 229.177 509.632C227.449 507.239 224.915 506.218 221.576 506.569C221.158 506.613 220.81 506.713 220.531 506.869C220.252 507.025 220.03 507.323 219.865 507.762C219.738 508.155 219.676 508.774 219.68 509.617C219.722 510.415 219.815 511.502 219.96 512.88L220.368 516.761ZM248.572 518.292C249.322 525.429 247.958 531.122 244.48 535.37C241.043 539.614 235.652 542.122 228.305 542.894C226.97 543.034 225.394 543.094 223.577 543.074C221.806 543.092 219.794 543.219 217.54 543.456C216.371 543.579 215.107 543.796 213.747 544.108C212.433 544.457 211.275 544.684 210.274 544.789C207.686 545.061 205.87 544.851 204.827 544.159C203.783 543.467 203.202 542.557 203.084 541.43C202.974 540.387 203.027 539.685 203.242 539.325C203.458 538.964 203.726 538.704 204.047 538.544C204.405 538.337 204.786 538.149 205.19 537.98C205.59 537.77 205.922 537.313 206.185 536.61C206.487 535.861 206.688 534.763 206.789 533.318C206.886 531.831 206.794 529.751 206.513 527.08L205.73 519.629C205.427 516.749 205.088 514.527 204.713 512.963C204.375 511.352 204.018 510.166 203.642 509.404C203.267 508.641 202.88 508.176 202.483 508.006C202.123 507.791 201.788 507.615 201.478 507.479C201.168 507.343 200.894 507.139 200.654 506.869C200.452 506.553 200.298 505.894 200.193 504.892C200.018 503.222 200.55 502.069 201.792 501.432C203.033 500.795 204.948 500.341 207.536 500.069C208.37 499.981 209.216 499.998 210.073 500.119C210.925 500.198 211.978 500.172 213.23 500.04C214.023 499.957 215.329 499.735 217.148 499.375C218.963 498.973 221.498 498.601 224.754 498.259C231.641 497.535 237.148 498.94 241.275 502.473C245.398 505.965 247.83 511.237 248.572 518.292ZM268.059 519.282C268.04 518.693 268.006 518.169 267.957 517.71C267.946 517.205 267.917 516.722 267.869 516.263C267.478 512.548 266.406 510.783 264.653 510.967C263.777 511.059 263.081 511.47 262.567 512.199C262.09 512.883 261.562 513.677 260.982 514.582C260.257 515.713 259.505 516.594 258.727 517.224C257.945 517.813 257.074 518.157 256.114 518.258C255.071 518.368 254.157 518.105 253.373 517.47C252.584 516.794 252.128 515.871 252.006 514.702C251.9 513.7 252.131 512.684 252.698 511.654C253.307 510.62 254.221 509.679 255.44 508.834C256.659 507.988 258.145 507.262 259.896 506.656C261.684 506.004 263.705 505.56 265.959 505.323C270.676 504.827 274.341 505.37 276.955 506.952C279.611 508.53 281.123 511.072 281.491 514.578C281.632 515.914 281.722 517.171 281.761 518.348C281.842 519.521 281.935 520.609 282.041 521.61L282.139 522.55C282.253 523.635 282.348 524.532 282.422 525.242C282.534 525.905 282.675 526.439 282.844 526.843C283.013 527.248 283.234 527.541 283.506 527.723C283.774 527.864 284.123 527.975 284.554 528.056C285.758 528.267 286.417 528.916 286.531 530.001C286.605 530.71 286.436 531.509 286.023 532.396C285.605 533.242 284.996 534.066 284.194 534.868C283.387 535.628 282.401 536.28 281.234 536.824C280.072 537.411 278.76 537.781 277.299 537.934C276.506 538.018 275.786 537.988 275.138 537.845C274.494 537.744 273.896 537.469 273.342 537.021C272.701 536.54 272.191 536.108 271.813 535.726C271.435 535.343 271.08 535.17 270.746 535.205C270.453 535.236 270.193 535.368 269.965 535.603C269.773 535.792 269.543 536.007 269.273 536.246C268.308 537.107 267.345 537.778 266.382 538.259C265.462 538.735 264.271 539.05 262.81 539.204C259.596 539.542 256.937 538.935 254.833 537.384C252.766 535.786 251.587 533.61 251.298 530.855C251.144 529.394 251.338 528.024 251.878 526.743C252.415 525.421 253.219 524.239 254.291 523.198C255.363 522.157 256.666 521.302 258.2 520.635C259.729 519.925 261.412 519.474 263.248 519.281C263.874 519.215 264.588 519.182 265.39 519.183C266.192 519.183 267.082 519.216 268.059 519.282ZM268.642 525.424C268.567 524.715 268.417 524.287 268.19 524.142C268.006 523.993 267.58 523.953 266.912 524.023C264.908 524.234 264.04 525.612 264.308 528.159C264.558 530.538 265.476 531.644 267.062 531.477C268.106 531.368 268.686 530.864 268.802 529.965C268.914 529.025 268.861 527.511 268.642 525.424ZM295.381 502.357C298.637 502.015 301.133 502.069 302.868 502.52C304.603 502.97 305.554 503.989 305.721 505.575C305.783 506.159 305.726 506.629 305.553 506.985C305.375 507.299 305.174 507.595 304.95 507.871C304.763 508.102 304.576 508.333 304.389 508.563C304.198 508.752 304.116 508.972 304.142 509.222C304.173 509.515 304.38 510.084 304.765 510.929C305.186 511.729 305.654 512.566 306.168 513.441C306.724 514.311 307.292 515.095 307.871 515.794C308.489 516.446 308.985 516.753 309.361 516.713C309.695 516.678 309.991 516.288 310.251 515.544C310.547 514.753 310.793 513.883 310.989 512.934C311.185 511.985 311.324 511.105 311.408 510.294C311.529 509.438 311.581 508.926 311.563 508.759C311.524 508.383 311.363 508.063 311.082 507.797C310.801 507.531 310.499 507.267 310.176 507.006C309.853 506.744 309.551 506.481 309.27 506.215C308.985 505.907 308.818 505.524 308.769 505.065C308.651 503.938 309.155 502.914 310.282 501.994C311.451 501.069 313.288 500.475 315.792 500.212C318.13 499.966 319.839 500.166 320.92 500.812C322 501.458 322.604 502.387 322.732 503.597C322.828 504.515 322.725 505.138 322.422 505.465C322.156 505.747 321.771 506.103 321.268 506.536C320.807 506.964 320.265 507.633 319.643 508.543C319.021 509.452 318.423 510.992 317.85 513.162C317.124 515.897 316.514 518.325 316.02 520.445C315.521 522.523 315.067 524.427 314.658 526.158C314.249 527.889 313.811 529.539 313.342 531.108C312.916 532.672 312.371 534.312 311.707 536.027C310.454 539.366 309.01 541.881 307.373 543.573C305.74 545.306 303.484 546.323 300.604 546.626C297.682 546.933 295.115 546.401 292.903 545.03C290.733 543.655 289.518 541.735 289.259 539.273C289.08 537.561 289.5 536.146 290.522 535.025C291.586 533.901 292.848 533.262 294.309 533.108C295.603 532.972 296.771 533.25 297.815 533.942C298.854 534.593 299.432 535.481 299.551 536.608C299.595 537.026 299.563 537.325 299.455 537.505C299.389 537.681 299.378 537.977 299.422 538.394C299.466 538.812 299.622 539.091 299.89 539.232C300.162 539.414 300.465 539.488 300.799 539.452C301.3 539.4 301.696 539.147 301.986 538.695C302.28 538.284 302.39 537.724 302.316 537.014C302.153 535.47 301.531 533.763 300.448 531.893C299.365 530.023 297.961 527.702 296.234 524.93L290.298 515.425C289.288 513.843 288.568 512.822 288.14 512.36C287.753 511.894 287.28 511.607 286.72 511.497C285.942 511.325 285.214 511.022 284.535 510.587C283.856 510.152 283.462 509.412 283.353 508.369C283.186 506.783 284.169 505.498 286.302 504.514C288.431 503.488 291.458 502.769 295.381 502.357Z" fill="#001AFF"/>
</svg>
