<svg width="445" height="596" viewBox="0 0 445 596" fill="none" xmlns="http://www.w3.org/2000/svg">
<rect x="0.503906" y="29.0859" width="405.3" height="567.538" transform="rotate(-4 0.503906 29.0859)" fill="white"/>
<rect x="21" y="44.6309" width="367.462" height="419.45" transform="rotate(-4 21 44.6309)" fill="#EEF0FF"/>
<path d="M144.759 312.409C145.128 312.091 145.438 311.71 145.674 311.285L146.14 310.447L146.304 310.084C146.634 309.356 146.746 308.549 146.627 307.759L146.197 304.889L145.748 301.269L145.689 297.874C145.685 297.668 145.666 297.463 145.632 297.259L145.28 295.16C145.205 294.714 145.057 294.283 144.843 293.884L144.117 292.533C143.914 292.155 143.653 291.811 143.344 291.513L142.795 290.982C142.377 290.579 141.88 290.268 141.335 290.069L140.521 289.772C140.269 289.68 140.008 289.613 139.742 289.571L138.814 289.426C138.038 289.304 137.244 289.405 136.523 289.717L136.378 289.78C135.78 290.039 135.251 290.436 134.834 290.938L133.943 292.013C133.751 292.244 133.586 292.495 133.448 292.761L133.08 293.475C132.796 294.028 132.639 294.637 132.621 295.258L132.59 296.36C132.584 296.563 132.594 296.766 132.618 296.967L132.834 298.785C132.913 299.453 132.338 300.015 131.672 299.919L129.587 299.621L129.317 299.554C128.318 299.305 127.263 299.436 126.355 299.922L125.606 300.323C124.974 300.662 124.441 301.159 124.058 301.765L123.367 302.859C123.131 303.233 122.957 303.641 122.85 304.07L122.615 305.012C122.522 305.385 122.481 305.771 122.494 306.156L122.528 307.153C122.544 307.614 122.636 308.068 122.801 308.498L123.031 309.097C123.142 309.388 123.287 309.666 123.461 309.925L123.825 310.468C123.988 310.71 124.176 310.935 124.386 311.138L124.854 311.589C125.064 311.792 125.295 311.972 125.543 312.126L125.933 312.369C126.306 312.602 126.714 312.773 127.14 312.877L127.537 312.974C127.824 313.045 128.118 313.084 128.414 313.092L129.745 313.126L131.289 313.099L132.523 313.078L134.067 313.051L135.233 313.092C135.434 313.099 135.633 313.12 135.83 313.156L137.083 313.384L138.323 313.671L139.639 313.88L140.535 313.917C140.812 313.928 141.09 313.912 141.364 313.868L141.723 313.81C141.927 313.777 142.128 313.729 142.325 313.666L143.017 313.446C143.38 313.33 143.726 313.164 144.044 312.954L144.404 312.716L144.759 312.409Z" fill="#3549FF"/>
<ellipse cx="154.118" cy="310.949" rx="4.55477" ry="6.26818" transform="rotate(113 154.118 310.949)" fill="#3549FF"/>
<ellipse cx="144.71" cy="322.52" rx="4.55477" ry="6.26818" transform="rotate(148 144.71 322.52)" fill="#3549FF"/>
<ellipse cx="130.264" cy="321.533" rx="4.10734" ry="5.41693" transform="rotate(160 130.264 321.533)" fill="#3549FF"/>
<ellipse cx="154.371" cy="297.368" rx="4.10734" ry="5.41693" transform="rotate(104 154.371 297.368)" fill="#3549FF"/>
<path d="M109.693 281.761C110.107 281.504 110.472 281.177 110.773 280.794L111.363 280.039L111.583 279.706C112.022 279.038 112.259 278.259 112.266 277.46L112.29 274.558L112.412 270.912L112.885 267.55C112.914 267.346 112.927 267.14 112.925 266.934L112.905 264.806C112.901 264.353 112.823 263.904 112.674 263.477L112.168 262.029C112.026 261.624 111.823 261.243 111.565 260.9L111.105 260.29C110.755 259.826 110.313 259.441 109.805 259.16L109.049 258.74C108.814 258.609 108.566 258.502 108.311 258.419L107.416 258.13C106.669 257.889 105.868 257.864 105.108 258.06L104.955 258.099C104.323 258.262 103.739 258.571 103.249 259.002L102.2 259.924C101.975 260.122 101.772 260.344 101.595 260.585L101.12 261.233C100.752 261.734 100.502 262.311 100.388 262.922L100.184 264.006C100.147 264.205 100.124 264.407 100.116 264.61L100.046 266.439C100.02 267.111 99.3635 267.576 98.7208 267.378L96.7078 266.757L96.4522 266.648C95.5046 266.246 94.4414 266.21 93.4691 266.548L92.6665 266.828C91.9891 267.063 91.3844 267.47 90.9114 268.01L90.0582 268.982C89.767 269.314 89.5306 269.69 89.358 270.097L88.9788 270.99C88.8282 271.345 88.7278 271.719 88.6805 272.101L88.5578 273.092C88.5013 273.549 88.5212 274.012 88.6168 274.463L88.75 275.09C88.8148 275.396 88.9139 275.693 89.0453 275.976L89.3206 276.569C89.4436 276.834 89.5942 277.085 89.77 277.318L90.1608 277.837C90.3366 278.07 90.5365 278.284 90.7573 278.475L91.1053 278.777C91.4372 279.064 91.8126 279.297 92.2176 279.467L92.5941 279.625C92.867 279.739 93.1514 279.824 93.4425 279.878L94.7517 280.12L96.2803 280.335L97.5031 280.507L99.0316 280.722L100.178 280.945C100.374 280.983 100.568 281.036 100.757 281.102L101.959 281.523L103.138 282L104.405 282.412L105.285 282.589C105.557 282.644 105.834 282.671 106.111 282.67L106.475 282.67C106.681 282.669 106.888 282.653 107.093 282.622L107.81 282.512C108.187 282.454 108.554 282.345 108.901 282.187L109.294 282.008L109.693 281.761Z" fill="#3549FF"/>
<ellipse cx="119.161" cy="281.781" rx="4.55477" ry="6.26818" transform="rotate(122 119.161 281.781)" fill="#3549FF"/>
<ellipse cx="108.061" cy="291.74" rx="4.55477" ry="6.26818" transform="rotate(157 108.061 291.74)" fill="#3549FF"/>
<ellipse cx="93.9462" cy="288.503" rx="4.10734" ry="5.41693" transform="rotate(169 93.9462 288.503)" fill="#3549FF"/>
<ellipse cx="121.538" cy="268.406" rx="4.10734" ry="5.41693" transform="rotate(113 121.538 268.406)" fill="#3549FF"/>
<path d="M82.3184 247.38C82.7672 247.192 83.1792 246.925 83.5357 246.594L84.2374 245.941L84.5063 245.646C85.0442 245.056 85.4003 244.323 85.5318 243.535L86.0097 240.672L86.7012 237.091L87.6938 233.844C87.754 233.647 87.7995 233.446 87.8298 233.242L88.1433 231.137C88.21 230.689 88.2029 230.233 88.1223 229.787L87.8492 228.278C87.7728 227.856 87.6314 227.448 87.43 227.069L87.0711 226.395C86.7987 225.882 86.4217 225.433 85.9647 225.075L85.283 224.542C85.0712 224.376 84.8439 224.231 84.6042 224.11L83.766 223.684C83.0657 223.329 82.2789 223.18 81.4971 223.254L81.3398 223.269C80.6906 223.331 80.0651 223.545 79.5141 223.893L78.3338 224.64C78.0804 224.8 77.8452 224.988 77.6322 225.199L77.0617 225.764C76.6203 226.202 76.2828 226.733 76.0742 227.318L75.704 228.357C75.6359 228.548 75.5819 228.743 75.5425 228.942L75.1864 230.738C75.0555 231.398 74.3349 231.754 73.7311 231.458L71.84 230.529L71.6045 230.382C70.7315 229.837 69.6869 229.635 68.6737 229.817L67.8374 229.967C67.1314 230.094 66.4705 230.402 65.9189 230.86L64.9241 231.687C64.5845 231.97 64.2922 232.304 64.0582 232.679L63.5438 233.502C63.3396 233.829 63.182 234.182 63.0754 234.553L62.7993 235.512C62.6719 235.955 62.6191 236.415 62.6431 236.875L62.6765 237.516C62.6927 237.827 62.7441 238.136 62.8296 238.436L63.0088 239.065C63.0888 239.346 63.1983 239.618 63.3355 239.876L63.6403 240.449C63.7774 240.707 63.9414 240.949 64.1295 241.173L64.4261 241.525C64.7089 241.861 65.0433 242.15 65.4168 242.381L65.7639 242.596C66.0156 242.751 66.2832 242.88 66.5622 242.978L67.8175 243.423L69.2936 243.874L70.4744 244.235L71.9505 244.686L73.0476 245.086C73.2358 245.154 73.4188 245.237 73.5951 245.332L74.7161 245.935L75.8067 246.592L76.9937 247.197L77.8344 247.509C78.0947 247.605 78.364 247.676 78.6384 247.718L78.9972 247.774C79.2016 247.806 79.4081 247.823 79.615 247.824L80.3412 247.828C80.7224 247.83 81.102 247.779 81.4694 247.678L81.8855 247.562L82.3184 247.38Z" fill="#4D5FFF"/>
<ellipse cx="91.6679" cy="248.884" rx="4.55477" ry="6.26818" transform="rotate(131 91.6679 248.884)" fill="#4D5FFF"/>
<ellipse cx="79.1461" cy="256.983" rx="4.55477" ry="6.26818" transform="rotate(166 79.1461 256.983)" fill="#4D5FFF"/>
<ellipse cx="65.71" cy="251.577" rx="4.10734" ry="5.41693" transform="rotate(178 65.71 251.577)" fill="#4D5FFF"/>
<ellipse cx="96.1046" cy="236.044" rx="4.10734" ry="5.41693" transform="rotate(122 96.1046 236.044)" fill="#4D5FFF"/>
<path d="M66.7523 203.35C67.2357 203.292 67.7052 203.15 68.1393 202.929L68.9937 202.495L69.3335 202.286C70.0133 201.867 70.5576 201.26 70.9011 200.539L72.1496 197.919L73.8016 194.667L75.6507 191.819C75.7629 191.647 75.862 191.466 75.9473 191.278L76.8289 189.341C77.0165 188.929 77.1353 188.489 77.1806 188.038L77.3341 186.512C77.3771 186.085 77.3535 185.654 77.2643 185.235L77.1054 184.487C76.9847 183.919 76.7463 183.383 76.4055 182.914L75.8972 182.213C75.7393 181.995 75.5607 181.794 75.3638 181.611L74.6753 180.971C74.1001 180.436 73.3849 180.076 72.613 179.932L72.4576 179.903C71.8166 179.783 71.1563 179.816 70.5305 180L69.1901 180.392C68.9024 180.477 68.6246 180.592 68.3617 180.736L67.6574 181.122C67.1126 181.421 66.6419 181.838 66.28 182.343L65.6378 183.24C65.5197 183.405 65.4139 183.578 65.3211 183.758L64.4839 185.386C64.1763 185.984 63.3852 186.128 62.8865 185.677L61.3246 184.263L61.1387 184.057C60.45 183.292 59.5013 182.811 58.4773 182.706L57.6319 182.62C56.9184 182.547 56.1982 182.661 55.5417 182.949L54.3575 183.47C53.9532 183.648 53.5799 183.889 53.2518 184.185L52.5304 184.834C52.2441 185.092 51.995 185.388 51.7905 185.715L51.2607 186.561C51.0163 186.951 50.8386 187.38 50.7349 187.828L50.5904 188.453C50.5201 188.757 50.4843 189.068 50.4838 189.381L50.4827 190.034C50.4822 190.326 50.5126 190.618 50.5733 190.903L50.7083 191.538C50.7691 191.824 50.8598 192.103 50.9791 192.369L51.167 192.79C51.3463 193.19 51.5881 193.56 51.8834 193.885L52.1579 194.187C52.3569 194.407 52.5788 194.604 52.8198 194.775L53.904 195.549L55.1985 196.389L56.2341 197.062L57.5286 197.902L58.4731 198.589C58.6351 198.707 58.7884 198.836 58.9317 198.976L59.8428 199.865L60.7103 200.797L61.6845 201.706L62.4066 202.237C62.6302 202.402 62.8697 202.544 63.1216 202.66L63.4512 202.813C63.6388 202.9 63.8328 202.973 64.0313 203.031L64.7284 203.235C65.0943 203.342 65.4731 203.398 65.8543 203.402L66.286 203.405L66.7523 203.35Z" fill="#6373FF"/>
<ellipse cx="75.3287" cy="207.37" rx="4.55477" ry="6.26818" transform="rotate(147 75.3287 207.37)" fill="#6373FF"/>
<ellipse cx="61.0574" cy="211.704" rx="4.55477" ry="6.26817" transform="rotate(-178 61.0574 211.704)" fill="#6373FF"/>
<ellipse cx="49.6337" cy="202.807" rx="4.10734" ry="5.41693" transform="rotate(-166 49.6337 202.807)" fill="#6373FF"/>
<ellipse cx="83.1277" cy="196.25" rx="4.10734" ry="5.41693" transform="rotate(138 83.1277 196.25)" fill="#6373FF"/>
<path d="M75.4854 160.496C75.8974 160.756 76.3519 160.94 76.828 161.042L77.7652 161.243L78.1611 161.294C78.9531 161.396 79.7578 161.267 80.4785 160.923L83.0977 159.672L86.4283 158.184L89.6573 157.135C89.8531 157.072 90.044 156.993 90.2282 156.901L92.1326 155.951C92.5377 155.748 92.907 155.481 93.2257 155.16L94.3054 154.07C94.6074 153.766 94.8603 153.416 95.0551 153.034L95.4021 152.352C95.6656 151.835 95.8176 151.269 95.8483 150.689L95.8942 149.825C95.9084 149.557 95.8966 149.287 95.8587 149.021L95.7264 148.091C95.6158 147.313 95.2867 146.583 94.7775 145.985L94.675 145.865C94.2521 145.369 93.7182 144.979 93.1165 144.727L91.8277 144.189C91.551 144.073 91.2627 143.988 90.9676 143.935L90.1772 143.792C89.5658 143.681 88.9373 143.709 88.3382 143.874L87.2749 144.167C87.0794 144.22 86.8881 144.288 86.7026 144.37L85.0275 145.108C84.412 145.38 83.7066 144.994 83.6031 144.329L83.2788 142.248L83.2643 141.97C83.2104 140.942 82.7762 139.971 82.046 139.245L81.4433 138.646C80.9346 138.141 80.3035 137.776 79.6116 137.587L78.3636 137.247C77.9375 137.13 77.4957 137.083 77.0547 137.106L76.0853 137.157C75.7005 137.177 75.3204 137.251 74.9559 137.376L74.0117 137.7C73.5762 137.849 73.1686 138.07 72.8056 138.354L72.3 138.748C72.054 138.94 71.8305 139.16 71.6336 139.402L71.2215 139.909C71.0373 140.136 70.8775 140.381 70.7449 140.642L70.4501 141.22C70.3175 141.481 70.2128 141.754 70.1376 142.036L70.0192 142.481C69.9063 142.906 69.8614 143.345 69.8864 143.784L69.9095 144.191C69.9264 144.487 69.9747 144.78 70.0539 145.065L70.41 146.348L70.8869 147.816L71.2685 148.99L71.7455 150.458L72.0474 151.586C72.0992 151.78 72.137 151.976 72.1603 152.175L72.3086 153.44L72.3966 154.71L72.5818 156.029L72.8084 156.897C72.8785 157.165 72.9755 157.426 73.0978 157.676L73.2577 158.002C73.3488 158.187 73.4537 158.366 73.5715 158.536L73.9849 159.133C74.2019 159.447 74.4611 159.729 74.755 159.971L75.0881 160.246L75.4854 160.496Z" fill="#717FFF"/>
<ellipse cx="79.6137" cy="169.019" rx="4.55477" ry="6.26818" transform="rotate(-174 79.6137 169.019)" fill="#717FFF"/>
<ellipse cx="65.7998" cy="163.406" rx="4.55477" ry="6.26817" transform="rotate(-139 65.7998 163.406)" fill="#717FFF"/>
<ellipse cx="62.5223" cy="149.3" rx="4.10734" ry="5.41693" transform="rotate(-127 62.5223 149.3)" fill="#717FFF"/>
<ellipse cx="92.6812" cy="165.284" rx="4.10734" ry="5.41693" transform="rotate(177 92.6812 165.284)" fill="#717FFF"/>
<path d="M106.265 129.383C106.422 129.844 106.659 130.273 106.964 130.652L107.567 131.398L107.842 131.686C108.394 132.264 109.1 132.671 109.877 132.857L112.699 133.533L116.224 134.473L119.393 135.69C119.586 135.763 119.783 135.823 119.984 135.867L122.063 136.327C122.505 136.425 122.96 136.449 123.41 136.4L124.935 136.233C125.361 136.186 125.778 136.073 126.17 135.899L126.868 135.588C127.398 135.352 127.873 135.007 128.261 134.576L128.841 133.933C129.021 133.734 129.181 133.517 129.319 133.286L129.802 132.48C130.205 131.806 130.409 131.032 130.39 130.247L130.386 130.089C130.369 129.437 130.2 128.798 129.89 128.224L129.228 126.994C129.085 126.73 128.915 126.483 128.719 126.256L128.195 125.647C127.789 125.176 127.283 124.802 126.714 124.553L125.704 124.112C125.518 124.03 125.326 123.963 125.131 123.91L123.364 123.429C122.715 123.253 122.41 122.509 122.748 121.927L123.806 120.106L123.969 119.881C124.574 119.048 124.848 118.02 124.737 116.997L124.645 116.152C124.568 115.439 124.307 114.758 123.889 114.176L123.133 113.126C122.875 112.767 122.562 112.452 122.204 112.193L121.419 111.622C121.107 111.396 120.765 111.214 120.403 111.082L119.466 110.739C119.033 110.581 118.577 110.497 118.117 110.488L117.476 110.477C117.164 110.471 116.852 110.501 116.546 110.566L115.907 110.7C115.621 110.761 115.342 110.851 115.075 110.97L114.482 111.234C114.215 111.353 113.962 111.499 113.726 111.671L113.354 111.943C112.999 112.201 112.687 112.515 112.431 112.871L112.193 113.203C112.02 113.443 111.873 113.701 111.755 113.972L111.224 115.193L110.671 116.634L110.229 117.787L109.675 119.228L109.2 120.295C109.119 120.478 109.024 120.655 108.917 120.824L108.237 121.9L107.506 122.942L106.819 124.084L106.449 124.901C106.335 125.154 106.246 125.418 106.184 125.688L106.103 126.042C106.057 126.244 106.026 126.449 106.011 126.655L105.956 127.379C105.928 127.76 105.952 128.142 106.027 128.515L106.113 128.938L106.265 129.383Z" fill="#828EFF"/>
<ellipse cx="104.114" cy="138.603" rx="4.55477" ry="6.26818" transform="rotate(-135 104.114 138.603)" fill="#828EFF"/>
<ellipse cx="96.9094" cy="125.547" rx="4.55477" ry="6.26818" transform="rotate(-100 96.9094 125.547)" fill="#828EFF"/>
<ellipse cx="103.237" cy="112.524" rx="4.10734" ry="5.41693" transform="rotate(-88 103.237 112.524)" fill="#828EFF"/>
<ellipse cx="116.615" cy="143.922" rx="4.10734" ry="5.41693" transform="rotate(-144 116.615 143.922)" fill="#828EFF"/>
<path d="M151.139 123.707C150.979 124.167 150.901 124.651 150.909 125.138L150.925 126.096L150.964 126.493C151.043 127.288 151.349 128.043 151.847 128.668L153.654 130.939L155.853 133.849L157.602 136.76C157.708 136.936 157.827 137.104 157.958 137.263L159.313 138.905C159.601 139.254 159.945 139.554 160.33 139.792L161.634 140.599C161.999 140.825 162.396 140.993 162.813 141.096L163.554 141.281C164.118 141.422 164.704 141.442 165.275 141.342L166.128 141.192C166.393 141.146 166.652 141.074 166.903 140.977L167.78 140.639C168.513 140.356 169.15 139.871 169.618 139.24L169.712 139.113C170.101 138.59 170.36 137.982 170.47 137.339L170.705 135.962C170.755 135.667 170.773 135.366 170.759 135.067L170.72 134.265C170.691 133.644 170.522 133.038 170.227 132.491L169.702 131.521C169.606 131.343 169.497 131.171 169.375 131.009L168.279 129.543C167.876 129.004 168.094 128.23 168.718 127.98L170.673 127.196L170.94 127.119C171.93 126.835 172.778 126.194 173.321 125.319L173.769 124.597C174.147 123.988 174.361 123.291 174.389 122.574L174.44 121.281C174.458 120.84 174.405 120.399 174.283 119.974L174.015 119.041C173.909 118.671 173.752 118.317 173.548 117.99L173.02 117.143C172.776 116.752 172.469 116.405 172.111 116.115L171.613 115.711C171.371 115.515 171.107 115.346 170.826 115.209L170.239 114.921C169.977 114.793 169.702 114.692 169.418 114.622L168.788 114.465C168.505 114.394 168.215 114.353 167.923 114.344L167.463 114.328C167.024 114.314 166.585 114.369 166.164 114.492L165.772 114.606C165.488 114.689 165.213 114.802 164.953 114.943L163.783 115.579L162.46 116.374L161.402 117.01L160.079 117.805L159.048 118.353C158.871 118.447 158.687 118.528 158.499 118.595L157.3 119.024L156.082 119.396L154.839 119.873L154.044 120.289C153.798 120.418 153.566 120.571 153.35 120.746L153.069 120.975C152.908 121.106 152.758 121.248 152.618 121.401L152.13 121.938C151.873 122.22 151.657 122.536 151.486 122.877L151.293 123.264L151.139 123.707Z" fill="#95A0FF"/>
<ellipse cx="143.76" cy="129.649" rx="4.55477" ry="6.26818" transform="rotate(-97 143.76 129.649)" fill="#95A0FF"/>
<ellipse cx="146.122" cy="114.927" rx="4.55477" ry="6.26818" transform="rotate(-62 146.122 114.927)" fill="#95A0FF"/>
<ellipse cx="159.126" cy="108.556" rx="4.10734" ry="5.41693" transform="rotate(-50 159.126 108.556)" fill="#95A0FF"/>
<ellipse cx="150.337" cy="141.535" rx="4.10734" ry="5.41693" transform="rotate(-106 150.337 141.535)" fill="#95A0FF"/>
<path d="M189.912 145.453C189.56 145.79 189.271 146.186 189.057 146.623L188.636 147.484L188.491 147.856C188.2 148.6 188.13 149.412 188.29 150.194L188.869 153.038L189.507 156.63L189.744 160.017C189.759 160.222 189.788 160.426 189.833 160.627L190.295 162.705C190.393 163.147 190.563 163.57 190.798 163.957L191.594 165.268C191.816 165.635 192.094 165.965 192.418 166.246L192.995 166.748C193.433 167.129 193.946 167.413 194.501 167.583L195.329 167.837C195.586 167.916 195.85 167.969 196.117 167.997L197.052 168.094C197.833 168.174 198.621 168.032 199.324 167.682L199.466 167.612C200.05 167.322 200.557 166.898 200.947 166.375L201.781 165.255C201.96 165.014 202.112 164.755 202.236 164.482L202.566 163.749C202.821 163.183 202.946 162.566 202.931 161.945L202.904 160.843C202.899 160.64 202.879 160.438 202.845 160.238L202.534 158.434C202.42 157.771 202.965 157.18 203.635 157.24L205.733 157.429L206.005 157.482C207.016 157.679 208.063 157.492 208.944 156.96L209.671 156.52C210.285 156.148 210.791 155.624 211.142 154.999L211.774 153.87C211.99 153.485 212.143 153.068 212.228 152.634L212.413 151.681C212.486 151.303 212.507 150.916 212.473 150.532L212.387 149.538C212.348 149.079 212.232 148.63 212.045 148.209L211.784 147.623C211.657 147.338 211.499 147.068 211.311 146.819L210.919 146.296C210.743 146.062 210.544 145.848 210.323 145.656L209.833 145.23C209.613 145.039 209.373 144.871 209.117 144.73L208.714 144.507C208.329 144.295 207.914 144.145 207.482 144.063L207.081 143.987C206.79 143.932 206.495 143.908 206.199 143.916L204.868 143.951L203.328 144.059L202.096 144.145L200.556 144.252L199.389 144.272C199.189 144.276 198.988 144.265 198.79 144.239L197.527 144.077L196.273 143.856L194.948 143.716L194.052 143.726C193.774 143.729 193.497 143.76 193.226 143.818L192.871 143.895C192.669 143.938 192.47 143.997 192.276 144.07L191.597 144.327C191.24 144.461 190.904 144.644 190.598 144.871L190.25 145.128L189.912 145.453Z" fill="#A8B1FF"/>
<ellipse cx="180.639" cy="147.399" rx="4.55477" ry="6.26818" transform="rotate(-70 180.639 147.399)" fill="#A8B1FF"/>
<ellipse cx="189.432" cy="135.35" rx="4.55477" ry="6.26817" transform="rotate(-35 189.432 135.35)" fill="#A8B1FF"/>
<ellipse cx="203.905" cy="135.581" rx="4.10734" ry="5.41693" transform="rotate(-23 203.905 135.581)" fill="#A8B1FF"/>
<ellipse cx="181.105" cy="160.972" rx="4.10734" ry="5.41693" transform="rotate(-79 181.105 160.972)" fill="#A8B1FF"/>
<path d="M231.476 138.765C231.825 139.105 232.231 139.38 232.675 139.579L233.55 139.969L233.927 140.102C234.68 140.366 235.494 140.408 236.271 140.221L239.093 139.542L242.66 138.779L246.037 138.424C246.241 138.403 246.444 138.366 246.644 138.314L248.704 137.78C249.142 137.667 249.559 137.482 249.938 137.234L251.22 136.393C251.579 136.157 251.899 135.868 252.169 135.534L252.65 134.94C253.015 134.489 253.282 133.967 253.433 133.406L253.657 132.57C253.727 132.311 253.771 132.045 253.789 131.777L253.853 130.839C253.907 130.056 253.737 129.273 253.363 128.582L253.288 128.443C252.977 127.87 252.536 127.378 252 127.007L250.851 126.212C250.605 126.042 250.34 125.898 250.063 125.785L249.319 125.48C248.744 125.245 248.124 125.142 247.503 125.178L246.403 125.244C246.2 125.256 245.999 125.282 245.8 125.324L244.008 125.698C243.35 125.835 242.74 125.311 242.777 124.639L242.893 122.536L242.936 122.261C243.097 121.245 242.874 120.204 242.311 119.343L241.846 118.632C241.454 118.031 240.912 117.543 240.275 117.215L239.125 116.622C238.732 116.42 238.31 116.281 237.874 116.212L236.915 116.06C236.534 116 236.147 115.993 235.765 116.04L234.774 116.161C234.317 116.216 233.872 116.348 233.458 116.549L232.881 116.83C232.601 116.967 232.337 117.135 232.094 117.331L231.585 117.742C231.358 117.925 231.15 118.132 230.967 118.359L230.558 118.864C230.374 119.091 230.215 119.336 230.083 119.597L229.874 120.008C229.676 120.399 229.54 120.82 229.474 121.254L229.412 121.657C229.367 121.95 229.353 122.246 229.371 122.542L229.453 123.871L229.614 125.406L229.743 126.634L229.904 128.169L229.965 129.335C229.976 129.535 229.972 129.736 229.953 129.935L229.835 131.203L229.657 132.463L229.564 133.792L229.605 134.688C229.618 134.965 229.659 135.241 229.727 135.51L229.815 135.862C229.866 136.063 229.931 136.259 230.011 136.45L230.291 137.12C230.438 137.472 230.633 137.801 230.87 138.1L231.139 138.438L231.476 138.765Z" fill="#B8BFFF"/>
<ellipse cx="233.738" cy="147.959" rx="4.55477" ry="6.26818" transform="rotate(-162 233.738 147.959)" fill="#B8BFFF"/>
<ellipse cx="221.394" cy="139.596" rx="4.55477" ry="6.26818" transform="rotate(-127 221.394 139.596)" fill="#B8BFFF"/>
<ellipse cx="221.119" cy="125.121" rx="4.10734" ry="5.41693" transform="rotate(-115 221.119 125.121)" fill="#B8BFFF"/>
<ellipse cx="247.291" cy="147.025" rx="4.10734" ry="5.41693" transform="rotate(-171 247.291 147.025)" fill="#B8BFFF"/>
<path d="M266.979 118.069C267.152 118.524 267.404 118.945 267.723 119.313L268.351 120.037L268.636 120.316C269.208 120.874 269.928 121.255 270.71 121.414L273.555 121.992L277.11 122.808L280.32 123.913C280.515 123.98 280.714 124.033 280.917 124.07L283.01 124.457C283.455 124.539 283.911 124.548 284.359 124.483L285.877 124.263C286.302 124.201 286.714 124.074 287.1 123.886L287.787 123.551C288.308 123.296 288.771 122.935 289.144 122.491L289.701 121.828C289.874 121.623 290.026 121.4 290.156 121.165L290.61 120.342C290.99 119.655 291.167 118.874 291.12 118.09L291.11 117.932C291.071 117.281 290.879 116.648 290.55 116.086L289.845 114.88C289.694 114.621 289.515 114.38 289.311 114.159L288.766 113.569C288.344 113.113 287.825 112.757 287.248 112.528L286.222 112.122C286.034 112.047 285.84 111.987 285.643 111.94L283.861 111.522C283.206 111.368 282.875 110.635 283.192 110.042L284.186 108.185L284.341 107.954C284.917 107.101 285.154 106.064 285.008 105.045L284.887 104.204C284.785 103.494 284.501 102.823 284.062 102.256L283.27 101.233C283 100.883 282.675 100.579 282.309 100.333L281.505 99.7898C281.185 99.5743 280.837 99.4044 280.471 99.2849L279.522 98.9755C279.084 98.8328 278.625 98.764 278.165 98.7719L277.524 98.7829C277.212 98.7882 276.901 98.8288 276.598 98.9038L275.964 99.0609C275.68 99.1311 275.405 99.231 275.142 99.3591L274.559 99.6437C274.296 99.7718 274.048 99.9272 273.818 100.107L273.456 100.391C273.11 100.662 272.81 100.987 272.566 101.352L272.339 101.691C272.175 101.937 272.037 102.2 271.929 102.476L271.441 103.715L270.938 105.174L270.536 106.342L270.034 107.801L269.596 108.883C269.521 109.069 269.433 109.249 269.331 109.422L268.689 110.521L267.995 111.588L267.349 112.754L267.008 113.583C266.902 113.84 266.822 114.106 266.77 114.379L266.702 114.736C266.663 114.939 266.639 115.145 266.63 115.351L266.601 116.077C266.586 116.458 266.623 116.839 266.712 117.21L266.813 117.63L266.979 118.069Z" fill="#C1C8FF"/>
<ellipse cx="265.151" cy="127.362" rx="4.55477" ry="6.26818" transform="rotate(-137 265.151 127.362)" fill="#C1C8FF"/>
<ellipse cx="257.497" cy="114.564" rx="4.55477" ry="6.26818" transform="rotate(-102 257.497 114.564)" fill="#C1C8FF"/>
<ellipse cx="263.37" cy="101.326" rx="4.10734" ry="5.41693" transform="rotate(-90 263.37 101.326)" fill="#C1C8FF"/>
<ellipse cx="277.827" cy="132.238" rx="4.10734" ry="5.41693" transform="rotate(-146 277.827 132.238)" fill="#C1C8FF"/>
<path d="M309.437 113.205C309.185 113.622 309.008 114.079 308.915 114.557L308.731 115.498L308.687 115.894C308.598 116.688 308.741 117.49 309.098 118.205L310.394 120.802L311.94 124.106L313.045 127.316C313.112 127.511 313.194 127.7 313.289 127.883L314.273 129.77C314.482 130.172 314.755 130.536 315.083 130.85L316.191 131.91C316.501 132.207 316.855 132.453 317.24 132.641L317.927 132.977C318.449 133.231 319.018 133.373 319.598 133.394L320.463 133.424C320.732 133.434 321.001 133.417 321.266 133.375L322.194 133.226C322.97 133.102 323.694 132.761 324.283 132.241L324.401 132.136C324.89 131.705 325.27 131.164 325.511 130.558L326.027 129.26C326.138 128.982 326.218 128.692 326.266 128.396L326.396 127.603C326.496 126.99 326.457 126.362 326.281 125.766L325.97 124.708C325.913 124.513 325.842 124.323 325.757 124.139L324.989 122.477C324.707 121.866 325.081 121.154 325.744 121.039L327.819 120.679L328.096 120.659C329.123 120.588 330.086 120.136 330.799 119.394L331.388 118.781C331.884 118.263 332.238 117.626 332.415 116.931L332.734 115.677C332.842 115.249 332.882 114.806 332.851 114.366L332.784 113.398C332.757 113.013 332.676 112.634 332.545 112.272L332.204 111.334C332.047 110.901 331.819 110.497 331.53 110.139L331.126 109.641C330.93 109.398 330.707 109.178 330.461 108.986L329.947 108.582C329.717 108.402 329.468 108.247 329.206 108.119L328.622 107.834C328.36 107.706 328.084 107.606 327.801 107.536L327.354 107.425C326.928 107.32 326.487 107.283 326.049 107.315L325.642 107.345C325.347 107.367 325.055 107.421 324.772 107.505L323.495 107.883L322.035 108.386L320.868 108.788L319.408 109.291L318.286 109.612C318.093 109.667 317.897 109.708 317.699 109.735L316.437 109.906L315.169 110.016L313.853 110.224L312.989 110.466C312.722 110.54 312.463 110.642 312.216 110.769L311.892 110.934C311.708 111.028 311.532 111.136 311.364 111.257L310.774 111.681C310.464 111.903 310.187 112.167 309.949 112.466L309.68 112.803L309.437 113.205Z" fill="#C5CBFF"/>
<ellipse cx="300.989" cy="117.485" rx="4.55477" ry="6.26817" transform="rotate(-85 300.989 117.485)" fill="#C5CBFF"/>
<ellipse cx="306.354" cy="103.573" rx="4.55477" ry="6.26817" transform="rotate(-50 306.354 103.573)" fill="#C5CBFF"/>
<ellipse cx="320.4" cy="100.05" rx="4.10734" ry="5.41693" transform="rotate(-38 320.4 100.05)" fill="#C5CBFF"/>
<ellipse cx="304.949" cy="130.48" rx="4.10734" ry="5.41693" transform="rotate(-94 304.949 130.48)" fill="#C5CBFF"/>
<path d="M343.928 135.175C343.533 135.46 343.191 135.812 342.918 136.216L342.382 137.009L342.186 137.357C341.795 138.054 341.612 138.848 341.662 139.645L341.84 142.542L341.972 146.187L341.735 149.574C341.721 149.78 341.722 149.986 341.738 150.191L341.906 152.313C341.942 152.764 342.051 153.207 342.23 153.623L342.836 155.032C343.005 155.426 343.235 155.792 343.516 156.116L344.018 156.692C344.398 157.13 344.867 157.484 345.392 157.729L346.177 158.096C346.42 158.209 346.674 158.299 346.935 158.364L347.847 158.59C348.61 158.778 349.41 158.747 350.155 158.499L350.305 158.449C350.924 158.242 351.485 157.893 351.944 157.43L352.926 156.436C353.136 156.223 353.323 155.988 353.483 155.734L353.912 155.055C354.244 154.529 354.453 153.936 354.525 153.319L354.652 152.224C354.675 152.022 354.684 151.819 354.678 151.617L354.621 149.787C354.6 149.115 355.222 148.605 355.877 148.758L357.928 149.237L358.191 149.328C359.164 149.663 360.227 149.624 361.173 149.219L361.955 148.884C362.614 148.602 363.189 148.154 363.623 147.583L364.406 146.553C364.674 146.202 364.883 145.81 365.027 145.392L365.343 144.475C365.468 144.11 365.542 143.73 365.563 143.346L365.616 142.349C365.641 141.889 365.589 141.428 365.462 140.985L365.285 140.369C365.199 140.069 365.08 139.779 364.929 139.506L364.613 138.934C364.472 138.678 364.304 138.438 364.112 138.218L363.686 137.728C363.495 137.507 363.28 137.308 363.047 137.132L362.679 136.856C362.327 136.592 361.937 136.386 361.521 136.245L361.134 136.113C360.854 136.018 360.564 135.953 360.27 135.92L358.947 135.77L357.407 135.662L356.176 135.576L354.636 135.468L353.477 135.325C353.278 135.301 353.081 135.262 352.888 135.209L351.66 134.873L350.45 134.479L349.157 134.157L348.268 134.042C347.992 134.006 347.714 133.998 347.437 134.018L347.075 134.044C346.869 134.059 346.664 134.089 346.462 134.135L345.753 134.295C345.382 134.378 345.023 134.513 344.688 134.695L344.308 134.901L343.928 135.175Z" fill="#CBD1FF"/>
<ellipse cx="334.481" cy="135.814" rx="4.55477" ry="6.26817" transform="rotate(-62 334.481 135.814)" fill="#CBD1FF"/>
<ellipse cx="344.865" cy="125.107" rx="4.55477" ry="6.26817" transform="rotate(-27 344.865 125.107)" fill="#CBD1FF"/>
<ellipse cx="359.166" cy="127.351" rx="4.10734" ry="5.41693" transform="rotate(-15 359.166 127.351)" fill="#CBD1FF"/>
<ellipse cx="333.049" cy="149.323" rx="4.10734" ry="5.41693" transform="rotate(-71 333.049 149.323)" fill="#CBD1FF"/>
<path d="M364.401 172.294C363.919 172.225 363.429 172.241 362.952 172.341L362.015 172.539L361.632 172.654C360.867 172.883 360.184 173.328 359.666 173.935L357.782 176.143L355.344 178.857L352.821 181.129C352.668 181.266 352.526 181.415 352.395 181.574L351.042 183.218C350.754 183.567 350.525 183.961 350.365 184.385L349.822 185.819C349.67 186.22 349.581 186.643 349.559 187.071L349.519 187.835C349.488 188.414 349.58 188.993 349.787 189.535L350.097 190.344C350.193 190.595 350.314 190.836 350.456 191.064L350.956 191.86C351.373 192.525 351.971 193.058 352.679 193.397L352.821 193.465C353.41 193.747 354.056 193.886 354.708 193.871L356.104 193.838C356.404 193.831 356.702 193.792 356.993 193.721L357.774 193.53C358.377 193.382 358.94 193.101 359.42 192.707L360.273 192.007C360.429 191.878 360.576 191.739 360.713 191.588L361.943 190.233C362.395 189.735 363.196 189.8 363.561 190.365L364.704 192.135L364.83 192.382C365.297 193.299 366.089 194.01 367.051 194.376L367.845 194.678C368.516 194.933 369.241 195.01 369.95 194.901L371.228 194.704C371.665 194.637 372.088 194.501 372.481 194.3L373.346 193.86C373.689 193.685 374.007 193.463 374.289 193.2L375.019 192.52C375.357 192.206 375.639 191.839 375.855 191.432L376.157 190.866C376.303 190.59 376.418 190.299 376.5 189.998L376.67 189.367C376.746 189.085 376.792 188.796 376.807 188.504L376.841 187.855C376.856 187.564 376.841 187.271 376.795 186.983L376.722 186.528C376.653 186.095 376.515 185.675 376.314 185.284L376.127 184.921C375.991 184.658 375.828 184.41 375.639 184.182L374.792 183.155L373.759 182.008L372.933 181.09L371.9 179.943L371.166 179.036C371.04 178.88 370.925 178.715 370.823 178.543L370.173 177.448L369.576 176.324L368.87 175.194L368.311 174.493C368.137 174.276 367.943 174.078 367.729 173.9L367.451 173.667C367.292 173.534 367.123 173.414 366.947 173.306L366.326 172.929C366 172.731 365.649 172.579 365.282 172.477L364.866 172.361L364.401 172.294Z" fill="#DADEFF"/>
<ellipse cx="357.156" cy="166.189" rx="4.55477" ry="6.26817" transform="rotate(-18 357.156 166.189)" fill="#DADEFF"/>
<ellipse cx="372.066" cy="165.699" rx="4.55477" ry="6.26817" transform="rotate(17 372.066 165.699)" fill="#DADEFF"/>
<ellipse cx="380.794" cy="177.251" rx="4.10734" ry="5.41693" transform="rotate(29 380.794 177.251)" fill="#DADEFF"/>
<ellipse cx="346.744" cy="174.913" rx="4.10734" ry="5.41693" transform="rotate(-27 346.744 174.913)" fill="#DADEFF"/>
<path d="M358.818 214.093C358.381 213.878 357.91 213.742 357.426 213.69L356.473 213.589L356.074 213.58C355.276 213.561 354.489 213.773 353.808 214.19L351.334 215.708L348.177 217.536L345.075 218.917C344.887 219.001 344.706 219.098 344.532 219.209L342.737 220.354C342.356 220.597 342.016 220.901 341.733 221.255L340.773 222.451C340.505 222.785 340.29 223.16 340.136 223.56L339.862 224.274C339.654 224.816 339.562 225.395 339.592 225.975L339.637 226.839C339.651 227.107 339.691 227.374 339.756 227.635L339.985 228.546C340.176 229.308 340.58 230 341.149 230.541L341.263 230.65C341.736 231.099 342.307 231.431 342.932 231.618L344.27 232.019C344.557 232.105 344.853 232.16 345.152 232.182L345.953 232.242C346.573 232.288 347.195 232.194 347.773 231.968L348.8 231.566C348.989 231.492 349.172 231.404 349.348 231.303L350.937 230.394C351.521 230.06 352.263 230.37 352.435 231.02L352.975 233.056L353.019 233.331C353.18 234.347 353.713 235.268 354.515 235.913L355.177 236.446C355.736 236.895 356.402 237.192 357.109 237.308L358.386 237.516C358.822 237.587 359.266 237.588 359.703 237.519L360.661 237.367C361.042 237.307 361.412 237.194 361.762 237.031L362.667 236.61C363.084 236.416 363.467 236.154 363.798 235.834L364.259 235.389C364.484 235.172 364.683 234.93 364.854 234.669L365.211 234.121C365.37 233.877 365.504 233.616 365.608 233.343L365.841 232.737C365.946 232.464 366.021 232.181 366.066 231.893L366.138 231.438C366.206 231.004 366.204 230.562 366.134 230.129L366.068 229.726C366.02 229.434 365.942 229.147 365.833 228.872L365.345 227.633L364.717 226.223L364.215 225.095L363.587 223.685L363.169 222.595C363.097 222.408 363.039 222.216 362.995 222.021L362.715 220.778L362.495 219.525L362.173 218.232L361.857 217.393C361.759 217.133 361.635 216.884 361.488 216.648L361.295 216.341C361.185 216.166 361.062 215.999 360.927 215.842L360.453 215.292C360.204 215.003 359.917 214.749 359.6 214.539L359.24 214.3L358.818 214.093Z" fill="#E2E5FF"/>
<ellipse cx="353.82" cy="206.049" rx="4.55477" ry="6.26817" fill="#E2E5FF"/>
<ellipse cx="368.151" cy="210.189" rx="4.55477" ry="6.26817" transform="rotate(35 368.151 210.189)" fill="#E2E5FF"/>
<ellipse cx="372.882" cy="223.872" rx="4.10734" ry="5.41693" transform="rotate(47 372.882 223.872)" fill="#E2E5FF"/>
<ellipse cx="341.224" cy="211.128" rx="4.10734" ry="5.41693" transform="rotate(-9 341.224 211.128)" fill="#E2E5FF"/>
<path d="M337.808 249.347C337.421 249.053 336.984 248.829 336.518 248.686L335.602 248.405L335.212 248.319C334.432 248.149 333.619 248.207 332.871 248.487L330.153 249.504L326.706 250.696L323.398 251.46C323.197 251.506 323 251.567 322.808 251.643L320.828 252.424C320.407 252.59 320.016 252.824 319.67 253.117L318.5 254.108C318.173 254.385 317.89 254.712 317.663 255.076L317.258 255.724C316.95 256.216 316.749 256.767 316.668 257.342L316.547 258.199C316.51 258.465 316.498 258.734 316.512 259.003L316.563 259.941C316.606 260.725 316.87 261.481 317.325 262.121L317.417 262.25C317.795 262.781 318.293 263.216 318.87 263.519L320.107 264.168C320.373 264.307 320.652 264.417 320.942 264.496L321.717 264.707C322.316 264.871 322.945 264.898 323.556 264.786L324.641 264.587C324.84 264.55 325.036 264.499 325.228 264.434L326.961 263.845C327.598 263.628 328.267 264.074 328.313 264.745L328.454 266.847L328.444 267.124C328.409 268.153 328.756 269.159 329.421 269.945L329.969 270.594C330.432 271.142 331.028 271.561 331.701 271.809L332.915 272.257C333.329 272.41 333.765 272.496 334.206 272.511L335.177 272.545C335.562 272.559 335.947 272.518 336.321 272.426L337.29 272.185C337.737 272.074 338.162 271.89 338.548 271.639L339.086 271.29C339.348 271.12 339.59 270.921 339.807 270.697L340.262 270.227C340.465 270.017 340.646 269.787 340.8 269.539L341.144 268.988C341.299 268.741 341.427 268.477 341.527 268.203L341.684 267.77C341.833 267.357 341.916 266.923 341.93 266.484L341.942 266.076C341.951 265.78 341.928 265.484 341.874 265.193L341.631 263.884L341.284 262.38L341.006 261.177L340.659 259.673L340.457 258.523C340.422 258.326 340.402 258.126 340.396 257.926L340.358 256.653L340.381 255.38L340.312 254.05L340.161 253.166C340.115 252.892 340.041 252.624 339.941 252.365L339.81 252.026C339.736 251.833 339.647 251.646 339.544 251.466L339.184 250.835C338.996 250.504 338.762 250.201 338.49 249.934L338.182 249.631L337.808 249.347Z" fill="#EDEFFF"/>
<ellipse cx="334.435" cy="240.497" rx="4.55477" ry="6.26817" transform="rotate(11 334.435 240.497)" fill="#EDEFFF"/>
<ellipse cx="347.71" cy="247.293" rx="4.55477" ry="6.26817" transform="rotate(46 347.71 247.293)" fill="#EDEFFF"/>
<ellipse cx="349.747" cy="261.627" rx="4.10734" ry="5.41693" transform="rotate(58 349.747 261.627)" fill="#EDEFFF"/>
<ellipse cx="321.099" cy="243.077" rx="4.10734" ry="5.41693" transform="rotate(2 321.099 243.077)" fill="#EDEFFF"/>
<path d="M312.858 283.022C312.491 282.702 312.071 282.448 311.617 282.273L310.723 281.929L310.34 281.816C309.573 281.592 308.759 281.593 307.993 281.82L305.21 282.645L301.688 283.594L298.335 284.125C298.131 284.157 297.93 284.205 297.734 284.267L295.704 284.908C295.273 285.044 294.866 285.25 294.501 285.518L293.264 286.425C292.918 286.679 292.614 286.985 292.362 287.332L291.912 287.95C291.571 288.42 291.332 288.956 291.211 289.523L291.031 290.37C290.975 290.633 290.944 290.9 290.94 291.169L290.925 292.109C290.913 292.894 291.124 293.667 291.533 294.337L291.616 294.472C291.956 295.028 292.422 295.497 292.977 295.839L294.166 296.572C294.421 296.73 294.692 296.859 294.975 296.958L295.734 297.223C296.32 297.428 296.945 297.499 297.563 297.429L298.659 297.307C298.86 297.284 299.06 297.247 299.256 297.195L301.026 296.728C301.676 296.557 302.313 297.048 302.311 297.721L302.306 299.827L302.277 300.104C302.169 301.127 302.446 302.154 303.054 302.985L303.555 303.671C303.978 304.25 304.545 304.709 305.199 305.004L306.378 305.536C306.781 305.717 307.21 305.833 307.649 305.879L308.614 305.981C308.997 306.021 309.384 306.008 309.764 305.941L310.747 305.769C311.201 305.689 311.638 305.535 312.041 305.312L312.602 305.001C312.875 304.85 313.13 304.668 313.362 304.46L313.849 304.023C314.066 303.828 314.262 303.61 314.434 303.374L314.816 302.849C314.987 302.612 315.134 302.359 315.252 302.092L315.438 301.671C315.616 301.269 315.729 300.842 315.773 300.405L315.814 299.999C315.844 299.705 315.842 299.408 315.808 299.114L315.657 297.791L315.416 296.266L315.223 295.047L314.981 293.522L314.86 292.361C314.839 292.162 314.832 291.961 314.84 291.761L314.892 290.489L315.003 289.221L315.027 287.889L314.939 286.996C314.911 286.72 314.857 286.447 314.775 286.182L314.668 285.835C314.607 285.637 314.531 285.444 314.442 285.258L314.127 284.603C313.961 284.26 313.749 283.941 313.497 283.655L313.211 283.332L312.858 283.022Z" fill="#F2F4FF"/>
<ellipse cx="310.109" cy="273.96" rx="4.55477" ry="6.26817" transform="rotate(15 310.109 273.96)" fill="#F2F4FF"/>
<ellipse cx="322.88" cy="281.667" rx="4.55477" ry="6.26817" transform="rotate(50 322.88 281.667)" fill="#F2F4FF"/>
<ellipse cx="323.915" cy="296.107" rx="4.10734" ry="5.41693" transform="rotate(62 323.915 296.107)" fill="#F2F4FF"/>
<ellipse cx="296.628" cy="275.604" rx="4.10734" ry="5.41693" transform="rotate(6 296.628 275.604)" fill="#F2F4FF"/>
<path d="M284.681 314.841C284.382 314.457 284.019 314.128 283.606 313.869L282.794 313.36L282.439 313.177C281.73 312.81 280.93 312.656 280.135 312.733L277.246 313.012L273.607 313.271L270.214 313.153C270.008 313.146 269.802 313.154 269.598 313.177L267.483 313.419C267.033 313.471 266.595 313.596 266.185 313.789L264.798 314.443C264.41 314.626 264.053 314.868 263.739 315.161L263.18 315.682C262.756 316.078 262.419 316.558 262.192 317.092L261.853 317.889C261.748 318.136 261.667 318.393 261.612 318.656L261.418 319.576C261.256 320.345 261.315 321.143 261.589 321.879L261.644 322.027C261.872 322.638 262.24 323.187 262.72 323.629L263.747 324.576C263.967 324.779 264.209 324.958 264.468 325.109L265.162 325.514C265.699 325.827 266.299 326.015 266.918 326.065L268.017 326.154C268.219 326.17 268.422 326.172 268.625 326.159L270.451 326.038C271.122 325.993 271.653 326.597 271.523 327.257L271.116 329.324L271.035 329.59C270.734 330.574 270.81 331.635 271.248 332.567L271.609 333.336C271.914 333.985 272.383 334.544 272.968 334.958L274.024 335.705C274.385 335.96 274.784 336.155 275.206 336.285L276.135 336.568C276.503 336.681 276.885 336.742 277.271 336.749L278.269 336.767C278.729 336.776 279.188 336.707 279.626 336.565L280.236 336.367C280.533 336.271 280.818 336.141 281.086 335.981L281.647 335.645C281.897 335.495 282.131 335.319 282.345 335.12L282.82 334.677C283.033 334.478 283.225 334.257 283.393 334.017L283.656 333.64C283.907 333.279 284.1 332.882 284.226 332.461L284.344 332.07C284.429 331.787 284.484 331.495 284.507 331.2L284.611 329.873L284.665 328.33L284.708 327.096L284.762 325.553L284.864 324.39C284.882 324.191 284.913 323.993 284.96 323.798L285.253 322.559L285.604 321.335L285.882 320.032L285.965 319.139C285.991 318.863 285.99 318.585 285.96 318.309L285.921 317.947C285.899 317.742 285.862 317.538 285.809 317.338L285.625 316.635C285.528 316.267 285.381 315.913 285.188 315.585L284.969 315.212L284.681 314.841Z" fill="#F8F9FF"/>
<ellipse cx="283.709" cy="305.418" rx="4.55477" ry="6.26817" transform="rotate(26 283.709 305.418)" fill="#F8F9FF"/>
<ellipse cx="294.777" cy="315.419" rx="4.55477" ry="6.26817" transform="rotate(61 294.777 315.419)" fill="#F8F9FF"/>
<ellipse cx="293.032" cy="329.793" rx="4.10734" ry="5.41693" transform="rotate(73 293.032 329.793)" fill="#F8F9FF"/>
<ellipse cx="270.164" cy="304.459" rx="4.10734" ry="5.41693" transform="rotate(17 270.164 304.459)" fill="#F8F9FF"/>
<path d="M181.28 342.192C181.643 341.867 181.946 341.482 182.175 341.052L182.626 340.206L182.784 339.84C183.101 339.107 183.199 338.298 183.067 337.51L182.586 334.648L182.074 331.036L181.956 327.643C181.949 327.437 181.926 327.232 181.888 327.029L181.499 324.937C181.417 324.492 181.262 324.063 181.04 323.668L180.291 322.33C180.081 321.956 179.815 321.616 179.501 321.323L178.942 320.802C178.517 320.406 178.015 320.104 177.466 319.915L176.648 319.632C176.394 319.545 176.132 319.482 175.865 319.445L174.934 319.316C174.157 319.208 173.364 319.323 172.649 319.648L172.505 319.713C171.911 319.983 171.39 320.388 170.982 320.897L170.109 321.988C169.922 322.222 169.76 322.476 169.628 322.745L169.272 323.465C168.997 324.022 168.851 324.634 168.845 325.255L168.833 326.358C168.831 326.561 168.843 326.764 168.871 326.964L169.119 328.778C169.21 329.445 168.644 330.016 167.977 329.933L165.887 329.671L165.616 329.608C164.613 329.376 163.56 329.526 162.661 330.028L161.919 330.442C161.293 330.792 160.768 331.298 160.396 331.911L159.724 333.017C159.495 333.394 159.328 333.806 159.229 334.236L159.01 335.182C158.923 335.558 158.89 335.943 158.909 336.328L158.961 337.325C158.984 337.785 159.084 338.238 159.257 338.665L159.497 339.259C159.614 339.549 159.763 339.824 159.941 340.08L160.315 340.616C160.483 340.856 160.675 341.077 160.888 341.276L161.363 341.719C161.577 341.918 161.811 342.094 162.061 342.244L162.456 342.481C162.833 342.706 163.243 342.871 163.672 342.968L164.07 343.058C164.359 343.123 164.653 343.157 164.949 343.16L166.281 343.171L167.823 343.117L169.058 343.074L170.6 343.02L171.768 343.041C171.968 343.044 172.168 343.062 172.365 343.095L173.622 343.301L174.867 343.566L176.186 343.752L177.082 343.773C177.36 343.78 177.637 343.759 177.911 343.71L178.268 343.646C178.472 343.609 178.673 343.558 178.869 343.492L179.556 343.259C179.918 343.137 180.26 342.965 180.574 342.749L180.93 342.505L181.28 342.192Z" fill="#152CFF"/>
<ellipse cx="190.615" cy="340.568" rx="4.55477" ry="6.26818" transform="rotate(112 190.615 340.568)" fill="#152CFF"/>
<ellipse cx="181.411" cy="352.298" rx="4.55477" ry="6.26818" transform="rotate(147 181.411 352.298)" fill="#152CFF"/>
<ellipse cx="166.951" cy="351.563" rx="4.10734" ry="5.41693" transform="rotate(159 166.951 351.563)" fill="#152CFF"/>
<ellipse cx="190.618" cy="326.985" rx="4.10734" ry="5.41693" transform="rotate(103 190.618 326.985)" fill="#152CFF"/>
<path d="M218.533 368.223C218.866 367.868 219.134 367.457 219.325 367.009L219.7 366.127L219.826 365.749C220.077 364.991 220.104 364.176 219.904 363.403L219.176 360.593L218.351 357.04L217.937 353.67C217.912 353.466 217.872 353.263 217.817 353.065L217.247 351.014C217.126 350.578 216.934 350.164 216.679 349.79L215.816 348.523C215.574 348.168 215.279 347.853 214.941 347.589L214.339 347.118C213.881 346.761 213.354 346.504 212.791 346.363L211.952 346.153C211.691 346.088 211.424 346.048 211.156 346.034L210.217 345.987C209.433 345.947 208.653 346.131 207.969 346.516L207.832 346.594C207.264 346.914 206.779 347.364 206.418 347.907L205.643 349.069C205.477 349.319 205.338 349.586 205.23 349.865L204.938 350.614C204.713 351.193 204.621 351.815 204.668 352.435L204.752 353.534C204.768 353.736 204.798 353.937 204.843 354.135L205.248 355.92C205.397 356.576 204.884 357.195 204.211 357.169L202.106 357.091L201.831 357.052C200.812 356.909 199.776 357.15 198.924 357.728L198.221 358.205C197.628 358.608 197.149 359.158 196.832 359.801L196.259 360.961C196.064 361.357 195.933 361.782 195.871 362.219L195.736 363.181C195.683 363.562 195.683 363.949 195.736 364.331L195.874 365.32C195.937 365.776 196.077 366.218 196.285 366.628L196.577 367.2C196.718 367.478 196.891 367.739 197.091 367.979L197.51 368.48C197.698 368.704 197.908 368.908 198.138 369.088L198.65 369.488C198.88 369.667 199.129 369.822 199.391 369.95L199.806 370.151C200.201 370.343 200.624 370.471 201.059 370.53L201.463 370.585C201.757 370.625 202.053 370.633 202.348 370.61L203.676 370.505L205.208 370.317L206.433 370.167L207.965 369.979L209.13 369.898C209.33 369.884 209.53 369.884 209.73 369.899L211 369.995L212.263 370.151L213.594 370.221L214.489 370.164C214.766 370.146 215.04 370.101 215.308 370.028L215.659 369.934C215.859 369.88 216.054 369.811 216.243 369.728L216.908 369.436C217.257 369.283 217.584 369.082 217.878 368.84L218.211 368.565L218.533 368.223Z" fill="#001AFF"/>
<ellipse cx="227.686" cy="365.795" rx="4.55477" ry="6.26818" transform="rotate(107 227.686 365.795)" fill="#001AFF"/>
<ellipse cx="219.54" cy="378.283" rx="4.55477" ry="6.26818" transform="rotate(142 219.54 378.283)" fill="#001AFF"/>
<ellipse cx="205.07" cy="378.813" rx="4.10734" ry="5.41693" transform="rotate(154 205.07 378.813)" fill="#001AFF"/>
<ellipse cx="226.517" cy="352.263" rx="4.10734" ry="5.41693" transform="rotate(98 226.517 352.263)" fill="#001AFF"/>
<path d="M80.1299 498.849C80.1299 498.849 85.2371 496.978 88.1888 496.771C91.4545 496.543 93.466 498.232 95.8577 503.556C101.008 514.934 103.558 522.518 105.688 528.617C107.956 524.041 110.361 516.93 111.133 508.104C110.873 510.71 108.418 511.702 106.471 511.838C102.703 512.102 99.3698 509.558 99.036 504.785C98.7242 500.326 101.126 495.867 107.658 495.41C111.614 495.133 115.99 496.342 116.548 504.318C117.246 514.303 111.244 529.554 109.184 533.484C105.34 536.277 102.983 537.768 100.283 537.956C97.5822 538.145 95.7943 536.945 94.7394 534.494C93.6086 531.86 89.7215 518.689 80.1299 498.849ZM136.349 515.618C136.099 512.038 135.239 507.87 130.78 508.182C130.152 508.226 129.529 508.333 129.102 508.552C129.779 509.199 130.293 510.235 130.385 511.554C130.644 515.26 127.238 516.192 125.04 516.346C121.398 516.6 119.14 514.991 118.924 511.914C118.468 505.383 128.365 503.428 134.332 503.011C142.747 502.423 147.551 505.242 148.197 514.474C148.425 517.74 148.107 520.413 148.432 525.06C148.661 528.326 150.304 530.167 152.439 530.018L153.364 532.414C149.782 534.432 147.116 535.123 145.044 535.268C142.092 535.475 140.142 534.664 138.876 532.796C136.311 534.932 133.133 536.417 128.863 536.715C123.65 537.08 119.688 535.463 119.314 530.125C118.831 523.217 124.793 516.426 136.224 515.627L136.349 515.618ZM137.526 529.735C137.097 528.124 136.844 526.312 136.695 524.177C136.594 522.732 136.574 521.535 136.557 520.4L133.606 520.606C131.784 520.734 130.423 522.028 130.599 524.54C130.814 527.617 133.067 530.047 136.772 529.788C137.086 529.766 137.274 529.753 137.526 529.735ZM171.677 530.187C167.433 533.576 163.135 534.382 160.623 534.557C157.734 534.759 156.178 534.174 156.426 530.496C156.614 527.769 156.41 520.337 155.83 512.047C155.259 503.883 153.43 493.976 153.43 493.976L167.16 490.87C167.16 490.87 166.851 502.693 167.396 510.481C167.931 518.143 168.25 527.208 171.677 530.187ZM186.755 520.424C188.715 523.19 191.844 524.612 195.863 524.331C199.129 524.102 201.961 523.084 203.802 521.441C204.04 521.235 204.246 521.473 204.272 521.849C204.584 526.308 196.273 532.001 188.674 532.533C179.693 533.161 173.668 528.218 173.079 519.802C172.28 508.372 180.515 499.782 193.075 498.903C200.8 498.363 205.205 500.895 205.57 506.108C206.075 513.33 198.396 519.042 186.755 520.424ZM184.593 513.885C184.686 515.204 184.895 516.389 185.288 517.497C190.125 516.275 193.311 512.203 192.977 507.43C192.81 505.043 191.843 503.849 189.959 503.981C186.819 504.2 184.176 507.919 184.593 513.885ZM224.219 528.533L210.089 529.521C210.089 529.521 210.789 526.001 210.016 514.947C209.243 503.894 207.981 499.376 207.981 499.376L220.478 498.502L220.654 501.014C223.924 498.135 227.407 496.503 230.861 496.261C236.011 495.901 238.429 498.887 238.938 506.172C239.153 509.25 239.017 513.614 239.254 517.005C239.609 522.092 240.789 525.418 242.872 527.228C240.529 528.023 237.98 528.58 235.531 528.751C229.691 529.16 227.406 527.174 226.993 521.27C226.651 516.372 227.774 511.686 227.524 508.106C227.335 505.406 226.422 504.081 224.852 504.191C222.277 504.371 221.204 507.98 221.692 514.951C222.302 523.681 224.219 528.533 224.219 528.533ZM265.743 520.896C266.015 524.789 262.239 527.641 256.336 528.054C249.741 528.515 245.924 525.374 245.477 518.968L244.317 502.388L243.187 502.467C242.056 502.546 241.469 502.272 241.416 501.518C241.179 498.127 251.442 488.763 255.211 488.5C255.839 488.456 256.17 488.685 256.21 489.25L256.68 495.97L262.834 495.54C263.058 498.743 262.404 501.124 258.573 501.391L257.066 501.497C256.592 503.739 256.397 508.17 256.634 511.561C257.064 517.716 258.731 518.988 260.866 518.839C262.311 518.738 263.406 518.156 264.165 517.283C265.124 518.352 265.651 519.577 265.743 520.896ZM272.871 492.629C270.421 492.8 265.91 492.359 265.664 488.842C265.409 485.199 269.874 484.067 272.323 483.895C274.772 483.724 279.351 484.224 279.606 487.867C279.852 491.384 275.32 492.458 272.871 492.629ZM282.355 524.467L268.475 525.438C268.475 525.438 269.18 519.267 268.552 510.286C267.836 500.05 266.367 495.293 266.367 495.293L280.247 494.322C280.247 494.322 279.454 499.237 280.17 509.474C280.798 518.455 282.355 524.467 282.355 524.467ZM301.25 523.146L287.12 524.134C287.12 524.134 287.82 520.614 287.047 509.561C286.274 498.508 285.012 493.989 285.012 493.989L297.509 493.115L297.685 495.627C300.955 492.748 304.438 491.116 307.892 490.874C313.042 490.514 315.459 493.501 315.969 500.786C316.184 503.863 316.047 508.227 316.285 511.619C316.64 516.706 317.819 520.031 319.902 521.842C317.56 522.637 315.011 523.194 312.562 523.365C306.721 523.773 304.437 521.787 304.024 515.884C303.682 510.985 304.805 506.3 304.555 502.72C304.366 500.019 303.453 498.695 301.883 498.805C299.308 498.985 298.235 502.594 298.723 509.565C299.333 518.294 301.25 523.146 301.25 523.146ZM334.193 510.114C336.153 512.88 339.282 514.302 343.301 514.021C346.567 513.792 349.399 512.774 351.24 511.131C351.478 510.925 351.684 511.163 351.71 511.54C352.022 515.998 343.711 521.691 336.112 522.223C327.131 522.851 321.106 517.908 320.518 509.492C319.718 498.062 327.953 489.472 340.513 488.593C348.238 488.053 352.643 490.585 353.008 495.798C353.513 503.02 345.834 508.732 334.193 510.114ZM332.031 503.575C332.124 504.894 332.333 506.079 332.726 507.187C337.563 505.965 340.749 501.893 340.415 497.12C340.248 494.734 339.281 493.539 337.397 493.671C334.257 493.89 331.614 497.609 332.031 503.575ZM362.29 474.512C362.016 476.004 361.645 477.628 361.179 479.386C360.713 481.143 360.184 482.905 359.592 484.672C359.04 486.393 358.481 488.031 357.917 489.585L353.834 489.871C354.045 488.678 354.251 487.401 354.45 486.041C354.691 484.678 354.891 483.318 355.048 481.96C355.245 480.558 355.402 479.201 355.521 477.888C355.681 476.573 355.807 475.365 355.899 474.265L361.802 473.852L362.29 474.512ZM394.935 508.328C395.427 515.362 390.214 518.44 380.857 519.094C372.63 519.669 366.995 517.602 366.709 513.52C366.428 509.501 371.838 506.535 376.925 506.179C377.254 510.889 378.711 514.574 381.034 514.412C382.416 514.315 383.4 513.047 383.264 511.1C382.759 503.878 368.064 507.619 367.3 496.692C366.865 490.474 371.755 486.409 380.045 485.829C386.891 485.35 392.342 487.494 392.566 490.696C392.777 493.711 388.549 495.521 383.022 495.908C382.759 492.14 381.128 490.487 378.867 490.645C377.36 490.75 376.839 491.418 376.896 492.234C377.243 497.195 394.03 495.39 394.935 508.328Z" fill="#FF00AE"/>
</svg>
