<svg width="1719" height="777" viewBox="0 0 1719 777" fill="none" xmlns="http://www.w3.org/2000/svg">
<path fill-rule="evenodd" clip-rule="evenodd" d="M1718.81 719.801H0C21.3827 319.101 397.973 0 859.406 0C1320.84 0 1697.43 319.101 1718.81 719.801Z" fill="#FFC9E4"/>
<path fill-rule="evenodd" clip-rule="evenodd" d="M1626.94 719.797H82.4883C94.8636 354.492 435.863 61.6934 854.713 61.6934C1273.56 61.6934 1614.56 354.492 1626.94 719.797Z" fill="#FFD3E9"/>
<path fill-rule="evenodd" clip-rule="evenodd" d="M1557.14 719.803H153.23C165.578 388.579 475.129 123.396 855.186 123.396C1235.24 123.396 1544.79 388.579 1557.14 719.803Z" fill="#FFA9D4"/>
<path fill-rule="evenodd" clip-rule="evenodd" d="M1438.77 719.807H1519.89C1495.88 420.975 1212.31 185.098 866.022 185.098C519.733 185.098 236.159 420.975 212.152 719.807H306.238C327.23 461.17 572.736 257.074 872.506 257.074C1172.28 257.074 1417.78 461.17 1438.77 719.807Z" fill="#FFC9E4"/>
<path fill-rule="evenodd" clip-rule="evenodd" d="M1448.68 777C1449.43 766.583 1449.81 756.08 1449.81 745.5C1449.81 470.186 1191.26 247 872.312 247C553.368 247 294.812 470.186 294.812 745.5C294.812 756.08 295.194 766.583 295.947 777H1448.68Z" fill="#FFEAF5"/>
</svg>
