<svg width="57" height="117" viewBox="0 0 57 117" fill="none" xmlns="http://www.w3.org/2000/svg">
<path d="M8.88672 106.5C5.40162 109.78 7.19258 115.634 11.9134 116.421C12.228 116.474 12.547 116.5 12.8661 116.5H43.927C44.233 116.5 44.5385 116.476 44.8406 116.427L44.9964 116.402C49.7507 115.642 51.4853 109.699 47.8867 106.5L41.1827 99.7959C39.3924 98.0057 38.3867 95.5777 38.3867 93.0459V85.7141C38.3867 84.4913 39.378 83.5 40.6009 83.5C42.2943 83.5 43.3609 81.6763 42.5307 80.2003L39.8867 75.5L38.0848 71.5357C37.6247 70.5236 37.3867 69.4248 37.3867 68.3131V66.1126C37.3867 64.5114 38.2914 63.0477 39.7235 62.3316L40.5756 61.9056C41.0924 61.6471 41.4771 61.1836 41.6359 60.628C42.0121 59.311 41.0233 58 39.6536 58H18.367C16.8163 58 15.844 59.6753 16.6134 61.0217C16.7924 61.3349 17.0519 61.5944 17.365 61.7733L18.0057 62.1394C19.4781 62.9808 20.3867 64.5465 20.3867 66.2423V67.8282C20.3867 69.2466 19.9822 70.6356 19.2207 71.8323L16.8867 75.5L14.8615 79.1005C13.7545 81.0684 15.1766 83.5 17.4345 83.5C19.065 83.5 20.3867 84.8217 20.3867 86.4522V92.6775C20.3867 95.4149 19.1647 98.0095 17.0542 99.7529L8.88672 106.5Z" fill="#FF00AE"/>
<path d="M21.8867 6.96125C21.8867 6.35368 22.1629 5.77906 22.6373 5.39951L28.0441 1.07406C28.8162 0.456446 29.9236 0.495597 30.6501 1.16619L35.2433 5.40606C35.6534 5.78467 35.8867 6.31747 35.8867 6.87566V58H21.8867V6.96125Z" fill="white"/>
</svg>
