<svg width="174" height="212" viewBox="0 0 174 212" fill="none" xmlns="http://www.w3.org/2000/svg">
<g filter="url(#filter0_f_1075_1800)">
<circle cx="87" cy="87" r="50" fill="#FF8664"/>
<circle cx="87" cy="87" r="50" fill="#FF8664"/>
<circle cx="87" cy="87" r="32" fill="#FFEAF5"/>
</g>
<path d="M67.5 201.5C64.0149 204.78 65.8059 210.634 70.5267 211.421C70.8413 211.474 71.1603 211.5 71.4793 211.5H102.54C102.846 211.5 103.152 211.476 103.454 211.427L103.61 211.402C108.364 210.642 110.099 204.699 106.5 201.5L99.7959 194.796C98.0057 193.006 97 190.578 97 188.046V180.714C97 179.491 97.9913 178.5 99.2141 178.5C100.908 178.5 101.974 176.676 101.144 175.2L98.5 170.5L96.698 166.536C96.238 165.524 96 164.425 96 163.313V161.113C96 159.511 96.9046 158.048 98.3368 157.332L99.1888 156.906C99.7057 156.647 100.09 156.184 100.249 155.628C100.625 154.311 99.6365 153 98.2669 153H76.9803C75.4295 153 74.4573 154.675 75.2267 156.022C75.4056 156.335 75.6651 156.594 75.9783 156.773L76.619 157.139C78.0913 157.981 79 159.547 79 161.242V162.828C79 164.247 78.5955 165.636 77.834 166.832L75.5 170.5L73.4747 174.1C72.3678 176.068 73.7899 178.5 76.0478 178.5C77.6783 178.5 79 179.822 79 181.452V187.677C79 190.415 77.778 193.009 75.6675 194.753L67.5 201.5Z" fill="#D6006B"/>
<path d="M80.5 101.961C80.5 101.354 80.7762 100.779 81.2506 100.4L86.6574 96.0741C87.4294 95.4564 88.5369 95.4956 89.2634 96.1662L93.8566 100.406C94.2667 100.785 94.5 101.317 94.5 101.876V153H80.5V101.961Z" fill="white"/>
<path d="M92.25 89.0464C93.6505 92.3725 91.2082 96.0508 87.5992 96.0508C83.9903 96.0508 81.548 92.3725 82.9485 89.0464L87.5992 78.0008L92.25 89.0464Z" fill="#FF8664"/>
<path d="M90.9245 91.8388C91.9565 94.2897 90.1569 97 87.4977 97C84.8384 97 83.0388 94.2897 84.0708 91.8388L87.4977 83.7L90.9245 91.8388Z" fill="#FFD089"/>
<defs>
<filter id="filter0_f_1075_1800" x="0.200001" y="0.200001" width="173.6" height="173.6" filterUnits="userSpaceOnUse" color-interpolation-filters="sRGB">
<feFlood flood-opacity="0" result="BackgroundImageFix"/>
<feBlend mode="normal" in="SourceGraphic" in2="BackgroundImageFix" result="shape"/>
<feGaussianBlur stdDeviation="18.4" result="effect1_foregroundBlur_1075_1800"/>
</filter>
</defs>
</svg>
