<svg width="681" height="40" viewBox="0 0 681 40" fill="none" xmlns="http://www.w3.org/2000/svg">
<path d="M14.96 14.264C16.688 16.056 17.008 17.656 17.008 19.512C17.008 21.688 16.24 23.48 14.64 24.888C13.104 26.296 11.184 26.936 8.944 26.936H0.56V1.208H6.832C8.816 1.208 10.416 1.72 11.568 2.744C12.784 3.896 13.68 5.496 13.68 7.48C13.68 9.528 12.976 11 11.44 12.088C12.912 12.536 14 13.24 14.96 14.264ZM6.832 3.768H3.056V11.576H7.024C8.24 11.576 9.264 11.192 10.096 10.424C10.928 9.656 11.312 8.76 11.312 7.736C11.312 6.456 10.928 5.56 10.096 4.856C9.2 4.088 8.048 3.768 6.832 3.768ZM12.784 23.224C14 22.2 14.576 20.92 14.576 19.256C14.576 17.592 14 16.248 12.784 15.224C11.632 14.264 10.224 13.752 8.496 13.752H3.056V24.76H8.496C10.16 24.76 11.632 24.248 12.784 23.224ZM39.56 1.208H52.68V3.768H41.992V26.936H39.56V1.208ZM68.5415 0.695999C75.9015 0.695999 81.9175 6.712 81.9175 14.072C81.9175 21.432 75.9015 27.448 68.5415 27.448C61.1815 27.448 55.2295 21.432 55.2295 14.072C55.2295 6.712 61.1815 0.695999 68.5415 0.695999ZM68.5415 24.888C74.4935 24.888 79.3575 20.024 79.3575 14.072C79.3575 8.12 74.4935 3.256 68.5415 3.256C62.5895 3.256 57.7255 8.12 57.7255 14.072C57.7255 20.024 62.5895 24.888 68.5415 24.888ZM108.902 4.664C111.462 7.224 112.806 10.36 112.806 14.136C112.806 17.848 111.526 20.984 108.966 23.544C106.406 26.104 103.206 27.384 99.494 27.384C95.206 27.384 91.686 25.656 88.87 22.136V39.032H86.374V1.208H88.87V6.072C91.558 2.616 95.078 0.823999 99.494 0.823999C103.206 0.823999 106.342 2.104 108.902 4.664ZM107.11 21.816C109.222 19.64 110.31 17.144 110.31 14.136C110.31 11.192 109.222 8.632 107.11 6.52C104.998 4.408 102.438 3.32 99.494 3.32C96.486 3.32 93.99 4.344 91.878 6.456C89.766 8.568 88.742 11.128 88.742 14.136C88.742 17.08 89.766 19.576 91.878 21.752C93.99 23.864 96.55 24.888 99.494 24.888C102.502 24.888 104.998 23.864 107.11 21.816ZM129.729 0.695999C137.089 0.695999 143.105 6.712 143.105 14.072C143.105 21.432 137.089 27.448 129.729 27.448C122.369 27.448 116.417 21.432 116.417 14.072C116.417 6.712 122.369 0.695999 129.729 0.695999ZM129.729 24.888C135.681 24.888 140.545 20.024 140.545 14.072C140.545 8.12 135.681 3.256 129.729 3.256C123.777 3.256 118.913 8.12 118.913 14.072C118.913 20.024 123.777 24.888 129.729 24.888ZM168.874 24.44H172.394V33.208H169.898V26.936H148.714V33.208H146.218V24.44H149.674V10.872C149.674 7.736 150.506 5.24 152.17 3.448C153.898 1.656 156.266 0.695999 159.338 0.695999C162.41 0.695999 164.778 1.592 166.442 3.384C168.106 5.176 168.874 7.672 168.874 10.872V24.44ZM166.378 24.44V10.872C166.378 8.44 165.802 6.52 164.714 5.24C163.626 3.896 161.833 3.192 159.338 3.192C154.602 3.192 152.17 5.752 152.17 10.872V24.44H166.378ZM193.654 24.12C195.446 23.352 197.046 21.816 198.454 19.576L200.758 20.6C199.158 23.672 196.662 25.784 193.27 26.872C191.99 27.256 190.518 27.448 188.918 27.448C185.078 27.448 181.878 26.168 179.382 23.672C176.822 21.112 175.606 17.976 175.606 14.136C175.606 10.232 176.822 7.096 179.318 4.6C181.878 2.04 185.078 0.759998 188.918 0.759998C192.758 0.759998 195.894 1.976 198.39 4.344C200.95 6.712 202.166 9.784 202.166 13.56H178.038C178.038 17.08 178.998 19.832 180.854 21.88C182.838 23.928 185.526 24.952 188.918 24.952C190.646 24.952 192.246 24.696 193.654 24.12ZM188.918 3.256C183.606 3.256 180.086 5.88 178.422 11.128H199.35C198.902 8.76 197.686 6.84 195.638 5.368C193.718 3.96 191.478 3.256 188.918 3.256ZM246.061 24.44H249.581V33.208H247.085V26.936H225.901V33.208H223.405V24.44H226.861V10.872C226.861 7.736 227.693 5.24 229.357 3.448C231.085 1.656 233.453 0.695999 236.525 0.695999C239.597 0.695999 241.965 1.592 243.629 3.384C245.293 5.176 246.061 7.672 246.061 10.872V24.44ZM243.565 24.44V10.872C243.565 8.44 242.989 6.52 241.901 5.24C240.813 3.896 239.021 3.192 236.525 3.192C231.789 3.192 229.357 5.752 229.357 10.872V24.44H243.565ZM266.042 0.695999C273.402 0.695999 279.418 6.712 279.418 14.072C279.418 21.432 273.402 27.448 266.042 27.448C258.682 27.448 252.73 21.432 252.73 14.072C252.73 6.712 258.682 0.695999 266.042 0.695999ZM266.042 24.888C271.994 24.888 276.858 20.024 276.858 14.072C276.858 8.12 271.994 3.256 266.042 3.256C260.09 3.256 255.226 8.12 255.226 14.072C255.226 20.024 260.09 24.888 266.042 24.888ZM309.794 0.0559978L321.314 26.936H318.562L309.922 6.968L301.602 27.768L293.41 7.032L284.77 26.936H281.954L293.602 0.0559978L301.602 20.664L309.794 0.0559978ZM347.469 1.208H350.029V26.936H347.469V22.52C344.781 25.784 341.325 27.384 337.165 27.384C333.453 27.384 330.317 26.104 327.757 23.608C325.197 21.048 323.917 17.848 323.917 14.136C323.917 10.36 325.133 7.224 327.693 4.728C330.253 2.104 333.453 0.823999 337.165 0.823999C341.261 0.823999 344.717 2.488 347.469 5.688V1.208ZM344.781 21.816C346.893 19.64 347.917 17.144 347.981 14.136C347.981 11.192 346.893 8.632 344.781 6.52C342.669 4.408 340.109 3.32 337.165 3.32C334.157 3.32 331.661 4.408 329.549 6.456C327.437 8.568 326.349 11.128 326.349 14.136C326.349 17.08 327.437 19.64 329.549 21.752C331.661 23.864 334.221 24.888 337.165 24.888C340.173 24.888 342.669 23.864 344.781 21.816ZM384.496 1.208H386.992V26.936H384.496V24.888C382.96 26.488 380.784 27.448 378.416 27.448C375.28 27.448 372.528 25.784 370.992 23.288C369.52 25.784 366.768 27.448 363.632 27.448C358.896 27.448 355.056 23.608 355.056 18.808V1.208H357.552V18.808C357.552 22.2 360.304 24.952 363.632 24.952C367.024 24.952 369.776 22.2 369.776 18.808V1.208H372.272V18.808C372.272 22.2 375.024 24.952 378.416 24.952C381.744 24.952 384.496 22.2 384.496 18.808V1.208ZM409.529 1.208H412.025V26.936H409.529V15.352H394.681V26.936H392.185V1.208H394.681V12.856H409.529V1.208ZM434.273 1.208H436.833V26.936H434.273V23.864C433.121 26.104 430.625 27.256 426.849 27.256C423.649 27.256 421.217 26.36 419.489 24.504C417.825 22.712 416.993 20.152 416.993 16.888V1.208H419.489V16.632C419.489 22.072 421.985 24.76 426.849 24.76C429.281 24.76 431.137 24.056 432.353 22.648C433.633 21.24 434.273 19.32 434.273 16.888V1.208ZM452.366 13.944L461.07 26.936H458.062L450.766 16.184L443.47 26.936H440.462L449.23 14.008L440.59 1.208H443.598L450.766 11.896L457.87 1.208H460.878L452.366 13.944ZM502.454 11.64L514.806 26.936H511.478L500.662 13.496L500.598 13.56L499.19 14.968V26.936H496.694V14.968L495.222 13.56V13.496L484.342 26.936H481.078L493.366 11.64L482.87 1.208H486.454L496.63 11.32L496.694 11.384V1.208H499.19V11.384V11.32L509.366 1.208H513.014L502.454 11.64ZM535.148 1.208H537.708V26.936H535.148V23.864C533.996 26.104 531.5 27.256 527.724 27.256C524.524 27.256 522.092 26.36 520.364 24.504C518.7 22.712 517.868 20.152 517.868 16.888V1.208H520.364V16.632C520.364 22.072 522.86 24.76 527.724 24.76C530.156 24.76 532.012 24.056 533.228 22.648C534.508 21.24 535.148 19.32 535.148 16.888V1.208ZM557.273 14.264C559.001 16.056 559.321 17.656 559.321 19.512C559.321 21.688 558.553 23.48 556.953 24.888C555.417 26.296 553.497 26.936 551.257 26.936H542.873V1.208H549.145C551.129 1.208 552.729 1.72 553.881 2.744C555.097 3.896 555.993 5.496 555.993 7.48C555.993 9.528 555.289 11 553.753 12.088C555.225 12.536 556.312 13.24 557.273 14.264ZM549.145 3.768H545.369V11.576H549.337C550.553 11.576 551.577 11.192 552.409 10.424C553.241 9.656 553.625 8.76 553.625 7.736C553.625 6.456 553.241 5.56 552.409 4.856C551.513 4.088 550.361 3.768 549.145 3.768ZM555.097 23.224C556.312 22.2 556.889 20.92 556.889 19.256C556.889 17.592 556.312 16.248 555.097 15.224C553.945 14.264 552.537 13.752 550.809 13.752H545.369V24.76H550.809C552.473 24.76 553.945 24.248 555.097 23.224ZM576.167 0.695999C583.527 0.695999 589.543 6.712 589.543 14.072C589.543 21.432 583.527 27.448 576.167 27.448C568.807 27.448 562.855 21.432 562.855 14.072C562.855 6.712 568.807 0.695999 576.167 0.695999ZM576.167 24.888C582.119 24.888 586.983 20.024 586.983 14.072C586.983 8.12 582.119 3.256 576.167 3.256C570.215 3.256 565.351 8.12 565.351 14.072C565.351 20.024 570.215 24.888 576.167 24.888ZM592.143 1.272H607.311V3.832H600.975V27H598.415V3.832H592.143V1.272ZM628.029 1.208H630.525V26.936H628.029V15.352H613.181V26.936H610.685V1.208H613.181V12.856H628.029V1.208ZM642.149 11.576C646.245 11.576 648.357 12.408 650.085 14.264C651.749 16.056 652.069 17.656 652.069 19.512C652.069 21.688 651.301 23.48 649.765 24.888C648.165 26.296 646.309 26.936 644.005 26.936H635.685V1.208H638.117V11.576H642.149ZM647.909 23.224C649.061 22.2 649.701 20.92 649.701 19.256C649.701 17.592 649.061 16.248 647.845 15.224C646.693 14.264 645.285 13.752 643.621 13.752H638.117V24.76H643.621C645.285 24.76 646.693 24.248 647.909 23.224ZM656.485 26.936H653.989V1.208H656.485V26.936ZM672.053 13.944L680.757 26.936H677.749L670.453 16.184L663.157 26.936H660.149L668.917 14.008L660.277 1.208H663.285L670.453 11.896L677.557 1.208H680.565L672.053 13.944Z" fill="#FF00AE"/>
</svg>
