<svg width="588" height="153" viewBox="0 0 588 153" fill="none" xmlns="http://www.w3.org/2000/svg">
<path d="M54.176 57.328C56.992 57.456 59.456 57.712 61.568 58.096C63.744 58.48 65.568 59.12 67.04 60.016C68.512 60.912 69.632 62.128 70.4 63.664C71.168 65.2 71.552 67.152 71.552 69.52C71.552 74 69.856 77.2 66.464 79.12C63.072 81.04 57.888 82 50.912 82H21.344C21.6 80.336 21.792 78.48 21.92 76.432C22.048 74.384 22.144 72.304 22.208 70.192C22.272 68.08 22.304 65.968 22.304 63.856C22.304 61.744 22.304 59.76 22.304 57.904C22.304 56.048 22.304 54.064 22.304 51.952C22.304 49.84 22.272 47.728 22.208 45.616C22.144 43.504 22.048 41.424 21.92 39.376C21.792 37.328 21.6 35.472 21.344 33.808H50.72C54.432 33.808 57.44 34.096 59.744 34.672C62.048 35.184 63.84 35.952 65.12 36.976C66.4 38 67.264 39.248 67.712 40.72C68.224 42.192 68.48 43.824 68.48 45.616C68.48 47.28 68.256 48.784 67.808 50.128C67.36 51.408 66.592 52.56 65.504 53.584C64.416 54.544 62.944 55.312 61.088 55.888C59.232 56.464 56.928 56.816 54.176 56.944V57.328ZM44.672 55.984C46.016 55.984 46.848 54.96 47.168 52.912C47.552 50.864 47.744 48.4 47.744 45.52C47.744 41.808 47.552 39.152 47.168 37.552C46.784 35.952 45.952 35.152 44.672 35.152H44.576V55.984H44.672ZM44.576 80.656C46.112 80.656 47.104 79.664 47.552 77.68C48.064 75.696 48.32 73.04 48.32 69.712C48.32 65.68 48.064 62.736 47.552 60.88C47.104 58.96 46.112 57.936 44.576 57.808V80.656ZM84.674 82C82.434 82 80.578 81.648 79.106 80.944C77.634 80.24 76.482 79.312 75.65 78.16C74.818 77.008 74.242 75.728 73.922 74.32C73.602 72.848 73.442 71.344 73.442 69.808C73.442 66.736 74.018 63.568 75.17 60.304C76.386 57.04 77.794 53.84 79.394 50.704C81.058 47.568 82.754 44.56 84.482 41.68C86.274 38.736 87.746 36.048 88.898 33.616H113.858C113.858 35.024 114.05 37.04 114.434 39.664C114.818 42.288 115.298 45.232 115.874 48.496C116.45 51.696 117.09 55.024 117.794 58.48C118.562 61.936 119.33 65.232 120.098 68.368C120.866 71.44 121.57 74.192 122.21 76.624C122.914 79.056 123.522 80.848 124.034 82H98.978C99.106 80.016 99.042 77.712 98.786 75.088C98.594 72.4 98.274 69.584 97.826 66.64C97.442 63.696 96.93 60.72 96.29 57.712C95.714 54.64 95.106 51.728 94.466 48.976C93.826 46.16 93.186 43.6 92.546 41.296C91.97 38.928 91.426 37.008 90.914 35.536H90.05C90.178 36.304 90.306 37.616 90.434 39.472C90.562 41.264 90.722 43.408 90.914 45.904C91.17 48.4 91.458 51.152 91.778 54.16C92.098 57.168 92.514 60.272 93.026 63.472C93.602 66.672 94.306 69.872 95.138 73.072C96.034 76.208 97.09 79.184 98.306 82H84.674ZM173.264 82.384C168.4 82.384 164.368 81.712 161.168 80.368C158.032 78.96 155.536 77.104 153.68 74.8C151.888 72.432 150.64 69.68 149.936 66.544C149.232 63.536 148.88 60.304 148.88 56.848H146.672V58C146.672 59.856 146.672 61.84 146.672 63.952C146.672 66 146.704 68.112 146.768 70.288C146.832 72.4 146.896 74.48 146.96 76.528C147.024 78.512 147.12 80.336 147.248 82H123.44C123.696 80.336 123.888 78.512 124.016 76.528C124.144 74.48 124.24 72.4 124.304 70.288C124.368 68.112 124.4 66 124.4 63.952C124.4 61.84 124.4 59.856 124.4 58C124.4 56.208 124.4 54.256 124.4 52.144C124.4 50.032 124.368 47.92 124.304 45.808C124.24 43.632 124.144 41.552 124.016 39.568C123.888 37.52 123.696 35.664 123.44 34H147.248C146.992 36.752 146.832 39.888 146.768 43.408C146.704 46.864 146.672 50.16 146.672 53.296H148.976C149.104 50.992 149.424 48.816 149.936 46.768C150.704 43.76 151.984 41.168 153.776 38.992C155.632 36.816 158.128 35.12 161.264 33.904C164.4 32.688 168.4 32.08 173.264 32.08C178.064 32.08 182.032 32.688 185.168 33.904C188.304 35.12 190.768 36.848 192.56 39.088C194.352 41.264 195.6 43.888 196.304 46.96C197.008 49.968 197.36 53.264 197.36 56.848C197.36 60.368 197.008 63.696 196.304 66.832C195.6 69.904 194.352 72.592 192.56 74.896C190.768 77.2 188.304 79.024 185.168 80.368C182.032 81.712 178.064 82.384 173.264 82.384ZM173.168 81.04C173.488 81.04 173.744 80.784 173.936 80.272C174.192 79.76 174.384 78.672 174.512 77.008C174.704 75.344 174.832 72.912 174.896 69.712C175.024 66.512 175.088 62.224 175.088 56.848C175.088 51.408 175.024 47.152 174.896 44.08C174.832 40.944 174.704 38.608 174.512 37.072C174.384 35.472 174.192 34.48 173.936 34.096C173.744 33.648 173.488 33.424 173.168 33.424C172.848 33.424 172.56 33.648 172.304 34.096C172.048 34.48 171.824 35.44 171.632 36.976C171.504 38.512 171.376 40.816 171.248 43.888C171.184 46.96 171.152 51.184 171.152 56.56C171.152 61.936 171.184 66.224 171.248 69.424C171.376 72.624 171.504 75.088 171.632 76.816C171.824 78.544 172.048 79.696 172.304 80.272C172.56 80.784 172.848 81.04 173.168 81.04ZM225.637 82.96C220.709 82.96 216.677 82.288 213.541 80.944C210.405 79.536 207.909 77.68 206.053 75.376C204.261 73.008 203.013 70.256 202.309 67.12C201.605 63.984 201.253 60.656 201.253 57.136C201.253 53.616 201.317 49.904 201.445 46C201.637 42.096 201.925 38.32 202.309 34.672C202.693 30.96 203.205 27.568 203.845 24.496C204.549 21.36 205.445 18.864 206.533 17.008C208.709 13.104 211.237 10.448 214.117 9.04C216.997 7.568 219.941 6.8 222.949 6.736C225.957 6.608 228.933 6.896 231.877 7.6C234.821 8.304 237.477 8.848 239.845 9.232C240.549 9.36 240.965 9.456 241.093 9.51999C241.221 9.584 241.541 9.584 242.053 9.51999C242.885 9.456 243.525 9.232 243.973 8.848C244.421 8.464 244.709 7.984 244.837 7.408C244.965 6.768 244.997 6.09599 244.933 5.392C244.869 4.688 244.773 3.984 244.645 3.27999C244.517 2.384 244.517 1.67999 244.645 1.16799C244.773 0.655996 244.965 0.367998 245.221 0.303999C245.477 0.175997 245.733 0.303995 245.989 0.687994C246.245 1.072 246.405 1.712 246.469 2.608C246.661 4.656 246.789 6.96 246.853 9.51999C246.917 12.016 246.693 14.48 246.181 16.912C245.669 19.28 244.677 21.488 243.205 23.536C241.733 25.52 239.557 27.024 236.677 28.048C235.333 28.624 233.733 28.784 231.877 28.528C230.085 28.208 228.229 27.792 226.309 27.28C224.389 26.768 222.501 26.288 220.645 25.84C218.853 25.392 217.253 25.296 215.845 25.552C211.685 26.256 208.677 27.92 206.821 30.544C204.965 33.168 203.781 37.328 203.269 43.024C204.869 39.824 207.461 37.296 211.045 35.44C214.693 33.584 219.557 32.656 225.637 32.656C230.437 32.656 234.405 33.264 237.541 34.48C240.677 35.696 243.141 37.424 244.933 39.664C246.725 41.84 247.973 44.464 248.677 47.536C249.381 50.544 249.733 53.84 249.733 57.424C249.733 60.944 249.381 64.272 248.677 67.408C247.973 70.48 246.725 73.168 244.933 75.472C243.141 77.776 240.677 79.6 237.541 80.944C234.405 82.288 230.437 82.96 225.637 82.96ZM225.541 81.616C225.797 81.616 226.053 81.36 226.309 80.848C226.565 80.336 226.757 79.248 226.885 77.584C227.077 75.92 227.205 73.488 227.269 70.288C227.397 67.088 227.461 62.8 227.461 57.424C227.461 51.984 227.397 47.728 227.269 44.656C227.205 41.52 227.077 39.184 226.885 37.648C226.757 36.048 226.565 35.056 226.309 34.672C226.053 34.224 225.797 34 225.541 34C225.221 34 224.933 34.224 224.677 34.672C224.421 35.056 224.197 36.016 224.005 37.552C223.877 39.088 223.749 41.392 223.621 44.464C223.557 47.536 223.525 51.76 223.525 57.136C223.525 62.512 223.557 66.8 223.621 70C223.749 73.2 223.877 75.664 224.005 77.392C224.197 79.12 224.421 80.272 224.677 80.848C224.933 81.36 225.221 81.616 225.541 81.616ZM262.612 82C260.372 82 258.516 81.648 257.044 80.944C255.572 80.24 254.42 79.312 253.588 78.16C252.756 77.008 252.18 75.728 251.86 74.32C251.54 72.848 251.38 71.344 251.38 69.808C251.38 66.736 251.956 63.568 253.108 60.304C254.324 57.04 255.732 53.84 257.332 50.704C258.996 47.568 260.692 44.56 262.42 41.68C264.212 38.736 265.684 36.048 266.836 33.616H291.796C291.796 35.024 291.988 37.04 292.372 39.664C292.756 42.288 293.236 45.232 293.812 48.496C294.388 51.696 295.028 55.024 295.732 58.48C296.5 61.936 297.268 65.232 298.036 68.368C298.804 71.44 299.508 74.192 300.148 76.624C300.852 79.056 301.46 80.848 301.972 82H276.916C277.044 80.016 276.98 77.712 276.724 75.088C276.532 72.4 276.212 69.584 275.764 66.64C275.38 63.696 274.868 60.72 274.228 57.712C273.652 54.64 273.044 51.728 272.404 48.976C271.764 46.16 271.124 43.6 270.484 41.296C269.908 38.928 269.364 37.008 268.852 35.536H267.988C268.116 36.304 268.244 37.616 268.372 39.472C268.5 41.264 268.66 43.408 268.852 45.904C269.108 48.4 269.396 51.152 269.716 54.16C270.036 57.168 270.452 60.272 270.964 63.472C271.54 66.672 272.244 69.872 273.076 73.072C273.972 76.208 275.028 79.184 276.244 82H262.612ZM338.722 81.616C336.482 82.128 333.954 82.48 331.138 82.672C328.322 82.864 325.73 82.96 323.362 82.96C318.434 82.96 314.498 82.32 311.554 81.04C308.674 79.696 306.466 77.84 304.93 75.472C303.458 73.04 302.498 70.192 302.05 66.928C301.602 63.6 301.378 59.92 301.378 55.888C301.378 52.816 301.57 49.904 301.954 47.152C302.402 44.4 303.33 41.968 304.738 39.856C306.146 37.744 308.226 36.08 310.978 34.864C313.794 33.648 317.538 33.04 322.21 33.04C325.218 33.04 327.778 33.264 329.89 33.712C332.066 34.096 333.858 34.8 335.266 35.824C336.674 36.848 337.698 38.256 338.338 40.048C338.978 41.776 339.298 43.984 339.298 46.672C339.298 48.592 339.138 50.32 338.818 51.856C338.562 53.392 338.018 54.704 337.186 55.792C336.354 56.816 335.17 57.616 333.634 58.192C332.098 58.768 330.082 59.056 327.586 59.056C326.498 59.056 325.474 58.992 324.514 58.864C323.554 58.672 322.69 58.416 321.922 58.096C322.498 59.504 323.426 60.56 324.706 61.264C326.05 61.968 328.066 62.32 330.754 62.32C333.378 62.32 335.33 62 336.61 61.36C337.89 60.656 338.658 60.24 338.914 60.112C338.722 63.12 338.626 66.256 338.626 69.52C338.626 72.784 338.658 76.816 338.722 81.616ZM321.25 55.504C322.018 55.12 322.626 54.288 323.074 53.008C323.522 51.728 323.746 49.584 323.746 46.576C323.746 43.12 323.682 40.432 323.554 38.512C323.49 36.528 323.138 35.536 322.498 35.536C322.242 35.536 322.018 35.696 321.826 36.016C321.634 36.336 321.442 36.976 321.25 37.936C321.122 38.832 321.026 40.08 320.962 41.68C320.898 43.28 320.866 45.328 320.866 47.824C320.866 49.296 320.866 50.672 320.866 51.952C320.93 53.232 321.058 54.416 321.25 55.504ZM342.159 82C342.415 80.336 342.607 78.512 342.735 76.528C342.863 74.48 342.959 72.4 343.023 70.288C343.087 68.112 343.119 66 343.119 63.952C343.119 61.84 343.119 59.856 343.119 58C343.119 56.144 343.119 54.192 343.119 52.144C343.119 50.032 343.087 47.92 343.023 45.808C342.959 43.632 342.863 41.552 342.735 39.568C342.607 37.52 342.415 35.664 342.159 34H365.967C365.839 35.344 365.743 36.816 365.679 38.416C365.615 40.016 365.551 41.68 365.487 43.408C365.423 45.136 365.391 46.8 365.391 48.4C365.391 50 365.391 51.632 365.391 53.296H369.423C369.423 51.632 369.423 50 369.423 48.4C369.423 46.8 369.391 45.136 369.327 43.408C369.327 41.68 369.295 40.016 369.231 38.416C369.167 36.816 369.071 35.344 368.943 34H391.887C391.631 35.664 391.439 37.52 391.311 39.568C391.183 41.552 391.087 43.632 391.023 45.808C390.959 47.92 390.927 50.032 390.927 52.144C390.927 54.192 390.927 56.144 390.927 58C390.927 59.856 390.927 61.84 390.927 63.952C390.927 66 390.959 68.112 391.023 70.288C391.087 72.4 391.183 74.48 391.311 76.528C391.439 78.512 391.631 80.336 391.887 82H368.943C369.071 80.336 369.167 78.512 369.231 76.528C369.359 74.48 369.423 72.4 369.423 70.288C369.423 68.112 369.423 66 369.423 63.952C369.423 61.84 369.423 59.856 369.423 58V56.848H365.391V58C365.391 59.856 365.391 61.84 365.391 63.952C365.391 66 365.391 68.112 365.391 70.288C365.455 72.4 365.519 74.48 365.583 76.528C365.711 78.512 365.839 80.336 365.967 82H342.159ZM394.659 82C394.915 80.336 395.107 78.512 395.235 76.528C395.363 74.48 395.459 72.4 395.523 70.288C395.587 68.112 395.619 66 395.619 63.952C395.619 61.84 395.619 59.856 395.619 58C395.619 56.144 395.619 54.192 395.619 52.144C395.619 50.032 395.587 47.92 395.523 45.808C395.459 43.632 395.363 41.552 395.235 39.568C395.107 37.52 394.915 35.664 394.659 34H418.467C418.339 35.344 418.243 36.816 418.179 38.416C418.115 40.016 418.051 41.68 417.987 43.408C417.923 45.136 417.891 46.8 417.891 48.4C417.891 50 417.891 51.632 417.891 53.296H421.923C421.923 51.632 421.923 50 421.923 48.4C421.923 46.8 421.891 45.136 421.827 43.408C421.827 41.68 421.795 40.016 421.731 38.416C421.667 36.816 421.571 35.344 421.443 34H444.387C444.131 35.664 443.939 37.52 443.811 39.568C443.683 41.552 443.587 43.632 443.523 45.808C443.459 47.92 443.427 50.032 443.427 52.144C443.427 54.192 443.427 56.144 443.427 58C443.427 59.856 443.427 61.84 443.427 63.952C443.427 66 443.459 68.112 443.523 70.288C443.587 72.4 443.683 74.48 443.811 76.528C443.939 78.512 444.131 80.336 444.387 82H421.443C421.571 80.336 421.667 78.512 421.731 76.528C421.859 74.48 421.923 72.4 421.923 70.288C421.923 68.112 421.923 66 421.923 63.952C421.923 61.84 421.923 59.856 421.923 58V56.848H417.891V58C417.891 59.856 417.891 61.84 417.891 63.952C417.891 66 417.891 68.112 417.891 70.288C417.955 72.4 418.019 74.48 418.083 76.528C418.211 78.512 418.339 80.336 418.467 82H394.659ZM470.871 53.584V80.752H470.967C471.543 80.752 472.055 80.592 472.503 80.272C473.015 79.952 473.431 79.344 473.751 78.448C474.135 77.552 474.423 76.304 474.615 74.704C474.871 73.104 474.999 71.024 474.999 68.464C474.999 64.048 474.583 60.464 473.751 57.712C472.919 54.96 471.959 53.584 470.871 53.584ZM446.871 34L471.447 33.904C471.063 36.592 470.871 39.504 470.871 42.64C470.871 45.712 470.871 48.88 470.871 52.144H474.039C476.983 52.144 479.831 52.336 482.583 52.72C485.399 53.104 487.863 53.872 489.975 55.024C492.087 56.112 493.783 57.68 495.063 59.728C496.343 61.776 496.983 64.432 496.983 67.696C496.983 72.688 495.159 76.368 491.511 78.736C487.863 81.04 482.711 82.192 476.055 82.192H447.447C447.703 80.528 447.895 78.672 448.023 76.624C448.151 74.576 448.247 72.496 448.311 70.384C448.375 68.208 448.407 66.096 448.407 64.048C448.407 61.936 448.407 59.952 448.407 58.096C448.407 56.304 448.375 54.352 448.311 52.24C448.247 50.128 448.151 48.016 448.023 45.904C447.895 43.728 447.735 41.616 447.543 39.568C447.351 37.52 447.127 35.664 446.871 34ZM498.423 82H522.615C521.911 74.256 521.527 66.224 521.463 57.904C521.399 49.584 521.719 41.552 522.423 33.808L498.231 33.712C498.615 37.488 498.903 41.424 499.095 45.52C499.351 49.616 499.479 53.744 499.479 57.904C499.479 62.064 499.383 66.192 499.191 70.288C499.063 74.384 498.807 78.288 498.423 82ZM562.597 81.616C560.357 82.128 557.829 82.48 555.013 82.672C552.197 82.864 549.605 82.96 547.237 82.96C542.309 82.96 538.373 82.32 535.429 81.04C532.549 79.696 530.341 77.84 528.805 75.472C527.333 73.04 526.373 70.192 525.925 66.928C525.477 63.6 525.253 59.92 525.253 55.888C525.253 52.816 525.445 49.904 525.829 47.152C526.277 44.4 527.205 41.968 528.613 39.856C530.021 37.744 532.101 36.08 534.853 34.864C537.669 33.648 541.413 33.04 546.085 33.04C549.093 33.04 551.653 33.264 553.765 33.712C555.941 34.096 557.733 34.8 559.141 35.824C560.549 36.848 561.573 38.256 562.213 40.048C562.853 41.776 563.173 43.984 563.173 46.672C563.173 48.592 563.013 50.32 562.693 51.856C562.437 53.392 561.893 54.704 561.061 55.792C560.229 56.816 559.045 57.616 557.509 58.192C555.973 58.768 553.957 59.056 551.461 59.056C550.373 59.056 549.349 58.992 548.389 58.864C547.429 58.672 546.565 58.416 545.797 58.096C546.373 59.504 547.301 60.56 548.581 61.264C549.925 61.968 551.941 62.32 554.629 62.32C557.253 62.32 559.205 62 560.485 61.36C561.765 60.656 562.533 60.24 562.789 60.112C562.597 63.12 562.501 66.256 562.501 69.52C562.501 72.784 562.533 76.816 562.597 81.616ZM545.125 55.504C545.893 55.12 546.501 54.288 546.949 53.008C547.397 51.728 547.621 49.584 547.621 46.576C547.621 43.12 547.557 40.432 547.429 38.512C547.365 36.528 547.013 35.536 546.373 35.536C546.117 35.536 545.893 35.696 545.701 36.016C545.509 36.336 545.317 36.976 545.125 37.936C544.997 38.832 544.901 40.08 544.837 41.68C544.773 43.28 544.741 45.328 544.741 47.824C544.741 49.296 544.741 50.672 544.741 51.952C544.805 53.232 544.933 54.416 545.125 55.504ZM49.76 115.52C49.568 112.384 49.184 109.824 48.608 107.84C48.096 105.792 47.392 104.768 46.496 104.768V123.488C46.496 128.288 46.56 133.248 46.688 138.368C46.88 143.488 47.168 148.032 47.552 152H21.44C21.696 148.48 21.92 144.64 22.112 140.48C22.368 136.256 22.528 132 22.592 127.712C22.656 123.36 22.592 119.104 22.4 114.944C22.272 110.784 21.952 106.976 21.44 103.52H62.24C63.584 103.52 64.768 103.84 65.792 104.48C66.816 105.12 67.68 105.984 68.384 107.072C69.152 108.096 69.728 109.28 70.112 110.624C70.496 111.968 70.688 113.376 70.688 114.848C70.688 118.048 70.208 120.512 69.248 122.24C68.288 123.968 66.88 125.216 65.024 125.984C63.232 126.752 60.992 127.168 58.304 127.232C55.68 127.296 52.64 127.264 49.184 127.136C49.44 125.152 49.568 123.232 49.568 121.376C49.632 119.456 49.696 117.504 49.76 115.52ZM82.9865 152C80.7465 152 78.8905 151.648 77.4185 150.944C75.9465 150.24 74.7945 149.312 73.9625 148.16C73.1305 147.008 72.5545 145.728 72.2345 144.32C71.9145 142.848 71.7545 141.344 71.7545 139.808C71.7545 136.736 72.3305 133.568 73.4825 130.304C74.6985 127.04 76.1065 123.84 77.7065 120.704C79.3705 117.568 81.0665 114.56 82.7945 111.68C84.5865 108.736 86.0585 106.048 87.2105 103.616H112.171C112.171 105.024 112.363 107.04 112.747 109.664C113.131 112.288 113.611 115.232 114.187 118.496C114.763 121.696 115.403 125.024 116.107 128.48C116.875 131.936 117.643 135.232 118.411 138.368C119.179 141.44 119.883 144.192 120.523 146.624C121.227 149.056 121.835 150.848 122.347 152H97.2905C97.4185 150.016 97.3545 147.712 97.0985 145.088C96.9065 142.4 96.5865 139.584 96.1385 136.64C95.7545 133.696 95.2425 130.72 94.6025 127.712C94.0265 124.64 93.4185 121.728 92.7785 118.976C92.1385 116.16 91.4985 113.6 90.8585 111.296C90.2825 108.928 89.7385 107.008 89.2265 105.536H88.3625C88.4905 106.304 88.6185 107.616 88.7465 109.472C88.8745 111.264 89.0345 113.408 89.2265 115.904C89.4825 118.4 89.7705 121.152 90.0905 124.16C90.4105 127.168 90.8265 130.272 91.3385 133.472C91.9145 136.672 92.6185 139.872 93.4505 143.072C94.3465 146.208 95.4025 149.184 96.6185 152H82.9865ZM148.249 146.912C147.673 148.64 146.489 150.08 144.697 151.232C142.969 152.384 140.281 152.96 136.633 152.96C131.129 152.96 127.097 151.872 124.537 149.696C122.041 147.52 120.793 144.032 120.793 139.232C120.793 136.48 121.273 134.208 122.233 132.416C123.257 130.624 124.537 129.184 126.073 128.096C127.673 127.008 129.465 126.208 131.449 125.696C133.433 125.12 135.385 124.736 137.305 124.544C139.289 124.352 141.145 124.288 142.873 124.352C144.665 124.352 146.137 124.352 147.289 124.352H147.769V115.04C147.769 113.056 147.769 111.424 147.769 110.144C147.769 108.864 147.705 107.84 147.577 107.072C147.513 106.304 147.321 105.76 147.001 105.44C146.745 105.12 146.297 104.96 145.656 104.96C144.889 104.96 144.409 105.728 144.217 107.264C144.089 108.8 144.089 110.56 144.217 112.544C144.345 114.528 144.569 116.48 144.889 118.4C145.209 120.32 145.465 121.664 145.656 122.432C144.121 122.624 142.457 122.816 140.665 123.008C138.873 123.2 137.113 123.296 135.385 123.296C133.785 123.296 132.217 123.168 130.681 122.912C129.209 122.656 127.897 122.208 126.745 121.568C125.657 120.864 124.761 119.904 124.057 118.688C123.417 117.472 123.097 115.936 123.097 114.08C123.097 112.032 123.385 110.304 123.961 108.896C124.601 107.488 125.753 106.368 127.417 105.536C129.081 104.64 131.385 104 134.329 103.616C137.273 103.232 141.049 103.04 145.656 103.04C150.457 103.04 154.425 103.264 157.561 103.712C160.697 104.096 163.161 104.864 164.953 106.016C166.809 107.168 168.089 108.8 168.792 110.912C169.497 112.96 169.849 115.68 169.849 119.072V137.6C169.849 139.84 169.881 142.08 169.945 144.32C170.009 146.56 170.297 149.12 170.809 152H149.209L148.249 146.912ZM147.769 126.464C147.129 126.464 146.553 126.56 146.041 126.752C145.593 126.944 145.177 127.424 144.793 128.192C144.473 128.896 144.217 129.984 144.025 131.456C143.897 132.928 143.833 134.944 143.833 137.504C143.833 140 144.025 141.824 144.409 142.976C144.793 144.064 145.369 144.608 146.137 144.608C146.713 144.608 147.129 144.192 147.385 143.36C147.641 142.464 147.769 141.44 147.769 140.288V126.464ZM179.546 152C177.754 152 176.41 151.552 175.514 150.656C174.682 149.76 174.106 148.64 173.786 147.296C173.466 145.888 173.306 144.32 173.306 142.592C173.37 140.864 173.402 139.168 173.402 137.504C173.402 134.88 174.522 133.152 176.762 132.32C179.002 131.488 182.458 131.136 187.13 131.264C188.154 131.264 189.178 131.296 190.202 131.36C191.29 131.36 192.218 131.392 192.986 131.456C192.666 134.016 192.442 136.448 192.314 138.752C192.25 141.056 192.282 143.104 192.41 144.896C192.602 146.624 192.89 148.032 193.274 149.12C193.722 150.144 194.298 150.656 195.002 150.656V129.248L175.898 129.344V126.08H195.002V104.96C194.298 104.832 193.722 105.28 193.274 106.304C192.89 107.328 192.602 108.736 192.41 110.528C192.282 112.32 192.25 114.4 192.314 116.768C192.442 119.072 192.666 121.472 192.986 123.968C190.042 124.032 187.386 124.064 185.018 124.064C182.65 124.064 180.634 123.808 178.97 123.296C177.306 122.72 176.026 121.728 175.13 120.32C174.234 118.912 173.786 116.864 173.786 114.176C173.786 112.96 173.85 111.744 173.978 110.528C174.106 109.248 174.394 108.096 174.842 107.072C175.29 105.984 175.962 105.12 176.858 104.48C177.818 103.776 179.13 103.424 180.794 103.424L194.426 103.328C197.498 103.328 200.25 103.424 202.682 103.616C205.178 103.808 207.418 104.256 209.402 104.96C211.386 105.6 213.018 106.592 214.298 107.936C215.578 109.28 216.218 111.136 216.218 113.504C216.218 115.296 215.93 116.832 215.354 118.112C214.842 119.392 214.106 120.48 213.146 121.376C212.25 122.272 211.162 123.04 209.882 123.68C208.602 124.256 207.258 124.736 205.85 125.12C207.578 125.376 209.178 125.792 210.65 126.368C212.186 126.88 213.498 127.648 214.586 128.672C215.738 129.632 216.634 130.88 217.274 132.416C217.978 133.952 218.33 135.84 218.33 138.08C218.33 141.28 217.754 143.808 216.602 145.664C215.45 147.52 213.914 148.928 211.994 149.888C210.138 150.784 208.026 151.36 205.658 151.616C203.354 151.872 201.018 152 198.65 152H195.194H179.546ZM221.603 152C221.987 148.288 222.275 144.416 222.467 140.384C222.659 136.288 222.755 132.192 222.755 128.096C222.755 123.936 222.659 119.808 222.467 115.712C222.275 111.616 221.987 107.68 221.603 103.904L245.699 103.808C245.571 104.64 245.443 105.76 245.315 107.168C245.187 108.576 245.091 110.176 245.027 111.968C244.963 113.696 244.931 115.584 244.931 117.632C244.995 119.616 245.091 121.6 245.219 123.584C245.603 123.008 246.019 122.304 246.467 121.472C246.915 120.576 247.331 119.392 247.715 117.92C248.099 116.384 248.387 114.528 248.579 112.352C248.771 110.112 248.803 107.36 248.675 104.096C250.467 104.096 252.483 104.096 254.723 104.096C256.963 104.096 259.139 104.096 261.251 104.096C263.363 104.032 265.283 104 267.011 104C268.739 104 270.051 104 270.947 104C271.203 104.512 271.427 105.152 271.619 105.92C271.811 106.688 271.939 107.52 272.003 108.416C272.131 109.248 272.195 110.112 272.195 111.008C272.259 111.904 272.291 112.736 272.291 113.504C272.291 116.512 271.843 118.944 270.947 120.8C270.051 122.592 268.899 124.032 267.491 125.12C266.083 126.144 264.483 126.848 262.691 127.232C260.899 127.552 259.107 127.712 257.315 127.712C255.651 127.712 254.051 127.616 252.515 127.424C250.979 127.232 249.667 127.072 248.579 126.944C249.347 127.264 250.115 127.616 250.883 128C251.651 128.384 252.483 128.768 253.379 129.152C254.339 129.472 255.395 129.76 256.547 130.016C257.763 130.208 259.203 130.304 260.867 130.304C262.723 130.304 264.675 129.984 266.723 129.344C268.771 128.64 270.563 127.584 272.099 126.176L272.579 126.272C272.451 127.808 272.323 129.6 272.195 131.648C272.131 133.632 272.099 135.744 272.099 137.984C272.099 140.16 272.131 142.4 272.195 144.704C272.259 146.944 272.387 149.12 272.579 151.232C271.043 151.744 269.411 152.16 267.683 152.48C266.019 152.8 263.747 152.96 260.867 152.96C257.923 152.96 255.587 152.352 253.859 151.136C252.131 149.92 250.755 148.416 249.731 146.624C248.771 144.768 248.099 142.784 247.715 140.672C247.331 138.56 247.043 136.608 246.851 134.816C246.659 132.96 246.467 131.424 246.275 130.208C246.083 128.992 245.731 128.384 245.219 128.384C245.283 132.608 245.379 136.8 245.507 140.96C245.635 145.056 245.891 148.736 246.275 152H221.795H221.603ZM303.055 128V127.616L299.023 139.04C299.087 141.408 299.119 143.712 299.119 145.952C299.183 148.128 299.279 150.144 299.406 152H275.503C275.759 150.336 275.951 148.512 276.079 146.528C276.207 144.48 276.303 142.4 276.367 140.288C276.431 138.112 276.463 136 276.463 133.952C276.463 131.84 276.463 129.856 276.463 128C276.463 126.208 276.463 124.256 276.463 122.144C276.463 120.032 276.431 117.92 276.367 115.808C276.303 113.632 276.207 111.552 276.079 109.568C275.951 107.52 275.759 105.664 275.503 104H299.406C299.279 105.344 299.183 107.04 299.119 109.088C299.119 111.136 299.087 113.28 299.023 115.52C298.959 117.76 298.927 120 298.927 122.24C298.927 124.416 298.927 126.336 298.927 128V129.92L302.959 118.496C302.895 115.744 302.831 113.056 302.767 110.432C302.703 107.808 302.607 105.664 302.479 104H325.615C325.359 105.664 325.167 107.52 325.039 109.568C324.911 111.552 324.815 113.632 324.75 115.808C324.687 117.92 324.655 120.032 324.655 122.144C324.655 124.256 324.655 126.208 324.655 128C324.655 129.856 324.655 131.84 324.655 133.952C324.655 136 324.687 138.112 324.75 140.288C324.815 142.4 324.911 144.48 325.039 146.528C325.167 148.512 325.359 150.336 325.615 152H302.479C302.607 150.336 302.703 148.512 302.767 146.528C302.831 144.48 302.895 142.4 302.959 140.288C303.023 138.112 303.055 136 303.055 133.952C303.055 131.84 303.055 129.856 303.055 128ZM405.343 137.12C402.975 136.48 401.023 135.328 399.487 133.664C397.951 132 396.671 130.08 395.647 127.904C394.623 125.728 393.855 123.456 393.343 121.088C392.831 118.656 392.415 116.384 392.095 114.272C391.839 112.096 391.647 110.208 391.519 108.608C391.391 107.008 391.263 105.952 391.135 105.44C390.623 108.896 390.335 112.64 390.271 116.672C390.207 120.64 390.175 124.48 390.175 128.192C390.175 130.048 390.175 132.064 390.175 134.24C390.175 136.352 390.207 138.496 390.271 140.672C390.335 142.784 390.431 144.864 390.559 146.912C390.687 148.96 390.879 150.848 391.135 152.576H367.423C367.679 150.848 367.871 148.96 367.999 146.912C368.127 144.864 368.223 142.784 368.287 140.672C368.351 138.496 368.383 136.352 368.383 134.24C368.383 132.064 368.383 130.048 368.383 128.192C368.383 124.48 368.351 120.576 368.287 116.48C368.223 112.384 367.935 108.64 367.423 105.248C367.359 105.696 367.295 106.688 367.231 108.224C367.167 109.76 367.007 111.584 366.751 113.696C366.495 115.744 366.079 117.984 365.503 120.416C364.927 122.848 364.095 125.152 363.007 127.328C361.919 129.504 360.511 131.456 358.783 133.184C357.119 134.912 355.039 136.128 352.543 136.832L354.079 104L403.807 103.904L405.343 137.12ZM444.659 151.616C442.419 152.128 439.891 152.48 437.075 152.672C434.259 152.864 431.667 152.96 429.299 152.96C424.371 152.96 420.435 152.32 417.491 151.04C414.611 149.696 412.403 147.84 410.867 145.472C409.395 143.04 408.435 140.192 407.987 136.928C407.539 133.6 407.315 129.92 407.315 125.888C407.315 122.816 407.507 119.904 407.891 117.152C408.339 114.4 409.267 111.968 410.675 109.856C412.083 107.744 414.163 106.08 416.915 104.864C419.731 103.648 423.475 103.04 428.147 103.04C431.155 103.04 433.715 103.264 435.827 103.712C438.003 104.096 439.795 104.8 441.203 105.824C442.611 106.848 443.635 108.256 444.275 110.048C444.915 111.776 445.235 113.984 445.235 116.672C445.235 118.592 445.075 120.32 444.755 121.856C444.499 123.392 443.955 124.704 443.123 125.792C442.291 126.816 441.107 127.616 439.571 128.192C438.035 128.768 436.019 129.056 433.523 129.056C432.435 129.056 431.411 128.992 430.451 128.864C429.491 128.672 428.627 128.416 427.859 128.096C428.435 129.504 429.363 130.56 430.643 131.264C431.987 131.968 434.003 132.32 436.691 132.32C439.315 132.32 441.267 132 442.547 131.36C443.827 130.656 444.595 130.24 444.851 130.112C444.659 133.12 444.563 136.256 444.563 139.52C444.563 142.784 444.595 146.816 444.659 151.616ZM427.187 125.504C427.955 125.12 428.563 124.288 429.011 123.008C429.459 121.728 429.683 119.584 429.683 116.576C429.683 113.12 429.619 110.432 429.491 108.512C429.427 106.528 429.075 105.536 428.435 105.536C428.179 105.536 427.955 105.696 427.763 106.016C427.571 106.336 427.379 106.976 427.187 107.936C427.059 108.832 426.963 110.08 426.899 111.68C426.835 113.28 426.803 115.328 426.803 117.824C426.803 119.296 426.803 120.672 426.803 121.952C426.867 123.232 426.995 124.416 427.187 125.504ZM472.48 152.96C467.552 152.96 463.52 152.288 460.384 150.944C457.248 149.536 454.752 147.68 452.896 145.376C451.104 143.008 449.856 140.256 449.152 137.12C448.448 133.984 448.096 130.656 448.096 127.136C448.096 123.616 448.16 119.904 448.288 116C448.48 112.096 448.768 108.32 449.152 104.672C449.536 100.96 450.048 97.568 450.688 94.496C451.392 91.36 452.288 88.864 453.376 87.008C455.552 83.104 458.08 80.448 460.96 79.04C463.84 77.568 466.784 76.8 469.792 76.736C472.8 76.608 475.776 76.896 478.72 77.6C481.664 78.304 484.32 78.848 486.688 79.232C487.392 79.36 487.808 79.456 487.936 79.52C488.064 79.584 488.384 79.584 488.896 79.52C489.728 79.456 490.368 79.232 490.816 78.848C491.264 78.464 491.552 77.984 491.68 77.408C491.808 76.768 491.84 76.096 491.776 75.392C491.712 74.688 491.616 73.984 491.488 73.28C491.36 72.384 491.36 71.68 491.488 71.168C491.616 70.656 491.808 70.368 492.064 70.304C492.32 70.176 492.576 70.304 492.832 70.688C493.088 71.072 493.248 71.712 493.312 72.608C493.504 74.656 493.632 76.96 493.696 79.52C493.76 82.016 493.536 84.48 493.024 86.912C492.512 89.28 491.52 91.488 490.048 93.536C488.576 95.52 486.4 97.024 483.52 98.048C482.176 98.624 480.576 98.784 478.72 98.528C476.928 98.208 475.072 97.792 473.152 97.28C471.232 96.768 469.344 96.288 467.488 95.84C465.696 95.392 464.096 95.296 462.688 95.552C458.528 96.256 455.52 97.92 453.664 100.544C451.808 103.168 450.624 107.328 450.112 113.024C451.712 109.824 454.304 107.296 457.888 105.44C461.536 103.584 466.4 102.656 472.48 102.656C477.28 102.656 481.248 103.264 484.384 104.48C487.52 105.696 489.984 107.424 491.776 109.664C493.568 111.84 494.816 114.464 495.52 117.536C496.224 120.544 496.576 123.84 496.576 127.424C496.576 130.944 496.224 134.272 495.52 137.408C494.816 140.48 493.568 143.168 491.776 145.472C489.984 147.776 487.52 149.6 484.384 150.944C481.248 152.288 477.28 152.96 472.48 152.96ZM472.384 151.616C472.64 151.616 472.896 151.36 473.152 150.848C473.408 150.336 473.6 149.248 473.728 147.584C473.92 145.92 474.048 143.488 474.112 140.288C474.24 137.088 474.304 132.8 474.304 127.424C474.304 121.984 474.24 117.728 474.112 114.656C474.048 111.52 473.92 109.184 473.728 107.648C473.6 106.048 473.408 105.056 473.152 104.672C472.896 104.224 472.64 104 472.384 104C472.064 104 471.776 104.224 471.52 104.672C471.264 105.056 471.04 106.016 470.848 107.552C470.72 109.088 470.592 111.392 470.464 114.464C470.4 117.536 470.368 121.76 470.368 127.136C470.368 132.512 470.4 136.8 470.464 140C470.592 143.2 470.72 145.664 470.848 147.392C471.04 149.12 471.264 150.272 471.52 150.848C471.776 151.36 472.064 151.616 472.384 151.616ZM536.815 151.616C534.575 152.128 532.047 152.48 529.231 152.672C526.415 152.864 523.823 152.96 521.455 152.96C516.527 152.96 512.591 152.32 509.647 151.04C506.767 149.696 504.559 147.84 503.023 145.472C501.551 143.04 500.591 140.192 500.143 136.928C499.695 133.6 499.471 129.92 499.471 125.888C499.471 122.816 499.663 119.904 500.047 117.152C500.495 114.4 501.423 111.968 502.831 109.856C504.239 107.744 506.319 106.08 509.071 104.864C511.887 103.648 515.631 103.04 520.303 103.04C523.311 103.04 525.871 103.264 527.983 103.712C530.159 104.096 531.951 104.8 533.359 105.824C534.767 106.848 535.791 108.256 536.431 110.048C537.071 111.776 537.391 113.984 537.391 116.672C537.391 118.592 537.231 120.32 536.911 121.856C536.655 123.392 536.111 124.704 535.279 125.792C534.447 126.816 533.263 127.616 531.727 128.192C530.191 128.768 528.175 129.056 525.679 129.056C524.591 129.056 523.567 128.992 522.607 128.864C521.647 128.672 520.783 128.416 520.015 128.096C520.591 129.504 521.519 130.56 522.799 131.264C524.143 131.968 526.159 132.32 528.847 132.32C531.471 132.32 533.423 132 534.703 131.36C535.983 130.656 536.751 130.24 537.007 130.112C536.815 133.12 536.719 136.256 536.719 139.52C536.719 142.784 536.751 146.816 536.815 151.616ZM519.343 125.504C520.111 125.12 520.719 124.288 521.167 123.008C521.615 121.728 521.839 119.584 521.839 116.576C521.839 113.12 521.775 110.432 521.647 108.512C521.583 106.528 521.231 105.536 520.591 105.536C520.335 105.536 520.111 105.696 519.919 106.016C519.727 106.336 519.535 106.976 519.343 107.936C519.215 108.832 519.119 110.08 519.055 111.68C518.991 113.28 518.959 115.328 518.959 117.824C518.959 119.296 518.959 120.672 518.959 121.952C519.023 123.232 519.151 124.416 519.343 125.504Z" fill="#FFDEEF"/>
<path d="M16.2258 89.6368C19.1071 91.3049 21.0784 94.4136 21.0784 97.9772C21.0784 103.209 16.7566 107.531 11.4491 107.531C6.14156 107.531 1.89554 103.209 1.89554 97.9772H4.85259C4.85259 101.617 7.80963 104.574 11.4491 104.574C15.0885 104.574 18.1214 101.617 18.1214 97.9772C18.1214 94.262 15.0885 91.3049 11.4491 91.3049H7.12724V88.3479H11.4491C14.1028 88.3479 16.2258 86.2249 16.2258 83.5711C16.2258 80.9932 14.1028 78.7943 11.4491 78.7943C8.87114 78.7943 6.67231 80.9932 6.67231 83.5711H3.71526C3.71526 79.3251 7.20306 75.8373 11.4491 75.8373C15.6951 75.8373 19.1829 79.3251 19.1829 83.5711C19.1829 85.9974 18.0456 88.1962 16.2258 89.6368ZM53.4235 76.4439H56.4564V106.924H53.4235V101.692C50.239 105.559 46.1446 107.455 41.2162 107.455C36.8185 107.455 33.1033 105.938 30.0704 102.981C27.0375 99.9486 25.5211 96.1575 25.5211 91.7598C25.5211 87.2864 26.9617 83.5711 29.9946 80.6141C33.0275 77.5054 36.8185 75.9889 41.2162 75.9889C46.0688 75.9889 50.1632 77.9603 53.4235 81.7514V76.4439ZM50.239 100.858C52.7411 98.2805 53.9542 95.3235 54.0301 91.7598C54.0301 88.272 52.7411 85.2392 50.239 82.7371C47.7369 80.2349 44.704 78.946 41.2162 78.946C37.6526 78.946 34.6955 80.2349 32.1934 82.6612C29.6913 85.1634 28.4023 88.1962 28.4023 91.7598C28.4023 95.2476 29.6913 98.2805 32.1934 100.783C34.6955 103.285 37.7284 104.498 41.2162 104.498C44.7798 104.498 47.7369 103.285 50.239 100.858ZM82.1368 76.5197H100.107V79.5525H92.6002V107H89.5673V79.5525H82.1368V76.5197ZM118.965 75.8373C127.684 75.8373 134.812 82.9645 134.812 91.684C134.812 100.404 127.684 107.531 118.965 107.531C110.245 107.531 103.194 100.404 103.194 91.684C103.194 82.9645 110.245 75.8373 118.965 75.8373ZM118.965 104.498C126.016 104.498 131.779 98.7354 131.779 91.684C131.779 84.6326 126.016 78.8702 118.965 78.8702C111.913 78.8702 106.151 84.6326 106.151 91.684C106.151 98.7354 111.913 104.498 118.965 104.498ZM177.483 76.4439H180.44V106.924H177.483V94.7169H172.403C165.579 94.7169 160.12 89.1819 160.12 82.4338V76.4439H163.077V82.4338C163.077 87.5896 167.247 91.7598 172.403 91.7598H177.483V76.4439ZM184.466 76.5197H202.436V79.5525H194.93V107H191.897V79.5525H184.466V76.5197ZM221.294 75.8373C230.014 75.8373 237.141 82.9645 237.141 91.684C237.141 100.404 230.014 107.531 221.294 107.531C212.575 107.531 205.524 100.404 205.524 91.684C205.524 82.9645 212.575 75.8373 221.294 75.8373ZM221.294 104.498C228.346 104.498 234.108 98.7354 234.108 91.684C234.108 84.6326 228.346 78.8702 221.294 78.8702C214.243 78.8702 208.481 84.6326 208.481 91.684C208.481 98.7354 214.243 104.498 221.294 104.498ZM261.843 76.5197H279.813V79.5525H272.306V107H269.274V79.5525H261.843V76.5197ZM291.468 88.727C296.321 88.727 298.823 89.7127 300.87 91.9115C302.841 94.0345 303.22 95.93 303.22 98.1289C303.22 100.707 302.311 102.83 300.491 104.498C298.595 106.166 296.396 106.924 293.667 106.924H283.81V76.4439H286.691V88.727H291.468ZM298.292 102.527C299.657 101.313 300.415 99.7969 300.415 97.8256C300.415 95.8542 299.657 94.262 298.216 93.0488C296.851 91.9115 295.183 91.3049 293.212 91.3049H286.691V104.346H293.212C295.183 104.346 296.851 103.74 298.292 102.527ZM308.452 106.924H305.495V76.4439H308.452V106.924ZM367.017 75.0791L380.665 106.924H377.405L367.169 83.2678L357.312 107.91L347.607 83.3436L337.371 106.924H334.035L347.834 75.0791L357.312 99.4937L367.017 75.0791ZM399.52 75.8373C408.239 75.8373 415.367 82.9645 415.367 91.684C415.367 100.404 408.239 107.531 399.52 107.531C390.8 107.531 383.749 100.404 383.749 91.684C383.749 82.9645 390.8 75.8373 399.52 75.8373ZM399.52 104.498C406.571 104.498 412.334 98.7354 412.334 91.684C412.334 84.6326 406.571 78.8702 399.52 78.8702C392.468 78.8702 386.706 84.6326 386.706 91.684C386.706 98.7354 392.468 104.498 399.52 104.498ZM432.702 75.1549L447.108 106.924H443.924L432.778 82.6612L421.632 106.924H418.296L432.702 75.1549ZM465.864 75.8373C474.583 75.8373 481.711 82.9645 481.711 91.684C481.711 100.404 474.583 107.531 465.864 107.531C457.144 107.531 450.093 100.404 450.093 91.684C450.093 82.9645 457.144 75.8373 465.864 75.8373ZM465.864 104.498C472.915 104.498 478.678 98.7354 478.678 91.684C478.678 84.6326 472.915 78.8702 465.864 78.8702C458.812 78.8702 453.05 84.6326 453.05 91.684C453.05 98.7354 458.812 104.498 465.864 104.498ZM512.239 103.967H516.409V114.355H513.452V106.924H488.355V114.355H485.398V103.967H489.492V87.8929C489.492 84.1777 490.478 81.2206 492.449 79.0976C494.497 76.9746 497.302 75.8373 500.941 75.8373C504.581 75.8373 507.386 76.8988 509.358 79.0218C511.329 81.1448 512.239 84.1018 512.239 87.8929V103.967ZM509.282 103.967V87.8929C509.282 85.0117 508.599 82.7371 507.31 81.2206C506.021 79.6284 503.898 78.7943 500.941 78.7943C495.331 78.7943 492.449 81.8272 492.449 87.8929V103.967H509.282ZM541.597 103.588C543.72 102.678 545.615 100.858 547.283 98.2047L550.013 99.4178C548.117 103.057 545.16 105.559 541.142 106.848C539.625 107.303 537.881 107.531 535.986 107.531C531.437 107.531 527.645 106.014 524.688 103.057C521.656 100.024 520.215 96.3091 520.215 91.7598C520.215 87.1347 521.656 83.4195 524.613 80.4624C527.645 77.4295 531.437 75.9131 535.986 75.9131C540.535 75.9131 544.25 77.3537 547.207 80.1591C550.24 82.9645 551.681 86.604 551.681 91.0774H523.096C523.096 95.2476 524.233 98.508 526.432 100.934C528.783 103.361 531.967 104.574 535.986 104.574C538.033 104.574 539.929 104.27 541.597 103.588ZM535.986 78.8702C529.693 78.8702 525.522 81.9788 523.551 88.1962H548.345C547.814 85.3908 546.373 83.1162 543.947 81.3723C541.672 79.7042 539.019 78.8702 535.986 78.8702ZM580.092 107H568.339C561.743 107 556.435 101.617 556.435 95.0202V76.4439H559.392V95.0202C559.392 100.024 563.411 104.043 568.339 104.043H577.135V76.4439H580.092V107ZM580.092 113.9H568.188V110.867H580.092V113.9Z" fill="#FF00AE"/>
</svg>
