<svg width="200" height="259" viewBox="0 0 200 259" fill="none" xmlns="http://www.w3.org/2000/svg">
<path fill-rule="evenodd" clip-rule="evenodd" d="M85.4352 74.6952C84.7955 75.5658 83.9123 76.2275 82.8971 76.5971C79.614 77.792 76.0136 77.7846 72.7354 76.5761C71.6947 76.1924 70.7004 75.6927 69.7715 75.0865L67.6876 73.7265L63.3821 74.0316C62.2376 74.1128 61.0883 73.9717 59.9974 73.6163L59.7429 73.5334C57.3024 72.7382 55.3636 70.8643 54.4857 68.4524C53.8221 66.6292 53.8144 64.6318 54.464 62.8036L55.5354 59.7881L54.6414 57.3319C53.7047 54.7584 53.7273 51.9335 54.7049 49.3753L55.1688 48.1614C55.7942 46.5249 56.9595 45.151 58.472 44.267C60.7628 42.9281 63.582 42.8647 65.9307 44.0992L67.6258 44.9901L72.0117 41.8453L72.7576 40.4262C74.128 37.8189 76.421 35.816 79.1888 34.8086L79.4197 34.7246C81.7967 33.8594 84.3974 33.829 86.794 34.6383C88.5039 35.2157 90.0479 36.1999 91.2932 37.5063L91.4524 37.6733C93.364 39.6786 94.5279 42.2802 94.7491 45.0418L94.9064 47.0068L98.6757 50.4719C99.2629 51.0117 99.7712 51.6315 100.186 52.3129L100.32 52.5342C101.885 55.1062 101.889 58.3349 100.331 60.9108C98.4763 63.976 94.8245 65.4533 91.3607 64.5396L90.7237 64.3715C89.5219 64.0545 88.3324 64.9224 88.2676 66.1636L88.2093 67.2801C88.0759 69.8364 87.1971 72.2976 85.6813 74.3603L85.4352 74.6952Z" fill="#FF88C4"/>
<path d="M94.9064 47.0068L94.1713 50.9156C93.8601 52.5702 93.2478 54.1537 92.3648 55.5872V55.5872C91.0552 57.7133 89.1914 59.4427 86.9736 60.59L84.592 61.822M94.9064 47.0068L94.7491 45.0418M94.9064 47.0068L98.6757 50.4719M84.592 61.822L82.9751 61.9562C79.428 62.2506 75.8826 61.3683 72.8872 59.4456V59.4456M84.592 61.822L80.6147 65.4818M72.8872 59.4456L71.6666 58.1916C70.4706 56.963 70.0965 55.1426 70.6998 53.5377V53.5377C71.3214 51.884 72.8786 50.7528 74.6439 50.6856L74.8543 50.6776C76.6333 50.6098 78.2526 51.6984 78.8615 53.3713V53.3713C79.0321 53.8399 79.1157 54.3356 79.1082 54.8342L79.0498 58.7511M72.8872 59.4456L79.0498 58.7511M79.0498 58.7511L81.6605 56.4456C83.0176 55.2472 84.0096 53.6907 84.5229 51.9544L84.8292 50.9182C85.2148 49.6138 85.1719 48.2202 84.7067 46.9421V46.9421C84.1614 45.4439 83.073 44.2054 81.6574 43.472L80.261 42.7486C78.5151 41.8442 76.5484 41.4538 74.5895 41.6228L72.0117 41.8453M72.0117 41.8453L67.6258 44.9901M72.0117 41.8453L72.7576 40.4262M67.6258 44.9901L65.4442 46.9408C63.1317 49.0086 61.8883 52.018 62.0669 55.115V55.115C62.207 57.5445 63.2129 59.8435 64.9022 61.5951L66.5478 63.3014M67.6258 44.9901L65.9307 44.0992M66.5478 63.3014V63.3014C69.4745 65.4979 73.1448 66.4614 76.773 65.9856L80.6147 65.4818M66.5478 63.3014V63.3014C62.9009 64.6288 58.8131 63.5688 56.2708 60.6364L55.5354 59.7881M80.6147 65.4818L74.5418 69.4619L67.6876 73.7265M55.5354 59.7881L54.464 62.8036M55.5354 59.7881L54.6414 57.3319M67.6876 73.7265L69.7715 75.0865M67.6876 73.7265L63.3821 74.0316M82.8971 76.5971V76.5971C83.9123 76.2275 84.7955 75.5658 85.4352 74.6952L85.6813 74.3603M82.8971 76.5971C79.614 77.792 76.0136 77.7846 72.7354 76.5761M82.8971 76.5971V76.5971C79.614 77.792 76.0136 77.7846 72.7354 76.5761V76.5761M72.7354 76.5761C71.6947 76.1924 70.7004 75.6927 69.7715 75.0865M72.7354 76.5761V76.5761C71.6946 76.1924 70.7004 75.6927 69.7715 75.0865V75.0865M63.3821 74.0316C62.2376 74.1128 61.0883 73.9717 59.9974 73.6163M63.3821 74.0316V74.0316C62.2376 74.1128 61.0883 73.9717 59.9974 73.6163V73.6163M59.9974 73.6163L59.7429 73.5334M59.7429 73.5334C57.3024 72.7382 55.3636 70.8643 54.4857 68.4524M59.7429 73.5334V73.5334C57.3024 72.7382 55.3636 70.8643 54.4857 68.4524V68.4524M54.4857 68.4524C53.8221 66.6292 53.8144 64.6318 54.464 62.8036M54.4857 68.4524V68.4524C53.8221 66.6292 53.8144 64.6318 54.464 62.8036V62.8036M54.6414 57.3319C53.7047 54.7584 53.7273 51.9335 54.7049 49.3753M54.6414 57.3319V57.3319C53.7047 54.7584 53.7273 51.9335 54.7049 49.3753V49.3753M54.7049 49.3753L55.1688 48.1614M55.1688 48.1614C55.7942 46.5249 56.9595 45.151 58.472 44.267M55.1688 48.1614V48.1614C55.7942 46.5249 56.9595 45.151 58.472 44.267V44.267M58.472 44.267C60.7628 42.9281 63.582 42.8647 65.9307 44.0992M58.472 44.267V44.267C60.7628 42.9281 63.582 42.8647 65.9307 44.0992V44.0992M72.7576 40.4262C74.128 37.8189 76.421 35.816 79.1888 34.8086M72.7576 40.4262V40.4262C74.128 37.8189 76.421 35.816 79.1888 34.8086V34.8086M79.1888 34.8086L79.4197 34.7246M79.4197 34.7246C81.7967 33.8594 84.3974 33.829 86.794 34.6383M79.4197 34.7246V34.7246C81.7967 33.8594 84.3974 33.829 86.794 34.6383V34.6383M86.794 34.6383C88.5039 35.2157 90.0479 36.1999 91.2932 37.5063M86.794 34.6383V34.6383C88.5039 35.2157 90.0479 36.1999 91.2932 37.5063V37.5063M91.2932 37.5063L91.4524 37.6733M91.4524 37.6733C93.364 39.6786 94.5279 42.2802 94.7491 45.0418M91.4524 37.6733V37.6733C93.364 39.6786 94.5279 42.2802 94.7491 45.0418V45.0418M98.6757 50.4719C99.2629 51.0117 99.7712 51.6315 100.186 52.3129M98.6757 50.4719V50.4719C99.2629 51.0117 99.7712 51.6315 100.186 52.3129V52.3129M100.186 52.3129L100.32 52.5342M100.32 52.5342C101.885 55.1062 101.889 58.3349 100.331 60.9108M100.32 52.5342V52.5342C101.885 55.1062 101.889 58.3349 100.331 60.9108V60.9108M100.331 60.9108C98.4763 63.976 94.8245 65.4533 91.3607 64.5396M100.331 60.9108V60.9108C98.4764 63.9759 94.8245 65.4533 91.3607 64.5396V64.5396M91.3607 64.5396L90.7237 64.3715M90.7237 64.3715C89.5219 64.0545 88.3324 64.9224 88.2676 66.1636M90.7237 64.3715V64.3715C89.5219 64.0545 88.3324 64.9224 88.2676 66.1636V66.1636M88.2676 66.1636L88.2093 67.2801M88.2093 67.2801C88.0759 69.8364 87.1971 72.2976 85.6813 74.3603M88.2093 67.2801V67.2801C88.0759 69.8364 87.1971 72.2976 85.6813 74.3603V74.3603" stroke="#FF88C4" stroke-width="1.81867" stroke-linecap="round"/>
<ellipse cx="76.0941" cy="56.5882" rx="5.00134" ry="3.94045" transform="rotate(-59 76.0941 56.5882)" fill="#FF00AE"/>
<path fill-rule="evenodd" clip-rule="evenodd" d="M67.0948 101.492C68.1716 101.581 69.2504 101.348 70.1954 100.824C73.2512 99.1306 75.6076 96.4085 76.8462 93.1416C77.2395 92.1044 77.5146 91.0262 77.6665 89.9274L78.0072 87.4624L81.0622 84.4132C81.8743 83.6027 82.5219 82.6427 82.9693 81.5862L83.0737 81.3397C84.0747 78.9762 83.9324 76.2836 82.6881 74.0387C81.7475 72.3418 80.245 71.0256 78.4391 70.3164L75.4604 69.1466L74.1932 66.8605C72.8655 64.4652 70.7187 62.6289 68.1467 61.6884L66.9261 61.2421C65.2808 60.6405 63.4794 60.6186 61.8199 61.1802C59.3065 62.0306 57.4091 64.1167 56.7999 66.6992L56.3602 68.563L51.1093 69.8099L49.549 69.4418C46.6822 68.7655 43.6662 69.182 41.0901 70.61L40.8752 70.7291C38.6628 71.9555 36.9336 73.8983 35.9721 76.2381C35.2861 77.9074 35.0159 79.7183 35.1848 81.5151L35.2064 81.745C35.4658 84.5032 36.6656 87.0885 38.6047 89.0671L39.9845 90.475L40.1268 95.5931C40.1489 96.3904 40.2832 97.1806 40.5256 97.9405L40.6042 98.1872C41.519 101.055 43.9532 103.177 46.9194 103.69C50.4492 104.302 53.96 102.515 55.5428 99.3015L55.8339 98.7105C56.3831 97.5955 57.8185 97.2672 58.7978 98.0326L59.6787 98.7211C61.6954 100.297 64.1295 101.249 66.6807 101.458L67.0948 101.492Z" fill="#FFB4E7"/>
<path d="M39.9845 90.475L43.4167 92.4846C44.8697 93.3353 46.4665 93.912 48.1277 94.1861V94.1861C50.5914 94.5925 53.1194 94.3206 55.4403 93.3994L57.9325 92.4103M39.9845 90.475L38.6047 89.0671M39.9845 90.475L40.1268 95.5931M57.9325 92.4103L59.0946 91.278C61.6439 88.7941 63.304 85.5395 63.8181 82.0174V82.0174M57.9325 92.4103L63.304 91.8096M63.8181 82.0174L63.6725 80.2736C63.5298 78.5649 62.4015 77.0883 60.7944 76.4907V76.4907C59.1386 75.8749 57.2632 76.308 56.0543 77.5962L55.9103 77.7497C54.692 79.0479 54.4511 80.9842 55.3143 82.5413V82.5413C55.556 82.9774 55.8753 83.3657 56.2565 83.6872L59.2509 86.2128M63.8181 82.0174L59.2509 86.2128M59.2509 86.2128L55.7981 86.6706C54.0034 86.9086 52.1778 86.6361 50.5308 85.8844L49.5477 85.4358C48.3103 84.871 47.2867 83.9243 46.6273 82.7347V82.7347C45.8543 81.3403 45.6336 79.7063 46.0089 78.1568L46.3791 76.6284C46.8419 74.7174 47.8375 72.977 49.2503 71.6094L51.1093 69.8099M51.1093 69.8099L56.3602 68.563M51.1093 69.8099L49.549 69.4418M56.3602 68.563L59.2637 68.1963C62.3414 67.8076 65.4283 68.8435 67.6485 71.0102V71.0102C69.3902 72.7098 70.4653 74.9772 70.679 77.4014L70.8871 79.7628M56.3602 68.563L56.7999 66.6992M70.8871 79.7628V79.7628C70.6248 83.4126 68.944 86.8147 66.2046 89.2408L63.304 91.8096M70.8871 79.7628V79.7628C74.2815 77.8812 76.1633 74.1007 75.6181 70.2581L75.4604 69.1466M63.304 91.8096L70.292 89.8376L78.0072 87.4624M75.4604 69.1466L78.4391 70.3164M75.4604 69.1466L74.1932 66.8605M78.0072 87.4624L77.6665 89.9274M78.0072 87.4624L81.0622 84.4132M70.1954 100.824V100.824C69.2504 101.348 68.1716 101.581 67.0948 101.492L66.6807 101.458M70.1954 100.824C73.2512 99.1306 75.6076 96.4085 76.8462 93.1416M70.1954 100.824V100.824C73.2512 99.1306 75.6076 96.4085 76.8462 93.1416V93.1416M76.8462 93.1416C77.2395 92.1044 77.5146 91.0262 77.6665 89.9274M76.8462 93.1416V93.1416C77.2395 92.1044 77.5146 91.0262 77.6665 89.9274V89.9274M81.0622 84.4132C81.8743 83.6027 82.5219 82.6427 82.9693 81.5862M81.0622 84.4132V84.4132C81.8743 83.6027 82.5219 82.6427 82.9693 81.5862V81.5862M82.9693 81.5862L83.0737 81.3397M83.0737 81.3397C84.0747 78.9762 83.9324 76.2836 82.6881 74.0387M83.0737 81.3397V81.3397C84.0747 78.9762 83.9324 76.2836 82.6881 74.0387V74.0387M82.6881 74.0387C81.7475 72.3418 80.245 71.0256 78.4391 70.3164M82.6881 74.0387V74.0387C81.7475 72.3418 80.245 71.0256 78.4391 70.3164V70.3164M74.1932 66.8605C72.8655 64.4652 70.7187 62.6289 68.1467 61.6884M74.1932 66.8605V66.8605C72.8655 64.4652 70.7187 62.6289 68.1467 61.6884V61.6884M68.1467 61.6884L66.9261 61.2421M66.9261 61.2421C65.2808 60.6405 63.4794 60.6186 61.8199 61.1802M66.9261 61.2421V61.2421C65.2808 60.6405 63.4793 60.6186 61.8199 61.1802V61.1802M61.8199 61.1802C59.3065 62.0306 57.4091 64.1167 56.7999 66.6992M61.8199 61.1802V61.1802C59.3065 62.0306 57.4091 64.1167 56.7999 66.6992V66.6992M49.549 69.4418C46.6822 68.7655 43.6662 69.182 41.0901 70.61M49.549 69.4418V69.4418C46.6822 68.7655 43.6662 69.182 41.0901 70.61V70.61M41.0901 70.61L40.8752 70.7291M40.8752 70.7291C38.6628 71.9555 36.9336 73.8983 35.9721 76.2381M40.8752 70.7291V70.7291C38.6628 71.9555 36.9336 73.8983 35.9721 76.2381V76.2381M35.9721 76.2381C35.2861 77.9074 35.0159 79.7183 35.1848 81.5151M35.9721 76.2381V76.2381C35.2861 77.9073 35.0159 79.7183 35.1848 81.5151V81.5151M35.1848 81.5151L35.2064 81.745M35.2064 81.745C35.4658 84.5032 36.6656 87.0885 38.6047 89.0671M35.2064 81.745V81.745C35.4658 84.5032 36.6656 87.0885 38.6047 89.0671V89.0671M40.1268 95.5931C40.1489 96.3904 40.2832 97.1806 40.5255 97.9405M40.1268 95.5931V95.5931C40.1489 96.3904 40.2832 97.1806 40.5255 97.9405V97.9405M40.5255 97.9405L40.6042 98.1872M40.6042 98.1872C41.519 101.055 43.9532 103.177 46.9194 103.69M40.6042 98.1872V98.1872C41.519 101.055 43.9532 103.177 46.9194 103.69V103.69M46.9194 103.69C50.4492 104.302 53.96 102.515 55.5428 99.3015M46.9194 103.69V103.69C50.4492 104.302 53.96 102.515 55.5428 99.3015V99.3015M55.5428 99.3015L55.8339 98.7105M55.8339 98.7105C56.3831 97.5955 57.8185 97.2672 58.7978 98.0326M55.8339 98.7105V98.7105C56.3831 97.5955 57.8185 97.2672 58.7978 98.0326V98.0326M58.7978 98.0326L59.6787 98.7211M59.6787 98.7211C61.6954 100.297 64.1295 101.249 66.6807 101.458M59.6787 98.7211V98.7211C61.6954 100.297 64.1295 101.249 66.6807 101.458V101.458" stroke="#FFB4E7" stroke-width="1.81867" stroke-linecap="round"/>
<ellipse cx="5.00134" cy="3.94045" rx="5.00134" ry="3.94045" transform="matrix(-0.984808 -0.173648 -0.173648 0.984808 65.1641 79.5527)" fill="#FF00AE"/>
<path fill-rule="evenodd" clip-rule="evenodd" d="M87.2435 61.5574C86.3405 61.8789 85.5533 62.4778 84.9827 63.2775C83.1368 65.8645 82.2423 69.0763 82.4581 72.3425C82.5266 73.3794 82.7062 74.4079 82.9935 75.4084L83.638 77.6531L82.2991 81.4045C81.9431 82.4018 81.7765 83.4665 81.8082 84.5402L81.8156 84.7906C81.8867 87.1924 83.0079 89.4539 84.856 90.9225C86.2529 92.0327 87.9632 92.6076 89.693 92.5486L92.5462 92.4512L94.4281 93.9468C96.3999 95.5138 98.8273 96.2972 101.265 96.1533L102.422 96.085C103.981 95.993 105.45 95.3448 106.587 94.2479C108.308 92.5865 109.067 90.0913 108.597 87.6463L108.257 85.8817L112.051 82.8662L113.454 82.605C116.032 82.1249 118.323 80.6504 119.879 78.4694L120.009 78.2875C121.345 76.4145 122.022 74.1047 121.928 71.7379C121.861 70.0493 121.403 68.3929 120.595 66.9112L120.491 66.7217C119.251 64.4472 117.312 62.6696 115 61.687L113.354 60.9878L111.327 56.6419C111.011 55.9649 110.607 55.3355 110.127 54.7721L109.971 54.5892C108.157 52.463 105.39 51.5411 102.792 52.1975C99.7006 52.9786 97.5203 55.814 97.437 59.1619L97.4216 59.7775C97.3927 60.9391 96.3511 61.7526 95.2708 61.4574L94.299 61.1918C92.0743 60.5837 89.7444 60.667 87.5969 61.4316L87.2435 61.5574Z" fill="#FF88C4"/>
<path d="M113.354 60.9878L109.798 60.5286C108.316 60.3372 106.817 60.4325 105.375 60.8099V60.8099C103.217 61.3746 101.257 62.5527 99.7068 64.2159L98.073 65.969M113.354 60.9878L115 61.687M113.354 60.9878L111.327 56.6419M98.073 65.969L97.5644 67.3427C96.4175 70.4397 96.2829 73.8631 97.1815 77.0797V77.0797M98.073 65.969L93.9404 68.4737M97.1815 77.0797L97.9671 78.5545C98.7126 79.9541 100.17 80.7915 101.684 80.7109V80.7109C103.257 80.6271 104.634 79.5506 105.136 77.9881L105.181 77.8499C105.69 76.2643 105.165 74.4997 103.881 73.4789V73.4789C103.524 73.1952 103.122 72.9808 102.694 72.8461L99.3189 71.7833M97.1815 77.0797L99.3189 71.7833M99.3189 71.7833L101.924 70.1275C103.307 69.2483 104.904 68.8012 106.53 68.8377L107.473 68.8588C108.693 68.8862 109.878 69.3204 110.857 70.0987V70.0987C112.006 71.0117 112.796 72.3375 113.072 73.8168L113.336 75.2342C113.677 77.0612 113.517 78.9451 112.874 80.6649L112.051 82.8662M112.051 82.8662L108.257 85.8817M112.051 82.8662L113.454 82.605M108.257 85.8817L106.087 87.2416C103.705 88.7342 100.791 88.9952 98.1688 87.9505V87.9505C96.1312 87.1386 94.4233 85.5975 93.3487 83.6013L92.2898 81.6344M108.257 85.8817L108.597 87.6463M92.2898 81.6344V81.6344C91.1395 78.4014 91.2372 74.841 92.5621 71.7203L93.9404 68.4737M92.2898 81.6344V81.6344C90.2408 84.506 90.1147 88.4363 91.9732 91.505L92.5462 92.4512M93.9404 68.4737L89.0088 72.7556L83.638 77.6531M92.5462 92.4512L89.693 92.5486M92.5462 92.4512L94.4281 93.9468M83.638 77.6531L82.9935 75.4084M83.638 77.6531L82.2991 81.4045M84.9827 63.2775V63.2775C85.5533 62.4778 86.3405 61.8789 87.2435 61.5574L87.5969 61.4316M84.9827 63.2775C83.1368 65.8645 82.2423 69.0763 82.4581 72.3425M84.9827 63.2775V63.2775C83.1378 65.8631 82.2434 69.093 82.4581 72.3425V72.3425M82.4581 72.3425C82.5266 73.3794 82.7062 74.4079 82.9935 75.4084M82.4581 72.3425V72.3425C82.5266 73.3794 82.7069 74.4103 82.9935 75.4084V75.4084M82.2991 81.4045C81.9431 82.4018 81.7765 83.4665 81.8082 84.5402M82.2991 81.4045V81.4045C81.9432 82.4016 81.7766 83.4703 81.8082 84.5402V84.5402M81.8082 84.5402L81.8156 84.7906M81.8156 84.7906C81.8867 87.1924 83.0079 89.4539 84.856 90.9225M81.8156 84.7906V84.7906C81.8867 87.1941 83.0192 89.4628 84.856 90.9225V90.9225M84.856 90.9225C86.2529 92.0327 87.9632 92.6076 89.693 92.5486M84.856 90.9225V90.9225C86.2474 92.0283 87.9624 92.6077 89.693 92.5486V92.5486M94.4281 93.9468C96.3999 95.5138 98.8273 96.2972 101.265 96.1533M94.4281 93.9468V93.9468C96.3917 95.5073 98.826 96.2973 101.265 96.1533V96.1533M101.265 96.1533L102.422 96.085M102.422 96.085C103.981 95.993 105.45 95.3448 106.587 94.2479M102.422 96.085V96.085C103.971 95.9935 105.451 95.3445 106.587 94.2479V94.2479M106.587 94.2479C108.308 92.5865 109.067 90.0913 108.597 87.6463M106.587 94.2479V94.2479C108.306 92.5884 109.064 90.0747 108.597 87.6463V87.6463M113.454 82.605C116.032 82.1249 118.323 80.6504 119.879 78.4694M113.454 82.605V82.605C116.018 82.1275 118.323 80.6492 119.879 78.4694V78.4694M119.879 78.4694L120.009 78.2875M120.009 78.2875C121.345 76.4145 122.022 74.1047 121.928 71.7379M120.009 78.2875V78.2875C121.344 76.4154 122.021 74.0933 121.928 71.7379V71.7379M121.928 71.7379C121.861 70.0493 121.403 68.3929 120.595 66.9112M121.928 71.7379V71.7379C121.861 70.0492 121.399 68.3858 120.595 66.9112V66.9112M120.595 66.9112L120.491 66.7217M120.491 66.7217C119.251 64.4472 117.312 62.6696 115 61.687M120.491 66.7217V66.7217C119.25 64.4458 117.311 62.6692 115 61.687V61.687M111.327 56.6419C111.011 55.9649 110.607 55.3355 110.127 54.7721M111.327 56.6419V56.6419C111.011 55.9648 110.606 55.3344 110.127 54.7721V54.7721M110.127 54.7721L109.971 54.5892M109.971 54.5892C108.157 52.463 105.39 51.5411 102.792 52.1975M109.971 54.5892V54.5892C108.166 52.4736 105.393 51.5403 102.792 52.1975V52.1975M102.792 52.1975C99.7006 52.9786 97.5203 55.814 97.437 59.1619M102.792 52.1975V52.1975C99.7097 52.9763 97.5201 55.8214 97.437 59.1619V59.1619M97.437 59.1619L97.4216 59.7775M97.4216 59.7775C97.3927 60.9391 96.3511 61.7526 95.2708 61.4574M97.4216 59.7775V59.7775C97.3928 60.9351 96.3412 61.7499 95.2708 61.4574V61.4574M95.2708 61.4574L94.299 61.1918M94.299 61.1918C92.0743 60.5837 89.7444 60.667 87.5969 61.4316M94.299 61.1918V61.1918C92.0872 60.5872 89.7446 60.667 87.5969 61.4316V61.4316" stroke="#FF88C4" stroke-width="1.40531" stroke-linecap="round"/>
<ellipse cx="4.45185" cy="3.69821" rx="4.45185" ry="3.69821" transform="matrix(0.970296 -0.241922 -0.241922 -0.970296 97.0078 79.6953)" fill="#FF00AE"/>
<path fill-rule="evenodd" clip-rule="evenodd" d="M139.498 71.2935C138.439 71.0816 137.466 70.5609 136.702 69.7969C134.231 67.3264 132.717 64.0602 132.426 60.5785C132.334 59.4731 132.367 58.3608 132.524 57.2627L132.876 54.7993L130.78 51.0262C130.222 50.0232 129.864 48.9219 129.726 47.783L129.693 47.5173C129.382 44.9694 130.261 42.4203 132.076 40.6053C133.448 39.2334 135.255 38.3824 137.187 38.1984L140.372 37.895L142.221 36.0467C144.157 34.1102 146.727 32.9368 149.459 32.7417L150.755 32.6491C152.502 32.5243 154.24 32.9998 155.68 33.997C157.862 35.5073 159.111 38.0356 158.985 40.6859L158.894 42.5988L163.597 45.2447L165.199 45.3209C168.141 45.461 170.925 46.6927 173.008 48.7755L173.182 48.9492C174.97 50.7379 176.097 53.0821 176.376 55.5962C176.576 57.3899 176.336 59.2052 175.679 60.8859L175.594 61.1008C174.585 63.6808 172.719 65.8351 170.31 67.2026L168.595 68.1757L167.048 73.0563C166.807 73.8166 166.46 74.5392 166.017 75.2028L165.874 75.4183C164.204 77.9231 161.279 79.2912 158.286 78.9677C154.725 78.5826 151.842 75.8973 151.207 72.3718L151.09 71.7235C150.869 70.5003 149.58 69.7891 148.427 70.2549L147.391 70.6739C145.018 71.6333 142.416 71.877 139.906 71.375L139.498 71.2935Z" fill="#FF88C4"/>
<path d="M168.595 68.1757L164.742 69.1614C163.111 69.5786 161.417 69.6929 159.745 69.4984V69.4984C157.264 69.21 154.909 68.2518 152.932 66.7266L150.809 65.0888M168.595 68.1757L170.31 67.2026M168.595 68.1757L167.048 73.0563M150.809 65.0888L150.004 63.6802C148.238 60.5897 147.539 57.0036 148.016 53.4763V53.4763M150.809 65.0888L145.811 63.0309M148.016 53.4763L148.637 51.8402C149.245 50.237 150.736 49.1286 152.446 48.9971V48.9971C154.207 48.8616 155.891 49.7948 156.698 51.3664L156.794 51.5536C157.607 53.1373 157.305 55.065 156.046 56.3238V56.3238C155.693 56.6764 155.279 56.9617 154.824 57.1657L151.25 58.7681M148.016 53.4763L151.25 58.7681M151.25 58.7681L154.443 60.1598C156.102 60.8833 157.932 61.1245 159.723 60.856L160.791 60.6957C162.136 60.4939 163.381 59.866 164.343 58.9042V58.9042C165.471 57.7769 166.133 56.267 166.199 54.6741L166.265 53.1029C166.347 51.1383 165.869 49.1909 164.888 47.4869L163.597 45.2447M163.597 45.2447L158.894 42.5988M163.597 45.2447L165.199 45.3209M158.894 42.5988L156.204 41.446C153.352 40.224 150.099 40.3689 147.368 41.8396V41.8396C145.225 42.9934 143.567 44.8766 142.693 47.148L141.842 49.3605M158.894 42.5988L158.985 40.6859M141.842 49.3605V49.3605C141.088 52.9413 141.766 56.6749 143.731 59.762L145.811 63.0309M141.842 49.3605V49.3605C139.098 46.6162 138.331 42.4634 139.914 38.92L140.372 37.895M145.811 63.0309L139.637 59.2091L132.876 54.7993M140.372 37.895L137.187 38.1984M140.372 37.895L142.221 36.0467M132.876 54.7993L132.524 57.2627M132.876 54.7993L130.78 51.0262M136.702 69.7969V69.7969C137.466 70.5609 138.439 71.0816 139.498 71.2935L139.906 71.375M136.702 69.7969C134.231 67.3264 132.717 64.0602 132.426 60.5785M136.702 69.7969V69.7969C134.231 67.3264 132.717 64.0602 132.426 60.5785V60.5785M132.426 60.5785C132.334 59.4731 132.367 58.3608 132.524 57.2627M132.426 60.5785V60.5785C132.334 59.473 132.367 58.3608 132.524 57.2627V57.2627M130.78 51.0262C130.222 50.0232 129.864 48.9219 129.726 47.783M130.78 51.0262V51.0262C130.222 50.0232 129.864 48.9219 129.726 47.783V47.783M129.726 47.783L129.693 47.5173M129.693 47.5173C129.382 44.9694 130.261 42.4203 132.076 40.6053M129.693 47.5173V47.5173C129.382 44.9694 130.261 42.4203 132.076 40.6053V40.6053M132.076 40.6053C133.448 39.2334 135.255 38.3824 137.187 38.1984M132.076 40.6053V40.6053C133.448 39.2334 135.255 38.3824 137.187 38.1984V38.1984M142.221 36.0467C144.157 34.1102 146.727 32.9368 149.459 32.7417M142.221 36.0467V36.0467C144.157 34.1102 146.727 32.9368 149.459 32.7417V32.7417M149.459 32.7417L150.755 32.6491M150.755 32.6491C152.502 32.5243 154.24 32.9998 155.68 33.997M150.755 32.6491V32.6491C152.502 32.5243 154.24 32.9998 155.68 33.997V33.997M155.68 33.997C157.862 35.5073 159.111 38.0356 158.985 40.6859M155.68 33.997V33.997C157.862 35.5073 159.111 38.0356 158.985 40.6859V40.6859M165.199 45.3209C168.141 45.461 170.925 46.6927 173.008 48.7755M165.199 45.3209V45.3209C168.141 45.461 170.925 46.6927 173.008 48.7755V48.7755M173.008 48.7755L173.182 48.9492M173.182 48.9492C174.97 50.7379 176.097 53.0821 176.376 55.5962M173.182 48.9492V48.9492C174.97 50.7379 176.097 53.0821 176.376 55.5962V55.5962M176.376 55.5962C176.576 57.3899 176.336 59.2052 175.679 60.8859M176.376 55.5962V55.5962C176.576 57.3899 176.336 59.2052 175.679 60.8859V60.8859M175.679 60.8859L175.594 61.1008M175.594 61.1008C174.585 63.6808 172.719 65.8351 170.31 67.2026M175.594 61.1008V61.1008C174.585 63.6808 172.719 65.8351 170.31 67.2026V67.2026M167.048 73.0563C166.807 73.8166 166.46 74.5392 166.017 75.2028M167.048 73.0563V73.0563C166.807 73.8166 166.46 74.5392 166.017 75.2028V75.2028M166.017 75.2028L165.874 75.4183M165.874 75.4183C164.204 77.9231 161.279 79.2912 158.286 78.9677M165.874 75.4183V75.4183C164.204 77.9231 161.279 79.2912 158.286 78.9677V78.9677M158.286 78.9677C154.725 78.5826 151.842 75.8973 151.207 72.3718M158.286 78.9677V78.9677C154.725 78.5826 151.842 75.8973 151.207 72.3718V72.3718M151.207 72.3718L151.09 71.7235M151.09 71.7235C150.869 70.5003 149.58 69.7891 148.427 70.2549M151.09 71.7235V71.7235C150.869 70.5003 149.58 69.7891 148.427 70.2549V70.2549M148.427 70.2549L147.391 70.6739M147.391 70.6739C145.018 71.6333 142.416 71.877 139.906 71.375M147.391 70.6739V70.6739C145.018 71.6333 142.416 71.877 139.906 71.375V71.375" stroke="#FF88C4" stroke-width="1.81867" stroke-linecap="round"/>
<ellipse cx="151.96" cy="55.176" rx="5.00134" ry="3.94045" transform="rotate(6 151.96 55.176)" fill="#FF00AE"/>
<path fill-rule="evenodd" clip-rule="evenodd" d="M97.8222 64.9558C98.1972 65.969 98.8638 66.8486 99.7378 67.4837C102.564 69.5373 106.027 70.5225 109.512 70.2644C110.618 70.1825 111.711 69.9762 112.771 69.6495L115.149 68.9165L119.204 70.3967C120.282 70.7901 121.425 70.9713 122.572 70.9304L122.84 70.9208C125.405 70.8291 127.785 69.5623 129.294 67.4857C130.434 65.9161 130.992 63.9982 130.871 62.0618L130.673 58.8678L132.209 56.7531C133.819 54.5375 134.576 51.8158 134.341 49.0873L134.23 47.7925C134.08 46.047 133.338 44.4052 132.128 43.1385C130.295 41.22 127.603 40.382 125.005 40.9212L123.13 41.3104L119.78 37.0785L119.455 35.5088C118.856 32.6248 117.204 30.0674 114.821 28.3361L114.622 28.1917C112.576 26.7049 110.084 25.9588 107.557 26.0761C105.754 26.1599 103.999 26.6804 102.442 27.5929L102.243 27.7096C99.8525 29.1103 98.0165 31.2902 97.0428 33.8839L96.3499 35.7294L91.7715 38.0214C91.0582 38.3784 90.3988 38.834 89.8125 39.3748L89.6222 39.5504C87.4094 41.5916 86.5157 44.6942 87.3035 47.5997C88.2409 51.0572 91.3441 53.4839 94.9256 53.5603L95.5842 53.5744C96.8269 53.6009 97.731 54.763 97.4512 55.974L97.1995 57.0634C96.6232 59.5574 96.7895 62.1655 97.678 64.5661L97.8222 64.9558Z" fill="#FFB4E7"/>
<path d="M96.3499 35.7294L95.9791 39.6894C95.8221 41.3657 95.9743 43.0566 96.428 44.678V44.678C97.1009 47.0827 98.4157 49.2589 100.231 50.9731L102.181 52.8138M96.3499 35.7294L97.0428 33.8839M96.3499 35.7294L91.7715 38.0214M102.181 52.8138L103.698 53.3884C107.027 54.6492 110.678 54.7783 114.088 53.7557V53.7557M102.181 52.8138L104.996 57.4281M114.088 53.7557L115.606 52.8867C117.095 52.0353 117.956 50.3886 117.819 48.6796V48.6796C117.677 46.9187 116.492 45.4021 114.813 44.8508L114.613 44.7852C112.922 44.2297 111.065 44.8297 110.019 46.27V46.27C109.726 46.6734 109.509 47.1269 109.379 47.6082L108.355 51.3894M114.088 53.7557L108.355 51.3894M108.355 51.3894L106.481 48.4537C105.507 46.9276 104.982 45.1579 104.967 43.3475L104.959 42.267C104.947 40.9068 105.373 39.579 106.172 38.4786V38.4786C107.109 37.1888 108.497 36.2982 110.06 35.9835L111.602 35.673C113.529 35.2849 115.527 35.4517 117.364 36.1541L119.78 37.0785M119.78 37.0785L123.13 41.3104M119.78 37.0785L119.455 35.5088M123.13 41.3104L124.689 43.7869C126.342 46.412 126.708 49.6475 125.682 52.5754V52.5754C124.878 54.8721 123.277 56.8048 121.171 58.0229L119.118 59.2095M123.13 41.3104L125.005 40.9212M119.118 59.2095V59.2095C115.7 60.5142 111.906 60.4287 108.55 58.9713L104.996 57.4281M119.118 59.2095V59.2095C122.258 61.4907 126.48 61.5985 129.732 59.4805L130.673 58.8678M104.996 57.4281L109.736 62.9279L115.149 68.9165M130.673 58.8678L130.871 62.0618M130.673 58.8678L132.209 56.7531M115.149 68.9165L112.771 69.6495M115.149 68.9165L119.204 70.3967M99.7378 67.4837V67.4837C98.8638 66.8486 98.1972 65.969 97.8222 64.9558L97.678 64.5661M99.7378 67.4837C102.564 69.5373 106.027 70.5225 109.512 70.2644M99.7378 67.4837V67.4837C102.564 69.5373 106.027 70.5225 109.512 70.2644V70.2644M109.512 70.2644C110.618 70.1825 111.711 69.9762 112.771 69.6495M109.512 70.2644V70.2644C110.618 70.1825 111.711 69.9762 112.771 69.6495V69.6495M119.204 70.3967C120.282 70.7901 121.425 70.9713 122.572 70.9304M119.204 70.3967V70.3967C120.282 70.7901 121.425 70.9713 122.572 70.9304V70.9304M122.572 70.9304L122.84 70.9208M122.84 70.9208C125.405 70.8291 127.785 69.5623 129.294 67.4857M122.84 70.9208V70.9208C125.405 70.8291 127.785 69.5623 129.294 67.4857V67.4857M129.294 67.4857C130.434 65.9161 130.992 63.9982 130.871 62.0618M129.294 67.4857V67.4857C130.434 65.9161 130.992 63.9982 130.871 62.0618V62.0618M132.209 56.7531C133.819 54.5375 134.576 51.8158 134.341 49.0873M132.209 56.7531V56.7531C133.819 54.5375 134.576 51.8158 134.341 49.0873V49.0873M134.341 49.0873L134.23 47.7925M134.23 47.7925C134.08 46.047 133.338 44.4052 132.128 43.1385M134.23 47.7925V47.7925C134.08 46.047 133.338 44.4051 132.128 43.1385V43.1385M132.128 43.1385C130.295 41.22 127.603 40.382 125.005 40.9212M132.128 43.1385V43.1385C130.295 41.22 127.603 40.382 125.005 40.9212V40.9212M119.455 35.5088C118.856 32.6248 117.204 30.0674 114.821 28.3361M119.455 35.5088V35.5088C118.856 32.6248 117.204 30.0674 114.821 28.3361V28.3361M114.821 28.3361L114.622 28.1917M114.622 28.1917C112.576 26.7049 110.084 25.9588 107.557 26.0761M114.622 28.1917V28.1917C112.576 26.7049 110.084 25.9588 107.557 26.0761V26.0761M107.557 26.0761C105.754 26.1599 103.999 26.6804 102.442 27.5929M107.557 26.0761V26.0761C105.754 26.1599 103.999 26.6804 102.442 27.5929V27.5929M102.442 27.5929L102.243 27.7096M102.243 27.7096C99.8525 29.1103 98.0165 31.2903 97.0428 33.8839M102.243 27.7096V27.7096C99.8525 29.1103 98.0165 31.2903 97.0428 33.8839V33.8839M91.7715 38.0214C91.0582 38.3784 90.3988 38.834 89.8125 39.3748M91.7715 38.0214V38.0214C91.0582 38.3784 90.3988 38.834 89.8125 39.3748V39.3748M89.8125 39.3748L89.6222 39.5504M89.6222 39.5504C87.4094 41.5916 86.5157 44.6942 87.3035 47.5997M89.6222 39.5504V39.5504C87.4094 41.5916 86.5157 44.6942 87.3035 47.5997V47.5997M87.3035 47.5997C88.2409 51.0572 91.3441 53.4839 94.9256 53.5603M87.3035 47.5997V47.5997C88.2409 51.0572 91.3441 53.4839 94.9256 53.5603V53.5603M94.9256 53.5603L95.5842 53.5744M95.5842 53.5744C96.8269 53.6009 97.731 54.763 97.4512 55.974M95.5842 53.5744V53.5744C96.8269 53.6009 97.731 54.763 97.4512 55.974V55.974M97.4512 55.974L97.1995 57.0634M97.1995 57.0634C96.6232 59.5574 96.7895 62.1655 97.678 64.5661M97.1995 57.0634V57.0634C96.6232 59.5574 96.7895 62.1655 97.678 64.5661V64.5661" stroke="#FFB4E7" stroke-width="1.81867" stroke-linecap="round"/>
<ellipse cx="5.00134" cy="3.94045" rx="5.00134" ry="3.94045" transform="matrix(-0.258819 -0.965926 -0.965926 0.258819 116.887 53.9355)" fill="#FF00AE"/>
<path fill-rule="evenodd" clip-rule="evenodd" d="M152.165 67.3712C151.492 66.6887 150.617 66.2283 149.651 66.0491C146.526 65.4695 143.237 66.0162 140.368 67.5921C139.458 68.0924 138.601 68.6898 137.816 69.373L136.054 70.9058L132.088 71.2777C131.034 71.3766 129.998 71.6755 129.039 72.1581L128.815 72.2706C126.668 73.35 125.093 75.322 124.542 77.6176C124.127 79.3528 124.328 81.1459 125.113 82.6886L126.407 85.2333L125.847 87.571C125.26 90.0203 125.576 92.5513 126.737 94.6998L127.287 95.7193C128.03 97.0936 129.238 98.1515 130.712 98.7177C132.946 99.5753 135.528 99.2094 137.545 97.7496L139.001 96.696L143.337 98.8596L144.167 100.021C145.691 102.154 147.996 103.607 150.63 104.096L150.85 104.137C153.112 104.557 155.492 104.194 157.597 103.108C159.099 102.334 160.407 101.219 161.408 99.8604L161.536 99.6866C163.073 97.6008 163.865 95.0922 163.778 92.5815L163.717 90.795L166.798 87.1209C167.279 86.5485 167.678 85.9163 167.986 85.2427L168.086 85.024C169.246 82.4819 168.912 79.5846 167.219 77.5074C165.205 75.0356 161.714 74.2579 158.644 75.5972L158.08 75.8435C157.015 76.3082 155.837 75.7079 155.648 74.6041L155.479 73.6111C155.089 71.3378 154.029 69.2615 152.429 67.6383L152.165 67.3712Z" fill="#FFB4E7"/>
<path d="M163.717 90.795L162.63 87.3781C162.177 85.9537 161.457 84.6352 160.505 83.4878V83.4878C159.082 81.771 157.186 80.4921 155.023 79.7903L152.744 79.0505M163.717 90.795L163.778 92.5815M163.717 90.795L166.798 87.1209M152.744 79.0505L151.284 79.17C147.992 79.4395 144.833 80.7643 142.297 82.9381V82.9381M152.744 79.0505L148.727 76.3636M142.297 82.9381L141.293 84.2733C140.339 85.5405 140.196 87.2155 140.909 88.5534V88.5534C141.65 89.9434 143.208 90.7369 144.836 90.5314L144.98 90.5132C146.632 90.3047 148.01 89.0833 148.392 87.4878V87.4878C148.498 87.0442 148.523 86.5893 148.464 86.1449L148.001 82.6368M142.297 82.9381L148.001 82.6368M148.001 82.6368L150.602 84.2977C151.984 85.1797 153.064 86.438 153.718 87.9277L154.098 88.7914C154.588 89.9081 154.695 91.1656 154.404 92.3821V92.3821C154.062 93.8093 153.194 95.0853 151.97 95.9607L150.797 96.7994C149.286 97.8806 147.51 98.5313 145.68 98.6753L143.337 98.8596M143.337 98.8596L139.001 96.696M143.337 98.8596L144.167 100.021M139.001 96.696L136.851 95.304C134.492 93.7761 133.024 91.2447 132.862 88.4271V88.4271C132.737 86.2373 133.412 84.0381 134.767 82.2205L136.102 80.4296M139.001 96.696L137.545 97.7496M136.102 80.4296V80.4296C138.546 78.0207 141.814 76.6046 145.202 76.4865L148.727 76.3636M136.102 80.4296V80.4296C132.634 79.7862 129.018 81.3329 127.022 84.3142L126.407 85.2333M148.727 76.3636L142.762 73.7037L136.054 70.9058M126.407 85.2333L125.113 82.6886M126.407 85.2333L125.847 87.571M136.054 70.9058L137.816 69.373M136.054 70.9058L132.088 71.2777M149.651 66.0491V66.0491C150.617 66.2283 151.492 66.6887 152.165 67.3712L152.429 67.6383M149.651 66.0491C146.526 65.4695 143.237 66.0162 140.368 67.5921M149.651 66.0491V66.0491C146.528 65.4698 143.223 66.0243 140.368 67.5921V67.5921M140.368 67.5921C139.458 68.0924 138.601 68.6898 137.816 69.373M140.368 67.5921V67.5921C139.458 68.0924 138.599 68.6915 137.816 69.373V69.373M132.088 71.2777C131.034 71.3766 129.998 71.6755 129.039 72.1581M132.088 71.2777V71.2777C131.034 71.3766 129.995 71.6772 129.039 72.1581V72.1581M129.039 72.1581L128.815 72.2706M128.815 72.2706C126.668 73.35 125.093 75.322 124.542 77.6176M128.815 72.2706V72.2706C126.667 73.3508 125.089 75.336 124.542 77.6176V77.6176M124.542 77.6176C124.127 79.3528 124.328 81.1459 125.113 82.6886M124.542 77.6176V77.6176C124.128 79.3459 124.328 81.1451 125.113 82.6886V82.6886M125.847 87.571C125.26 90.0203 125.576 92.5513 126.737 94.6998M125.847 87.571V87.571C125.263 90.0101 125.575 92.5502 126.737 94.6998V94.6998M126.737 94.6998L127.287 95.7193M127.287 95.7193C128.03 97.0936 129.238 98.1515 130.712 98.7177M127.287 95.7193V95.7193C128.025 97.085 129.239 98.1516 130.712 98.7177V98.7177M130.712 98.7177C132.946 99.5753 135.528 99.2094 137.545 97.7496M130.712 98.7177V98.7177C132.943 99.5743 135.542 99.1995 137.545 97.7496V97.7496M144.167 100.021C145.691 102.154 147.996 103.607 150.63 104.096M144.167 100.021V100.021C145.683 102.143 147.997 103.608 150.63 104.096V104.096M150.63 104.096L150.85 104.137M150.85 104.137C153.112 104.557 155.492 104.194 157.597 103.108M150.85 104.137V104.137C153.111 104.556 155.502 104.189 157.597 103.108V103.108M157.597 103.108C159.099 102.334 160.407 101.219 161.408 99.8604M157.597 103.108V103.108C159.099 102.334 160.412 101.213 161.408 99.8604V99.8604M161.408 99.8604L161.536 99.6866M161.536 99.6866C163.073 97.6008 163.865 95.0922 163.778 92.5815M161.536 99.6866V99.6866C163.074 97.5995 163.865 95.0913 163.778 92.5815V92.5815M166.798 87.1209C167.279 86.5485 167.678 85.9163 167.986 85.2427M166.798 87.1209V87.1209C167.279 86.5485 167.679 85.915 167.986 85.2427V85.2427M167.986 85.2427L168.086 85.024M168.086 85.024C169.246 82.4819 168.912 79.5846 167.219 77.5074M168.086 85.024V85.024C169.24 82.4946 168.914 79.5872 167.219 77.5074V77.5074M167.219 77.5074C165.205 75.0356 161.714 74.2579 158.644 75.5972M167.219 77.5074V77.5074C165.211 75.0428 161.707 74.2608 158.644 75.5972V75.5972M158.644 75.5972L158.08 75.8435M158.08 75.8435C157.015 76.3082 155.837 75.7079 155.648 74.6041M158.08 75.8435V75.8435C157.019 76.3066 155.836 75.6979 155.648 74.6041V74.6041M155.648 74.6041L155.479 73.6111M155.479 73.6111C155.089 71.3378 154.029 69.2615 152.429 67.6383M155.479 73.6111V73.6111C155.092 71.351 154.029 69.2616 152.429 67.6383V67.6383" stroke="#FFB4E7" stroke-width="1.40531" stroke-linecap="round"/>
<ellipse cx="4.45185" cy="3.69821" rx="4.45185" ry="3.69821" transform="matrix(0.629321 0.777146 0.777146 -0.629321 139.852 83.8906)" fill="#FF00AE"/>
<path d="M92.9351 252.947C93.7658 253.241 94.321 254.027 94.321 254.908C94.321 255.668 94.735 256.367 95.4011 256.732L97.1742 257.705C97.8042 258.05 98.4958 258.269 99.2099 258.348L104.761 258.965H112.989L118.659 258.335C119.297 258.264 119.922 258.1 120.513 257.849L123.348 256.644C124.067 256.338 124.534 255.632 124.534 254.851C124.534 254.008 125.076 253.261 125.878 252.999L130.33 251.543C130.723 251.414 131.107 251.257 131.477 251.072L134.882 249.37C136.819 248.401 138.628 247.195 140.268 245.779C142.214 244.098 143.901 242.139 145.274 239.964L145.663 239.349C146.966 237.286 148.021 235.076 148.806 232.765L148.9 232.488C149.522 230.655 149.984 228.772 150.281 226.859L150.421 225.959C150.767 223.73 150.941 221.477 150.941 219.222V210.942C150.206 204.902 148.808 198.96 146.774 193.225L145.782 190.432L141.606 181.834L137.676 173.728L134.237 164.885L132.53 158.262C131.622 154.74 130.967 151.157 130.569 147.542C130.068 142.983 129.978 138.389 130.3 133.814L130.43 131.97L130.764 130.239C131.932 124.196 133.544 118.247 135.588 112.441L139.764 103.353L141.007 100.341C141.603 98.8963 139.979 97.5468 138.669 98.3971C138.5 98.5066 138.312 98.5832 138.114 98.6226L132.205 99.8044C130.614 100.123 129.002 100.323 127.382 100.405L115.2 101.019H99.3566L88.544 99.7952C87.0753 99.6289 85.6212 99.3518 84.1943 98.9661L77.3821 97.125C77.2948 97.1014 77.2144 97.057 77.1479 96.9956C76.7292 96.6091 76.0677 97.0205 76.2291 97.567L77.2139 100.9C77.2373 100.979 77.2673 101.057 77.3033 101.131L80.1293 106.972C81.8913 110.613 83.3772 114.382 84.5745 118.246L85.478 121.162L85.9667 123.425C87.195 129.114 88.0168 134.884 88.4257 140.69C88.018 148.842 86.5389 156.906 84.0262 164.672L83.7585 165.499L80.4424 173.728L76.635 181.834L72.582 190.432L70.2314 197.483C69.2618 200.392 68.528 203.375 68.0372 206.401C67.547 209.424 67.3008 212.481 67.3008 215.543V216.081C67.3008 220.422 67.744 224.753 68.6237 229.004L68.7746 229.734L69.9612 233.227C70.6418 235.232 71.5443 237.153 72.6519 238.957L72.8886 239.343C74.4732 241.923 76.4989 244.206 78.8733 246.085C80.4057 247.299 82.0708 248.334 83.8365 249.172L88.4257 251.35L92.9351 252.947Z" fill="#001AFF"/>
<path fill-rule="evenodd" clip-rule="evenodd" d="M116.883 90.9693C116.016 91.6148 114.978 91.9895 113.9 92.046C110.41 92.2289 106.97 91.1691 104.188 89.055C103.305 88.3838 102.5 87.6152 101.789 86.7639L100.194 84.854L95.9873 83.8871C94.8691 83.63 93.8112 83.1591 92.8719 82.5002L92.6528 82.3465C90.5514 80.8726 89.2452 78.5137 89.1108 75.9505C89.0093 74.013 89.5859 72.1007 90.7416 70.5423L92.6478 67.9717L92.511 65.3615C92.3677 62.6266 93.2152 59.9317 94.898 57.7711L95.6966 56.7459C96.7731 55.3638 98.2892 54.3906 99.9941 53.9874C102.576 53.3768 105.291 54.1404 107.176 56.0076L108.537 57.3553L113.65 55.6301L114.778 54.4911C116.851 52.3984 119.63 51.1534 122.571 50.9993L122.816 50.9864C125.343 50.854 127.838 51.5853 129.894 53.06C131.36 54.1121 132.549 55.5048 133.358 57.1181L133.461 57.3244C134.703 59.801 135.055 62.6292 134.46 65.3347L134.035 67.2599L136.627 71.6757C137.031 72.3636 137.336 73.1048 137.533 73.8777L137.597 74.1286C138.341 77.0457 137.401 80.1344 135.157 82.1422C132.488 84.5313 128.564 84.8764 125.519 82.9899L124.959 82.6429C123.902 81.9884 122.511 82.4706 122.086 83.6386L121.704 84.6893C120.829 87.0948 119.269 89.1916 117.216 90.721L116.883 90.9693Z" fill="#FF96DD"/>
<path d="M134.035 67.2599L132.19 70.7829C131.408 72.2743 130.36 73.6096 129.096 74.7223V74.7223C127.222 76.3725 124.934 77.4815 122.478 77.9302L119.84 78.4121M134.035 67.2599L134.46 65.3347M134.035 67.2599L136.627 71.6757M119.84 78.4121L118.255 78.0677C114.776 77.3122 111.644 75.4318 109.342 72.7173V72.7173M119.84 78.4121L114.967 80.7492M109.342 72.7173L108.541 71.1613C107.756 69.6367 107.931 67.7865 108.977 66.4281V66.4281C110.055 65.0284 111.875 64.4019 113.583 64.8538L113.786 64.9076C115.507 65.363 116.738 66.8774 116.831 68.6553V68.6553C116.857 69.1532 116.792 69.6517 116.639 70.1264L115.438 73.855M109.342 72.7173L115.438 73.855M115.438 73.855L118.609 72.4135C120.257 71.6642 121.661 70.4658 122.659 68.9555L123.255 68.0541C124.005 66.9195 124.372 65.5742 124.3 64.2159V64.2159C124.217 62.6237 123.538 61.1211 122.399 60.0059L121.275 58.9059C119.87 57.5305 118.103 56.5822 116.18 56.1711L113.65 55.6301M113.65 55.6301L108.537 57.3553M113.65 55.6301L114.778 54.4911M108.537 57.3553L105.88 58.5829C103.064 59.8842 100.995 62.3986 100.26 65.4125V65.4125C99.6839 67.7768 99.9737 70.2694 101.077 72.4384L102.152 74.5513M108.537 57.3553L107.176 56.0076M102.152 74.5513V74.5513C104.309 77.5075 107.537 79.502 111.146 80.1077L114.967 80.7492M102.152 74.5513V74.5513C98.2762 74.7544 94.677 72.5455 93.1031 68.998L92.6478 67.9717M114.967 80.7492L107.995 82.7798L100.194 84.854M92.6478 67.9717L90.7416 70.5423M92.6478 67.9717L92.511 65.3615M100.194 84.854L101.789 86.7639M100.194 84.854L95.9873 83.8871M113.9 92.046V92.046C114.978 91.9895 116.016 91.6148 116.883 90.9693L117.216 90.721M113.9 92.046C110.41 92.2289 106.97 91.1691 104.188 89.055M113.9 92.046V92.046C110.41 92.2289 106.97 91.1691 104.188 89.055V89.055M104.188 89.055C103.305 88.3838 102.5 87.6152 101.789 86.7639M104.188 89.055V89.055C103.305 88.3838 102.5 87.6152 101.789 86.7639V86.7639M95.9873 83.8871C94.8691 83.63 93.8112 83.1591 92.8719 82.5002M95.9873 83.8871V83.8871C94.8691 83.63 93.8112 83.1591 92.8719 82.5002V82.5002M92.8719 82.5002L92.6528 82.3465M92.6528 82.3465C90.5514 80.8726 89.2452 78.5137 89.1108 75.9505M92.6528 82.3465V82.3465C90.5514 80.8726 89.2452 78.5137 89.1108 75.9505V75.9505M89.1108 75.9505C89.0093 74.013 89.5859 72.1007 90.7416 70.5423M89.1108 75.9505V75.9505C89.0093 74.013 89.5859 72.1007 90.7416 70.5423V70.5423M92.511 65.3615C92.3677 62.6266 93.2152 59.9317 94.898 57.7711M92.511 65.3615V65.3615C92.3677 62.6266 93.2152 59.9317 94.898 57.7711V57.7711M94.898 57.7711L95.6966 56.7459M95.6966 56.7459C96.7731 55.3638 98.2892 54.3906 99.9941 53.9874M95.6966 56.7459V56.7459C96.7731 55.3638 98.2892 54.3906 99.9941 53.9874V53.9874M99.9941 53.9874C102.576 53.3768 105.291 54.1404 107.176 56.0076M99.9941 53.9874V53.9874C102.576 53.3768 105.291 54.1404 107.176 56.0076V56.0076M114.778 54.4911C116.851 52.3984 119.63 51.1534 122.571 50.9993M114.778 54.4911V54.4911C116.851 52.3984 119.63 51.1534 122.571 50.9993V50.9993M122.571 50.9993L122.816 50.9864M122.816 50.9864C125.343 50.854 127.838 51.5853 129.894 53.06M122.816 50.9864V50.9864C125.343 50.854 127.838 51.5853 129.894 53.06V53.06M129.894 53.06C131.36 54.1121 132.549 55.5048 133.358 57.1181M129.894 53.06V53.06C131.36 54.1121 132.549 55.5048 133.358 57.1181V57.1181M133.358 57.1181L133.461 57.3244M133.461 57.3244C134.703 59.801 135.055 62.6292 134.46 65.3347M133.461 57.3244V57.3244C134.703 59.801 135.055 62.6292 134.46 65.3347V65.3347M136.627 71.6757C137.031 72.3636 137.336 73.1048 137.533 73.8777M136.627 71.6757V71.6757C137.031 72.3636 137.336 73.1048 137.533 73.8777V73.8777M137.533 73.8777L137.597 74.1286M137.597 74.1286C138.341 77.0457 137.401 80.1344 135.157 82.1422M137.597 74.1286V74.1286C138.341 77.0457 137.401 80.1344 135.157 82.1422V82.1422M135.157 82.1422C132.488 84.5313 128.564 84.8764 125.519 82.9899M135.157 82.1422V82.1422C132.488 84.5313 128.564 84.8764 125.519 82.9899V82.9899M125.519 82.9899L124.959 82.6429M124.959 82.6429C123.902 81.9884 122.511 82.4706 122.086 83.6386M124.959 82.6429V82.6429C123.902 81.9884 122.511 82.4706 122.086 83.6386V83.6386M122.086 83.6386L121.704 84.6893M121.704 84.6893C120.829 87.0948 119.269 89.1916 117.216 90.721M121.704 84.6893V84.6893C120.829 87.0948 119.269 89.1916 117.216 90.721V90.721" stroke="#FF96DD" stroke-width="1.81867" stroke-linecap="round"/>
<ellipse cx="113.244" cy="70.9197" rx="5.00134" ry="3.94045" transform="rotate(-42 113.244 70.9197)" fill="#FF00AE"/>
<path fill-rule="evenodd" clip-rule="evenodd" d="M91.4951 111.232C92.499 111.631 93.5986 111.724 94.6554 111.499C98.0729 110.773 101.122 108.859 103.262 106.097C103.941 105.22 104.52 104.269 104.986 103.263L106.033 101.005L109.846 98.9825C110.859 98.4448 111.759 97.7161 112.496 96.8366L112.668 96.6314C114.316 94.6638 114.967 92.0472 114.434 89.5366C114.03 87.6388 112.978 85.9409 111.459 84.7347L108.952 82.7451L108.409 80.1884C107.839 77.5096 106.323 75.1259 104.138 73.4745L103.102 72.6908C101.704 71.6344 99.9879 71.0868 98.2368 71.1387C95.5846 71.2172 93.1601 72.6573 91.8225 74.9488L90.8571 76.6027L85.4711 76.2599L84.0866 75.4517C81.5428 73.9667 78.5368 73.4833 75.6557 74.0957L75.4154 74.1468C72.9411 74.6727 70.7194 76.0251 69.1159 77.9814C67.9718 79.3772 67.184 81.0301 66.8202 82.7978L66.7736 83.0239C66.2152 85.7374 66.6067 88.5605 67.8826 91.0196L68.7905 92.7694L67.4302 97.7055C67.2182 98.4744 67.1156 99.2693 67.1252 100.067L67.1283 100.326C67.1646 103.336 68.8722 106.076 71.5586 107.435C74.7553 109.052 78.6351 108.37 81.0884 105.759L81.5395 105.279C82.3907 104.373 83.8594 104.479 84.5721 105.497L85.2132 106.413C86.6809 108.51 88.7305 110.132 91.109 111.078L91.4951 111.232Z" fill="#FF88C4"/>
<path d="M68.7905 92.7694L71.4852 95.6947C72.6259 96.933 73.9843 97.9514 75.4928 98.6992V98.6992C77.7301 99.8082 80.2271 100.287 82.7159 100.085L85.3885 99.8676M68.7905 92.7694L67.8826 91.0196M68.7905 92.7694L67.4302 97.7055M85.3885 99.8676L86.8308 99.1246C89.995 97.4946 92.534 94.8675 94.0554 91.6497V91.6497M85.3885 99.8676L90.7008 100.864M94.0554 91.6497L94.426 89.9395C94.7892 88.2638 94.1418 86.5218 92.7797 85.4804V85.4804C91.3762 84.4074 89.4562 84.2733 87.9235 85.1518L87.7409 85.2564C86.1963 86.1417 85.3999 87.9229 85.77 89.6644V89.6644C85.8737 90.1521 86.0655 90.6168 86.336 91.0357L88.4612 94.3264M94.0554 91.6497L88.4612 94.3264M88.4612 94.3264L85.0255 93.7547C83.2395 93.4575 81.5734 92.6632 80.2181 91.4628L79.4092 90.7464C78.3909 89.8446 77.6888 88.6399 77.4061 87.3095V87.3095C77.0746 85.75 77.3412 84.1229 78.1531 82.7508L78.954 81.3974C79.9553 79.7052 81.4163 78.332 83.1672 77.4372L85.4711 76.2599M85.4711 76.2599L90.8571 76.6027M85.4711 76.2599L84.0866 75.4517M90.8571 76.6027L93.7409 77.1009C96.7978 77.629 99.447 79.5222 100.937 82.2433V82.2433C102.105 84.3779 102.471 86.8605 101.966 89.2412L101.475 91.5603M90.8571 76.6027L91.8225 74.9488M101.475 91.5603V91.5603C100.157 94.974 97.5547 97.736 94.2257 99.2551L90.7008 100.864M101.475 91.5603V91.5603C105.271 90.7534 108.176 87.6882 108.778 83.8542L108.952 82.7451M90.7008 100.864L97.96 101.021L106.033 101.005M108.952 82.7451L111.459 84.7347M108.952 82.7451L108.409 80.1884M106.033 101.005L104.986 103.263M106.033 101.005L109.846 98.9825M94.6554 111.499V111.499C93.5986 111.724 92.499 111.631 91.4951 111.232L91.109 111.078M94.6554 111.499C98.0729 110.773 101.122 108.859 103.262 106.097M94.6554 111.499V111.499C98.0729 110.773 101.122 108.859 103.262 106.097V106.097M103.262 106.097C103.941 105.22 104.52 104.269 104.986 103.263M103.262 106.097V106.097C103.941 105.22 104.52 104.269 104.986 103.263V103.263M109.846 98.9825C110.859 98.4448 111.759 97.7161 112.496 96.8366M109.846 98.9825V98.9825C110.859 98.4448 111.759 97.7161 112.496 96.8366V96.8366M112.496 96.8366L112.668 96.6314M112.668 96.6314C114.316 94.6638 114.967 92.0472 114.434 89.5366M112.668 96.6314V96.6314C114.316 94.6638 114.967 92.0472 114.434 89.5366V89.5366M114.434 89.5366C114.03 87.6388 112.978 85.9409 111.459 84.7347M114.434 89.5366V89.5366C114.03 87.6388 112.978 85.9409 111.459 84.7347V84.7347M108.409 80.1884C107.839 77.5096 106.323 75.1259 104.138 73.4745M108.409 80.1884V80.1884C107.839 77.5096 106.323 75.1259 104.138 73.4745V73.4745M104.138 73.4745L103.102 72.6908M103.102 72.6908C101.704 71.6344 99.9879 71.0868 98.2368 71.1387M103.102 72.6908V72.6908C101.704 71.6344 99.9879 71.0868 98.2368 71.1387V71.1387M98.2368 71.1387C95.5846 71.2172 93.1601 72.6573 91.8225 74.9488M98.2368 71.1387V71.1387C95.5846 71.2172 93.1601 72.6573 91.8225 74.9488V74.9488M84.0866 75.4517C81.5428 73.9667 78.5368 73.4833 75.6557 74.0957M84.0866 75.4517V75.4517C81.5428 73.9667 78.5368 73.4833 75.6557 74.0957V74.0957M75.6557 74.0957L75.4154 74.1468M75.4154 74.1468C72.9411 74.6727 70.7194 76.0251 69.1159 77.9814M75.4154 74.1468V74.1468C72.9411 74.6727 70.7194 76.0251 69.1159 77.9814V77.9814M69.1159 77.9814C67.9718 79.3772 67.184 81.0301 66.8202 82.7978M69.1159 77.9814V77.9814C67.9718 79.3772 67.184 81.0301 66.8202 82.7978V82.7978M66.8202 82.7978L66.7736 83.0239M66.7736 83.0239C66.2152 85.7374 66.6067 88.5605 67.8826 91.0196M66.7736 83.0239V83.0239C66.2152 85.7374 66.6067 88.5605 67.8826 91.0196V91.0196M67.4302 97.7055C67.2183 98.4744 67.1156 99.2693 67.1252 100.067M67.4302 97.7055V97.7055C67.2182 98.4744 67.1156 99.2693 67.1252 100.067V100.067M67.1252 100.067L67.1283 100.326M67.1283 100.326C67.1646 103.336 68.8722 106.076 71.5586 107.435M67.1283 100.326V100.326C67.1646 103.336 68.8722 106.076 71.5586 107.435V107.435M71.5586 107.435C74.7553 109.052 78.6351 108.37 81.0884 105.759M71.5586 107.435V107.435C74.7553 109.052 78.6351 108.37 81.0884 105.759V105.759M81.0884 105.759L81.5395 105.279M81.5395 105.279C82.3907 104.373 83.8594 104.479 84.5721 105.497M81.5395 105.279V105.279C82.3907 104.373 83.8593 104.479 84.5721 105.497V105.497M84.5721 105.497L85.2132 106.413M85.2132 106.413C86.6809 108.51 88.7305 110.132 91.109 111.078M85.2132 106.413V106.413C86.6809 108.51 88.7305 110.132 91.109 111.078V111.078" stroke="#FF88C4" stroke-width="1.81867" stroke-linecap="round"/>
<ellipse cx="5.00134" cy="3.94045" rx="5.00134" ry="3.94045" transform="matrix(-0.891007 -0.453991 -0.453991 0.891007 96.0664 89.6875)" fill="#FF00AE"/>
<path fill-rule="evenodd" clip-rule="evenodd" d="M122.434 78.9307C121.477 78.9741 120.549 79.3167 119.77 79.9146C117.248 81.8489 115.453 84.6588 114.705 87.8454C114.467 88.857 114.338 89.8931 114.32 90.9339L114.281 93.2689L111.903 96.465C111.271 97.3146 110.801 98.2841 110.517 99.3201L110.451 99.5617C109.817 101.879 110.228 104.37 111.566 106.315C112.577 107.785 114.045 108.835 115.716 109.284L118.473 110.025L119.835 112.005C121.263 114.08 123.355 115.539 125.728 116.114L126.855 116.387C128.373 116.755 129.967 116.565 131.375 115.848C133.506 114.763 134.962 112.599 135.227 110.123L135.418 108.336L139.928 106.561L141.346 106.722C143.952 107.016 146.573 106.276 148.699 104.645L148.876 104.509C150.702 103.109 152.025 101.098 152.627 98.807C153.056 97.1726 153.103 95.4548 152.763 93.8016L152.72 93.5901C152.198 91.0522 150.864 88.7854 148.94 87.1697L147.571 86.0201L146.903 81.2713C146.799 80.5315 146.596 79.8115 146.301 79.1323L146.206 78.9117C145.093 76.3482 142.717 74.6576 140.04 74.5258C136.855 74.3689 133.941 76.4429 132.883 79.6201L132.688 80.2044C132.321 81.3068 131.087 81.7802 130.14 81.182L129.289 80.6439C127.339 79.4119 125.086 78.8104 122.809 78.9137L122.434 78.9307Z" fill="#FF88C4"/>
<path d="M147.571 86.0201L144.305 84.5413C142.943 83.9248 141.481 83.5776 139.992 83.5169V83.5169C137.764 83.4262 135.544 83.9796 133.576 85.117L131.501 86.3158M147.571 86.0201L148.94 87.1697M147.571 86.0201L146.903 81.2713M131.501 86.3158L130.613 87.4807C128.611 90.1071 127.481 93.3416 127.4 96.6803V96.6803M131.501 86.3158L126.817 87.5028M127.4 96.6803L127.72 98.3203C128.024 99.8768 129.173 101.104 130.644 101.469V101.469C132.173 101.849 133.805 101.222 134.741 99.8747L134.824 99.7556C135.775 98.3882 135.789 96.5472 134.859 95.1955V95.1955C134.601 94.8198 134.279 94.4972 133.909 94.2434L130.992 92.2402M127.4 96.6803L130.992 92.2402M130.992 92.2402L133.967 91.4184C135.547 90.9819 137.205 91.0212 138.75 91.5317L139.646 91.8277C140.804 92.2104 141.81 92.9721 142.519 94.0027V94.0027C143.351 95.2118 143.718 96.7105 143.55 98.2059L143.389 99.6387C143.18 101.486 142.476 103.24 141.358 104.697L139.928 106.561M139.928 106.561L135.418 108.336M139.928 106.561L141.346 106.722M135.418 108.336L132.945 109.002C130.231 109.733 127.368 109.13 125.166 107.365V107.365C123.455 105.993 122.272 104.02 121.828 101.796L121.39 99.6058M135.418 108.336L135.227 110.123M121.39 99.6058V99.6058C121.235 96.1778 122.37 92.8015 124.549 90.2045L126.817 87.5028M121.39 99.6058V99.6058C118.591 101.753 117.322 105.475 118.202 108.953L118.473 110.025M126.817 87.5028L120.849 90.1557L114.281 93.2689M118.473 110.025L115.716 109.284M118.473 110.025L119.835 112.005M114.281 93.2689L114.32 90.9339M114.281 93.2689L111.903 96.465M119.77 79.9146V79.9146C120.549 79.3167 121.477 78.9741 122.434 78.9307L122.809 78.9137M119.77 79.9146C117.248 81.8489 115.453 84.6588 114.705 87.8454M119.77 79.9146V79.9146C117.249 81.8479 115.45 84.6751 114.705 87.8454V87.8454M114.705 87.8454C114.467 88.857 114.338 89.8931 114.32 90.9339M114.705 87.8454V87.8454C114.467 88.8571 114.338 89.8956 114.32 90.9339V90.9339M111.903 96.465C111.271 97.3146 110.801 98.2841 110.517 99.3201M111.903 96.465V96.465C111.271 97.3145 110.8 98.2877 110.517 99.3201V99.3201M110.517 99.3201L110.451 99.5617M110.451 99.5617C109.817 101.879 110.228 104.37 111.566 106.315M110.451 99.5617V99.5617C109.816 101.881 110.236 104.382 111.566 106.315V106.315M111.566 106.315C112.577 107.785 114.045 108.835 115.716 109.284M111.566 106.315V106.315C112.573 107.779 114.044 108.834 115.716 109.284V109.284M119.835 112.005C121.263 114.08 123.355 115.539 125.728 116.114M119.835 112.005V112.005C121.257 114.072 123.354 115.539 125.728 116.114V116.114M125.728 116.114L126.855 116.387M126.855 116.387C128.373 116.755 129.967 116.565 131.375 115.848M126.855 116.387V116.387C128.363 116.753 129.968 116.565 131.375 115.848V115.848M131.375 115.848C133.506 114.763 134.962 112.599 135.227 110.123M131.375 115.848V115.848C133.504 114.764 134.964 112.582 135.227 110.123V110.123M141.346 106.722C143.952 107.016 146.573 106.276 148.699 104.645M141.346 106.722V106.722C143.937 107.015 146.574 106.275 148.699 104.645V104.645M148.699 104.645L148.876 104.509M148.876 104.509C150.702 103.109 152.025 101.098 152.627 98.807M148.876 104.509V104.509C150.701 103.11 152.028 101.087 152.627 98.807V98.807M152.627 98.807C153.056 97.1726 153.103 95.4548 152.763 93.8016M152.627 98.807V98.807C153.056 97.1724 153.101 95.4469 152.763 93.8016V93.8016M152.763 93.8016L152.72 93.5901M152.72 93.5901C152.198 91.0522 150.864 88.7854 148.94 87.1697M152.72 93.5901V93.5901C152.198 91.0507 150.863 88.7848 148.94 87.1697V87.1697M146.903 81.2713C146.799 80.5315 146.596 79.8115 146.301 79.1323M146.903 81.2713V81.2713C146.799 80.5315 146.596 79.8102 146.301 79.1323V79.1323M146.301 79.1323L146.206 78.9117M146.206 78.9117C145.093 76.3482 142.717 74.6576 140.04 74.5258M146.206 78.9117V78.9117C145.099 76.361 142.72 74.6578 140.04 74.5258V74.5258M140.04 74.5258C136.855 74.3689 133.941 76.4429 132.883 79.6201M140.04 74.5258V74.5258C136.865 74.3693 133.939 76.4499 132.883 79.6201V79.6201M132.883 79.6201L132.688 80.2044M132.688 80.2044C132.321 81.3068 131.087 81.7802 130.14 81.182M132.688 80.2044V80.2044C132.322 81.303 131.078 81.7747 130.14 81.182V81.182M130.14 81.182L129.289 80.6439M129.289 80.6439C127.339 79.4119 125.086 78.8104 122.809 78.9137M129.289 80.6439V80.6439C127.35 79.419 125.087 78.8104 122.809 78.9137V78.9137" stroke="#FF88C4" stroke-width="1.40531" stroke-linecap="round"/>
<ellipse cx="4.45185" cy="3.69821" rx="4.45185" ry="3.69821" transform="matrix(0.99863 0.052336 0.052336 -0.99863 126.473 99.1328)" fill="#FF00AE"/>
</svg>
