<svg width="1920" height="1199" viewBox="0 0 1920 1199" fill="none" xmlns="http://www.w3.org/2000/svg">
<g clip-path="url(#clip0_1225_2334)">
<path d="M233.56 883.864C218.654 795.89 192.041 710.306 154.428 629.392L153.094 626.521H114.12V626.521C88.2416 626.521 62.4661 623.256 37.4043 616.805L28.0167 614.389C-3.27858 606.333 -35.4651 602.256 -67.7806 602.256H-77.1204V804.459V966.222V1054.25C-77.1204 1066.29 -79.6967 1078.2 -84.6763 1089.16L-103.663 1130.97C-111.189 1147.54 -104.689 1167.11 -88.7446 1175.89V1175.89C-81.2575 1180.01 -72.5166 1181.24 -64.1848 1179.33L-17.5088 1168.67C6.47797 1163.19 31.4037 1163.29 55.343 1168.98L111.401 1182.29L185.538 1191.74C201.978 1193.84 218.605 1189.68 232.13 1180.11V1180.11C249.638 1167.71 260.044 1147.59 260.044 1126.13V1056.98C260.044 1045.79 259.104 1034.63 257.235 1023.6L233.56 883.864Z" fill="#FF88C4"/>
<path d="M207.862 602.256C213.655 602.256 218.351 597.56 218.351 591.767L218.351 580.303L165.783 571.059L75.1472 545.64L-19.1137 515.598L-77.1204 505.199V521.375L-6.42474 566.438L40.7057 594.168L114.12 626.521H153.094L167.507 627.286C171.648 627.506 175.261 624.501 175.799 620.389L176.092 618.15C176.42 615.638 174.903 613.251 172.489 612.482V612.482C166.792 610.666 168.099 602.256 174.08 602.256H207.862Z" fill="#FF88C4"/>
<path d="M-77.1204 602.256H-67.7806C-35.4651 602.256 -3.27858 606.333 28.0167 614.389L37.4043 616.805C62.4661 623.256 88.2416 626.521 114.12 626.521V626.521L40.7057 594.168L-6.42474 566.438L-77.1204 521.375V602.256Z" fill="#FF88C4"/>
<path d="M403.248 189.058C403.248 100.108 331.14 28 242.19 28H163.064C30.4136 28 -77.1204 135.534 -77.1204 268.184V505.199L-19.1137 515.598L75.1472 545.64L165.783 571.059L218.351 580.303V580.303C246.054 560.341 271.373 537.263 293.808 511.522L342.349 455.829C359.896 435.696 374.461 413.148 385.598 388.875L394.181 370.168C414.169 326.602 419.255 277.667 408.652 230.922L407.237 224.684C404.586 212.994 403.248 201.044 403.248 189.058V189.058Z" fill="#FF88C4"/>
<path d="M218.351 580.303V580.303C246.054 560.341 271.373 537.263 293.808 511.522L342.349 455.829C359.896 435.696 374.461 413.148 385.598 388.875L394.181 370.168C414.169 326.602 419.255 277.667 408.652 230.922L407.237 224.684C404.586 212.994 403.248 201.044 403.248 189.058V189.058C403.248 100.108 331.14 28 242.19 28H163.064C30.4136 28 -77.1204 135.534 -77.1204 268.184V505.199M218.351 580.303L218.351 591.767C218.351 597.56 213.655 602.256 207.862 602.256H174.08C168.099 602.256 166.792 610.666 172.489 612.482V612.482C174.903 613.251 176.42 615.638 176.092 618.15L175.799 620.389C175.261 624.501 171.648 627.506 167.507 627.286L153.094 626.521M218.351 580.303L165.783 571.059L75.1472 545.64L-19.1137 515.598L-77.1204 505.199M153.094 626.521L154.428 629.392C192.041 710.306 218.654 795.89 233.56 883.864L257.235 1023.6C259.104 1034.63 260.044 1045.79 260.044 1056.98V1126.13C260.044 1147.59 249.638 1167.71 232.13 1180.11V1180.11C218.605 1189.68 201.978 1193.84 185.538 1191.74L111.401 1182.29L55.343 1168.98C31.4037 1163.29 6.47797 1163.19 -17.5088 1168.67L-64.1848 1179.33C-72.5166 1181.24 -81.2575 1180.01 -88.7446 1175.89V1175.89C-104.689 1167.11 -111.189 1147.54 -103.663 1130.97L-84.6763 1089.16C-79.6967 1078.2 -77.1204 1066.29 -77.1204 1054.25V966.222V804.459V602.256M153.094 626.521H114.12M-77.1204 602.256H-67.7806C-35.4651 602.256 -3.27858 606.333 28.0167 614.389L37.4043 616.805C62.4661 623.256 88.2416 626.521 114.12 626.521V626.521M-77.1204 602.256V521.375M133.154 532.93V532.93C184.877 482.326 229.459 424.908 265.669 362.259L287.234 324.949M133.154 425.473L133.811 423.342C146.637 381.721 163.413 341.423 183.91 302.996V302.996L211.1 256.778M53.3947 469.38V469.38C67.8647 446.322 80.1497 421.962 90.0895 396.619L96.8997 379.255M66.0836 309.929V309.929C72.1027 286.141 75.1472 261.699 75.1472 237.162V235.98M86.0234 664.651L124.09 770.952L153.094 906.139L183.91 1040.17M-6.42474 804.459V922.315L-1.75122 983.682C1.16737 1022 8.10699 1059.92 18.9532 1096.79V1096.79M40.7057 804.459L45.3993 820.7C59.1669 868.34 69.1144 917.001 75.1472 966.222V966.222V1058.66M-77.1204 505.199V521.375M114.12 626.521L40.7057 594.168L-6.42474 566.438L-77.1204 521.375" stroke="#FF6CB5" stroke-width="2.31089"/>
<path d="M1717.62 878.663C1730.32 796.745 1753.16 716.724 1785.61 640.442L1789.83 630.521H1825.49V630.521C1849.16 630.521 1872.71 627.271 1895.49 620.863L1904.29 618.389C1932.91 610.339 1962.5 606.256 1992.23 606.256H2000.51V808.459V970.222V1058.65C2000.51 1070.45 2002.84 1082.13 2007.36 1093.02L2025.96 1137.78C2032.31 1153.04 2026.52 1170.64 2012.36 1179.16V1179.16C2004.77 1183.73 1995.68 1185.08 1987.09 1182.94L1946.03 1172.69C1924.08 1167.21 1901.11 1167.31 1879.22 1172.99L1827.98 1186.29L1762.65 1195.39C1746.09 1197.7 1729.29 1193.23 1716.06 1182.99V1182.99C1700.86 1171.22 1691.96 1153.08 1691.96 1133.86V1060.48C1691.96 1049.62 1692.79 1038.78 1694.46 1028.05L1717.62 878.663Z" fill="#FF88C4"/>
<path d="M1740.43 606.256C1734.73 606.256 1730.11 601.636 1730.11 595.936L1730.11 584.303L1778.22 575.059L1861.16 549.64L1896.34 537.389C1930.35 525.543 1965.16 516.123 2000.51 509.199V509.199V525.375L1935.81 570.438L1892.68 598.168L1825.49 630.521H1789.83L1777.44 631.24C1773.22 631.485 1769.53 628.402 1769.03 624.202L1768.76 621.988C1768.47 619.549 1769.92 617.235 1772.24 616.427V616.427C1777.8 614.489 1776.41 606.256 1770.52 606.256H1740.43Z" fill="#FF88C4"/>
<path d="M2000.51 606.256H1992.23C1962.5 606.256 1932.91 610.339 1904.29 618.389L1895.49 620.863C1872.71 627.271 1849.16 630.521 1825.49 630.521V630.521L1892.68 598.168L1935.81 570.438L2000.51 525.375V606.256Z" fill="#FF88C4"/>
<path d="M1560.91 194.416C1560.91 104.716 1633.62 32 1723.32 32H1780.71C1902.1 32 2000.51 130.407 2000.51 251.799V509.199V509.199C1965.16 516.123 1930.35 525.543 1896.34 537.389L1861.16 549.64L1778.22 575.059L1730.11 584.303V584.303C1704.76 564.342 1681.8 541.522 1661.68 516.297L1618.01 461.546C1601.03 440.266 1587.08 416.744 1576.54 391.647L1569.5 374.862C1550.94 330.659 1546.22 281.867 1555.96 234.927L1557.52 227.424C1559.77 216.566 1560.91 205.505 1560.91 194.416V194.416Z" fill="#FF88C4"/>
<path d="M1730.11 584.303V584.303C1704.76 564.342 1681.8 541.522 1661.68 516.297L1618.01 461.546C1601.03 440.266 1587.08 416.744 1576.54 391.647L1569.5 374.862C1550.94 330.659 1546.22 281.867 1555.96 234.927L1557.52 227.424C1559.77 216.566 1560.91 205.505 1560.91 194.416V194.416C1560.91 104.716 1633.62 32 1723.32 32H1780.71C1902.1 32 2000.51 130.407 2000.51 251.799V509.199M1730.11 584.303L1730.11 595.936C1730.11 601.636 1734.73 606.256 1740.43 606.256H1770.52C1776.41 606.256 1777.8 614.489 1772.24 616.427V616.427C1769.92 617.235 1768.47 619.549 1768.76 621.988L1769.03 624.202C1769.53 628.402 1773.22 631.485 1777.44 631.24L1789.83 630.521M1730.11 584.303L1778.22 575.059L1861.16 549.64L1896.34 537.389C1930.35 525.543 1965.16 516.123 2000.51 509.199V509.199M1789.83 630.521L1785.61 640.442C1753.16 716.724 1730.32 796.745 1717.62 878.663L1694.46 1028.05C1692.79 1038.78 1691.96 1049.62 1691.96 1060.48V1133.86C1691.96 1153.08 1700.86 1171.22 1716.06 1182.99V1182.99C1729.29 1193.23 1746.09 1197.7 1762.65 1195.39L1827.98 1186.29L1879.22 1172.99C1901.11 1167.31 1924.08 1167.21 1946.03 1172.69L1987.09 1182.94C1995.68 1185.08 2004.77 1183.73 2012.36 1179.16V1179.16C2026.52 1170.64 2032.31 1153.04 2025.96 1137.78L2007.36 1093.02C2002.84 1082.13 2000.51 1070.45 2000.51 1058.65V970.222V808.459V606.256M1789.83 630.521H1825.49M2000.51 606.256H1992.23C1962.5 606.256 1932.91 610.339 1904.29 618.389L1895.49 620.863C1872.71 627.271 1849.16 630.521 1825.49 630.521V630.521M2000.51 606.256V525.375M1808.08 536.93V536.93C1760.73 486.315 1720.33 429.631 1687.92 368.367L1667.07 328.949M1808.08 429.473L1807.28 426.643C1795.67 385.476 1780.39 345.433 1761.63 306.996V306.996L1736.75 260.778M1881.07 473.38V473.38C1867.82 450.316 1856.64 426.127 1847.66 401.094L1841.25 383.255M1869.45 313.929V313.929C1863.94 290.127 1861.16 265.775 1861.16 241.343V239.98M1851.21 668.651L1816.37 774.952L1789.83 910.139L1761.63 1044.17M1935.81 808.459V926.315L1931.51 988.029C1928.85 1026.14 1922.52 1063.9 1912.59 1100.79V1100.79M1892.68 808.459L1888.26 825.159C1875.74 872.505 1866.71 920.706 1861.26 969.374L1861.16 970.222V1062.66M2000.51 509.199V525.375M1825.49 630.521L1892.68 598.168L1935.81 570.438L2000.51 525.375" stroke="#FF6CB5" stroke-width="2.31089"/>
<path d="M-24 23.3973L19.7082 16.7895C45.8109 12.8433 72.3506 12.7381 98.4839 16.4773L101.381 16.8919C131.45 21.194 162.045 20.0764 191.719 13.5919L204.671 10.7616C234.678 4.20455 265.798 4.71317 295.574 12.2473V12.2473C324.575 19.5853 354.861 20.2613 384.161 14.2246L398.194 11.3331C431.969 4.37442 466.788 4.18801 500.635 10.7847L508.923 12.4002C546.207 19.6667 584.525 19.8515 621.877 12.945L638.37 9.89529C670.887 3.88281 704.575 4.28722 736.962 10.9602V10.9602C776.38 19.0818 817.551 17.7705 856.324 6.98329V6.98329C891.801 -2.88676 929.003 -4.90088 965.338 1.08133L982.553 3.91551C1010.46 8.50945 1038.85 9.28997 1066.97 6.23566L1074.81 5.38394C1102.81 2.34185 1131.11 3.81241 1158.65 9.73952L1166.49 11.4279C1203.01 19.2898 1240.9 18.1658 1276.89 8.15231V8.15231C1314.96 -2.43827 1355.11 -3.07585 1393.49 6.30066L1409.21 10.141C1444.76 18.8239 1481.96 17.9515 1517.06 7.61233V7.61233C1551.79 -2.6176 1588.59 -3.58159 1623.81 4.81613L1642.87 9.3628C1681.66 18.6132 1721.98 19.5026 1761.14 11.9719L1762.79 11.6548C1800.08 4.48284 1838.43 4.73613 1875.62 12.4001L1929 23.3973V337.37L1892.86 326.946C1865.54 319.065 1836.34 320.813 1810.15 331.898L1802.52 335.131C1779.97 344.675 1754.74 345.771 1731.44 338.218V338.218C1712.08 331.937 1691.27 331.609 1671.72 337.276L1662.59 339.92C1639.98 346.475 1616.02 346.894 1593.19 341.134L1581.03 338.066C1556.24 331.814 1530.4 330.943 1505.25 335.51L1480.71 339.968C1444.46 346.55 1407.31 346.267 1371.17 339.133L1359.03 336.737C1331.68 331.337 1303.61 330.596 1276.01 334.545V334.545C1245.56 338.902 1214.56 337.546 1184.6 330.545L1176.1 328.557C1137.43 319.519 1097.06 320.752 1059.01 332.134V332.134C1020.06 343.785 978.706 344.797 939.235 335.066L920.276 330.392C878.508 320.095 835.011 318.921 792.749 326.95L755.579 334.012C722.181 340.357 687.787 339.158 654.912 330.503V330.503C615.763 320.196 574.576 320.492 535.579 331.361L494.047 342.935C441.962 357.451 387.24 359.817 334.097 349.852L320.798 347.358C285.613 340.76 249.494 340.905 214.363 347.786L172.937 355.899C142.701 361.821 111.373 358.253 83.2436 345.683V345.683C58.2086 334.496 30.5784 330.413 3.3778 333.88L-24 337.37V23.3973Z" fill="#FF88C4"/>
<rect x="945" y="786" width="30" height="413" fill="#FF88C4"/>
<rect x="744.473" y="1188.1" width="432.265" height="10.8974" fill="#FF88C4"/>
<rect x="671" y="735" width="578.775" height="61.7521" rx="12.1083" fill="#FF88C4"/>
</g>
<defs>
<clipPath id="clip0_1225_2334">
<rect width="1920" height="1199" fill="white"/>
</clipPath>
</defs>
</svg>
